<?xml version="1.0" encoding="UTF-8" standalone="no"?>
<svg
   xmlns:dc="http://purl.org/dc/elements/1.1/"
   xmlns:cc="http://creativecommons.org/ns#"
   xmlns:rdf="http://www.w3.org/1999/02/22-rdf-syntax-ns#"
   xmlns:svg="http://www.w3.org/2000/svg"
   xmlns="http://www.w3.org/2000/svg"
   xmlns:sodipodi="http://sodipodi.sourceforge.net/DTD/sodipodi-0.dtd"
   xmlns:inkscape="http://www.inkscape.org/namespaces/inkscape"
   id="resistor"
   height="320"
   width="640"
   version="1.1"
   inkscape:version="0.91 r13725"
   sodipodi:docname="graph2.svg">
  <sodipodi:namedview
     pagecolor="#ffffff"
     bordercolor="#666666"
     borderopacity="1"
     objecttolerance="10"
     gridtolerance="10"
     guidetolerance="10"
     inkscape:pageopacity="0"
     inkscape:pageshadow="2"
     inkscape:window-width="1366"
     inkscape:window-height="719"
     id="namedview6"
     showgrid="true"
     inkscape:zoom="0.70711"
     inkscape:cx="454.56"
     inkscape:cy="160.63"
     inkscape:window-x="0"
     inkscape:window-y="0"
     inkscape:window-maximized="1"
     inkscape:current-layer="resistor"
     inkscape:object-nodes="true"
     inkscape:snap-text-baseline="true">
    <inkscape:grid
       spacingy="1"
       spacingx="1"
       units="px"
       id="grid4138"
       type="xygrid" />
  </sodipodi:namedview>
  <metadata
     id="metadata10">
    <rdf:RDF>
      <cc:Work
         rdf:about="">
        <dc:format>image/svg+xml</dc:format>
        <dc:type
           rdf:resource="http://purl.org/dc/dcmitype/StillImage" />
        <dc:title></dc:title>
      </cc:Work>
    </rdf:RDF>
  </metadata>
  <defs
     id="defs8" />
  <path
     sodipodi:nodetypes="cc"
     inkscape:connector-curvature="0"
     id="path4820-3-0-54-2-03-8-5-6-1-6-2-7-3-0-1-9-6-4"
     d="m 100,270 450,0"
     style="fill:none;stroke:#808080;stroke-width:2;stroke-linecap:square;stroke-linejoin:miter;stroke-miterlimit:8;stroke-dasharray:none;stroke-dashoffset:0;stroke-opacity:1;marker-start:none;marker-mid:none;marker-end:none" />
  <path
     sodipodi:nodetypes="cc"
     inkscape:connector-curvature="0"
     id="path4820-3-0-54-8-6-7-8-4-4-741-3-5-2-8-5-30-4-5-56-4-8-5"
     d="m 200,280 0,-20"
     style="fill:none;stroke:#808080;stroke-width:2;stroke-linecap:butt;stroke-linejoin:miter;stroke-miterlimit:8;stroke-dasharray:none;stroke-opacity:1;marker-start:none;marker-mid:none;marker-end:none" />
  <path
     inkscape:connector-curvature="0"
     id="path17003-5-1-3-1-09-0-1-6-1-5-5-2-2-5-1-2-7-9-4-5-4-8-4-4-1-5-6-6-4-2-5-8-5"
     d="m 535,275 20,-5 -20,-5 z"
     style="fill:#808080;fill-opacity:1;stroke:none;stroke-width:1;stroke-miterlimit:8;stroke-dasharray:none"
     sodipodi:nodetypes="cccc" />
  <path
     sodipodi:nodetypes="cc"
     inkscape:connector-curvature="0"
     id="path4820-3-0-54-2-03-8-5-6-1-6-2-7-3-0-1-9-6-4-8"
     d="M 100,270 100,20"
     style="fill:none;stroke:#808080;stroke-width:2;stroke-linecap:square;stroke-linejoin:miter;stroke-miterlimit:8;stroke-dasharray:none;stroke-dashoffset:0;stroke-opacity:1;marker-start:none;marker-mid:none;marker-end:none" />
  <path
     sodipodi:nodetypes="cc"
     inkscape:connector-curvature="0"
     id="path4820-3-0-54-8-6-7-8-4-4-741-3-5-2-8-5-30-4-5-56-4-8-5-9"
     d="m 110,144 -20,0"
     style="fill:none;stroke:#808080;stroke-width:2;stroke-linecap:butt;stroke-linejoin:miter;stroke-miterlimit:8;stroke-dasharray:none;stroke-opacity:1;marker-start:none;marker-mid:none;marker-end:none" />
  <path
     sodipodi:nodetypes="cc"
     inkscape:connector-curvature="0"
     id="path4820-3-0-54-8-6-7-8-4-4-741-3-5-2-8-5-30-4-5-56-4-8-5-9-3"
     d="M 110,70 90,70"
     style="fill:none;stroke:#808080;stroke-width:2;stroke-linecap:butt;stroke-linejoin:miter;stroke-miterlimit:8;stroke-dasharray:none;stroke-opacity:1;marker-start:none;marker-mid:none;marker-end:none" />
  <path
     sodipodi:nodetypes="cc"
     inkscape:connector-curvature="0"
     id="path4820-3-0-54-8-6-7-8-4-4-741-3-5-2-8-5-30-4-5-56-4-8-5-2"
     d="m 300,280 0,-20"
     style="fill:none;stroke:#808080;stroke-width:2;stroke-linecap:butt;stroke-linejoin:miter;stroke-miterlimit:8;stroke-dasharray:none;stroke-opacity:1;marker-start:none;marker-mid:none;marker-end:none" />
  <path
     sodipodi:nodetypes="cc"
     inkscape:connector-curvature="0"
     id="path4820-3-0-54-8-6-7-8-4-4-741-3-5-2-8-5-30-4-5-56-4-8-5-1"
     d="m 400,280 0,-20"
     style="fill:none;stroke:#808080;stroke-width:2;stroke-linecap:butt;stroke-linejoin:miter;stroke-miterlimit:8;stroke-dasharray:none;stroke-opacity:1;marker-start:none;marker-mid:none;marker-end:none" />
  <path
     sodipodi:nodetypes="cc"
     inkscape:connector-curvature="0"
     id="path4820-3-0-54-8-6-7-8-4-4-741-3-5-2-8-5-30-4-5-56-4-8-5-20"
     d="m 500,280 0,-20"
     style="fill:none;stroke:#808080;stroke-width:2;stroke-linecap:butt;stroke-linejoin:miter;stroke-miterlimit:8;stroke-dasharray:none;stroke-opacity:1;marker-start:none;marker-mid:none;marker-end:none" />
  <path
     sodipodi:nodetypes="cc"
     inkscape:connector-curvature="0"
     id="path4820-3-0-54-8-6-7-8-4-4-741-3-5-2-8-5-30-4-5-56-4-8-5-9-0"
     d="m 110,270 -20,0"
     style="fill:none;stroke:#808080;stroke-width:2;stroke-linecap:butt;stroke-linejoin:miter;stroke-miterlimit:8;stroke-dasharray:none;stroke-opacity:1;marker-start:none;marker-mid:none;marker-end:none" />
  <path
     sodipodi:nodetypes="cc"
     inkscape:connector-curvature="0"
     id="path4820-3-0-54-8-6-7-8-4-4-741-3-5-2-8-5-30-4-5-56-4-8-5-8"
     d="m 100,280 0,-20"
     style="fill:none;stroke:#808080;stroke-width:2;stroke-linecap:butt;stroke-linejoin:miter;stroke-miterlimit:8;stroke-dasharray:none;stroke-opacity:1;marker-start:none;marker-mid:none;marker-end:none" />
  <path
     inkscape:connector-curvature="0"
     id="path17003-5-1-3-1-09-0-1-6-1-5-5-2-2-5-1-2-7-9-4-5-4-8-4-4-1-5-6-6-4-2-5-8-5-6"
     d="M 105,30 100,10 95,30 Z"
     style="fill:#808080;fill-opacity:1;stroke:none;stroke-width:1;stroke-miterlimit:8;stroke-dasharray:none"
     sodipodi:nodetypes="cccc" />
  <text
     id="text46"
     space="preserve"
     style="font-size:30px"
     x="510"
     y="250">t [ms]</text>
  <text
     id="Vmax"
     space="preserve"
     style="font-size:30px;text-align:end;text-anchor:end"
     x="80"
     y="80"
     inkscape:label="#text46-2-3">5.00</text>
  <text
     id="Vtau"
     space="preserve"
     style="font-size:30px;text-align:end;text-anchor:end"
     x="80"
     y="154"
     inkscape:label="#text46-2-3-5">3.16</text>
  <text
     id="text46-2-3-5-5"
     space="preserve"
     style="font-size:30px;text-align:end;text-anchor:end"
     x="50"
     y="280">0</text>
  <text
     id="text46-3"
     space="preserve"
     style="font-size:30px"
     x="120"
     y="40">Vout [V]</text>
  <text
     id="text46-2-3-5-5-4"
     space="preserve"
     style="font-size:30px;text-align:center;text-anchor:middle"
     x="100"
     y="310">0</text>
  <text
     id="1tau"
     space="preserve"
     style="font-size:30px;text-align:center;text-anchor:middle"
     x="200"
     y="310"
     inkscape:label="#text46-2-3-5-5-4-5">1.0</text>
  <text
     id="2tau"
     space="preserve"
     style="font-size:30px;text-align:center;text-anchor:middle"
     x="300"
     y="310"
     inkscape:label="#text46-2-3-5-5-4-7">2.0</text>
  <text
     id="3tau"
     space="preserve"
     style="font-size:30px;text-align:center;text-anchor:middle"
     x="400"
     y="310"
     inkscape:label="#text46-2-3-5-5-4-56">3.0</text>
  <text
     id="4tau"
     space="preserve"
     style="font-size:30px;text-align:center;text-anchor:middle"
     x="500"
     y="310"
     inkscape:label="#text46-2-3-5-5-4-6">4.0</text>
  <path
     style="fill:none;fill-rule:evenodd;stroke:#000000;stroke-width:3;stroke-linecap:round;stroke-linejoin:miter;stroke-miterlimit:4;stroke-dasharray:none;stroke-opacity:1"
     d="m 60,270 40,0"
     id="path4213"
     inkscape:connector-curvature="0" />
  <path
     sodipodi:nodetypes="cc"
     inkscape:connector-curvature="0"
     id="path4820-3-0-54-2-03-8-5-6-1-6-2-7-3-0-1-9-6-4-0"
     d="M 200,270 200,70"
     style="fill:none;stroke:#808080;stroke-width:2;stroke-linecap:square;stroke-linejoin:miter;stroke-miterlimit:8;stroke-dasharray:6, 6;stroke-dashoffset:0;stroke-opacity:1;marker-start:none;marker-mid:none;marker-end:none" />
  <path
     sodipodi:nodetypes="cc"
     inkscape:connector-curvature="0"
     id="path4820-3-0-54-2-03-8-5-6-1-6-2-7-3-0-1-9-6-4-0-6"
     d="m 200,144 -100,0"
     style="fill:none;stroke:#808080;stroke-width:2;stroke-linecap:square;stroke-linejoin:miter;stroke-miterlimit:8;stroke-dasharray:6, 6;stroke-dashoffset:0;stroke-opacity:1;marker-start:none;marker-mid:none;marker-end:none" />
  <path
     sodipodi:nodetypes="cc"
     inkscape:connector-curvature="0"
     id="path4820-3-0-54-2-03-8-5-6-1-6-2-7-3-0-1-9-6-4-0-6-7"
     d="M 200,70 100,270"
     style="fill:none;stroke:#808080;stroke-width:2;stroke-linecap:square;stroke-linejoin:miter;stroke-miterlimit:8;stroke-dasharray:6, 6;stroke-dashoffset:0;stroke-opacity:1;marker-start:none;marker-mid:none;marker-end:none" />
  <path
     id="path4185"
     title="1-exp(-x)"
     d="m 100,270 c 3.42,-6.84 6.84,-13.32 10.26,-19.5 3.42,-6.17 6.83,-12.02 10.25,-17.59 3.42,-5.57 6.84,-10.85 10.26,-15.88 3.42,-5.03 6.84,-9.8 10.26,-14.33 3.41,-4.54 6.83,-8.84 10.25,-12.94 3.42,-4.09 6.84,-7.98 10.26,-11.67 3.42,-3.7 6.84,-7.2 10.25,-10.54 3.42,-3.33 6.84,-6.5 10.26,-9.51 3.42,-3.01 6.84,-5.86 10.26,-8.58 3.42,-2.72 6.84,-5.29 10.25,-7.75 3.42,-2.45 6.84,-4.77 10.26,-6.99 3.42,-2.21 6.84,-4.31 10.26,-6.31 3.42,-1.99 6.83,-3.89 10.25,-5.69 3.42,-1.8 6.84,-3.51 10.26,-5.14 3.42,-1.63 6.84,-3.17 10.26,-4.64 3.41,-1.47 6.83,-2.86 10.25,-4.18 3.42,-1.33 6.84,-2.59 10.26,-3.78 3.42,-1.2 6.84,-2.33 10.26,-3.41 3.41,-1.08 6.83,-2.1 10.25,-3.08 3.42,-0.97 6.84,-1.9 10.26,-2.78 3.42,-0.88 6.84,-1.71 10.25,-2.5 3.42,-0.8 6.84,-1.55 10.26,-2.26 3.42,-0.72 6.84,-1.4 10.26,-2.05 3.42,-0.64 6.84,-1.26 10.25,-1.84 3.42,-0.58 6.84,-1.14 10.26,-1.66 3.42,-0.53 6.84,-1.03 10.26,-1.5 3.42,-0.48 6.83,-0.93 10.25,-1.36 3.42,-0.43 6.84,-0.83 10.26,-1.22 3.42,-0.39 6.84,-0.75 10.26,-1.1 3.41,-0.35 6.83,-0.68 10.25,-1 3.42,-0.32 6.84,-0.61 10.26,-0.9 3.42,-0.28 6.84,-0.55 10.26,-0.81 3.41,-0.26 6.83,-0.5 10.25,-0.73 3.42,-0.23 6.84,-0.45 10.26,-0.66 3.42,-0.21 6.84,-0.41 10.25,-0.6 3.42,-0.19 6.84,-0.37 10.26,-0.54 3.42,-0.17 6.84,-0.33 10.26,-0.48 3.42,-0.16 6.83,-0.3 10.25,-0.44 3.42,-0.14 6.84,-0.27 10.26,-0.4"
     style="fill:none;fill-opacity:1;stroke:#000000;stroke-width:3;stroke-linecap:round;stroke-linejoin:round;stroke-miterlimit:4;stroke-dasharray:none;stroke-dashoffset:0;stroke-opacity:1"
     inkscape:connector-curvature="0" />
  <path
     sodipodi:nodetypes="cc"
     inkscape:connector-curvature="0"
     id="path4820-3-0-54-2-03-8-5-6-1-6-2-7-3-0-1-9-6-4-0-6-4"
     d="M 500,70 100,70"
     style="fill:none;stroke:#808080;stroke-width:2;stroke-linecap:square;stroke-linejoin:miter;stroke-miterlimit:8;stroke-dasharray:6, 6;stroke-dashoffset:0;stroke-opacity:1;marker-start:none;marker-mid:none;marker-end:none" />
</svg>
