<svg id="resistor" xmlns:rdf="http://www.w3.org/1999/02/22-rdf-syntax-ns#" xmlns="http://www.w3.org/2000/svg" viewBox="0 0 640 320" version="1.1" xmlns:cc="http://creativecommons.org/ns#" xmlns:dc="http://purl.org/dc/elements/1.1/">
	<path d="m100 270h450" style="stroke:#808080;stroke-linecap:square;stroke-miterlimit:8;stroke-width:2;fill:none"/>
	<path d="m200 280v-20" style="stroke:#808080;stroke-miterlimit:8;stroke-width:2;fill:none"/>
	<path d="m535 275 20-5-20-5z" style="fill:#808080"/>
	<path d="m100 270v-250" style="stroke:#808080;stroke-linecap:square;stroke-miterlimit:8;stroke-width:2;fill:none"/>
	<path d="m110 144h-20" style="stroke:#808080;stroke-miterlimit:8;stroke-width:2;fill:none"/>
	<path d="m110 70h-20" style="stroke:#808080;stroke-miterlimit:8;stroke-width:2;fill:none"/>
	<path d="m300 280v-20" style="stroke:#808080;stroke-miterlimit:8;stroke-width:2;fill:none"/>
	<path d="m400 280v-20" style="stroke:#808080;stroke-miterlimit:8;stroke-width:2;fill:none"/>
	<path d="m500 280v-20" style="stroke:#808080;stroke-miterlimit:8;stroke-width:2;fill:none"/>
	<path d="m110 270h-20" style="stroke:#808080;stroke-miterlimit:8;stroke-width:2;fill:none"/>
	<path d="m100 280v-20" style="stroke:#808080;stroke-miterlimit:8;stroke-width:2;fill:none"/>
	<path d="m105 30-5-20-5 20z" style="fill:#808080"/>
	<text y="250" x="510" style="font-size:30px" space="preserve">t [ms]</text>
	<text id="Vmax" style="font-size:30px;text-anchor:end;text-align:end" space="preserve" y="80" x="80">5.00</text>
	<text id="Vtau" style="font-size:30px;text-anchor:end;text-align:end" space="preserve" y="154" x="80">3.16</text>
	<text y="280" x="50" style="font-size:30px;text-anchor:end;text-align:end" space="preserve">0</text>
	<text y="40" x="120" style="font-size:30px" space="preserve">Vout [V]</text>
	<text y="310" x="100" style="font-size:30px;text-anchor:middle;text-align:center" space="preserve">0</text>
	<text id="1tau" style="font-size:30px;text-anchor:middle;text-align:center" space="preserve" y="310" x="200">1.0</text>
	<text id="2tau" style="font-size:30px;text-anchor:middle;text-align:center" space="preserve" y="310" x="300">2.0</text>
	<text id="3tau" style="font-size:30px;text-anchor:middle;text-align:center" space="preserve" y="310" x="400">3.0</text>
	<text id="4tau" style="font-size:30px;text-anchor:middle;text-align:center" space="preserve" y="310" x="500">4.0</text>
	<path style="stroke:#000;stroke-linecap:round;stroke-width:3;fill:none" d="m60 270h40"/>
	<path d="m200 270v-200" style="stroke:#808080;stroke-linecap:square;stroke-miterlimit:8;stroke-dasharray:6, 6;stroke-width:2;fill:none"/>
	<path d="m200 144h-100" style="stroke:#808080;stroke-linecap:square;stroke-miterlimit:8;stroke-dasharray:6, 6;stroke-width:2;fill:none"/>
	<path d="m200 70-100 200" style="stroke:#808080;stroke-linecap:square;stroke-miterlimit:8;stroke-dasharray:6, 6;stroke-width:2;fill:none"/>
	<path d="m100 270c3.42-6.84 6.84-13.32 10.26-19.5 3.42-6.17 6.83-12.02 10.25-17.59s6.84-10.85 10.26-15.88 6.84-9.8 10.26-14.33c3.41-4.54 6.83-8.84 10.25-12.94 3.42-4.09 6.84-7.98 10.26-11.67 3.42-3.7 6.84-7.2 10.25-10.54 3.42-3.33 6.84-6.5 10.26-9.51s6.84-5.86 10.26-8.58 6.84-5.29 10.25-7.75c3.42-2.45 6.84-4.77 10.26-6.99 3.42-2.21 6.84-4.31 10.26-6.31 3.42-1.99 6.83-3.89 10.25-5.69s6.84-3.51 10.26-5.14 6.84-3.17 10.26-4.64c3.41-1.47 6.83-2.86 10.25-4.18 3.42-1.33 6.84-2.59 10.26-3.78 3.42-1.2 6.84-2.33 10.26-3.41 3.41-1.08 6.83-2.1 10.25-3.08 3.42-.97 6.84-1.9 10.26-2.78s6.84-1.71 10.25-2.5c3.42-.8 6.84-1.55 10.26-2.26 3.42-.72 6.84-1.4 10.26-2.05 3.42-.64 6.84-1.26 10.25-1.84 3.42-.58 6.84-1.14 10.26-1.66 3.42-.53 6.84-1.03 10.26-1.5 3.42-.48 6.83-.93 10.25-1.36s6.84-.83 10.26-1.22 6.84-.75 10.26-1.1c3.41-.35 6.83-.68 10.25-1s6.84-.61 10.26-.9c3.42-.28 6.84-.55 10.26-.81 3.41-.26 6.83-.5 10.25-.73s6.84-.45 10.26-.66 6.84-.41 10.25-.6c3.42-.19 6.84-.37 10.26-.54s6.84-.33 10.26-.48c3.42-.16 6.83-.3 10.25-.44s6.84-.27 10.26-.4" style="stroke-linejoin:round;stroke:#000;stroke-linecap:round;stroke-width:3;fill:none" title="1-exp(-x)"/>
	<path d="m500 70h-400" style="stroke:#808080;stroke-linecap:square;stroke-miterlimit:8;stroke-dasharray:6, 6;stroke-width:2;fill:none"/>
</svg>
