<svg xmlns:rdf="http://www.w3.org/1999/02/22-rdf-syntax-ns#" xmlns="http://www.w3.org/2000/svg" height="84.345mm" width="108.8mm" version="1.1" xmlns:cc="http://creativecommons.org/ns#" xmlns:xlink="http://www.w3.org/1999/xlink" viewBox="0 0 385.5 298.86" xmlns:dc="http://purl.org/dc/elements/1.1/">
	<script xlink:href="../../../assets/js/latex4ei.js"/>
	<path style="fill-rule:evenodd;stroke:#000;stroke-linecap:square;stroke-miterlimit:7.7;stroke-width:2.3321;fill:#fff" d="m256.51 117.07v-67.147"/>
	<path style="fill-rule:evenodd;stroke:#000;stroke-linecap:square;stroke-miterlimit:7.7;stroke-width:2.8774;fill:#fff" d="m256.51 290.52v-87.63"/>
	<g transform="matrix(4,0,0,4,128.93,-402.7)">
		<rect style="color:#000000;stroke:#000;stroke-width:.70866;stroke-miterlimit:7.7;stroke-linecap:square" transform="rotate(90)" height="14.173" width="1.4173" y="-38.976" x="173.62"/>
	</g>
	<rect style="color:#000000;stroke-dashoffset:1.76;stroke:#000;stroke-linecap:square;stroke-miterlimit:10;stroke-width:2.8346;fill:none" transform="rotate(90)" height="28.346" width="85.04" y="-270.4" x="117.77"/>
	<path style="fill-rule:evenodd;stroke:#000;stroke-linecap:square;stroke-miterlimit:7.7;stroke-width:2.8346;fill:#fff" d="m171.45 50.256h198.42"/>
	<path style="fill-rule:evenodd;stroke:#000;stroke-linecap:square;stroke-miterlimit:7.7;stroke-width:2.8346;fill:#fff" d="m15.53 50.232h70.88"/>
	<path d="m263.58 50.358c0 3.92-3.17 7.08-7.09 7.08-3.91 0-7.08-3.16-7.08-7.08s3.17-7.08 7.08-7.08c3.92 0 7.09 3.16 7.09 7.08" style="fill-rule:evenodd"/>
	<g style="stroke:#000;stroke-width:11.802;stroke-miterlimit:7.7;stroke-linecap:square;fill:none" transform="matrix(.2402 0 0 .2402 -446.49 1728.4)">
		<path d="m1923.7-6986.6c0 16.3-13.2 29.5-29.5 29.5s-29.5-13.2-29.5-29.5 13.2-29.5 29.5-29.5 29.5 13.2 29.5 29.5z" style="stroke:#000;stroke-width:11.802;stroke-miterlimit:7.7;stroke-linecap:square;fill:none"/>
	</g>
	<g style="stroke:#000;stroke-width:11.802;stroke-miterlimit:7.7;stroke-linecap:square;fill:none" transform="matrix(.2402 0 0 .2402 -77.986 1728.4)">
		<path d="m1923.7-6986.6c0 16.3-13.2 29.5-29.5 29.5s-29.5-13.2-29.5-29.5 13.2-29.5 29.5-29.5 29.5 13.2 29.5 29.5z" style="stroke:#000;stroke-width:11.802;stroke-miterlimit:7.7;stroke-linecap:square;fill:none"/>
	</g>
	<text id="R1_val" style="font-size:30px" space="preserve" onclick="askValue(this.id)" y="182.47037" x="283.33145">10k</text>
	<text id="X1_val" style="font-size:30px" space="preserve" onclick="askValue(this.id)" y="23.158703" x="86.451317">100n</text>
	<text y="83.051971" x="84.360016" style="font-size:30px" space="preserve">H</text>
	<path style="fill-rule:evenodd;stroke:#000;stroke-linecap:square;stroke-miterlimit:7.7;stroke-width:3.772;fill:#fff" d="m17.44 258.56h351.34"/>
	<path d="m263.58 258.66c0 3.92-3.17 7.08-7.09 7.08-3.91 0-7.08-3.16-7.08-7.08s3.17-7.08 7.08-7.08c3.92 0 7.09 3.16 7.09 7.08" style="fill-rule:evenodd"/>
	<g style="stroke:#000;stroke-width:11.802;stroke-miterlimit:7.7;stroke-linecap:square;fill:none" transform="matrix(.2402 0 0 .2402 -446.49 1936.7)">
		<path d="m1923.7-6986.6c0 16.3-13.2 29.5-29.5 29.5s-29.5-13.2-29.5-29.5 13.2-29.5 29.5-29.5 29.5 13.2 29.5 29.5z" style="stroke:#000;stroke-width:11.802;stroke-miterlimit:7.7;stroke-linecap:square;fill:none"/>
	</g>
	<g style="stroke:#000;stroke-width:11.802;stroke-miterlimit:7.7;stroke-linecap:square;fill:none" transform="matrix(.2402 0 0 .2402 -77.986 1936.7)">
		<path d="m1923.7-6986.6c0 16.3-13.2 29.5-29.5 29.5s-29.5-13.2-29.5-29.5 13.2-29.5 29.5-29.5 29.5 13.2 29.5 29.5z" style="stroke:#000;stroke-width:11.802;stroke-miterlimit:7.7;stroke-linecap:square;fill:none"/>
	</g>
	<text y="139.81178" x="283.33823" style="font-size:30px" space="preserve">R</text>
	<text y="164.55286" x="20.607069" style="font-size:30px" space="preserve">U(0)</text>
	<text id="U1_val" style="font-size:30px" space="preserve" onclick="askValue(this.id)" y="198.24272" x="19.007046">5</text>
	<g transform="translate(-12.306,105.02)">
		<path style="stroke:#000;stroke-linecap:square;stroke-width:2.8346;fill:none" d="m-98.697 54.88a14.173 14.173 0 0 1 -14.113 14.173 14.173 14.173 0 0 1 -14.23 -14.063" transform="scale(-1)"/>
		<path style="stroke:#000;stroke-linecap:square;stroke-width:2.8346;fill:none" d="m-127.07 54.88a14.173 14.173 0 0 1 -14.11 14.173 14.173 14.173 0 0 1 -14.23 -14.063" transform="scale(-1)"/>
		<path style="stroke:#000;stroke-linecap:square;stroke-width:2.8346;fill:none" d="m-155.37 54.88a14.173 14.173 0 0 1 -14.11 14.173 14.173 14.173 0 0 1 -14.23 -14.063" transform="scale(-1)"/>
	</g>
</svg>
