<?xml version="1.0" encoding="UTF-8" standalone="no"?>
<svg
   xmlns:dc="http://purl.org/dc/elements/1.1/"
   xmlns:cc="http://creativecommons.org/ns#"
   xmlns:rdf="http://www.w3.org/1999/02/22-rdf-syntax-ns#"
   xmlns:svg="http://www.w3.org/2000/svg"
   xmlns="http://www.w3.org/2000/svg"
   viewBox="0 0 61.437626 22.116867"
   height="22.116867"
   width="61.437626"
   xml:space="preserve"
   id="svg2"
   version="1.1"><metadata
     id="metadata8"><rdf:RDF><cc:Work
         rdf:about=""><dc:format>image/svg+xml</dc:format><dc:type
           rdf:resource="http://purl.org/dc/dcmitype/StillImage" /></cc:Work></rdf:RDF></metadata><defs
     id="defs6" /><g
     transform="matrix(1.3333333,0,0,-1.3333333,0,22.116867)"
     id="g10"><g
       id="g12"><path
         id="path14"
         style="fill:#ffffff;fill-opacity:1;fill-rule:evenodd;stroke:none"
         d="m 5.441,4.482 h 8.485" /><g
         transform="matrix(1,0,0,0.609667,0,16.58765)"
         id="g16"><path
           id="path18"
           style="fill:none;stroke:#000000;stroke-width:0.38399801;stroke-linecap:butt;stroke-linejoin:miter;stroke-miterlimit:10;stroke-dasharray:none;stroke-opacity:1"
           d="M 0,-19.593 H 13.918" /></g><path
         id="path20"
         style="fill:#ffffff;fill-opacity:1;fill-rule:evenodd;stroke:none"
         d="m 36.555,4.482 h 8.484" /><g
         transform="translate(0,16.58765)"
         id="g22"><path
           id="path24"
           style="fill:none;stroke:#000000;stroke-width:0.29982999;stroke-linecap:butt;stroke-linejoin:miter;stroke-miterlimit:10;stroke-dasharray:none;stroke-opacity:1"
           d="m 36.539,-12.035 h 8.484" /></g><g
         transform="matrix(0.995152,0,0,1,0,16.58765)"
         id="g26"><path
           id="path28"
           style="fill:none;stroke:#000000;stroke-width:0.30056;stroke-linecap:butt;stroke-linejoin:miter;stroke-miterlimit:10;stroke-dasharray:none;stroke-opacity:1"
           d="m 13.943,-12.094 v 4.367" /></g><g
         transform="matrix(0.938122,0,0,1,0,16.58765)"
         id="g30"><path
           id="path32"
           style="fill:none;stroke:#000000;stroke-width:0.30956;stroke-linecap:butt;stroke-linejoin:miter;stroke-miterlimit:10;stroke-dasharray:none;stroke-opacity:1"
           d="m 14.79,-12.094 v -4.492" /></g><g
         transform="translate(0,16.58765)"
         id="g34"><path
           id="path36"
           style="fill:#ffffff;fill-opacity:1;fill-rule:evenodd;stroke:#000000;stroke-width:0.29982999;stroke-linecap:butt;stroke-linejoin:miter;stroke-miterlimit:10;stroke-dasharray:none;stroke-opacity:1"
           d="M 13.875,-16.438 H 36.613" /></g><g
         transform="translate(0,16.58765)"
         id="g38"><path
           id="path40"
           style="fill:#ffffff;fill-opacity:1;fill-rule:evenodd;stroke:#000000;stroke-width:0.29982999;stroke-linecap:butt;stroke-linejoin:miter;stroke-miterlimit:10;stroke-dasharray:none;stroke-opacity:1"
           d="M 13.875,-7.879 H 36.613" /></g><g
         transform="translate(0,16.58765)"
         id="g42"><path
           id="path44"
           style="fill:none;stroke:#000000;stroke-width:0.29982999;stroke-linecap:butt;stroke-linejoin:miter;stroke-miterlimit:10;stroke-dasharray:none;stroke-opacity:1"
           d="m 36.461,-7.918 v -8.555" /></g><path
         id="path46"
         style="fill:#000000;fill-opacity:1;fill-rule:evenodd;stroke:none"
         d="M 33.613,8.681 H 36.41 V 0.197 h -2.797 z" /><g
         transform="translate(0,16.58765)"
         id="g48"><path
           id="path50"
           style="fill:none;stroke:#000000;stroke-width:0.29982999;stroke-linecap:butt;stroke-linejoin:miter;stroke-miterlimit:10;stroke-dasharray:none;stroke-opacity:1"
           d="m 18.371,-13.926 c -0.418,0.469 -0.644,1.106 -0.605,1.735 0.035,0.625 0.324,1.234 0.793,1.648 0.468,0.422 1.105,0.648 1.73,0.609 0.629,-0.035 1.238,-0.328 1.656,-0.796 0.418,-0.469 0.645,-1.102 0.606,-1.731 -0.028,-0.539 -0.246,-1.062 -0.606,-1.465" /></g><g
         transform="translate(0,16.58765)"
         id="g52"><path
           id="path54"
           style="fill:none;stroke:#000000;stroke-width:0.29982999;stroke-linecap:butt;stroke-linejoin:miter;stroke-miterlimit:10;stroke-dasharray:none;stroke-opacity:1"
           d="m 21.867,-14.004 c -0.418,0.469 -0.64,1.106 -0.601,1.731 0.031,0.628 0.324,1.238 0.796,1.656 0.465,0.418 1.102,0.64 1.727,0.605 0.629,-0.035 1.238,-0.324 1.656,-0.797 0.418,-0.468 0.641,-1.105 0.606,-1.73 -0.028,-0.539 -0.246,-1.063 -0.606,-1.465" /></g><g
         transform="translate(0,16.58765)"
         id="g56"><path
           id="path58"
           style="fill:none;stroke:#000000;stroke-width:0.29982999;stroke-linecap:butt;stroke-linejoin:miter;stroke-miterlimit:10;stroke-dasharray:none;stroke-opacity:1"
           d="m 25.445,-14.004 c -0.418,0.469 -0.64,1.106 -0.605,1.731 0.031,0.628 0.324,1.238 0.793,1.652 0.469,0.422 1.105,0.644 1.73,0.605 0.629,-0.031 1.239,-0.324 1.657,-0.793 0.418,-0.468 0.64,-1.105 0.605,-1.73 -0.031,-0.539 -0.246,-1.066 -0.605,-1.465" /></g><g
         transform="translate(0,16.58765)"
         id="g60"><path
           id="path62"
           style="fill:none;stroke:#000000;stroke-width:0.29982999;stroke-linecap:butt;stroke-linejoin:miter;stroke-miterlimit:10;stroke-dasharray:none;stroke-opacity:1"
           d="m 28.984,-13.957 c -0.214,0.18 -0.359,0.445 -0.386,0.727 -0.032,0.277 0.058,0.566 0.234,0.781 0.18,0.222 0.445,0.363 0.727,0.39" /></g><g
         transform="translate(0,16.58765)"
         id="g64"><path
           id="path66"
           style="fill:none;stroke:#000000;stroke-width:0.29982999;stroke-linecap:butt;stroke-linejoin:miter;stroke-miterlimit:10;stroke-dasharray:none;stroke-opacity:1"
           d="m 17.914,-11.949 c 0.266,-0.012 0.527,-0.137 0.703,-0.336 0.18,-0.199 0.278,-0.473 0.258,-0.735 -0.012,-0.269 -0.137,-0.527 -0.336,-0.707 -0.051,-0.043 -0.109,-0.085 -0.168,-0.121" /></g><g
         transform="translate(0,16.58765)"
         id="g68"><path
           id="path70"
           style="fill:none;stroke:#000000;stroke-width:0.29982999;stroke-linecap:butt;stroke-linejoin:miter;stroke-miterlimit:10;stroke-dasharray:none;stroke-opacity:1"
           d="m 29.656,-12.039 h 4.242" /></g><g
         transform="matrix(0.978132,0,0,1,0,16.58765)"
         id="g72"><path
           id="path74"
           style="fill:none;stroke:#000000;stroke-width:0.30316299;stroke-linecap:butt;stroke-linejoin:miter;stroke-miterlimit:10;stroke-dasharray:none;stroke-opacity:1"
           d="M 18.231,-11.945 H 13.986" /></g><path
         id="path76"
         style="fill:#ffffff;fill-opacity:1;fill-rule:evenodd;stroke:none"
         d="M 21.973,10.791 H 46.078" /><g
         transform="matrix(1,0,0,0.300693,0,16.58765)"
         id="g78"><path
           id="path80"
           style="fill:none;stroke:#000000;stroke-width:0.546781;stroke-linecap:butt;stroke-linejoin:miter;stroke-miterlimit:10;stroke-dasharray:none;stroke-opacity:1"
           d="M 10.547,-19.343 H 38.77" /></g><path
         id="path82"
         style="fill:#000000;fill-opacity:1;fill-rule:evenodd;stroke:none"
         d="M 44.375,10.783 38.191,9.521 v 2.528" /><path
         id="path84"
         style="fill:#000000;fill-opacity:1;fill-rule:evenodd;stroke:none"
         d="M 11.621,4.646 5.973,3.381 v 2.531" /><g
         id="text88"
         style="font-variant:normal;font-weight:normal;font-size:8px;font-family:cmmi10;-inkscape-font-specification:Cmmi10;writing-mode:lr-tb;fill:#000000;fill-opacity:1;fill-rule:nonzero;stroke:none"
         transform="matrix(1,0,0,-1,2.1004,8.950535)"
         aria-label="i"><path
           id="path102"
           style=""
           d="m 0.625,-0.57421875 q 0,-0.1484375 0.0625,-0.3125 L 1.3359375,-2.609375 q 0.1054687,-0.2929688 0.1054687,-0.4804688 0,-0.2382812 -0.1757812,-0.2382812 -0.31640625,0 -0.5234375,0.328125 -0.203125,0.3242187 -0.30078125,0.7265625 -0.015625,0.050781 -0.0664063,0.050781 H 0.28125 q -0.0664063,0 -0.0664063,-0.074219 v -0.023437 Q 0.34375,-2.796875 0.609375,-3.1640625 0.875,-3.5351563 1.28125,-3.5351563 q 0.2851562,0 0.4804687,0.1875 0.1992188,0.1875 0.1992188,0.4765625 0,0.1484375 -0.066406,0.3125 l -0.6484375,1.71875005 q -0.109375,0.265625 -0.109375,0.48046875 0,0.23828125 0.1835938,0.23828125 0.3125,0 0.5195312,-0.33203125 0.2109376,-0.3359375 0.2968751,-0.7226562 0.015625,-0.046875 0.0625,-0.046875 h 0.097656 q 0.03125,0 0.050781,0.023437 0.019531,0.019531 0.019531,0.046875 0,0.00781 -0.00781,0.023437 -0.109375,0.45312495 -0.3828125,0.83593745 -0.2695313,0.3828125 -0.671875,0.3828125 -0.28125,0 -0.48046875,-0.19140625 Q 0.625,-0.296875 0.625,-0.57421875 Z M 1.5273437,-4.8476562 q 0,-0.1679688 0.140625,-0.3046875 0.140625,-0.1367188 0.3085938,-0.1367188 0.1367188,0 0.2226563,0.085937 0.089844,0.082031 0.089844,0.2109375 0,0.1796875 -0.1445312,0.3164063 -0.140625,0.1328125 -0.3125001,0.1328125 -0.1289062,0 -0.21875,-0.085937 -0.085937,-0.089844 -0.085937,-0.21875 z" /></g><g
         id="text92"
         style="font-variant:normal;font-weight:normal;font-size:4.16003418px;font-family:cmmi10;-inkscape-font-specification:Cmmi10;writing-mode:lr-tb;fill:#000000;fill-opacity:1;fill-rule:nonzero;stroke:none"
         transform="matrix(1,0,0,-1,4.8504,7.350535)"
         aria-label="L"><path
           id="path105"
           style=""
           d="m 0.1950016,0 q -0.0406253,0 -0.0406253,-0.0548442 0.002031,-0.01015633 0.008125,-0.03453153 0.006094,-0.02640647 0.0162501,-0.04062534 0.0121876,-0.0162501 0.0284377,-0.0162501 0.25390834,0 0.35344041,-0.0284377 0.0548442,-0.0182814 0.0792194,-0.11171966 l 0.57078589,-2.285175 q 0.00813,-0.040625 0.00813,-0.056876 0,-0.044688 -0.050782,-0.050782 -0.077188,-0.01625 -0.29859616,-0.01625 -0.0406253,0 -0.0406253,-0.054844 0.0142189,-0.052813 0.0223439,-0.071094 0.008125,-0.020313 0.0467191,-0.020313 H 2.1267362 q 0.036563,0 0.036563,0.054844 -0.00609,0.042657 -0.014219,0.067032 -0.00813,0.024375 -0.040625,0.024375 -0.3067212,0 -0.4103158,0.020313 -0.1015634,0.018281 -0.1259386,0.121876 l -0.5687547,2.28314373 q -0.0182814,0.0507817 -0.0182814,0.091407 0,0.0325003 0.14218866,0.0325003 h 0.3859407 q 0.3270339,0 0.5301606,-0.13000107 0.2031267,-0.13000107 0.3006275,-0.2925024 0.097501,-0.1645326 0.1625013,-0.33922154 0.067032,-0.17672019 0.097501,-0.18281399 h 0.036563 q 0.042657,0 0.042657,0.054844 L 2.3136128,-0.02843773 Q 2.307519,0 2.2750187,0 Z" /></g><g
         id="text96"
         style="font-variant:normal;font-weight:normal;font-size:8px;font-family:cmmi10;-inkscape-font-specification:Cmmi10;writing-mode:lr-tb;fill:#000000;fill-opacity:1;fill-rule:nonzero;stroke:none"
         transform="matrix(1,0,0,-1,20.342679,13.052494)"
         aria-label="u"><path
           id="path108"
           style=""
           d="m 0.84765625,-0.87109375 q 0,-0.26171875 0.0703125,-0.53515625 0.0703125,-0.2773437 0.19531245,-0.6132813 0.1289063,-0.3398437 0.2226563,-0.5898437 0.1054687,-0.2929688 0.1054687,-0.4804688 0,-0.2382812 -0.1757812,-0.2382812 -0.31640625,0 -0.5234375,0.328125 -0.203125,0.3242187 -0.30078125,0.7265625 -0.015625,0.050781 -0.0664063,0.050781 H 0.28125 q -0.0664063,0 -0.0664063,-0.074219 v -0.023437 Q 0.34375,-2.796875 0.609375,-3.1640625 0.875,-3.5351563 1.28125,-3.5351563 q 0.2851562,0 0.4804687,0.1875 0.1992188,0.1875 0.1992188,0.4765625 0,0.1484375 -0.066406,0.3125 -0.035156,0.097656 -0.1601562,0.4257813 -0.125,0.328125 -0.1914063,0.5429688 -0.066406,0.2148437 -0.109375,0.421875 -0.042969,0.2070312 -0.042969,0.41406245 0,0.265625 0.1132812,0.44921875 0.1132813,0.18359375 0.3671875,0.18359375 0.5117188,0 0.8984376,-0.6328125 0.00781,-0.03125 0.011719,-0.0585938 0.00781,-0.03125 0.011719,-0.0585938 L 3.3671875,-3.1914063 q 0.027344,-0.1054687 0.125,-0.1796875 0.097656,-0.078125 0.2109375,-0.078125 0.097656,0 0.1679688,0.0625 0.074219,0.0625 0.074219,0.1640625 0,0.046875 -0.00781,0.0625 l -0.578125,2.30468755 q -0.054687,0.23828125 -0.054687,0.390625 0,0.34375 0.2304688,0.34375 0.2578125,0 0.3828125,-0.31640625 0.1289062,-0.3203125 0.2187499,-0.7382812 0.015625,-0.046875 0.0625,-0.046875 h 0.097656 q 0.03125,0 0.050781,0.027344 0.019531,0.027344 0.019531,0.050781 Q 4.28125,-0.80078125 4.1992187,-0.5546875 4.1210937,-0.30859375 3.9492188,-0.109375 3.7773438,0.08984375 3.5195313,0.08984375 3.265625,0.08984375 3.0625,-0.046875 2.8632813,-0.1875 2.7929688,-0.42578125 q -0.1835938,0.234375 -0.4257813,0.375 -0.2421875,0.140625 -0.5117188,0.140625 -0.4609375,0 -0.734375,-0.25 -0.27343745,-0.25390625 -0.27343745,-0.7109375 z" /></g><g
         id="text100"
         style="font-variant:normal;font-weight:normal;font-size:4.16003418px;font-family:cmmi10;-inkscape-font-specification:Cmmi10;writing-mode:lr-tb;fill:#000000;fill-opacity:1;fill-rule:nonzero;stroke:none"
         transform="matrix(1,0,0,-1,24.920804,11.452494)"
         aria-label="L"><path
           id="path111"
           style=""
           d="m 0.1950016,0 q -0.0406253,0 -0.0406253,-0.0548442 0.002031,-0.01015633 0.008125,-0.03453153 0.006094,-0.02640647 0.0162501,-0.04062534 0.0121876,-0.0162501 0.0284377,-0.0162501 0.25390834,0 0.35344041,-0.0284377 0.0548442,-0.0182814 0.0792194,-0.11171966 l 0.57078589,-2.285175 q 0.00813,-0.040625 0.00813,-0.056876 0,-0.044688 -0.050782,-0.050782 -0.077188,-0.01625 -0.29859616,-0.01625 -0.0406253,0 -0.0406253,-0.054844 0.0142189,-0.052813 0.0223439,-0.071094 0.008125,-0.020313 0.0467191,-0.020313 H 2.1267362 q 0.036563,0 0.036563,0.054844 -0.00609,0.042657 -0.014219,0.067032 -0.00813,0.024375 -0.040625,0.024375 -0.3067212,0 -0.4103158,0.020313 -0.1015634,0.018281 -0.1259386,0.121876 l -0.5687547,2.28314373 q -0.0182814,0.0507817 -0.0182814,0.091407 0,0.0325003 0.14218866,0.0325003 h 0.3859407 q 0.3270339,0 0.5301606,-0.13000107 0.2031267,-0.13000107 0.3006275,-0.2925024 0.097501,-0.1645326 0.1625013,-0.33922154 0.067032,-0.17672019 0.097501,-0.18281399 h 0.036563 q 0.042657,0 0.042657,0.054844 L 2.3136128,-0.02843773 Q 2.307519,0 2.2750187,0 Z" /></g></g></g></svg>