<?xml version="1.0" encoding="UTF-8" standalone="no"?>
<svg
   xmlns:dc="http://purl.org/dc/elements/1.1/"
   xmlns:cc="http://creativecommons.org/ns#"
   xmlns:rdf="http://www.w3.org/1999/02/22-rdf-syntax-ns#"
   xmlns:svg="http://www.w3.org/2000/svg"
   xmlns="http://www.w3.org/2000/svg"
   viewBox="0 0 61.41444 22.034782"
   height="22.034782"
   width="61.41444"
   xml:space="preserve"
   id="svg2"
   version="1.1"><metadata
     id="metadata8"><rdf:RDF><cc:Work
         rdf:about=""><dc:format>image/svg+xml</dc:format><dc:type
           rdf:resource="http://purl.org/dc/dcmitype/StillImage" /></cc:Work></rdf:RDF></metadata><defs
     id="defs6" /><g
     transform="matrix(1.3333333,0,0,-1.3333333,0,22.034783)"
     id="g10"><g
       id="g12"><path
         id="path14"
         style="fill:#ffffff;fill-opacity:1;fill-rule:evenodd;stroke:none"
         d="m 5.184,4.538 h 8.488" /><g
         transform="matrix(1,0,0,0.620661,0,16.526087)"
         id="g16"><path
           id="path18"
           style="fill:none;stroke:#000000;stroke-width:0.380582;stroke-linecap:butt;stroke-linejoin:miter;stroke-miterlimit:10;stroke-dasharray:none;stroke-opacity:1"
           d="M 0,-19.315 H 13.672" /></g><g
         transform="translate(0,16.526087)"
         id="g20"><path
           id="path22"
           style="fill:#ffffff;fill-opacity:1;fill-rule:evenodd;stroke:#000000;stroke-width:0.29982999;stroke-linecap:butt;stroke-linejoin:miter;stroke-miterlimit:10;stroke-dasharray:none;stroke-opacity:1"
           d="m 36.301,-11.988 h 8.484" /></g><g
         transform="translate(0,16.526087)"
         id="g24"><path
           id="path26"
           style="fill:#ffffff;fill-opacity:1;fill-rule:evenodd;stroke:#000000;stroke-width:0.29982999;stroke-linecap:butt;stroke-linejoin:miter;stroke-miterlimit:10;stroke-dasharray:none;stroke-opacity:1"
           d="m 13.621,-11.98 v 4.347" /></g><g
         transform="translate(0,16.526087)"
         id="g28"><path
           id="path30"
           style="fill:#ffffff;fill-opacity:1;fill-rule:evenodd;stroke:#000000;stroke-width:0.29982999;stroke-linecap:butt;stroke-linejoin:miter;stroke-miterlimit:10;stroke-dasharray:none;stroke-opacity:1"
           d="m 13.621,-11.98 v -4.211" /></g><g
         transform="translate(0,16.526087)"
         id="g32"><path
           id="path34"
           style="fill:#ffffff;fill-opacity:1;fill-rule:evenodd;stroke:#000000;stroke-width:0.29982999;stroke-linecap:butt;stroke-linejoin:miter;stroke-miterlimit:10;stroke-dasharray:none;stroke-opacity:1"
           d="M 13.621,-16.32 H 36.355" /></g><g
         transform="translate(0,16.526087)"
         id="g36"><path
           id="path38"
           style="fill:#ffffff;fill-opacity:1;fill-rule:evenodd;stroke:#000000;stroke-width:0.29982999;stroke-linecap:butt;stroke-linejoin:miter;stroke-miterlimit:10;stroke-dasharray:none;stroke-opacity:1"
           d="M 13.621,-7.766 H 36.355" /></g><g
         transform="translate(0,16.526087)"
         id="g40"><path
           id="path42"
           style="fill:#ffffff;fill-opacity:1;fill-rule:evenodd;stroke:#000000;stroke-width:0.29982999;stroke-linecap:butt;stroke-linejoin:miter;stroke-miterlimit:10;stroke-dasharray:none;stroke-opacity:1"
           d="M 36.23,-7.766 V -16.32" /></g><g
         transform="translate(0,16.526087)"
         id="g44"><path
           id="path46"
           style="fill:#000000;fill-opacity:1;fill-rule:evenodd;stroke:#000000;stroke-width:0.29982999;stroke-linecap:butt;stroke-linejoin:miter;stroke-miterlimit:10;stroke-dasharray:none;stroke-opacity:1"
           d="m 33.473,-7.891 h 2.656 v -8.488 h -2.656 z" /></g><path
         id="path48"
         style="fill:#ffffff;fill-opacity:1;fill-rule:evenodd;stroke:none"
         d="M 21.957,10.428 H 46.062" /><g
         transform="matrix(1,0,0,0.300693,0,16.526087)"
         id="g50"><path
           id="path52"
           style="fill:none;stroke:#000000;stroke-width:0.546781;stroke-linecap:butt;stroke-linejoin:miter;stroke-miterlimit:10;stroke-dasharray:none;stroke-opacity:1"
           d="M 10.461,-19.395 H 38.68" /></g><path
         id="path54"
         style="fill:#000000;fill-opacity:1;fill-rule:evenodd;stroke:none"
         d="M 44.285,10.706 38.105,9.44 v 2.531" /><path
         id="path56"
         style="fill:#000000;fill-opacity:1;fill-rule:evenodd;stroke:none"
         d="M 12.535,4.538 6.355,3.272 V 5.8" /><g
         id="text60"
         style="font-variant:normal;font-weight:normal;font-size:8px;font-family:cmmi10;-inkscape-font-specification:Cmmi10;writing-mode:lr-tb;fill:#000000;fill-opacity:1;fill-rule:nonzero;stroke:none"
         transform="matrix(1,0,0,-1,1.731519,8.61828)"
         aria-label="i"><path
           id="path74"
           style=""
           d="m 0.625,-0.57421875 q 0,-0.1484375 0.0625,-0.3125 L 1.3359375,-2.609375 q 0.1054687,-0.2929688 0.1054687,-0.4804688 0,-0.2382812 -0.1757812,-0.2382812 -0.31640625,0 -0.5234375,0.328125 -0.203125,0.3242187 -0.30078125,0.7265625 -0.015625,0.050781 -0.0664063,0.050781 H 0.28125 q -0.0664063,0 -0.0664063,-0.074219 v -0.023437 Q 0.34375,-2.796875 0.609375,-3.1640625 0.875,-3.5351563 1.28125,-3.5351563 q 0.2851562,0 0.4804687,0.1875 0.1992188,0.1875 0.1992188,0.4765625 0,0.1484375 -0.066406,0.3125 l -0.6484375,1.71875005 q -0.109375,0.265625 -0.109375,0.48046875 0,0.23828125 0.1835938,0.23828125 0.3125,0 0.5195312,-0.33203125 0.2109376,-0.3359375 0.2968751,-0.7226562 0.015625,-0.046875 0.0625,-0.046875 h 0.097656 q 0.03125,0 0.050781,0.023437 0.019531,0.019531 0.019531,0.046875 0,0.00781 -0.00781,0.023437 -0.109375,0.45312495 -0.3828125,0.83593745 -0.2695313,0.3828125 -0.671875,0.3828125 -0.28125,0 -0.48046875,-0.19140625 Q 0.625,-0.296875 0.625,-0.57421875 Z M 1.5273437,-4.8476562 q 0,-0.1679688 0.140625,-0.3046875 0.140625,-0.1367188 0.3085938,-0.1367188 0.1367188,0 0.2226563,0.085937 0.089844,0.082031 0.089844,0.2109375 0,0.1796875 -0.1445312,0.3164063 -0.140625,0.1328125 -0.3125001,0.1328125 -0.1289062,0 -0.21875,-0.085937 -0.085937,-0.089844 -0.085937,-0.21875 z" /></g><g
         id="text64"
         style="font-variant:normal;font-weight:normal;font-size:4.16003418px;font-family:cmmi10;-inkscape-font-specification:Cmmi10;writing-mode:lr-tb;fill:#000000;fill-opacity:1;fill-rule:nonzero;stroke:none"
         transform="matrix(1,0,0,-1,4.481519,7.01828)"
         aria-label="R"><path
           id="path77"
           style=""
           d="m 0.20312667,0 q -0.0406253,0 -0.0406253,-0.0548442 0.002031,-0.01015633 0.008125,-0.03453153 0.006094,-0.02640647 0.0162501,-0.04062534 0.0121876,-0.0162501 0.0284377,-0.0162501 0.25390834,0 0.35547167,-0.0284377 0.0528129,-0.0182814 0.0771881,-0.11171966 L 1.21876,-2.5715836 q 0.00813,-0.040625 0.00813,-0.056876 0,-0.044688 -0.04875,-0.050782 -0.079219,-0.01625 -0.30062749,-0.01625 -0.0406253,0 -0.0406253,-0.054844 0.002031,-0.010156 0.008125,-0.034531 0.006094,-0.026407 0.0162501,-0.040625 0.0121876,-0.01625 0.0284377,-0.01625 H 2.1511114 q 0.1503138,0 0.3128151,0.034531 0.1625013,0.034532 0.2985962,0.1096884 0.1360949,0.073126 0.2234393,0.1970329 0.087345,0.121876 0.087345,0.2864086 0,0.2092205 -0.1381261,0.3737531 -0.1381262,0.1645326 -0.3493779,0.2762522 -0.2112517,0.1096885 -0.4103159,0.1543763 0.1625014,0.058907 0.266096,0.1889078 0.1035946,0.1279698 0.1035946,0.29656496 0,0.0223439 -0.00203,0.0345315 0,0.0101563 -0.00203,0.0243752 l -0.0325,0.36969054 q -0.00406,0.0812507 -0.00813,0.13812613 -0.00406,0.0568755 -0.00406,0.091407 0,0.11375094 0.0325,0.18281401 0.034532,0.0670318 0.1340636,0.0670318 0.1300011,0 0.2275019,-0.11984474 0.099532,-0.121876 0.1300011,-0.26406467 0.018281,-0.0365628 0.040625,-0.0365628 h 0.038594 q 0.040625,0 0.040625,0.0548442 -0.030469,0.11984474 -0.097501,0.22750187 Q 2.977837,-0.04671913 2.8762736,0.02234393 2.7767416,0.091407 2.6589281,0.091407 q -0.243752,0 -0.4164097,-0.10765713 -0.1706264,-0.1096884 -0.1706264,-0.34125281 0,-0.0873445 0.01625,-0.15437627 l 0.091407,-0.36969053 q 0.01625,-0.0507817 0.01625,-0.11781347 0,-0.17265769 -0.1178135,-0.27015849 -0.1157822,-0.099532 -0.2925024,-0.099532 H 1.2736042 l -0.27422099,1.09891523 q -0.0101563,0.0345315 -0.0101563,0.0589067 0,0.0426566 0.0507816,0.0487504 0.079219,0.0162501 0.2985962,0.0162501 0.042657,0 0.042657,0.0548442 -0.014219,0.05890673 -0.022344,0.07515687 Q 1.3507923,0 1.310167,0 Z M 1.2979794,-1.4767309 H 1.759077 q 0.4529724,0 0.6825056,-0.2295331 0.1056258,-0.1056259 0.1665638,-0.2681272 0.062969,-0.1645326 0.062969,-0.327034 0,-0.1543762 -0.091407,-0.2417207 -0.089376,-0.087344 -0.2234393,-0.1198447 -0.1320324,-0.0325 -0.2925024,-0.0325 H 1.7854834 q -0.1137509,0 -0.1503137,0.020313 -0.036563,0.018281 -0.067032,0.121876 z" /></g><g
         id="text68"
         style="font-variant:normal;font-weight:normal;font-size:8px;font-family:cmmi10;-inkscape-font-specification:Cmmi10;writing-mode:lr-tb;fill:#000000;fill-opacity:1;fill-rule:nonzero;stroke:none"
         transform="matrix(1,0,0,-1,21.103101,12.990931)"
         aria-label="u"><path
           id="path80"
           style=""
           d="m 0.84765625,-0.87109375 q 0,-0.26171875 0.0703125,-0.53515625 0.0703125,-0.2773437 0.19531245,-0.6132813 0.1289063,-0.3398437 0.2226563,-0.5898437 0.1054687,-0.2929688 0.1054687,-0.4804688 0,-0.2382812 -0.1757812,-0.2382812 -0.31640625,0 -0.5234375,0.328125 -0.203125,0.3242187 -0.30078125,0.7265625 -0.015625,0.050781 -0.0664063,0.050781 H 0.28125 q -0.0664063,0 -0.0664063,-0.074219 v -0.023437 Q 0.34375,-2.796875 0.609375,-3.1640625 0.875,-3.5351563 1.28125,-3.5351563 q 0.2851562,0 0.4804687,0.1875 0.1992188,0.1875 0.1992188,0.4765625 0,0.1484375 -0.066406,0.3125 -0.035156,0.097656 -0.1601562,0.4257813 -0.125,0.328125 -0.1914063,0.5429688 -0.066406,0.2148437 -0.109375,0.421875 -0.042969,0.2070312 -0.042969,0.41406245 0,0.265625 0.1132812,0.44921875 0.1132813,0.18359375 0.3671875,0.18359375 0.5117188,0 0.8984376,-0.6328125 0.00781,-0.03125 0.011719,-0.0585938 0.00781,-0.03125 0.011719,-0.0585938 L 3.3671875,-3.1914063 q 0.027344,-0.1054687 0.125,-0.1796875 0.097656,-0.078125 0.2109375,-0.078125 0.097656,0 0.1679688,0.0625 0.074219,0.0625 0.074219,0.1640625 0,0.046875 -0.00781,0.0625 l -0.578125,2.30468755 q -0.054687,0.23828125 -0.054687,0.390625 0,0.34375 0.2304688,0.34375 0.2578125,0 0.3828125,-0.31640625 0.1289062,-0.3203125 0.2187499,-0.7382812 0.015625,-0.046875 0.0625,-0.046875 h 0.097656 q 0.03125,0 0.050781,0.027344 0.019531,0.027344 0.019531,0.050781 Q 4.28125,-0.80078125 4.1992187,-0.5546875 4.1210937,-0.30859375 3.9492188,-0.109375 3.7773438,0.08984375 3.5195313,0.08984375 3.265625,0.08984375 3.0625,-0.046875 2.8632813,-0.1875 2.7929688,-0.42578125 q -0.1835938,0.234375 -0.4257813,0.375 -0.2421875,0.140625 -0.5117188,0.140625 -0.4609375,0 -0.734375,-0.25 -0.27343745,-0.25390625 -0.27343745,-0.7109375 z" /></g><g
         id="text72"
         style="font-variant:normal;font-weight:normal;font-size:4.16003418px;font-family:cmmi10;-inkscape-font-specification:Cmmi10;writing-mode:lr-tb;fill:#000000;fill-opacity:1;fill-rule:nonzero;stroke:none"
         transform="matrix(1,0,0,-1,25.681226,11.390931)"
         aria-label="R"><path
           id="path83"
           style=""
           d="m 0.20312667,0 q -0.0406253,0 -0.0406253,-0.0548442 0.002031,-0.01015633 0.008125,-0.03453153 0.006094,-0.02640647 0.0162501,-0.04062534 0.0121876,-0.0162501 0.0284377,-0.0162501 0.25390834,0 0.35547167,-0.0284377 0.0528129,-0.0182814 0.0771881,-0.11171966 L 1.21876,-2.5715836 q 0.00813,-0.040625 0.00813,-0.056876 0,-0.044688 -0.04875,-0.050782 -0.079219,-0.01625 -0.30062749,-0.01625 -0.0406253,0 -0.0406253,-0.054844 0.002031,-0.010156 0.008125,-0.034531 0.006094,-0.026407 0.0162501,-0.040625 0.0121876,-0.01625 0.0284377,-0.01625 H 2.1511114 q 0.1503138,0 0.3128151,0.034531 0.1625013,0.034532 0.2985962,0.1096884 0.1360949,0.073126 0.2234393,0.1970329 0.087345,0.121876 0.087345,0.2864086 0,0.2092205 -0.1381261,0.3737531 -0.1381262,0.1645326 -0.3493779,0.2762522 -0.2112517,0.1096885 -0.4103159,0.1543763 0.1625014,0.058907 0.266096,0.1889078 0.1035946,0.1279698 0.1035946,0.29656496 0,0.0223439 -0.00203,0.0345315 0,0.0101563 -0.00203,0.0243752 l -0.0325,0.36969054 q -0.00406,0.0812507 -0.00813,0.13812613 -0.00406,0.0568755 -0.00406,0.091407 0,0.11375094 0.0325,0.18281401 0.034532,0.0670318 0.1340636,0.0670318 0.1300011,0 0.2275019,-0.11984474 0.099532,-0.121876 0.1300011,-0.26406467 0.018281,-0.0365628 0.040625,-0.0365628 h 0.038594 q 0.040625,0 0.040625,0.0548442 -0.030469,0.11984474 -0.097501,0.22750187 Q 2.977837,-0.04671913 2.8762736,0.02234393 2.7767416,0.091407 2.6589281,0.091407 q -0.243752,0 -0.4164097,-0.10765713 -0.1706264,-0.1096884 -0.1706264,-0.34125281 0,-0.0873445 0.01625,-0.15437627 l 0.091407,-0.36969053 q 0.01625,-0.0507817 0.01625,-0.11781347 0,-0.17265769 -0.1178135,-0.27015849 -0.1157822,-0.099532 -0.2925024,-0.099532 H 1.2736042 l -0.27422099,1.09891523 q -0.0101563,0.0345315 -0.0101563,0.0589067 0,0.0426566 0.0507816,0.0487504 0.079219,0.0162501 0.2985962,0.0162501 0.042657,0 0.042657,0.0548442 -0.014219,0.05890673 -0.022344,0.07515687 Q 1.3507923,0 1.310167,0 Z M 1.2979794,-1.4767309 H 1.759077 q 0.4529724,0 0.6825056,-0.2295331 0.1056258,-0.1056259 0.1665638,-0.2681272 0.062969,-0.1645326 0.062969,-0.327034 0,-0.1543762 -0.091407,-0.2417207 -0.089376,-0.087344 -0.2234393,-0.1198447 -0.1320324,-0.0325 -0.2925024,-0.0325 H 1.7854834 q -0.1137509,0 -0.1503137,0.020313 -0.036563,0.018281 -0.067032,0.121876 z" /></g></g></g></svg>