<?xml version="1.0" encoding="UTF-8" standalone="no"?>
<svg
   xmlns:dc="http://purl.org/dc/elements/1.1/"
   xmlns:cc="http://creativecommons.org/ns#"
   xmlns:rdf="http://www.w3.org/1999/02/22-rdf-syntax-ns#"
   xmlns:svg="http://www.w3.org/2000/svg"
   xmlns="http://www.w3.org/2000/svg"
   viewBox="0 0 61.512367 22.465172"
   height="22.465172"
   width="61.512367"
   xml:space="preserve"
   id="svg2"
   version="1.1"><metadata
     id="metadata8"><rdf:RDF><cc:Work
         rdf:about=""><dc:format>image/svg+xml</dc:format><dc:type
           rdf:resource="http://purl.org/dc/dcmitype/StillImage" /></cc:Work></rdf:RDF></metadata><defs
     id="defs6" /><g
     transform="matrix(1.3333333,0,0,-1.3333333,0,22.465172)"
     id="g10"><g
       id="g12"><path
         id="path14"
         style="fill:#ffffff;fill-opacity:1;fill-rule:evenodd;stroke:none"
         d="m 4.977,4.536 h 8.484" /><g
         transform="matrix(1,0,0,0.630316,0,16.848879)"
         id="g16"><path
           id="path18"
           style="fill:none;stroke:#000000;stroke-width:0.37765601;stroke-linecap:butt;stroke-linejoin:miter;stroke-miterlimit:10;stroke-dasharray:none;stroke-opacity:1"
           d="M 0,-19.534 H 13.461" /></g><g
         transform="translate(0,16.848879)"
         id="g20"><path
           id="path22"
           style="fill:#ffffff;fill-opacity:1;fill-rule:evenodd;stroke:#000000;stroke-width:0.29982999;stroke-linecap:butt;stroke-linejoin:miter;stroke-miterlimit:10;stroke-dasharray:none;stroke-opacity:1"
           d="m 36.09,-12.312 h 8.484" /></g><g
         transform="translate(0,16.848879)"
         id="g24"><path
           id="path26"
           style="fill:#ffffff;fill-opacity:1;fill-rule:evenodd;stroke:#000000;stroke-width:0.29982999;stroke-linecap:butt;stroke-linejoin:miter;stroke-miterlimit:10;stroke-dasharray:none;stroke-opacity:1"
           d="m 13.41,-12.301 v 4.344" /></g><g
         transform="translate(0,16.848879)"
         id="g28"><path
           id="path30"
           style="fill:#ffffff;fill-opacity:1;fill-rule:evenodd;stroke:#000000;stroke-width:0.29982999;stroke-linecap:butt;stroke-linejoin:miter;stroke-miterlimit:10;stroke-dasharray:none;stroke-opacity:1"
           d="m 13.41,-12.301 v -4.215" /></g><g
         transform="translate(0,16.848879)"
         id="g32"><path
           id="path34"
           style="fill:#ffffff;fill-opacity:1;fill-rule:evenodd;stroke:#000000;stroke-width:0.29982999;stroke-linecap:butt;stroke-linejoin:miter;stroke-miterlimit:10;stroke-dasharray:none;stroke-opacity:1"
           d="M 13.41,-16.645 H 36.148" /></g><g
         transform="translate(0,16.848879)"
         id="g36"><path
           id="path38"
           style="fill:#ffffff;fill-opacity:1;fill-rule:evenodd;stroke:#000000;stroke-width:0.29982999;stroke-linecap:butt;stroke-linejoin:miter;stroke-miterlimit:10;stroke-dasharray:none;stroke-opacity:1"
           d="M 13.41,-8.086 H 36.148" /></g><g
         transform="translate(0,16.848879)"
         id="g40"><path
           id="path42"
           style="fill:#ffffff;fill-opacity:1;fill-rule:evenodd;stroke:#000000;stroke-width:0.29982999;stroke-linecap:butt;stroke-linejoin:miter;stroke-miterlimit:10;stroke-dasharray:none;stroke-opacity:1"
           d="m 36.02,-8.086 v -8.559" /></g><g
         transform="translate(0,16.848879)"
         id="g44"><path
           id="path46"
           style="fill:#000000;fill-opacity:1;fill-rule:evenodd;stroke:#000000;stroke-width:0.29982999;stroke-linecap:butt;stroke-linejoin:miter;stroke-miterlimit:10;stroke-dasharray:none;stroke-opacity:1"
           d="m 33.262,-8.215 h 2.66 v -8.484 h -2.66 z" /></g><g
         transform="translate(0,16.848879)"
         id="g48"><path
           id="path50"
           style="fill:none;stroke:#000000;stroke-width:0.997926;stroke-linecap:butt;stroke-linejoin:miter;stroke-miterlimit:10;stroke-dasharray:none;stroke-opacity:1"
           d="m 22.012,-8.891 v -6.875" /></g><g
         transform="translate(0,16.848879)"
         id="g52"><path
           id="path54"
           style="fill:none;stroke:#000000;stroke-width:0.997926;stroke-linecap:butt;stroke-linejoin:miter;stroke-miterlimit:10;stroke-dasharray:none;stroke-opacity:1"
           d="m 24.301,-8.891 v -6.875" /></g><g
         transform="translate(0,16.848879)"
         id="g56"><path
           id="path58"
           style="fill:#ffffff;fill-opacity:1;fill-rule:evenodd;stroke:#000000;stroke-width:0.29982999;stroke-linecap:butt;stroke-linejoin:miter;stroke-miterlimit:10;stroke-dasharray:none;stroke-opacity:1"
           d="m 24.309,-12.316 h 9.113" /></g><g
         transform="translate(0,16.848879)"
         id="g60"><path
           id="path62"
           style="fill:#ffffff;fill-opacity:1;fill-rule:evenodd;stroke:#000000;stroke-width:0.29982999;stroke-linecap:butt;stroke-linejoin:miter;stroke-miterlimit:10;stroke-dasharray:none;stroke-opacity:1"
           d="M 21.961,-12.316 H 12.918" /></g><path
         id="path64"
         style="fill:#ffffff;fill-opacity:1;fill-rule:evenodd;stroke:none"
         d="M 22.027,10.466 H 46.133" /><g
         transform="matrix(1,0,0,0.300693,0,16.848879)"
         id="g66"><path
           id="path68"
           style="fill:none;stroke:#000000;stroke-width:0.546781;stroke-linecap:butt;stroke-linejoin:miter;stroke-miterlimit:10;stroke-dasharray:none;stroke-opacity:1"
           d="M 10.605,-20.344 H 38.824" /></g><path
         id="path70"
         style="fill:#000000;fill-opacity:1;fill-rule:evenodd;stroke:none"
         d="M 44.43,10.747 38.25,9.482 v 2.527" /><path
         id="path72"
         style="fill:#000000;fill-opacity:1;fill-rule:evenodd;stroke:none"
         d="M 12.102,4.536 5.922,3.271 v 2.531" /><g
         id="text76"
         style="font-variant:normal;font-weight:normal;font-size:8px;font-family:cmmi10;-inkscape-font-specification:Cmmi10;writing-mode:lr-tb;fill:#000000;fill-opacity:1;fill-rule:nonzero;stroke:none"
         transform="matrix(1,0,0,-1,1.909983,8.646151)"
         aria-label="i"><path
           id="path90"
           style=""
           d="m 0.625,-0.57421875 q 0,-0.1484375 0.0625,-0.3125 L 1.3359375,-2.609375 q 0.1054687,-0.2929688 0.1054687,-0.4804688 0,-0.2382812 -0.1757812,-0.2382812 -0.31640625,0 -0.5234375,0.328125 -0.203125,0.3242187 -0.30078125,0.7265625 -0.015625,0.050781 -0.0664063,0.050781 H 0.28125 q -0.0664063,0 -0.0664063,-0.074219 v -0.023437 Q 0.34375,-2.796875 0.609375,-3.1640625 0.875,-3.5351563 1.28125,-3.5351563 q 0.2851562,0 0.4804687,0.1875 0.1992188,0.1875 0.1992188,0.4765625 0,0.1484375 -0.066406,0.3125 l -0.6484375,1.71875005 q -0.109375,0.265625 -0.109375,0.48046875 0,0.23828125 0.1835938,0.23828125 0.3125,0 0.5195312,-0.33203125 0.2109376,-0.3359375 0.2968751,-0.7226562 0.015625,-0.046875 0.0625,-0.046875 h 0.097656 q 0.03125,0 0.050781,0.023437 0.019531,0.019531 0.019531,0.046875 0,0.00781 -0.00781,0.023437 -0.109375,0.45312495 -0.3828125,0.83593745 -0.2695313,0.3828125 -0.671875,0.3828125 -0.28125,0 -0.48046875,-0.19140625 Q 0.625,-0.296875 0.625,-0.57421875 Z M 1.5273437,-4.8476562 q 0,-0.1679688 0.140625,-0.3046875 0.140625,-0.1367188 0.3085938,-0.1367188 0.1367188,0 0.2226563,0.085937 0.089844,0.082031 0.089844,0.2109375 0,0.1796875 -0.1445312,0.3164063 -0.140625,0.1328125 -0.3125001,0.1328125 -0.1289062,0 -0.21875,-0.085937 -0.085937,-0.089844 -0.085937,-0.21875 z" /></g><g
         id="text80"
         style="font-variant:normal;font-weight:normal;font-size:4.16003418px;font-family:cmmi10;-inkscape-font-specification:Cmmi10;writing-mode:lr-tb;fill:#000000;fill-opacity:1;fill-rule:nonzero;stroke:none"
         transform="matrix(1,0,0,-1,4.659983,7.046151)"
         aria-label="C"><path
           id="path93"
           style=""
           d="m 0.60734874,-0.89781988 q 0,0.24984581 0.0954695,0.44078487 0.0975008,0.18890781 0.28031481,0.29656494 0.18484522,0.10562587 0.43469102,0.10562587 0.2620335,0 0.5037542,-0.1340636 0.243752,-0.1340636 0.4143784,-0.35750294 0.1726577,-0.2254706 0.2356269,-0.47734766 0.00813,-0.024375 0.0325,-0.024375 h 0.050782 q 0.01625,0 0.026406,0.012188 0.010156,0.010156 0.010156,0.024375 0,0.00406 -0.00406,0.0121876 -0.071094,0.28843987 -0.2762522,0.5423482 -0.2031267,0.25187707 -0.487504,0.40015954 Q 1.6392322,0.091407 1.3386047,0.091407 q -0.3250026,0 -0.58297349,-0.1462512 Q 0.49766034,-0.2010954 0.3534404,-0.46109754 0.21125174,-0.72109967 0.21125174,-1.0481336 q 0,-0.3493779 0.15640753,-0.6906307 0.15640754,-0.3432841 0.42047221,-0.60938 0.26406462,-0.2681272 0.60125492,-0.426566 0.3392216,-0.1584388 0.6865682,-0.1584388 0.1381261,0 0.2640646,0.042657 0.1259386,0.040625 0.2335957,0.1259385 0.1076571,0.085313 0.1767202,0.1970329 L 3.0794003,-2.925024 q 0,-0.00813 0.020313,-0.00813 h 0.024375 q 0.01625,0 0.026406,0.014219 0.010156,0.014219 0.010156,0.028438 L 2.8783049,-1.767202 q 0,0.028438 -0.0325,0.028438 h -0.075157 q -0.0325,0 -0.0325,-0.046719 0.01625,-0.091407 0.01625,-0.2193768 0,-0.2031267 -0.069063,-0.3818782 -0.069063,-0.1807827 -0.2153143,-0.2904711 -0.1442199,-0.1096884 -0.3534404,-0.1096884 -0.3392215,0 -0.6215676,0.1706264 -0.2823461,0.1706264 -0.479379,0.4489099 -0.19500156,0.2762523 -0.30265869,0.6154738 -0.10562587,0.3371903 -0.10562587,0.65406792 z" /></g><g
         id="text84"
         style="font-variant:normal;font-weight:normal;font-size:8px;font-family:cmmi10;-inkscape-font-specification:Cmmi10;writing-mode:lr-tb;fill:#000000;fill-opacity:1;fill-rule:nonzero;stroke:none"
         transform="matrix(1,0,0,-1,21.176523,13.313723)"
         aria-label="u"><path
           id="path96"
           style=""
           d="m 0.84765625,-0.87109375 q 0,-0.26171875 0.0703125,-0.53515625 0.0703125,-0.2773437 0.19531245,-0.6132813 0.1289063,-0.3398437 0.2226563,-0.5898437 0.1054687,-0.2929688 0.1054687,-0.4804688 0,-0.2382812 -0.1757812,-0.2382812 -0.31640625,0 -0.5234375,0.328125 -0.203125,0.3242187 -0.30078125,0.7265625 -0.015625,0.050781 -0.0664063,0.050781 H 0.28125 q -0.0664063,0 -0.0664063,-0.074219 v -0.023437 Q 0.34375,-2.796875 0.609375,-3.1640625 0.875,-3.5351563 1.28125,-3.5351563 q 0.2851562,0 0.4804687,0.1875 0.1992188,0.1875 0.1992188,0.4765625 0,0.1484375 -0.066406,0.3125 -0.035156,0.097656 -0.1601562,0.4257813 -0.125,0.328125 -0.1914063,0.5429688 -0.066406,0.2148437 -0.109375,0.421875 -0.042969,0.2070312 -0.042969,0.41406245 0,0.265625 0.1132812,0.44921875 0.1132813,0.18359375 0.3671875,0.18359375 0.5117188,0 0.8984376,-0.6328125 0.00781,-0.03125 0.011719,-0.0585938 0.00781,-0.03125 0.011719,-0.0585938 L 3.3671875,-3.1914063 q 0.027344,-0.1054687 0.125,-0.1796875 0.097656,-0.078125 0.2109375,-0.078125 0.097656,0 0.1679688,0.0625 0.074219,0.0625 0.074219,0.1640625 0,0.046875 -0.00781,0.0625 l -0.578125,2.30468755 q -0.054687,0.23828125 -0.054687,0.390625 0,0.34375 0.2304688,0.34375 0.2578125,0 0.3828125,-0.31640625 0.1289062,-0.3203125 0.2187499,-0.7382812 0.015625,-0.046875 0.0625,-0.046875 h 0.097656 q 0.03125,0 0.050781,0.027344 0.019531,0.027344 0.019531,0.050781 Q 4.28125,-0.80078125 4.1992187,-0.5546875 4.1210937,-0.30859375 3.9492188,-0.109375 3.7773438,0.08984375 3.5195313,0.08984375 3.265625,0.08984375 3.0625,-0.046875 2.8632813,-0.1875 2.7929688,-0.42578125 q -0.1835938,0.234375 -0.4257813,0.375 -0.2421875,0.140625 -0.5117188,0.140625 -0.4609375,0 -0.734375,-0.25 -0.27343745,-0.25390625 -0.27343745,-0.7109375 z" /></g><g
         id="text88"
         style="font-variant:normal;font-weight:normal;font-size:4.16003418px;font-family:cmmi10;-inkscape-font-specification:Cmmi10;writing-mode:lr-tb;fill:#000000;fill-opacity:1;fill-rule:nonzero;stroke:none"
         transform="matrix(1,0,0,-1,25.754648,11.713723)"
         aria-label="C"><path
           id="path99"
           style=""
           d="m 0.60734874,-0.89781988 q 0,0.24984581 0.0954695,0.44078487 0.0975008,0.18890781 0.28031481,0.29656494 0.18484522,0.10562587 0.43469102,0.10562587 0.2620335,0 0.5037542,-0.1340636 0.243752,-0.1340636 0.4143784,-0.35750294 0.1726577,-0.2254706 0.2356269,-0.47734766 0.00813,-0.024375 0.0325,-0.024375 h 0.050782 q 0.01625,0 0.026406,0.012188 0.010156,0.010156 0.010156,0.024375 0,0.00406 -0.00406,0.0121876 -0.071094,0.28843987 -0.2762522,0.5423482 -0.2031267,0.25187707 -0.487504,0.40015954 Q 1.6392322,0.091407 1.3386047,0.091407 q -0.3250026,0 -0.58297349,-0.1462512 Q 0.49766034,-0.2010954 0.3534404,-0.46109754 0.21125174,-0.72109967 0.21125174,-1.0481336 q 0,-0.3493779 0.15640753,-0.6906307 0.15640754,-0.3432841 0.42047221,-0.60938 0.26406462,-0.2681272 0.60125492,-0.426566 0.3392216,-0.1584388 0.6865682,-0.1584388 0.1381261,0 0.2640646,0.042657 0.1259386,0.040625 0.2335957,0.1259385 0.1076571,0.085313 0.1767202,0.1970329 L 3.0794003,-2.925024 q 0,-0.00813 0.020313,-0.00813 h 0.024375 q 0.01625,0 0.026406,0.014219 0.010156,0.014219 0.010156,0.028438 L 2.8783049,-1.767202 q 0,0.028438 -0.0325,0.028438 h -0.075157 q -0.0325,0 -0.0325,-0.046719 0.01625,-0.091407 0.01625,-0.2193768 0,-0.2031267 -0.069063,-0.3818782 -0.069063,-0.1807827 -0.2153143,-0.2904711 -0.1442199,-0.1096884 -0.3534404,-0.1096884 -0.3392215,0 -0.6215676,0.1706264 -0.2823461,0.1706264 -0.479379,0.4489099 -0.19500156,0.2762523 -0.30265869,0.6154738 -0.10562587,0.3371903 -0.10562587,0.65406792 z" /></g></g></g></svg>