<?xml version="1.0" encoding="UTF-8" standalone="no"?>
<svg
   xmlns:dc="http://purl.org/dc/elements/1.1/"
   xmlns:cc="http://creativecommons.org/ns#"
   xmlns:rdf="http://www.w3.org/1999/02/22-rdf-syntax-ns#"
   xmlns:svg="http://www.w3.org/2000/svg"
   xmlns="http://www.w3.org/2000/svg"
   viewBox="0 0 72.098137 41.872234"
   height="41.872234"
   width="72.098137"
   xml:space="preserve"
   id="svg2"
   version="1.1"><metadata
     id="metadata8"><rdf:RDF><cc:Work
         rdf:about=""><dc:format>image/svg+xml</dc:format><dc:type
           rdf:resource="http://purl.org/dc/dcmitype/StillImage" /></cc:Work></rdf:RDF></metadata><defs
     id="defs6" /><g
     transform="matrix(1.3333333,0,0,-1.3333333,0,41.872236)"
     id="g10"><g
       id="g12"><g
         transform="matrix(1,0,0,-1,0,31.404177)"
         id="g14"><path
           id="path16"
           style="fill:none;stroke:#808080;stroke-width:0.42519701;stroke-linecap:square;stroke-linejoin:miter;stroke-miterlimit:8;stroke-dasharray:none;stroke-opacity:1"
           d="M 0.215,17.008 H 51.238" /></g><g
         transform="matrix(1,0,0,-1,0,31.404177)"
         id="g18"><path
           id="path20"
           style="fill:none;stroke:#808080;stroke-width:0.42519701;stroke-linecap:square;stroke-linejoin:miter;stroke-miterlimit:8;stroke-dasharray:none;stroke-opacity:1"
           d="M 25.727,31.18 V 2.836" /></g><path
         id="path22"
         style="fill:#808080;fill-opacity:1;fill-rule:nonzero;stroke:none"
         d="m 49.82,13.334 4.254,1.062 -4.254,1.063 z" /><path
         id="path24"
         style="fill:#808080;fill-opacity:1;fill-rule:nonzero;stroke:none"
         d="M 26.789,27.15 25.727,31.404 24.664,27.15 Z" /><g
         id="text30"
         style="font-variant:normal;font-weight:normal;font-size:7.19999981px;font-family:cmmi10;-inkscape-font-specification:Cmmi10;writing-mode:lr-tb;fill:#404040;fill-opacity:1;fill-rule:nonzero;stroke:none"
         transform="matrix(1,0,0,-1,48.404321,8.727003)"
         aria-label="ui"><path
           id="path44"
           style=""
           d="m 0.7628906,-0.78398435 q 0,-0.23554685 0.0632813,-0.48164065 0.0632812,-0.2496093 0.17578125,-0.5519531 0.1160156,-0.3058593 0.2003906,-0.5308593 0.094922,-0.2636719 0.094922,-0.4324219 0,-0.2144531 -0.1582031,-0.2144531 -0.28476565,0 -0.47109377,0.2953125 -0.18281249,0.2917968 -0.27070312,0.6539062 -0.0140625,0.045703 -0.0597656,0.045703 h -0.084375 q -0.0597656,0 -0.0597656,-0.066797 v -0.021094 q 0.11601562,-0.4289062 0.35507812,-0.759375 0.23906249,-0.3339843 0.60468751,-0.3339843 0.2566406,0 0.4324218,0.16875 0.1792969,0.16875 0.1792969,0.4289062 0,0.1335937 -0.059766,0.28125 -0.031641,0.087891 -0.1441406,0.3832031 -0.1125,0.2953125 -0.1722657,0.4886719 -0.059766,0.1933593 -0.098437,0.3796875 -0.038672,0.18632807 -0.038672,0.37265619 0,0.2390625 0.1019531,0.40429687 0.1019531,0.16523437 0.3304687,0.16523437 0.4605469,0 0.8085938,-0.56953124 0.00703,-0.028125 0.010547,-0.0527344 0.00703,-0.028125 0.010547,-0.0527344 L 3.0304687,-2.8722655 q 0.024609,-0.094922 0.1125,-0.1617188 0.087891,-0.070312 0.1898437,-0.070312 0.087891,0 0.1511719,0.05625 0.066797,0.05625 0.066797,0.1476563 0,0.042187 -0.00703,0.05625 l -0.5203125,2.07421865 q -0.049219,0.21445311 -0.049219,0.35156249 0,0.30937499 0.2074218,0.30937499 0.2320313,0 0.3445313,-0.28476562 0.1160156,-0.28828124 0.196875,-0.66445311 0.014063,-0.042188 0.05625,-0.042188 h 0.087891 q 0.028125,0 0.045703,0.024609 0.017578,0.024609 0.017578,0.045703 -0.077344,0.30937499 -0.1511718,0.53085936 -0.070312,0.22148437 -0.225,0.40078124 -0.1546875,0.17929687 -0.3867188,0.17929687 -0.2285156,0 -0.4113281,-0.12304687 Q 2.5769531,-0.16875 2.5136718,-0.38320311 2.3484374,-0.17226562 2.1304687,-0.04570312 1.9124999,0.08085937 1.6699218,0.08085937 q -0.4148437,0 -0.6609375,-0.22499999 -0.2460937,-0.22851562 -0.2460937,-0.63984373 z" /><path
           id="path46"
           style=""
           d="m -19.280003,-17.524659 q 0,-0.133594 0.05625,-0.28125 l 0.583594,-1.550391 q 0.09492,-0.263671 0.09492,-0.432421 0,-0.214454 -0.158203,-0.214454 -0.284766,0 -0.471094,0.295313 -0.182812,0.291797 -0.270703,0.653906 -0.01406,0.0457 -0.05977,0.0457 h -0.08438 q -0.05976,0 -0.05976,-0.0668 v -0.02109 q 0.116015,-0.428907 0.355078,-0.759375 0.239062,-0.333985 0.604687,-0.333985 0.256641,0 0.432422,0.16875 0.179297,0.16875 0.179297,0.428907 0,0.133593 -0.05977,0.28125 l -0.583593,1.546875 q -0.09844,0.239062 -0.09844,0.432421 0,0.214454 0.165235,0.214454 0.28125,0 0.467578,-0.298829 0.189843,-0.302343 0.267187,-0.65039 0.01406,-0.04219 0.05625,-0.04219 h 0.08789 q 0.02812,0 0.0457,0.02109 0.01758,0.01758 0.01758,0.04219 0,0.007 -0.007,0.02109 -0.09844,0.407813 -0.344531,0.752344 -0.242579,0.344531 -0.604688,0.344531 -0.253125,0 -0.432422,-0.172265 -0.179297,-0.175782 -0.179297,-0.425391 z m 0.81211,-3.846094 q 0,-0.151171 0.126562,-0.274218 0.126563,-0.123047 0.277735,-0.123047 0.123046,0 0.20039,0.07734 0.08086,0.07383 0.08086,0.189843 0,0.161719 -0.130079,0.284766 -0.126562,0.119531 -0.28125,0.119531 -0.116015,0 -0.196875,-0.07734 -0.07734,-0.08086 -0.07734,-0.196875 z" /></g><g
         transform="matrix(1,0,0,-1,0,31.404177)"
         id="g32"><path
           id="path34"
           style="fill:none;stroke:#000000;stroke-width:0.85039401;stroke-linecap:butt;stroke-linejoin:miter;stroke-miterlimit:4;stroke-dasharray:none;stroke-opacity:1"
           d="M 0.215,11.34 H 51.238" /></g><g
         id="text38"
         style="font-variant:normal;font-weight:normal;font-size:7.19999981px;font-family:cmmi10;-inkscape-font-specification:Cmmi10;writing-mode:lr-tb;fill:#000000;fill-opacity:1;fill-rule:nonzero;stroke:none"
         transform="matrix(1,0,0,-1,5.884646,22.900284)"
         aria-label="I"><path
           id="path49"
           style=""
           d="m 0.30234374,0 q -0.0703125,0 -0.0703125,-0.09492187 0.028125,-0.15820312 0.0914062,-0.15820312 0.42539062,0 0.57656249,-0.028125 0.16523432,-0.0386719 0.20742182,-0.21445312 L 2.0953124,-4.4507811 q 0.014063,-0.070312 0.014063,-0.091406 0,-0.045703 -0.024609,-0.063281 -0.021094,-0.021094 -0.070312,-0.031641 -0.1441406,-0.028125 -0.5449219,-0.028125 -0.073828,0 -0.073828,-0.094922 0.024609,-0.091406 0.038672,-0.1230469 0.014063,-0.035156 0.084375,-0.035156 h 2.0109374 q 0.070312,0 0.070312,0.094922 -0.00352,0.017578 -0.014062,0.059766 -0.010547,0.042187 -0.028125,0.070312 -0.017578,0.028125 -0.052734,0.028125 -0.421875,0 -0.5835937,0.028125 -0.1582031,0.038672 -0.2003906,0.2179688 l -0.984375,3.95156239 q -0.017578,0.0878906 -0.017578,0.0949219 0,0.0175781 0.00352,0.0351563 0.00703,0.0140625 0.021094,0.028125 0.017578,0.0105469 0.031641,0.0175781 0.017578,0.003516 0.038672,0.0105469 0.1371093,0.028125 0.5484374,0.028125 0.070312,0 0.070312,0.0949219 Q 2.4082031,-0.05625 2.3941406,-0.028125 2.3800781,0 2.3097656,0 Z" /></g><g
         id="text42"
         style="font-variant:normal;font-weight:normal;font-size:4.68006611px;font-family:cmr10;-inkscape-font-specification:Cmr10;writing-mode:lr-tb;fill:#000000;fill-opacity:1;fill-rule:nonzero;stroke:none"
         transform="matrix(1,0,0,-1,9.048708,21.460284)"
         aria-label="0"><path
           id="path52"
           style=""
           d="m 1.1700165,0.10283348 q -0.57358229,0 -0.78153445,-0.47074883 -0.20566697,-0.47303403 -0.20566697,-1.12431275 0,-0.4067636 0.073126,-0.7655382 0.0754112,-0.3587746 0.29478932,-0.6078601 0.22166328,-0.2513708 0.61928606,-0.2513708 0.3085005,0 0.5050267,0.1508225 0.1965262,0.1508224 0.2993597,0.3907672 0.1028335,0.2376596 0.1393965,0.5118823 0.038848,0.2719374 0.038848,0.5712971 0,0.4021932 -0.075411,0.7541122 -0.073126,0.34963385 -0.290219,0.59643421 -0.2170929,0.24451517 -0.6170009,0.24451517 z m 0,-0.12111499 q 0.2605115,0 0.3884821,-0.26736706 0.1279705,-0.26736705 0.157678,-0.59186383 0.029707,-0.3244968 0.029707,-0.6901269 0,-0.3519191 -0.029707,-0.6489936 -0.029708,-0.2970745 -0.157678,-0.5370193 -0.1256854,-0.24223 -0.3884821,-0.24223 -0.26508184,0 -0.3930524,0.24223 -0.12797056,0.24223 -0.15767801,0.5393045 -0.0297074,0.2947893 -0.0297074,0.6467084 0,0.2605115 0.0114259,0.4913155 0.0137111,0.23080404 0.0685557,0.47760441 0.0548445,0.24451517 0.17595952,0.41361912 0.12340018,0.16681876 0.32449674,0.16681876 z" /></g></g></g></svg>