<?xml version="1.0" encoding="UTF-8" standalone="no"?>
<svg
   xmlns:dc="http://purl.org/dc/elements/1.1/"
   xmlns:cc="http://creativecommons.org/ns#"
   xmlns:rdf="http://www.w3.org/1999/02/22-rdf-syntax-ns#"
   xmlns:svg="http://www.w3.org/2000/svg"
   xmlns="http://www.w3.org/2000/svg"
   viewBox="0 0 57.069965 42.682941"
   height="42.682941"
   width="57.069965"
   xml:space="preserve"
   id="svg2"
   version="1.1"><metadata
     id="metadata8"><rdf:RDF><cc:Work
         rdf:about=""><dc:format>image/svg+xml</dc:format><dc:type
           rdf:resource="http://purl.org/dc/dcmitype/StillImage" /></cc:Work></rdf:RDF></metadata><defs
     id="defs6" /><g
     transform="matrix(1.3333333,0,0,-1.3333333,0,42.682943)"
     id="g10"><g
       id="g12"><g
         transform="matrix(1,0,0,-1,0,32.012207)"
         id="g14"><path
           id="path16"
           style="fill:none;stroke:#000000;stroke-width:0.283465;stroke-linecap:square;stroke-linejoin:miter;stroke-miterlimit:8;stroke-dasharray:none;stroke-opacity:1"
           d="M 0.133,17.707 H 39.742" /></g><path
         id="path18"
         style="fill:#000000;fill-opacity:1;fill-rule:nonzero;stroke:none"
         d="m 38.328,13.625 4.246,0.68 -4.246,0.68 z" /><g
         transform="matrix(1,0,0,-1,0,32.012207)"
         id="g20"><path
           id="path22"
           style="fill:none;stroke:#000000;stroke-width:0.283465;stroke-linecap:square;stroke-linejoin:miter;stroke-miterlimit:8;stroke-dasharray:none;stroke-opacity:1"
           d="M 19.977,31.883 V 3.914" /></g><path
         id="path24"
         style="fill:#000000;fill-opacity:1;fill-rule:nonzero;stroke:none"
         d="m 20.656,26.68 -0.679,4.25 -0.68,-4.25 z" /><g
         id="text28"
         style="font-variant:normal;font-weight:normal;font-size:8px;font-family:cmmi10;-inkscape-font-specification:Cmmi10;writing-mode:lr-tb;fill:#000000;fill-opacity:1;fill-rule:nonzero;stroke:none"
         transform="matrix(1,0,0,-1,36.982715,8.634521)"
         aria-label="q"><path
           id="path56"
           style=""
           d="M 1.1757812,1.4492187 Q 1.203125,1.2734375 1.28125,1.2734375 q 0.2890625,0 0.453125,-0.046875 Q 1.9023437,1.1796875 1.953125,1 l 0.34375,-1.359375 q -0.4570313,0.44921875 -0.9140625,0.44921875 -0.50390625,0 -0.79296875,-0.37890625 Q 0.3046875,-0.671875 0.3046875,-1.1914062 q 0,-0.5117188 0.26171875,-1.0625001 0.265625,-0.5507812 0.71484375,-0.9140625 0.453125,-0.3671875 0.9765625,-0.3671875 0.2421875,0 0.4375,0.1445313 0.1953125,0.1445312 0.296875,0.3828125 0.046875,-0.09375 0.2578125,-0.3085938 0.2148438,-0.21875 0.3007813,-0.21875 0.089844,0 0.089844,0.1015625 L 2.5195313,1.03125 Q 2.5,1.1484375 2.4960938,1.1679687 q 0,0.1054688 0.5273437,0.1054688 0.039063,0 0.058594,0.03125 0.023437,0.03125 0.023437,0.070312 -0.027344,0.1054687 -0.046875,0.140625 -0.015625,0.035156 -0.089844,0.035156 H 1.2578125 q -0.082031,0 -0.082031,-0.1015625 z m 0.2226563,-1.57031245 q 0.28125,0 0.546875,-0.2109375 0.2695313,-0.21484375 0.46875,-0.5078125 L 2.8632813,-2.640625 Q 2.8164063,-2.921875 2.65625,-3.125 2.5,-3.328125 2.2382813,-3.328125 q -0.2695313,0 -0.5039063,0.2226562 -0.2304688,0.21875 -0.390625,0.5195313 -0.15625,0.3203125 -0.3007813,0.8789063 -0.14062495,0.5585937 -0.14062495,0.86718745 0,0.27734375 0.11718745,0.5 0.1210938,0.21875 0.3789063,0.21875 z" /></g><g
         id="text32"
         style="font-variant:normal;font-weight:normal;font-size:5.20007277px;font-family:cmmi10;-inkscape-font-specification:Cmmi10;writing-mode:lr-tb;fill:#000000;fill-opacity:1;fill-rule:nonzero;stroke:none"
         transform="matrix(1,0,0,-1,40.545215,7.034521)"
         aria-label="r"><path
           id="path59"
           style=""
           d="m 0.40117749,-0.08886843 q 0,-0.03046918 0.005078,-0.04570377 l 0.388482,-1.5513889 q 0.0380865,-0.1447286 0.0380865,-0.2539098 0,-0.2234406 -0.15234588,-0.2234406 -0.16250227,0 -0.24121431,0.1955105 -0.078712,0.1929715 -0.15234588,0.4900459 0,0.015235 -0.0152346,0.025391 -0.0152346,0.00762 -0.0279301,0.00762 h -0.0609384 q -0.0177737,0 -0.0304692,-0.017774 -0.0126955,-0.020313 -0.0126955,-0.035547 0.0558602,-0.2259798 0.10664212,-0.3834038 0.0533211,-0.1574241 0.16250227,-0.2869181 0.11172032,-0.129494 0.27676169,-0.129494 0.18027596,0 0.31484813,0.104103 0.1371113,0.104103 0.1701196,0.2742226 0.1320331,-0.1726587 0.2996136,-0.2742226 0.1701195,-0.104103 0.3707083,-0.104103 0.1650413,0 0.2894571,0.096486 0.1269549,0.096486 0.1269549,0.2615271 0,0.1320331 -0.08379,0.2310579 -0.081251,0.096486 -0.2183624,0.096486 -0.08379,0 -0.1421895,-0.050782 -0.05586,-0.053321 -0.05586,-0.1371113 0,-0.1142594 0.08379,-0.2031278 0.08379,-0.091408 0.1929714,-0.091408 -0.08379,-0.068556 -0.2031278,-0.068556 -0.2234406,0 -0.388482,0.1599632 -0.1650414,0.157424 -0.2970745,0.4011774 l -0.3707083,1.48791149 q -0.0177737,0.07109474 -0.0812511,0.1218767 -0.0609383,0.05078196 -0.13711129,0.05078196 -0.0634774,0 -0.10918122,-0.04062556 -0.0457038,-0.04062557 -0.0457038,-0.10664212 z" /></g><g
         id="text36"
         style="font-variant:normal;font-weight:normal;font-size:8px;font-family:cmmi10;-inkscape-font-specification:Cmmi10;writing-mode:lr-tb;fill:#000000;fill-opacity:1;fill-rule:nonzero;stroke:none"
         transform="matrix(1,0,0,-1,11.470898,28.477051)"
         aria-label="q"><path
           id="path62"
           style=""
           d="M 1.1757812,1.4492187 Q 1.203125,1.2734375 1.28125,1.2734375 q 0.2890625,0 0.453125,-0.046875 Q 1.9023437,1.1796875 1.953125,1 l 0.34375,-1.359375 q -0.4570313,0.44921875 -0.9140625,0.44921875 -0.50390625,0 -0.79296875,-0.37890625 Q 0.3046875,-0.671875 0.3046875,-1.1914062 q 0,-0.5117188 0.26171875,-1.0625001 0.265625,-0.5507812 0.71484375,-0.9140625 0.453125,-0.3671875 0.9765625,-0.3671875 0.2421875,0 0.4375,0.1445313 0.1953125,0.1445312 0.296875,0.3828125 0.046875,-0.09375 0.2578125,-0.3085938 0.2148438,-0.21875 0.3007813,-0.21875 0.089844,0 0.089844,0.1015625 L 2.5195313,1.03125 Q 2.5,1.1484375 2.4960938,1.1679687 q 0,0.1054688 0.5273437,0.1054688 0.039063,0 0.058594,0.03125 0.023437,0.03125 0.023437,0.070312 -0.027344,0.1054687 -0.046875,0.140625 -0.015625,0.035156 -0.089844,0.035156 H 1.2578125 q -0.082031,0 -0.082031,-0.1015625 z m 0.2226563,-1.57031245 q 0.28125,0 0.546875,-0.2109375 0.2695313,-0.21484375 0.46875,-0.5078125 L 2.8632813,-2.640625 Q 2.8164063,-2.921875 2.65625,-3.125 2.5,-3.328125 2.2382813,-3.328125 q -0.2695313,0 -0.5039063,0.2226562 -0.2304688,0.21875 -0.390625,0.5195313 -0.15625,0.3203125 -0.3007813,0.8789063 -0.14062495,0.5585937 -0.14062495,0.86718745 0,0.27734375 0.11718745,0.5 0.1210938,0.21875 0.3789063,0.21875 z" /></g><g
         id="text40"
         style="font-variant:normal;font-weight:normal;font-size:5.20007277px;font-family:cmmi10;-inkscape-font-specification:Cmmi10;writing-mode:lr-tb;fill:#000000;fill-opacity:1;fill-rule:nonzero;stroke:none"
         transform="matrix(1,0,0,-1,15.033398,26.877051)"
         aria-label="j"><path
           id="path65"
           style=""
           d="m -0.06855565,0.73887753 q 0,-0.1269549 0.08632934,-0.22090153 0.08886843,-0.0914075 0.21582333,-0.0914075 0.0837902,0 0.13965039,0.050782 0.0583993,0.0533211 0.0583993,0.13711129 0,0.0990248 -0.0634775,0.17773687 -0.0609384,0.0812511 -0.15488498,0.10664211 0.0914075,0.0330083 0.18281506,0.0330083 0.22090153,0 0.38340381,-0.20566694 Q 0.94200537,0.52305419 1.0080219,0.26914439 L 1.4980678,-1.6859611 q 0.035547,-0.1498068 0.035547,-0.2539098 0,-0.2234406 -0.154885,-0.2234406 -0.2285188,0 -0.40117746,0.208206 -0.17011957,0.205667 -0.27676168,0.4773504 -0.0101564,0.033008 -0.0406256,0.033008 h -0.0609384 q -0.0431647,0 -0.0431647,-0.048243 v -0.015235 q 0.11679851,-0.3123091 0.33262184,-0.5509843 0.21582329,-0.2386752 0.50020229,-0.2386752 0.2158234,0 0.3529346,0.1345722 0.1396504,0.1345722 0.1396504,0.3427782 0,0.073634 -0.015235,0.1472677 L 1.373652,0.30215267 Q 1.320331,0.5128978 1.1705242,0.68809557 1.0207174,0.86329333 0.81251137,0.96485725 0.60430533,1.0664212 0.3859429,1.0664212 q -0.17519776,0 -0.31484816,-0.0837903 Q -0.06855565,0.8988407 -0.06855565,0.73887753 Z M 1.5767799,-3.1510207 q 0,-0.1142594 0.088868,-0.2005887 0.088868,-0.086329 0.2005888,-0.086329 0.088868,0 0.1447285,0.05586 0.058399,0.053321 0.058399,0.1371113 0,0.1167985 -0.093947,0.205667 -0.091408,0.086329 -0.2031279,0.086329 -0.08379,0 -0.1396504,-0.058399 -0.05586,-0.058399 -0.05586,-0.1396504 z" /></g><g
         transform="matrix(-0.57735,1,-1,-0.57735,0,32.012207)"
         id="g42"><path
           id="path44"
           style="fill:none;stroke:#000000;stroke-width:0.368231;stroke-linecap:butt;stroke-linejoin:miter;stroke-miterlimit:4;stroke-dasharray:none;stroke-opacity:1"
           d="m -22.071,-7.288 c -0.03,-0.011 -0.041,-0.043 -0.033,-0.071 0.01,-0.049 0.07,-0.068 0.116,-0.056 0.079,0.021 0.108,0.114 0.089,0.188 -0.037,0.126 -0.184,0.176 -0.303,0.139 -0.197,-0.058 -0.272,-0.288 -0.215,-0.474 0.096,-0.301 0.448,-0.415 0.731,-0.324 0.453,0.149 0.625,0.682 0.484,1.108 -0.227,0.677 -1.027,0.928 -1.66,0.712 -0.989,-0.34 -1.355,-1.515 -1.026,-2.447 0.505,-1.432 2.209,-1.959 3.557,-1.472 2.048,0.74 2.8,3.185 2.083,5.118 -1.068,2.898 -4.532,3.949 -7.272,2.917 -4.054,-1.526 -5.52,-6.387 -4.047,-10.229 1.619,-4.22 6.082,-6.625 10.489,-6.38" /></g><g
         transform="matrix(0.57735,-1,1,0.57735,0,32.012207)"
         id="g46"><path
           id="path48"
           style="fill:none;stroke:#000000;stroke-width:0.368231;stroke-linecap:butt;stroke-linejoin:miter;stroke-miterlimit:4;stroke-dasharray:none;stroke-opacity:1"
           d="M 22.049,7.325 C 22.02,7.314 22.009,7.282 22.016,7.254 22.027,7.205 22.086,7.186 22.13,7.2 c 0.078,0.021 0.111,0.112 0.088,0.187 -0.036,0.127 -0.183,0.176 -0.299,0.138 -0.198,-0.058 -0.272,-0.288 -0.215,-0.474 0.093,-0.299 0.448,-0.415 0.728,-0.322 0.456,0.147 0.627,0.68 0.483,1.107 -0.223,0.676 -1.023,0.927 -1.656,0.711 -0.989,-0.34 -1.355,-1.515 -1.029,-2.445 0.505,-1.433 2.209,-1.959 3.559,-1.474 2.048,0.74 2.8,3.185 2.084,5.118 -1.069,2.898 -4.536,3.95 -7.276,2.919 -4.053,-1.527 -5.516,-6.389 -4.044,-10.231 1.619,-4.22 6.082,-6.625 10.486,-6.379" /></g><path
         id="path50"
         style="fill:#000000;fill-opacity:1;fill-rule:nonzero;stroke:none"
         d="M 11.473,17.137 9.367,19.04 13.07,21.024 Z" /><path
         id="path52"
         style="fill:#000000;fill-opacity:1;fill-rule:nonzero;stroke:none"
         d="M 28.934,11.469 31.039,9.571 27.332,7.583 Z" /><path
         id="path54"
         style="fill:#0000ff;fill-opacity:1;fill-rule:evenodd;stroke:none"
         d="m 19.973,15.25 c 0.523,0 0.945,-0.425 0.945,-0.945 0,-0.523 -0.422,-0.945 -0.945,-0.945 -0.52,0 -0.942,0.422 -0.942,0.945 0,0.52 0.422,0.945 0.942,0.945" /></g></g></svg>