<svg xmlns:rdf="http://www.w3.org/1999/02/22-rdf-syntax-ns#" xmlns="http://www.w3.org/2000/svg" height="6.2169mm" width="11.575mm" version="1.1" xmlns:cc="http://creativecommons.org/ns#" xmlns:dc="http://purl.org/dc/elements/1.1/" viewBox="0 0 41.014 22.028">
	<g transform="translate(-17.663,-19.026)">
		<g transform="matrix(.99999 0 0 .99999 -32.323 -640.29)">
			<path style="stroke-linejoin:round;stroke:#000;stroke-linecap:round;fill:none" transform="scale(1,-1)" d="m60.5-672.86a5 5 0 0 1 -2.5 4.33 5 5 0 0 1 -5 0 5 5 0 0 1 -2.5 -4.33"/>
			<path style="stroke-linejoin:round;stroke:#000;stroke-linecap:round;fill:none" transform="scale(1,-1)" d="m70.5-672.87a5 5 0 0 1 -2.5 4.33 5 5 0 0 1 -5 0 5 5 0 0 1 -2.5 -4.33"/>
			<path style="stroke-linejoin:round;stroke:#000;stroke-linecap:round;fill:none" transform="scale(1,-1)" d="m80.5-672.87a5 5 0 0 1 -2.5 4.33 5 5 0 0 1 -5 0 5 5 0 0 1 -2.5 -4.33"/>
			<path style="stroke-linejoin:round;stroke:#000;stroke-linecap:round;fill:none" transform="scale(1,-1)" d="m90.5-672.86a5 5 0 0 1 -2.5 4.33 5 5 0 0 1 -5 0 5 5 0 0 1 -2.5 -4.33"/>
		</g>
	</g>
</svg>
