<?xml version="1.0" encoding="UTF-8" standalone="no"?>
<!-- Created with Inkscape (http://www.inkscape.org/) -->

<svg
   xmlns:dc="http://purl.org/dc/elements/1.1/"
   xmlns:cc="http://creativecommons.org/ns#"
   xmlns:rdf="http://www.w3.org/1999/02/22-rdf-syntax-ns#"
   xmlns:svg="http://www.w3.org/2000/svg"
   xmlns="http://www.w3.org/2000/svg"
   xmlns:sodipodi="http://sodipodi.sourceforge.net/DTD/sodipodi-0.dtd"
   xmlns:inkscape="http://www.inkscape.org/namespaces/inkscape"
   width="48.820312mm"
   height="19.522076mm"
   viewBox="0 0 48.820312 19.522076"
   version="1.1"
   id="svg7804"
   inkscape:version="0.92.3 (2405546, 2018-03-11)"
   sodipodi:docname="signal_sampling.svg">
  <defs
     id="defs7798">
    <marker
       markerWidth="20.0231"
       markerHeight="4.7962561"
       orient="auto"
       id="MaßpfeilLend">
      <g
         id="g12337-0-8"
         transform="matrix(-2.82,0,0,2.82,1428.874,-1698.6613)">
        <path
           style="fill:#000000;fill-opacity:1;stroke:none"
           d="m 508.46458,603.21256 -5.31497,-0.85041 5.31497,-0.85039 z"
           id="path7367-7-9-7-2-5-5"
           inkscape:connector-curvature="0"
           sodipodi:nodetypes="cccc" />
        <path
           style="fill:none;stroke:#000000;stroke-width:0;stroke-linecap:butt;stroke-linejoin:miter;stroke-miterlimit:4;stroke-dasharray:none;stroke-opacity:1"
           d="m 508.46456,602.36215 c 1.77165,0 1.77165,0 1.77165,0"
           id="path12323-5-1"
           inkscape:connector-curvature="0" />
      </g>
    </marker>
    <marker
       markerWidth="20.0231"
       markerHeight="4.7962561"
       orient="auto"
       id="marker7718">
      <g
         id="g7716"
         transform="matrix(-2.82,0,0,2.82,1428.874,-1698.6613)">
        <path
           style="fill:#000000;fill-opacity:1;stroke:none"
           d="m 508.46458,603.21256 -5.31497,-0.85041 5.31497,-0.85039 z"
           id="path7712"
           inkscape:connector-curvature="0"
           sodipodi:nodetypes="cccc" />
        <path
           style="fill:none;stroke:#000000;stroke-width:0;stroke-linecap:butt;stroke-linejoin:miter;stroke-miterlimit:4;stroke-dasharray:none;stroke-opacity:1"
           d="m 508.46456,602.36215 c 1.77165,0 1.77165,0 1.77165,0"
           id="path7714"
           inkscape:connector-curvature="0" />
      </g>
    </marker>
  </defs>
  <sodipodi:namedview
     id="base"
     pagecolor="#ffffff"
     bordercolor="#666666"
     borderopacity="1.0"
     inkscape:pageopacity="0.0"
     inkscape:pageshadow="2"
     inkscape:zoom="3.959798"
     inkscape:cx="51.600546"
     inkscape:cy="34.248328"
     inkscape:document-units="mm"
     inkscape:current-layer="layer1"
     showgrid="false"
     fit-margin-top="0"
     fit-margin-left="0"
     fit-margin-right="0"
     fit-margin-bottom="0"
     inkscape:window-width="2546"
     inkscape:window-height="1405"
     inkscape:window-x="0"
     inkscape:window-y="748"
     inkscape:window-maximized="0" />
  <metadata
     id="metadata7801">
    <rdf:RDF>
      <cc:Work
         rdf:about="">
        <dc:format>image/svg+xml</dc:format>
        <dc:type
           rdf:resource="http://purl.org/dc/dcmitype/StillImage" />
        <dc:title></dc:title>
      </cc:Work>
    </rdf:RDF>
  </metadata>
  <g
     inkscape:label="Ebene 1"
     inkscape:groupmode="layer"
     id="layer1"
     transform="translate(-52.696986,-134.53658)">
    <g
       transform="matrix(0.26458333,0,0,0.26458333,-134.7327,-162.05205)"
       id="g112608">
      <path
         style="fill:none;stroke:#000000;stroke-width:0.53149605;stroke-linecap:square;stroke-linejoin:miter;stroke-miterlimit:8;stroke-dasharray:none;stroke-opacity:1;marker-start:none;marker-mid:none;marker-end:url(#MaßpfeilLend)"
         d="M 708.66142,1176.3779 H 885.82677"
         id="path4820-3-0-3"
         inkscape:connector-curvature="0" />
      <path
         style="fill:none;stroke:#000000;stroke-width:0;stroke-linecap:round;stroke-linejoin:miter;stroke-miterlimit:4;stroke-dasharray:none;stroke-opacity:1"
         d="m 794.58661,1120.9649 h 5.31497"
         id="path5281-39-5-6-04-9-4-2-9"
         inkscape:connector-curvature="0"
         sodipodi:nodetypes="cc" />
      <path
         style="fill:none;stroke:#000060;stroke-width:1.00000024px;stroke-linecap:butt;stroke-linejoin:miter;stroke-opacity:1"
         d="m 768.89764,1176.3779 v -28.3465 h 56.69285 v 28.3465"
         id="path5069"
         inkscape:connector-curvature="0" />
      <path
         style="fill:#c0c0c0;fill-opacity:1;stroke:#000000;stroke-width:1px;stroke-linecap:butt;stroke-linejoin:miter;stroke-opacity:1"
         d="m 832.67716,1176.3779 c 8.50394,-7.4385 0,-28.3466 12.7559,-17.7165 4.46811,3.7234 12.75592,3.5433 17.00788,0 12.7559,-10.6301 4.25196,10.6299 12.7559,17.7165"
         id="path5017-3-2"
         inkscape:connector-curvature="0"
         sodipodi:nodetypes="cssc" />
      <path
         style="fill:none;stroke:#000000;stroke-width:0.35433072;stroke-linecap:square;stroke-linejoin:miter;stroke-miterlimit:4;stroke-dasharray:1.41732287, 1.41732287;stroke-dashoffset:0;stroke-opacity:1"
         d="M 719.29134,1155.1181 H 868.11021"
         id="path6809"
         inkscape:connector-curvature="0" />
      <g
         id="g9124"
         transform="matrix(0.18,0,0,0.18,759.47216,1118.2528)">
        <g
           id="g9126"
           transform="matrix(1.0629921,0,0,-1.0629921,-186.02362,789.27165)"
           xml:space="preserve"
           stroke-miterlimit="10.433"
           font-style="normal"
           font-variant="normal"
           font-weight="normal"
           font-stretch="normal"
           font-size-adjust="none"
           letter-spacing="normal"
           word-spacing="normal"
           style="font-style:normal;font-variant:normal;font-weight:normal;font-stretch:normal;letter-spacing:normal;word-spacing:normal;text-anchor:start;fill:none;stroke:#000000;stroke-width:5.55555534;stroke-linecap:butt;stroke-linejoin:miter;stroke-miterlimit:10.43299961;stroke-dasharray:none;stroke-dashoffset:0;stroke-opacity:1"><path
             d="m 485.66,424.73 v 0.21 l -0.01,0.2 -0.01,0.2 -0.02,0.19 -0.02,0.18 -0.03,0.18 -0.03,0.17 -0.04,0.16 -0.04,0.16 -0.04,0.16 -0.05,0.14 -0.05,0.14 -0.05,0.13 -0.06,0.13 -0.07,0.12 -0.06,0.12 -0.07,0.1 -0.07,0.1 -0.08,0.1 -0.08,0.09 -0.08,0.08 -0.08,0.07 -0.08,0.07 -0.09,0.06 -0.09,0.05 -0.09,0.05 -0.1,0.04 -0.09,0.03 -0.1,0.02 -0.1,0.02 -0.1,0.01 h -0.1 c -1.3,0 -2.64,-1.18 -2.64,-2.34 0,-0.48 0.23,-1.03 0.73,-1.48 0.86,-0.75 1.75,-2.1 1.75,-4.19 0,-2 -0.95,-4.83 -2.48,-7.13 -1.5,-2.14 -3.35,-3.82 -5.69,-3.82 -2.85,0 -4.39,1.78 -4.83,4.46 0.55,1.3 1.69,4.49 1.69,5.9 0,0.59 -0.25,1.09 -0.89,1.09 -0.41,0 -0.96,-0.11 -1.35,-0.84 -0.54,-1 -1.15,-4.24 -1.15,-6.04 -1.64,-2.34 -3.63,-4.57 -6.77,-4.57 -3.3,0 -4.34,2.93 -4.34,5.71 0,6.24 5.09,11.47 5.09,12.11 0,0.55 -0.41,0.96 -0.95,0.96 -0.66,0 -1,-0.66 -1.3,-1.11 -2.55,-3.69 -4.44,-9.61 -4.44,-14.14 0,-3.44 1.16,-7.13 5.24,-7.13 3.53,0 5.87,2.49 7.67,5.24 0.45,-2.89 2.39,-5.24 5.48,-5.24 3.89,0 6.29,3.03 8.07,6.78 1.2,2.44 3.09,9.21 3.09,12.3 z"
             id="path9128"
             inkscape:connector-curvature="0"
             style="fill:#000000;stroke-width:0" /><path
             d="m 491.5,404.96 0.05,-0.03 0.05,-0.03 0.06,-0.03 0.07,-0.04 0.07,-0.04 0.07,-0.04 0.08,-0.04 0.08,-0.05 0.09,-0.04 0.09,-0.04 0.09,-0.05 0.1,-0.04 0.1,-0.05 0.11,-0.04 0.11,-0.05 0.12,-0.04 0.12,-0.04 0.12,-0.05 0.13,-0.04 0.14,-0.03 0.13,-0.04 0.15,-0.04 0.14,-0.03 0.15,-0.03 0.16,-0.03 0.16,-0.02 0.16,-0.02 0.17,-0.02 0.18,-0.01 0.17,-0.01 0.19,-0.01 h 0.18 c 3.6,0 6.21,2.4 6.21,5.12 0,1.36 -0.63,2.44 -1.47,3.35 1.58,1.1 2.93,1.14 3.53,1.14 -0.14,-0.14 -0.31,-0.29 -0.31,-0.83 0,-0.71 0.51,-1.13 1.11,-1.13 0.48,0 1.1,0.36 1.1,1.16 0,0.8 -0.65,1.78 -2.04,1.78 -0.53,0 -2.41,-0.11 -4.05,-1.61 -1.05,0.77 -2.5,1.25 -4.05,1.25 l -0.03,-1.03 c 3.42,0 3.42,-3.36 3.42,-4.08 0,-0.56 0,-1.95 -0.7,-2.86 -0.48,-0.59 -1.42,-1.22 -2.69,-1.22 v 0 c -3.4,0 -3.4,3.35 -3.4,4.08 0,0.55 0,1.95 0.69,2.85 0.5,0.59 1.43,1.23 2.68,1.23 l 0.03,1.03 c -3.57,0 -6.2,-2.39 -6.2,-5.11 0,-1.36 0.7,-2.62 1.69,-3.53 -0.28,-0.31 -1.05,-1.45 -1.05,-2.81 0,-0.46 0.1,-2.1 1.45,-3.11 -1.56,-0.52 -3.37,-1.67 -3.37,-3.49 0,-2.54 3.83,-4.45 8.53,-4.45 v 1.05 c -3.66,0 -6.41,1.64 -6.41,3.45 0,1.22 1.11,2.7 3.35,2.75 h 2.01 c 3.11,0 7.47,0 7.47,-2.75 0,-1.86 -2.76,-3.45 -6.42,-3.45 v -1.05 c 4.44,0 8.55,1.74 8.55,4.53 0,1.05 -0.42,2.92 -2.35,3.97 -2.04,1.08 -4.11,1.08 -7.48,1.08 -0.77,0 -2.03,0 -2.3,0.03 -1.12,0.25 -1.75,1.3 -1.75,2.31 0,0.86 0.25,1.14 0.46,1.42 z"
             id="path9130"
             inkscape:connector-curvature="0"
             style="fill:#000000;stroke-width:0" /></g>      </g>
      <g
         style="fill:#600000;fill-opacity:1"
         id="g13210"
         transform="matrix(0.18,0,0,0.18,797.39263,1120.5543)">
        <g
           word-spacing="normal"
           letter-spacing="normal"
           font-size-adjust="none"
           font-stretch="normal"
           font-weight="normal"
           font-variant="normal"
           font-style="normal"
           stroke-miterlimit="10.433"
           xml:space="preserve"
           transform="matrix(1.0629921,0,0,-1.0629921,-186.02362,789.27165)"
           id="g13212"
           style="font-style:normal;font-variant:normal;font-weight:normal;font-stretch:normal;letter-spacing:normal;word-spacing:normal;text-anchor:start;fill:#600000;fill-opacity:1;stroke:#000000;stroke-width:5.55555534;stroke-linecap:butt;stroke-linejoin:miter;stroke-miterlimit:10.43299961;stroke-dasharray:none;stroke-dashoffset:0;stroke-opacity:1"><path
             id="path13214"
             d="m 485.66,424.73 v 0.21 l -0.01,0.2 -0.01,0.2 -0.02,0.19 -0.02,0.18 -0.03,0.18 -0.03,0.17 -0.04,0.16 -0.04,0.16 -0.04,0.16 -0.05,0.14 -0.05,0.14 -0.05,0.13 -0.06,0.13 -0.07,0.12 -0.06,0.12 -0.07,0.1 -0.07,0.1 -0.08,0.1 -0.08,0.09 -0.08,0.08 -0.08,0.07 -0.08,0.07 -0.09,0.06 -0.09,0.05 -0.09,0.05 -0.1,0.04 -0.09,0.03 -0.1,0.02 -0.1,0.02 -0.1,0.01 h -0.1 c -1.3,0 -2.64,-1.18 -2.64,-2.34 0,-0.48 0.23,-1.03 0.73,-1.48 0.86,-0.75 1.75,-2.1 1.75,-4.19 0,-2 -0.95,-4.83 -2.48,-7.13 -1.5,-2.14 -3.35,-3.82 -5.69,-3.82 -2.85,0 -4.39,1.78 -4.83,4.46 0.55,1.3 1.69,4.49 1.69,5.9 0,0.59 -0.25,1.09 -0.89,1.09 -0.41,0 -0.96,-0.11 -1.35,-0.84 -0.54,-1 -1.15,-4.24 -1.15,-6.04 -1.64,-2.34 -3.63,-4.57 -6.77,-4.57 -3.3,0 -4.34,2.93 -4.34,5.71 0,6.24 5.09,11.47 5.09,12.11 0,0.55 -0.41,0.96 -0.95,0.96 -0.66,0 -1,-0.66 -1.3,-1.11 -2.55,-3.69 -4.44,-9.61 -4.44,-14.14 0,-3.44 1.16,-7.13 5.24,-7.13 3.53,0 5.87,2.49 7.67,5.24 0.45,-2.89 2.39,-5.24 5.48,-5.24 3.89,0 6.29,3.03 8.07,6.78 1.2,2.44 3.09,9.21 3.09,12.3 z"
             inkscape:connector-curvature="0"
             style="fill:#600000;fill-opacity:1;stroke-width:0" /><path
             id="path13216"
             d="m 499.68,413.4 v 0.06 0.05 0.05 0.05 0.05 0.05 0.04 0.04 l -0.01,0.05 v 0.04 l -0.01,0.03 v 0.04 l -0.01,0.03 -0.01,0.04 -0.01,0.03 -0.01,0.03 -0.01,0.03 -0.01,0.02 -0.02,0.03 -0.01,0.02 -0.02,0.02 -0.02,0.02 -0.03,0.02 -0.02,0.01 -0.03,0.01 -0.03,0.02 -0.03,0.01 h -0.03 l -0.02,0.01 h -0.02 -0.02 l -0.02,0.01 h -0.02 -0.02 -0.02 -0.02 c -0.17,0 -0.25,0 -0.7,-0.42 -0.07,-0.03 -0.41,-0.35 -0.63,-0.53 -1.05,0.73 -2.36,0.95 -3.66,0.95 -4.98,0 -6.17,-2.63 -6.17,-4.36 0,-1.13 0.5,-2.02 1.33,-2.72 1.33,-1.16 2.66,-1.39 4.81,-1.75 1.74,-0.31 4.57,-0.8 4.57,-3.12 0,-1.36 -0.94,-2.97 -4.29,-2.97 -3.34,0 -4.56,2.2 -5.2,4.56 -0.09,0.45 -0.14,0.59 -0.62,0.59 -0.6,0 -0.6,-0.23 -0.6,-0.93 v -4.29 c 0,-0.59 0,-0.9 0.5,-0.9 0.32,0 0.97,0.73 1.67,1.5 1.54,-1.44 3.41,-1.5 4.25,-1.5 4.54,0 6.21,2.44 6.21,4.9 0,1.33 -0.6,2.38 -1.5,3.21 -1.33,1.22 -2.94,1.5 -4.16,1.72 -2.78,0.48 -5.05,0.9 -5.05,2.75 0,1.11 0.94,2.46 4.25,2.46 4.05,0 4.22,-2.82 4.29,-3.82 0.04,-0.39 0.45,-0.39 0.59,-0.39 0.59,0 0.59,0.25 0.59,0.9 z"
             inkscape:connector-curvature="0"
             style="fill:#600000;fill-opacity:1;stroke-width:0" /></g>      </g>
      <g
         style="fill:#000060;fill-opacity:1"
         id="g17304"
         transform="matrix(0.18,0,0,0.18,768.8931,1128.9784)">
        <g
           id="g17306"
           transform="matrix(1.0629921,0,0,-1.0629921,-186.02362,789.27165)"
           xml:space="preserve"
           stroke-miterlimit="10.433"
           font-style="normal"
           font-variant="normal"
           font-weight="normal"
           font-stretch="normal"
           font-size-adjust="none"
           letter-spacing="normal"
           word-spacing="normal"
           style="font-style:normal;font-variant:normal;font-weight:normal;font-stretch:normal;letter-spacing:normal;word-spacing:normal;text-anchor:start;fill:#000060;fill-opacity:1;stroke:#000000;stroke-width:5.55555534;stroke-linecap:butt;stroke-linejoin:miter;stroke-miterlimit:10.43299961;stroke-dasharray:none;stroke-dashoffset:0;stroke-opacity:1"><path
             d="m 485.66,424.73 v 0.21 l -0.01,0.2 -0.01,0.2 -0.02,0.19 -0.02,0.18 -0.03,0.18 -0.03,0.17 -0.04,0.16 -0.04,0.16 -0.04,0.16 -0.05,0.14 -0.05,0.14 -0.05,0.13 -0.06,0.13 -0.07,0.12 -0.06,0.12 -0.07,0.1 -0.07,0.1 -0.08,0.1 -0.08,0.09 -0.08,0.08 -0.08,0.07 -0.08,0.07 -0.09,0.06 -0.09,0.05 -0.09,0.05 -0.1,0.04 -0.09,0.03 -0.1,0.02 -0.1,0.02 -0.1,0.01 h -0.1 c -1.3,0 -2.64,-1.18 -2.64,-2.34 0,-0.48 0.23,-1.03 0.73,-1.48 0.86,-0.75 1.75,-2.1 1.75,-4.19 0,-2 -0.95,-4.83 -2.48,-7.13 -1.5,-2.14 -3.35,-3.82 -5.69,-3.82 -2.85,0 -4.39,1.78 -4.83,4.46 0.55,1.3 1.69,4.49 1.69,5.9 0,0.59 -0.25,1.09 -0.89,1.09 -0.41,0 -0.96,-0.11 -1.35,-0.84 -0.54,-1 -1.15,-4.24 -1.15,-6.04 -1.64,-2.34 -3.63,-4.57 -6.77,-4.57 -3.3,0 -4.34,2.93 -4.34,5.71 0,6.24 5.09,11.47 5.09,12.11 0,0.55 -0.41,0.96 -0.95,0.96 -0.66,0 -1,-0.66 -1.3,-1.11 -2.55,-3.69 -4.44,-9.61 -4.44,-14.14 0,-3.44 1.16,-7.13 5.24,-7.13 3.53,0 5.87,2.49 7.67,5.24 0.45,-2.89 2.39,-5.24 5.48,-5.24 3.89,0 6.29,3.03 8.07,6.78 1.2,2.44 3.09,9.21 3.09,12.3 z"
             id="path17308"
             inkscape:connector-curvature="0"
             style="fill:#000060;fill-opacity:1;stroke-width:0" /><path
             d="m 493.42,406.7 v 0.28 l 0.01,0.28 0.02,0.28 0.03,0.28 0.04,0.28 0.05,0.29 0.05,0.28 0.06,0.28 0.07,0.27 0.08,0.28 0.09,0.27 0.1,0.26 0.11,0.26 0.12,0.25 0.13,0.25 0.13,0.24 0.15,0.23 0.15,0.22 0.17,0.21 0.18,0.19 0.18,0.19 0.2,0.18 0.21,0.16 0.21,0.15 0.23,0.13 0.24,0.12 0.25,0.1 0.26,0.09 0.27,0.06 0.28,0.05 0.3,0.03 0.3,0.01 c -0.31,-0.25 -0.59,-0.7 -0.59,-1.25 0,-1.15 0.9,-1.61 1.56,-1.61 0.84,0 1.61,0.57 1.61,1.61 0,1.19 -1.13,2.22 -2.77,2.22 -1.73,0 -3.65,-1.08 -4.7,-3.72 h -0.03 v 3.72 l -4.99,-0.37 v -1.25 c 2.35,0 2.63,-0.25 2.63,-1.96 v -9.03 c 0,-1.5 -0.36,-1.5 -2.63,-1.5 v -1.25 c 0.18,0 2.55,0.14 3.97,0.14 1.5,0 3.05,-0.08 4.53,-0.14 v 1.25 H 496 c -2.58,0 -2.58,0.39 -2.58,1.58 z"
             id="path17310"
             inkscape:connector-curvature="0"
             style="fill:#000060;fill-opacity:1;stroke-width:0" /></g>      </g>
      <g
         style="fill:#600000;fill-opacity:1"
         id="g29638"
         transform="matrix(0.18,0,0,0.18,676.59052,1120.5543)">
        <g
           word-spacing="normal"
           letter-spacing="normal"
           font-size-adjust="none"
           font-stretch="normal"
           font-weight="normal"
           font-variant="normal"
           font-style="normal"
           stroke-miterlimit="10.433"
           xml:space="preserve"
           transform="matrix(1.0629921,0,0,-1.0629921,-186.02362,789.27165)"
           id="g29640"
           style="font-style:normal;font-variant:normal;font-weight:normal;font-stretch:normal;letter-spacing:normal;word-spacing:normal;text-anchor:start;fill:#600000;fill-opacity:1;stroke:#000000;stroke-width:5.55555534;stroke-linecap:butt;stroke-linejoin:miter;stroke-miterlimit:10.43299961;stroke-dasharray:none;stroke-dashoffset:0;stroke-opacity:1"><path
             id="path29642"
             d="m 488.35,417.65 h 0.16 0.16 l 0.15,0.01 h 0.08 l 0.08,0.01 h 0.07 l 0.08,0.01 0.07,0.01 0.07,0.01 0.07,0.02 0.07,0.02 0.07,0.02 0.06,0.02 0.06,0.02 0.06,0.03 0.05,0.03 0.06,0.04 0.05,0.03 0.04,0.05 0.04,0.04 0.04,0.05 0.02,0.03 0.02,0.03 0.01,0.03 0.02,0.03 0.01,0.03 0.02,0.03 0.01,0.04 0.01,0.03 0.01,0.04 v 0.04 l 0.01,0.04 0.01,0.04 v 0.04 l 0.01,0.04 v 0.05 0.04 c 0,1 -0.91,1 -1.75,1 h -26.96 c -0.84,0 -1.73,0 -1.73,-1 0,-1 0.89,-1 1.73,-1 z"
             inkscape:connector-curvature="0"
             style="fill:#600000;fill-opacity:1;stroke-width:0" /><path
             id="path29644"
             d="m 524.42,424.73 v 0.21 l -0.01,0.2 -0.01,0.2 -0.02,0.19 -0.02,0.18 -0.03,0.18 -0.03,0.17 -0.04,0.16 -0.04,0.16 -0.04,0.16 -0.05,0.14 -0.05,0.14 -0.06,0.13 -0.06,0.13 -0.06,0.12 -0.06,0.12 -0.07,0.1 -0.08,0.1 -0.07,0.1 -0.08,0.09 -0.08,0.08 -0.08,0.07 -0.09,0.07 -0.08,0.06 -0.09,0.05 -0.1,0.05 -0.09,0.04 -0.1,0.03 -0.09,0.02 -0.1,0.02 -0.1,0.01 h -0.11 c -1.29,0 -2.64,-1.18 -2.64,-2.34 0,-0.48 0.24,-1.03 0.74,-1.48 0.86,-0.75 1.75,-2.1 1.75,-4.19 0,-2 -0.96,-4.83 -2.49,-7.13 -1.5,-2.14 -3.34,-3.82 -5.69,-3.82 -2.84,0 -4.39,1.78 -4.82,4.46 0.54,1.3 1.68,4.49 1.68,5.9 0,0.59 -0.25,1.09 -0.89,1.09 -0.4,0 -0.95,-0.11 -1.34,-0.84 -0.55,-1 -1.16,-4.24 -1.16,-6.04 -1.64,-2.34 -3.62,-4.57 -6.76,-4.57 -3.3,0 -4.35,2.93 -4.35,5.71 0,6.24 5.1,11.47 5.1,12.11 0,0.55 -0.41,0.96 -0.95,0.96 -0.66,0 -1,-0.66 -1.3,-1.11 -2.55,-3.69 -4.44,-9.61 -4.44,-14.14 0,-3.44 1.16,-7.13 5.24,-7.13 3.53,0 5.87,2.49 7.67,5.24 0.45,-2.89 2.39,-5.24 5.48,-5.24 3.89,0 6.28,3.03 8.06,6.78 1.21,2.44 3.1,9.21 3.1,12.3 z"
             inkscape:connector-curvature="0"
             style="fill:#600000;fill-opacity:1;stroke-width:0" /><path
             id="path29646"
             d="m 538.44,413.4 v 0.06 0.05 0.05 0.05 0.05 0.05 0.04 l -0.01,0.04 v 0.05 0.04 l -0.01,0.03 v 0.04 l -0.01,0.03 -0.01,0.04 -0.01,0.03 -0.01,0.03 -0.01,0.03 -0.02,0.02 -0.01,0.03 -0.02,0.02 -0.02,0.02 -0.02,0.02 -0.02,0.02 -0.02,0.01 -0.03,0.01 -0.03,0.02 -0.03,0.01 h -0.03 l -0.02,0.01 h -0.02 -0.02 l -0.02,0.01 h -0.02 -0.02 -0.02 -0.02 c -0.18,0 -0.25,0 -0.71,-0.42 -0.06,-0.03 -0.4,-0.35 -0.62,-0.53 -1.05,0.73 -2.36,0.95 -3.66,0.95 -4.98,0 -6.17,-2.63 -6.17,-4.36 0,-1.13 0.5,-2.02 1.33,-2.72 1.33,-1.16 2.65,-1.39 4.81,-1.75 1.74,-0.31 4.56,-0.8 4.56,-3.12 0,-1.36 -0.93,-2.97 -4.28,-2.97 -3.34,0 -4.56,2.2 -5.2,4.56 -0.09,0.45 -0.14,0.59 -0.62,0.59 -0.6,0 -0.6,-0.23 -0.6,-0.93 v -4.29 c 0,-0.59 0,-0.9 0.5,-0.9 0.31,0 0.97,0.73 1.67,1.5 1.53,-1.44 3.41,-1.5 4.25,-1.5 4.53,0 6.21,2.44 6.21,4.9 0,1.33 -0.6,2.38 -1.5,3.21 -1.33,1.22 -2.94,1.5 -4.16,1.72 -2.78,0.48 -5.05,0.9 -5.05,2.75 0,1.11 0.94,2.46 4.25,2.46 4.05,0 4.22,-2.82 4.28,-3.82 0.05,-0.39 0.46,-0.39 0.6,-0.39 0.59,0 0.59,0.25 0.59,0.9 z"
             inkscape:connector-curvature="0"
             style="fill:#600000;fill-opacity:1;stroke-width:0" /></g>      </g>
      <g
         style="fill:#000060;fill-opacity:1"
         id="g33770"
         transform="matrix(0.18,0,0,0.18,705.04221,1128.8176)">
        <g
           id="g33772"
           transform="matrix(1.0629921,0,0,-1.0629921,-186.02362,789.27165)"
           xml:space="preserve"
           stroke-miterlimit="10.433"
           font-style="normal"
           font-variant="normal"
           font-weight="normal"
           font-stretch="normal"
           font-size-adjust="none"
           letter-spacing="normal"
           word-spacing="normal"
           style="font-style:normal;font-variant:normal;font-weight:normal;font-stretch:normal;letter-spacing:normal;word-spacing:normal;text-anchor:start;fill:#000060;fill-opacity:1;stroke:#000000;stroke-width:5.55555534;stroke-linecap:butt;stroke-linejoin:miter;stroke-miterlimit:10.43299961;stroke-dasharray:none;stroke-dashoffset:0;stroke-opacity:1"><path
             d="m 488.35,417.65 h 0.16 0.16 l 0.15,0.01 h 0.08 l 0.08,0.01 h 0.07 l 0.08,0.01 0.07,0.01 0.07,0.01 0.07,0.02 0.07,0.02 0.07,0.02 0.06,0.02 0.06,0.02 0.06,0.03 0.05,0.03 0.06,0.04 0.05,0.03 0.04,0.05 0.04,0.04 0.04,0.05 0.02,0.03 0.02,0.03 0.01,0.03 0.02,0.03 0.01,0.03 0.02,0.03 0.01,0.04 0.01,0.03 0.01,0.04 v 0.04 l 0.01,0.04 0.01,0.04 v 0.04 l 0.01,0.04 v 0.05 0.04 c 0,1 -0.91,1 -1.75,1 h -26.96 c -0.84,0 -1.73,0 -1.73,-1 0,-1 0.89,-1 1.73,-1 z"
             id="path33774"
             inkscape:connector-curvature="0"
             style="fill:#000060;fill-opacity:1;stroke-width:0" /><path
             d="m 524.42,424.73 v 0.21 l -0.01,0.2 -0.01,0.2 -0.02,0.19 -0.02,0.18 -0.03,0.18 -0.03,0.17 -0.04,0.16 -0.04,0.16 -0.04,0.16 -0.05,0.14 -0.05,0.14 -0.06,0.13 -0.06,0.13 -0.06,0.12 -0.06,0.12 -0.07,0.1 -0.08,0.1 -0.07,0.1 -0.08,0.09 -0.08,0.08 -0.08,0.07 -0.09,0.07 -0.08,0.06 -0.09,0.05 -0.1,0.05 -0.09,0.04 -0.1,0.03 -0.09,0.02 -0.1,0.02 -0.1,0.01 h -0.11 c -1.29,0 -2.64,-1.18 -2.64,-2.34 0,-0.48 0.24,-1.03 0.74,-1.48 0.86,-0.75 1.75,-2.1 1.75,-4.19 0,-2 -0.96,-4.83 -2.49,-7.13 -1.5,-2.14 -3.34,-3.82 -5.69,-3.82 -2.84,0 -4.39,1.78 -4.82,4.46 0.54,1.3 1.68,4.49 1.68,5.9 0,0.59 -0.25,1.09 -0.89,1.09 -0.4,0 -0.95,-0.11 -1.34,-0.84 -0.55,-1 -1.16,-4.24 -1.16,-6.04 -1.64,-2.34 -3.62,-4.57 -6.76,-4.57 -3.3,0 -4.35,2.93 -4.35,5.71 0,6.24 5.1,11.47 5.1,12.11 0,0.55 -0.41,0.96 -0.95,0.96 -0.66,0 -1,-0.66 -1.3,-1.11 -2.55,-3.69 -4.44,-9.61 -4.44,-14.14 0,-3.44 1.16,-7.13 5.24,-7.13 3.53,0 5.87,2.49 7.67,5.24 0.45,-2.89 2.39,-5.24 5.48,-5.24 3.89,0 6.28,3.03 8.06,6.78 1.21,2.44 3.1,9.21 3.1,12.3 z"
             id="path33776"
             inkscape:connector-curvature="0"
             style="fill:#000060;fill-opacity:1;stroke-width:0" /><path
             d="m 532.18,406.7 v 0.28 l 0.01,0.28 0.02,0.28 0.03,0.28 0.04,0.28 0.04,0.29 0.06,0.28 0.06,0.28 0.07,0.27 0.08,0.28 0.09,0.27 0.1,0.26 0.11,0.26 0.12,0.25 0.12,0.25 0.14,0.24 0.15,0.23 0.15,0.22 0.17,0.21 0.17,0.19 0.19,0.19 0.2,0.18 0.2,0.16 0.22,0.15 0.23,0.13 0.24,0.12 0.25,0.1 0.26,0.09 0.27,0.06 0.28,0.05 0.29,0.03 0.31,0.01 c -0.32,-0.25 -0.6,-0.7 -0.6,-1.25 0,-1.15 0.91,-1.61 1.57,-1.61 0.84,0 1.61,0.57 1.61,1.61 0,1.19 -1.13,2.22 -2.77,2.22 -1.73,0 -3.66,-1.08 -4.7,-3.72 h -0.03 v 3.72 l -4.99,-0.37 v -1.25 c 2.34,0 2.63,-0.25 2.63,-1.96 v -9.03 c 0,-1.5 -0.36,-1.5 -2.63,-1.5 v -1.25 c 0.17,0 2.55,0.14 3.97,0.14 1.5,0 3.05,-0.08 4.53,-0.14 v 1.25 h -0.69 c -2.57,0 -2.57,0.39 -2.57,1.58 z"
             id="path33778"
             inkscape:connector-curvature="0"
             style="fill:#000060;fill-opacity:1;stroke-width:0" /></g>      </g>
      <g
         id="g37912"
         transform="matrix(0.18,0,0,0.18,715.67214,1118.1877)">
        <g
           word-spacing="normal"
           letter-spacing="normal"
           font-size-adjust="none"
           font-stretch="normal"
           font-weight="normal"
           font-variant="normal"
           font-style="normal"
           stroke-miterlimit="10.433"
           xml:space="preserve"
           transform="matrix(1.0629921,0,0,-1.0629921,-186.02362,789.27165)"
           id="g37914"
           style="font-style:normal;font-variant:normal;font-weight:normal;font-stretch:normal;letter-spacing:normal;word-spacing:normal;text-anchor:start;fill:none;stroke:#000000;stroke-width:5.55555534;stroke-linecap:butt;stroke-linejoin:miter;stroke-miterlimit:10.43299961;stroke-dasharray:none;stroke-dashoffset:0;stroke-opacity:1"><path
             id="path37916"
             d="m 488.35,417.65 h 0.16 0.16 l 0.15,0.01 h 0.08 l 0.08,0.01 h 0.07 l 0.08,0.01 0.07,0.01 0.07,0.01 0.07,0.02 0.07,0.02 0.07,0.02 0.06,0.02 0.06,0.02 0.06,0.03 0.05,0.03 0.06,0.04 0.05,0.03 0.04,0.05 0.04,0.04 0.04,0.05 0.02,0.03 0.02,0.03 0.01,0.03 0.02,0.03 0.01,0.03 0.02,0.03 0.01,0.04 0.01,0.03 0.01,0.04 v 0.04 l 0.01,0.04 0.01,0.04 v 0.04 l 0.01,0.04 v 0.05 0.04 c 0,1 -0.91,1 -1.75,1 h -26.96 c -0.84,0 -1.73,0 -1.73,-1 0,-1 0.89,-1 1.73,-1 z"
             inkscape:connector-curvature="0"
             style="fill:#000000;stroke-width:0" /><path
             id="path37918"
             d="m 524.42,424.73 v 0.21 l -0.01,0.2 -0.01,0.2 -0.02,0.19 -0.02,0.18 -0.03,0.18 -0.03,0.17 -0.04,0.16 -0.04,0.16 -0.04,0.16 -0.05,0.14 -0.05,0.14 -0.06,0.13 -0.06,0.13 -0.06,0.12 -0.06,0.12 -0.07,0.1 -0.08,0.1 -0.07,0.1 -0.08,0.09 -0.08,0.08 -0.08,0.07 -0.09,0.07 -0.08,0.06 -0.09,0.05 -0.1,0.05 -0.09,0.04 -0.1,0.03 -0.09,0.02 -0.1,0.02 -0.1,0.01 h -0.11 c -1.29,0 -2.64,-1.18 -2.64,-2.34 0,-0.48 0.24,-1.03 0.74,-1.48 0.86,-0.75 1.75,-2.1 1.75,-4.19 0,-2 -0.96,-4.83 -2.49,-7.13 -1.5,-2.14 -3.34,-3.82 -5.69,-3.82 -2.84,0 -4.39,1.78 -4.82,4.46 0.54,1.3 1.68,4.49 1.68,5.9 0,0.59 -0.25,1.09 -0.89,1.09 -0.4,0 -0.95,-0.11 -1.34,-0.84 -0.55,-1 -1.16,-4.24 -1.16,-6.04 -1.64,-2.34 -3.62,-4.57 -6.76,-4.57 -3.3,0 -4.35,2.93 -4.35,5.71 0,6.24 5.1,11.47 5.1,12.11 0,0.55 -0.41,0.96 -0.95,0.96 -0.66,0 -1,-0.66 -1.3,-1.11 -2.55,-3.69 -4.44,-9.61 -4.44,-14.14 0,-3.44 1.16,-7.13 5.24,-7.13 3.53,0 5.87,2.49 7.67,5.24 0.45,-2.89 2.39,-5.24 5.48,-5.24 3.89,0 6.28,3.03 8.06,6.78 1.21,2.44 3.1,9.21 3.1,12.3 z"
             inkscape:connector-curvature="0"
             style="fill:#000000;stroke-width:0" /><path
             id="path37920"
             d="m 530.25,404.96 0.06,-0.03 0.05,-0.03 0.06,-0.03 0.07,-0.04 0.07,-0.04 0.07,-0.04 0.08,-0.04 0.08,-0.05 0.08,-0.04 0.09,-0.04 0.1,-0.05 0.1,-0.04 0.1,-0.05 0.11,-0.04 0.11,-0.05 0.12,-0.04 0.12,-0.04 0.12,-0.05 0.13,-0.04 0.13,-0.03 0.14,-0.04 0.14,-0.04 0.15,-0.03 0.15,-0.03 0.16,-0.03 0.16,-0.02 0.16,-0.02 0.17,-0.02 0.17,-0.01 0.18,-0.01 0.18,-0.01 h 0.19 c 3.6,0 6.2,2.4 6.2,5.12 0,1.36 -0.62,2.44 -1.47,3.35 1.58,1.1 2.94,1.14 3.54,1.14 -0.14,-0.14 -0.32,-0.29 -0.32,-0.83 0,-0.71 0.52,-1.13 1.11,-1.13 0.49,0 1.11,0.36 1.11,1.16 0,0.8 -0.65,1.78 -2.04,1.78 -0.53,0 -2.41,-0.11 -4.05,-1.61 -1.05,0.77 -2.5,1.25 -4.05,1.25 l -0.03,-1.03 c 3.42,0 3.42,-3.36 3.42,-4.08 0,-0.56 0,-1.95 -0.7,-2.86 -0.49,-0.59 -1.42,-1.22 -2.69,-1.22 v 0 c -3.4,0 -3.4,3.35 -3.4,4.08 0,0.55 0,1.95 0.68,2.85 0.5,0.59 1.44,1.23 2.69,1.23 l 0.03,1.03 c -3.58,0 -6.2,-2.39 -6.2,-5.11 0,-1.36 0.7,-2.62 1.69,-3.53 -0.29,-0.31 -1.05,-1.45 -1.05,-2.81 0,-0.46 0.09,-2.1 1.45,-3.11 -1.56,-0.52 -3.37,-1.67 -3.37,-3.49 0,-2.54 3.83,-4.45 8.53,-4.45 v 1.05 c -3.66,0 -6.41,1.64 -6.41,3.45 0,1.22 1.11,2.7 3.35,2.75 h 2.01 c 3.11,0 7.47,0 7.47,-2.75 0,-1.86 -2.77,-3.45 -6.42,-3.45 v -1.05 c 4.44,0 8.55,1.74 8.55,4.53 0,1.05 -0.43,2.92 -2.35,3.97 -2.05,1.08 -4.11,1.08 -7.48,1.08 -0.77,0 -2.03,0 -2.3,0.03 -1.12,0.25 -1.75,1.3 -1.75,2.31 0,0.86 0.25,1.14 0.45,1.42 z"
             inkscape:connector-curvature="0"
             style="fill:#000000;stroke-width:0" /></g>      </g>
      <path
         style="fill:#c0c0c0;fill-opacity:1;stroke:#000000;stroke-width:1px;stroke-linecap:butt;stroke-linejoin:miter;stroke-opacity:1"
         d="m 775.98425,1176.3779 c 8.50394,-7.4385 0,-28.3466 12.7559,-17.7165 4.46811,3.7234 12.75592,3.5433 17.00788,0 12.7559,-10.6301 4.25196,10.6299 12.7559,17.7165"
         id="path5017-3-2-1"
         inkscape:connector-curvature="0"
         sodipodi:nodetypes="cssc" />
      <path
         style="fill:#c0c0c0;fill-opacity:1;stroke:#000000;stroke-width:1px;stroke-linecap:butt;stroke-linejoin:miter;stroke-opacity:1"
         d="m 719.29134,1176.3779 c 8.50394,-7.4385 0,-28.3466 12.7559,-17.7165 4.46811,3.7234 12.75592,3.5433 17.00788,0 12.7559,-10.6301 4.25196,10.6299 12.7559,17.7165"
         id="path5017-3-2-0"
         inkscape:connector-curvature="0"
         sodipodi:nodetypes="cssc" />
      <path
         inkscape:connector-curvature="0"
         id="path17003-5-1-3-1-09-0-1-6-1-5-5-2-2-5-1-2-7-8-1-5-9-6-34"
         d="m 742.32288,1143.6022 -1.7717,-6.2007 -1.7716,6.2007 z"
         style="fill:#600000;fill-opacity:1;stroke:none"
         sodipodi:nodetypes="cccc" />
      <path
         style="fill:#600000;fill-opacity:1;stroke:#600000;stroke-width:1px;stroke-linecap:butt;stroke-linejoin:miter;stroke-opacity:1"
         d="m 740.55119,1176.3779 v -35.433"
         id="path7035-2-7"
         inkscape:connector-curvature="0" />
      <path
         style="fill:none;stroke:#000060;stroke-width:0.35433072;stroke-linecap:square;stroke-linejoin:miter;stroke-miterlimit:4;stroke-dasharray:1.06299214, 1.06299214;stroke-dashoffset:0;stroke-opacity:1"
         d="m 825.59055,1176.3779 v 10.63"
         id="path6809-5"
         inkscape:connector-curvature="0" />
      <path
         style="fill:none;stroke:#000060;stroke-width:0.35433072;stroke-linecap:square;stroke-linejoin:miter;stroke-miterlimit:4;stroke-dasharray:1.06299214, 1.06299214;stroke-dashoffset:0;stroke-opacity:1"
         d="m 768.89764,1176.3779 v 10.63"
         id="path6809-5-4"
         inkscape:connector-curvature="0" />
      <g
         id="g42142"
         transform="matrix(0.25,0,0,0.25,807.19592,1096.9449)">
        <g
           id="g42144"
           transform="matrix(1.0629921,0,0,-1.0629921,-186.02362,789.27165)"
           xml:space="preserve"
           stroke-miterlimit="10.433"
           font-style="normal"
           font-variant="normal"
           font-weight="normal"
           font-stretch="normal"
           font-size-adjust="none"
           letter-spacing="normal"
           word-spacing="normal"
           style="font-style:normal;font-variant:normal;font-weight:normal;font-stretch:normal;letter-spacing:normal;word-spacing:normal;text-anchor:start;fill:none;stroke:#000000;stroke-width:4;stroke-linecap:butt;stroke-linejoin:miter;stroke-miterlimit:10.43299961;stroke-dasharray:none;stroke-dashoffset:0;stroke-opacity:1"><path
             d="m 485.66,424.73 v 0.21 l -0.01,0.2 -0.01,0.2 -0.02,0.19 -0.02,0.18 -0.03,0.18 -0.03,0.17 -0.04,0.16 -0.04,0.16 -0.04,0.16 -0.05,0.14 -0.05,0.14 -0.05,0.13 -0.06,0.13 -0.07,0.12 -0.06,0.12 -0.07,0.1 -0.07,0.1 -0.08,0.1 -0.08,0.09 -0.08,0.08 -0.08,0.07 -0.08,0.07 -0.09,0.06 -0.09,0.05 -0.09,0.05 -0.1,0.04 -0.09,0.03 -0.1,0.02 -0.1,0.02 -0.1,0.01 h -0.1 c -1.3,0 -2.64,-1.18 -2.64,-2.34 0,-0.48 0.23,-1.03 0.73,-1.48 0.86,-0.75 1.75,-2.1 1.75,-4.19 0,-2 -0.95,-4.83 -2.48,-7.13 -1.5,-2.14 -3.35,-3.82 -5.69,-3.82 -2.85,0 -4.39,1.78 -4.83,4.46 0.55,1.3 1.69,4.49 1.69,5.9 0,0.59 -0.25,1.09 -0.89,1.09 -0.41,0 -0.96,-0.11 -1.35,-0.84 -0.54,-1 -1.15,-4.24 -1.15,-6.04 -1.64,-2.34 -3.63,-4.57 -6.77,-4.57 -3.3,0 -4.34,2.93 -4.34,5.71 0,6.24 5.09,11.47 5.09,12.11 0,0.55 -0.41,0.96 -0.95,0.96 -0.66,0 -1,-0.66 -1.3,-1.11 -2.55,-3.69 -4.44,-9.61 -4.44,-14.14 0,-3.44 1.16,-7.13 5.24,-7.13 3.53,0 5.87,2.49 7.67,5.24 0.45,-2.89 2.39,-5.24 5.48,-5.24 3.89,0 6.29,3.03 8.07,6.78 1.2,2.44 3.09,9.21 3.09,12.3 z"
             id="path42146"
             inkscape:connector-curvature="0"
             style="fill:#000000;stroke-width:0" /></g>      </g>
      <g
         style="fill:#000060;fill-opacity:1;stroke:#000080;stroke-opacity:1"
         id="g54646"
         transform="matrix(0.2,0,0,0.2,692.18788,1078.4239)">
        <g
           word-spacing="normal"
           letter-spacing="normal"
           font-size-adjust="none"
           font-stretch="normal"
           font-weight="normal"
           font-variant="normal"
           font-style="normal"
           stroke-miterlimit="10.433"
           xml:space="preserve"
           transform="matrix(1.0629921,0,0,-1.0629921,-186.02362,789.27165)"
           id="g54648"
           style="font-style:normal;font-variant:normal;font-weight:normal;font-stretch:normal;letter-spacing:normal;word-spacing:normal;text-anchor:start;fill:#000060;fill-opacity:1;stroke:#000080;stroke-width:5;stroke-linecap:butt;stroke-linejoin:miter;stroke-miterlimit:10.43299961;stroke-dasharray:none;stroke-dashoffset:0;stroke-opacity:1"><path
             id="path54650"
             d="m 476.8,436.43 0.02,0.07 0.01,0.06 0.03,0.12 0.03,0.12 0.03,0.11 0.03,0.11 0.03,0.09 0.03,0.1 0.03,0.09 0.03,0.08 0.03,0.08 0.03,0.07 0.03,0.07 0.03,0.06 0.03,0.06 0.03,0.06 0.03,0.05 0.03,0.05 0.03,0.04 0.04,0.04 0.03,0.04 0.04,0.04 0.03,0.03 0.04,0.03 0.04,0.03 0.04,0.02 0.05,0.03 0.04,0.02 0.05,0.02 0.04,0.01 0.05,0.02 0.06,0.01 0.05,0.02 c 0.45,0.11 2.1,0.11 3.14,0.11 5.03,0 7.27,-0.21 7.27,-4.1 0,-0.73 -0.19,-2.68 -0.39,-3.98 -0.05,-0.19 -0.16,-0.8 -0.16,-0.94 0,-0.3 0.16,-0.66 0.59,-0.66 0.57,0 0.66,0.41 0.75,1.16 l 1.35,8.66 c 0.06,0.2 0.11,0.7 0.11,0.86 0,0.54 -0.5,0.54 -1.35,0.54 H 461.6 c -1.21,0 -1.25,-0.06 -1.6,-1 l -2.98,-8.76 c -0.06,-0.11 -0.3,-0.8 -0.3,-0.91 0,-0.3 0.24,-0.55 0.6,-0.55 0.5,0 0.54,0.25 0.84,1.05 2.69,7.72 3.98,8.63 11.36,8.63 h 1.94 c 1.4,0 1.4,-0.21 1.4,-0.6 0,-0.31 -0.15,-0.9 -0.2,-1.04 l -6.67,-26.61 c -0.45,-1.85 -0.61,-2.39 -5.94,-2.39 -1.8,0 -2.09,0 -2.09,-0.96 0,-0.59 0.54,-0.59 0.84,-0.59 1.36,0 2.75,0.09 4.09,0.09 1.4,0 2.85,0.07 4.24,0.07 1.39,0 2.78,-0.07 4.14,-0.07 1.44,0 2.94,-0.09 4.33,-0.09 0.5,0 1.09,0 1.09,1 0,0.55 -0.39,0.55 -1.69,0.55 -1.25,0 -1.89,0 -3.18,0.09 -1.46,0.16 -1.85,0.3 -1.85,1.09 0,0.07 0,0.32 0.19,1.05 z"
             inkscape:connector-curvature="0"
             style="fill:#000060;fill-opacity:1;stroke:#000080;stroke-width:0;stroke-opacity:1" /><path
             id="path54652"
             d="m 491.04,413.4 v 0.06 0.05 0.05 0.05 0.05 0.05 0.04 0.04 l -0.01,0.05 v 0.04 l -0.01,0.03 v 0.04 l -0.01,0.03 -0.01,0.04 -0.01,0.03 -0.01,0.03 -0.01,0.03 -0.01,0.02 -0.02,0.03 -0.02,0.02 -0.01,0.02 -0.02,0.02 -0.03,0.02 -0.02,0.01 -0.03,0.01 -0.03,0.02 -0.03,0.01 h -0.03 l -0.02,0.01 h -0.02 -0.02 l -0.02,0.01 h -0.02 -0.02 -0.02 -0.02 c -0.17,0 -0.25,0 -0.7,-0.42 -0.07,-0.03 -0.41,-0.35 -0.63,-0.53 -1.05,0.73 -2.36,0.95 -3.66,0.95 -4.98,0 -6.17,-2.63 -6.17,-4.36 0,-1.13 0.5,-2.02 1.33,-2.72 1.33,-1.16 2.66,-1.39 4.81,-1.75 1.74,-0.31 4.57,-0.8 4.57,-3.12 0,-1.36 -0.94,-2.97 -4.29,-2.97 -3.34,0 -4.56,2.2 -5.2,4.56 -0.09,0.45 -0.14,0.59 -0.62,0.59 -0.6,0 -0.6,-0.23 -0.6,-0.93 v -4.29 c 0,-0.59 0,-0.9 0.5,-0.9 0.31,0 0.97,0.73 1.67,1.5 1.54,-1.44 3.41,-1.5 4.25,-1.5 4.54,0 6.21,2.44 6.21,4.9 0,1.33 -0.6,2.38 -1.5,3.21 -1.33,1.22 -2.94,1.5 -4.16,1.72 -2.78,0.48 -5.05,0.9 -5.05,2.75 0,1.11 0.94,2.46 4.25,2.46 4.05,0 4.22,-2.82 4.29,-3.82 0.04,-0.39 0.45,-0.39 0.59,-0.39 0.59,0 0.59,0.25 0.59,0.9 z"
             inkscape:connector-curvature="0"
             style="fill:#000060;fill-opacity:1;stroke:#000080;stroke-width:0;stroke-opacity:1" /></g>      </g>
      <g
         transform="matrix(0.25,0,0,0.25,632.39173,1066.8596)"
         id="g58814">
        <g
           style="font-style:normal;font-variant:normal;font-weight:normal;font-stretch:normal;letter-spacing:normal;word-spacing:normal;text-anchor:start;fill:none;stroke:#000000;stroke-width:4;stroke-linecap:butt;stroke-linejoin:miter;stroke-miterlimit:10.43299961;stroke-dasharray:none;stroke-dashoffset:0;stroke-opacity:1"
           id="g58816"
           transform="matrix(1.0629921,0,0,-1.0629921,-186.02362,789.27165)"
           xml:space="preserve"
           stroke-miterlimit="10.433"
           font-style="normal"
           font-variant="normal"
           font-weight="normal"
           font-stretch="normal"
           font-size-adjust="none"
           letter-spacing="normal"
           word-spacing="normal"><path
             style="fill:#000000;stroke-width:0"
             inkscape:connector-curvature="0"
             d="m 480.03,447.92 v 0.04 0.04 0.05 0.04 0.03 0.04 0.04 0.03 l -0.01,0.04 v 0.03 0.03 0.03 0.03 l -0.01,0.03 v 0.03 0.02 L 480,448.5 v 0.02 l -0.01,0.03 v 0.02 l -0.02,0.04 -0.01,0.04 -0.02,0.03 -0.02,0.03 -0.02,0.03 -0.02,0.03 -0.03,0.02 -0.03,0.02 -0.03,0.02 -0.04,0.01 -0.04,0.01 -0.05,0.02 h -0.02 -0.02 l -0.03,0.01 h -0.03 l -0.02,0.01 h -0.03 -0.03 -0.03 -0.04 l -0.03,0.01 h -0.03 -0.04 -0.03 -0.04 -0.04 -0.04 -0.04 -0.05 -0.04 -0.05 c -2.23,-2.2 -5.39,-2.23 -6.82,-2.23 v -1.25 c 0.84,0 3.14,0 5.04,0.97 v -17.77 c 0,-1.16 0,-1.61 -3.48,-1.61 h -1.31 v -1.25 c 0.62,0.03 4.9,0.14 6.2,0.14 1.08,0 5.47,-0.11 6.23,-0.14 v 1.25 h -1.32 c -3.49,0 -3.49,0.45 -3.49,1.61 z"
             id="path58818" /><polyline
             style="fill:#000000;fill-rule:nonzero;stroke-width:0"
             points="462,418 495.6,418 495.6,420.04 462,420.04 "
             id="polyline58820" /><path
             style="fill:#000000;stroke-width:0"
             inkscape:connector-curvature="0"
             d="m 478.46,410.12 0.01,0.04 0.01,0.05 0.01,0.04 0.01,0.05 0.01,0.04 0.01,0.04 0.01,0.04 0.01,0.04 0.02,0.07 0.02,0.07 0.02,0.06 0.02,0.06 0.02,0.06 0.02,0.05 0.02,0.05 0.02,0.04 0.02,0.04 0.03,0.04 0.02,0.04 0.03,0.03 0.02,0.03 0.03,0.02 0.04,0.03 0.03,0.02 0.04,0.02 0.03,0.02 0.04,0.01 0.05,0.02 0.04,0.01 0.05,0.01 0.05,0.01 0.06,0.01 0.06,0.01 h 0.06 l 0.07,0.01 h 0.07 c 0.17,0.04 1.39,0.04 2.09,0.04 2.12,0 3.03,0 3.89,-0.29 1.58,-0.48 1.64,-1.5 1.64,-2.75 0,-0.54 0,-1 -0.23,-2.81 l -0.08,-0.39 c 0,-0.34 0.25,-0.51 0.59,-0.51 0.53,0 0.6,0.31 0.67,0.86 l 0.94,6.65 c 0,0.5 -0.42,0.5 -1.05,0.5 h -21.43 c -0.86,0 -0.94,0 -1.18,-0.73 l -2.2,-6.17 c -0.03,-0.15 -0.17,-0.46 -0.17,-0.63 0,-0.14 0.06,-0.48 0.59,-0.48 0.46,0 0.52,0.17 0.74,0.82 2.01,5.58 3.17,5.93 8.47,5.93 h 1.45 c 1.05,0 1.08,-0.04 1.08,-0.35 0,-0.03 0,-0.2 -0.14,-0.73 l -4.6,-18.33 c -0.31,-1.28 -0.42,-1.64 -4.07,-1.64 -1.25,0 -1.57,0 -1.57,-0.77 0,-0.09 0.07,-0.48 0.6,-0.48 0.97,0 2.01,0.11 2.98,0.11 0.99,0 2.03,0.03 3,0.03 0.99,0 2.17,0 3.14,-0.03 0.94,-0.05 1.99,-0.11 2.92,-0.11 0.28,0 0.82,0 0.82,0.76 0,0.49 -0.36,0.49 -1.44,0.49 -0.66,0 -1.36,0.05 -2.02,0.08 -1.18,0.09 -1.25,0.23 -1.25,0.65 0,0.25 0,0.32 0.13,0.8 z"
             id="path58822" /><path
             style="fill:#000000;stroke-width:0"
             inkscape:connector-curvature="0"
             d="m 490.06,394.47 v 0.04 0.04 0.03 0.04 0.03 0.04 0.03 0.03 l -0.01,0.04 v 0.03 0.02 l -0.01,0.03 -0.01,0.03 v 0.02 l -0.01,0.03 -0.01,0.02 -0.01,0.02 -0.01,0.02 -0.01,0.02 -0.02,0.02 -0.01,0.02 -0.02,0.01 -0.02,0.02 -0.02,0.01 -0.02,0.01 h -0.01 l -0.02,0.01 h -0.01 l -0.01,0.01 h -0.02 -0.01 l -0.01,0.01 h -0.02 -0.02 -0.01 -0.02 l -0.02,0.01 h -0.02 -0.01 c -0.13,0 -0.22,-0.02 -0.43,-0.18 -0.09,-0.09 -0.54,-0.5 -0.64,-0.5 -0.03,0 -0.07,0 -0.23,0.11 -0.56,0.32 -1.48,0.57 -2.74,0.57 -4.1,0 -4.95,-1.89 -4.95,-3.04 0,-2.34 2.89,-2.79 5.17,-3.14 1.46,-0.21 3.74,-0.57 3.74,-2.26 0,-0.88 -0.72,-2.17 -3.74,-2.17 -1.68,0 -3.32,0.62 -4.07,3.26 -0.13,0.46 -0.16,0.52 -0.58,0.52 -0.52,0 -0.52,-0.19 -0.52,-0.72 v -3.19 c 0,-0.42 0,-0.7 0.39,-0.7 0.21,0 0.22,0.03 0.71,0.5 l 0.64,0.62 c 1.25,-1.09 2.81,-1.12 3.43,-1.12 4.16,0 4.99,2.17 4.99,3.42 0,1.13 -0.63,1.94 -1.56,2.53 -1,0.63 -1.75,0.74 -3.85,1.05 -1.59,0.25 -3.51,0.56 -3.51,1.87 0,0.88 0.97,1.82 3.68,1.82 2.08,0 3.27,-0.82 3.43,-2.53 0.01,-0.38 0.04,-0.54 0.51,-0.54 0.53,0 0.53,0.18 0.53,0.71 z"
             id="path58824" /></g>      </g>
      <path
         style="fill:#000060;fill-opacity:1;stroke:#000060;stroke-width:0.35433072;stroke-linecap:square;stroke-linejoin:miter;stroke-miterlimit:4;stroke-dasharray:1.41732287, 1.41732287;stroke-dashoffset:0;stroke-opacity:1"
         d="m 768.89764,1148.0314 h -7.08661"
         id="path6809-5-4-0"
         inkscape:connector-curvature="0" />
      <path
         inkscape:connector-curvature="0"
         id="path17003-5-1-3-1-09-0-1-6-1-5-5-2-2-5-1-2-7-8-1-5-9-6-34-3"
         d="m 799.01578,1143.6022 -1.7717,-6.2007 -1.7716,6.2007 z"
         style="fill:#600000;fill-opacity:1;stroke:none"
         sodipodi:nodetypes="cccc" />
      <path
         style="fill:none;stroke:#600000;stroke-width:1px;stroke-linecap:butt;stroke-linejoin:miter;stroke-opacity:1"
         d="m 797.24409,1176.3779 v -35.433"
         id="path7035-2-7-7"
         inkscape:connector-curvature="0" />
      <path
         inkscape:connector-curvature="0"
         id="path17003-5-1-3-1-09-0-1-6-1-5-5-2-2-5-1-2-7-8-1-5-9-6-34-4"
         d="m 855.7087,1143.6022 -1.7717,-6.2007 -1.7716,6.2007 z"
         style="fill:#600000;fill-opacity:1;stroke:none"
         sodipodi:nodetypes="cccc" />
      <path
         style="fill:none;stroke:#600000;stroke-width:0.99921262;stroke-linecap:butt;stroke-linejoin:miter;stroke-miterlimit:4;stroke-dasharray:none;stroke-opacity:1"
         d="m 853.93701,1176.3779 v -35.433"
         id="path7035-2-7-9"
         inkscape:connector-curvature="0" />
      <path
         style="fill:#600000;fill-opacity:1;stroke:#600000;stroke-width:0.35433072;stroke-linecap:square;stroke-linejoin:miter;stroke-miterlimit:4;stroke-dasharray:1.41732287, 1.41732287;stroke-dashoffset:0;stroke-opacity:1"
         d="M 733.46457,1137.4015 H 853.93701"
         id="path6809-9"
         inkscape:connector-curvature="0" />
      <g
         style="fill:#600000;fill-opacity:1;stroke:#600000;stroke-opacity:1"
         transform="matrix(0.2,0,0,0.2,660.62977,1068.6302)"
         id="g75675">
        <g
           style="font-style:normal;font-variant:normal;font-weight:normal;font-stretch:normal;letter-spacing:normal;word-spacing:normal;text-anchor:start;fill:#600000;fill-opacity:1;stroke:#600000;stroke-width:5;stroke-linecap:butt;stroke-linejoin:miter;stroke-miterlimit:10.43299961;stroke-dasharray:none;stroke-dashoffset:0;stroke-opacity:1"
           id="g75677"
           transform="matrix(1.0629921,0,0,-1.0629921,-186.02362,789.27165)"
           xml:space="preserve"
           stroke-miterlimit="10.433"
           font-style="normal"
           font-variant="normal"
           font-weight="normal"
           font-stretch="normal"
           font-size-adjust="none"
           letter-spacing="normal"
           word-spacing="normal"><path
             style="fill:#600000;fill-opacity:1;stroke:#600000;stroke-width:0;stroke-opacity:1"
             inkscape:connector-curvature="0"
             d="m 479.11,432.11 h -1.18 c -0.1,-0.77 -0.46,-2.83 -0.91,-3.18 -0.27,-0.2 -2.95,-0.2 -3.44,-0.2 h -6.42 c 3.66,3.23 4.88,4.2 6.97,5.84 2.58,2.07 4.98,4.22 4.98,7.54 0,4.21 -3.68,6.79 -8.15,6.79 -4.32,0 -7.25,-3.03 -7.25,-6.23 0,-1.78 1.5,-1.96 1.86,-1.96 0.82,0 1.84,0.6 1.84,1.85 0,0.62 -0.25,1.84 -2.06,1.84 1.08,2.47 3.45,3.24 5.09,3.24 3.49,0 5.3,-2.71 5.3,-5.53 0,-3.04 -2.16,-5.44 -3.28,-6.69 l -8.39,-8.3 c -0.36,-0.31 -0.36,-0.39 -0.36,-1.36 h 14.36 z"
             id="path75679" /><path
             style="fill:#600000;fill-opacity:1;stroke:#600000;stroke-width:0;stroke-opacity:1"
             inkscape:connector-curvature="0"
             d="m 492.16,438.42 h 4.14 c -0.53,-2.1 -1.3,-5.27 -1.3,-8.02 0,-1.4 0.19,-2.34 0.39,-3.11 0.57,-1.73 1.02,-1.87 1.57,-1.87 0.81,0 1.64,0.73 1.64,1.56 0,0.28 -0.06,0.42 -0.28,0.77 -0.66,1.29 -1.28,3.28 -1.28,6.14 0,0.65 0,2.04 0.48,4.53 h 4.36 c 0.62,0 0.91,0 1.28,0.26 0.48,0.36 0.59,0.91 0.59,1.08 0,1.02 -0.9,1.02 -1.5,1.02 h -13.12 c -1.44,0 -2.41,-0.32 -3.99,-1.78 -0.9,-0.8 -2.26,-2.68 -2.26,-2.99 0,-0.42 0.45,-0.42 0.59,-0.42 0.39,0 0.42,0.06 0.63,0.37 1.78,2.46 3.94,2.46 4.7,2.46 h 2.13 c -1.08,-3.85 -2.96,-7.96 -4,-10.05 -0.21,-0.45 -0.57,-1.19 -0.66,-1.31 -0.05,-0.14 -0.11,-0.28 -0.11,-0.53 0,-0.57 0.42,-1.11 1.22,-1.11 1.39,0 1.78,1.56 2.61,4.7 z"
             id="path75681" /><polyline
             style="fill:#600000;fill-opacity:1;fill-rule:nonzero;stroke:#600000;stroke-width:0;stroke-opacity:1"
             points="462,418 506.52,418 506.52,420.04 462,420.04 "
             id="polyline75683" /><path
             style="fill:#600000;fill-opacity:1;stroke:#600000;stroke-width:0;stroke-opacity:1"
             inkscape:connector-curvature="0"
             d="m 483.86,410.12 0.01,0.04 0.01,0.05 0.01,0.04 0.01,0.05 0.01,0.04 0.01,0.04 0.01,0.04 0.01,0.04 0.02,0.07 0.02,0.07 0.02,0.06 0.02,0.06 0.02,0.06 0.02,0.05 0.02,0.05 0.02,0.04 0.02,0.04 0.03,0.04 0.02,0.04 0.03,0.03 0.03,0.03 0.03,0.02 0.03,0.03 0.03,0.02 0.04,0.02 0.04,0.02 0.04,0.01 0.04,0.02 0.05,0.01 0.04,0.01 0.06,0.01 0.05,0.01 0.06,0.01 h 0.06 l 0.07,0.01 h 0.07 c 0.17,0.04 1.39,0.04 2.09,0.04 2.13,0 3.03,0 3.89,-0.29 1.58,-0.48 1.64,-1.5 1.64,-2.75 0,-0.54 0,-1 -0.23,-2.81 l -0.08,-0.39 c 0,-0.34 0.25,-0.51 0.59,-0.51 0.54,0 0.6,0.31 0.68,0.86 l 0.93,6.65 c 0,0.5 -0.42,0.5 -1.04,0.5 h -21.44 c -0.86,0 -0.94,0 -1.17,-0.73 l -2.21,-6.17 c -0.03,-0.15 -0.17,-0.46 -0.17,-0.63 0,-0.14 0.06,-0.48 0.6,-0.48 0.45,0 0.51,0.17 0.73,0.82 2.02,5.58 3.17,5.93 8.47,5.93 h 1.45 c 1.05,0 1.08,-0.04 1.08,-0.35 0,-0.03 0,-0.2 -0.14,-0.73 l -4.59,-18.33 c -0.32,-1.28 -0.43,-1.64 -4.08,-1.64 -1.25,0 -1.56,0 -1.56,-0.77 0,-0.09 0.06,-0.48 0.59,-0.48 0.97,0 2.01,0.11 2.98,0.11 0.99,0 2.03,0.03 3,0.03 0.99,0 2.17,0 3.14,-0.03 0.94,-0.05 1.99,-0.11 2.93,-0.11 0.28,0 0.81,0 0.81,0.76 0,0.49 -0.36,0.49 -1.44,0.49 -0.66,0 -1.36,0.05 -2.01,0.08 -1.19,0.09 -1.26,0.23 -1.26,0.65 0,0.25 0,0.32 0.13,0.8 z"
             id="path75685" /><path
             style="fill:#600000;fill-opacity:1;stroke:#600000;stroke-width:0;stroke-opacity:1"
             inkscape:connector-curvature="0"
             d="m 495.46,394.47 v 0.04 0.04 0.03 0.04 0.03 0.04 0.03 l -0.01,0.03 v 0.04 0.03 l -0.01,0.02 v 0.03 l -0.01,0.03 v 0.02 l -0.01,0.03 -0.01,0.02 -0.01,0.02 -0.01,0.02 -0.01,0.02 -0.02,0.02 -0.01,0.02 -0.02,0.01 -0.02,0.02 -0.02,0.01 -0.02,0.01 h -0.01 l -0.02,0.01 h -0.01 l -0.01,0.01 h -0.02 -0.01 l -0.02,0.01 h -0.01 -0.02 -0.01 -0.02 l -0.02,0.01 h -0.02 -0.02 c -0.12,0 -0.21,-0.02 -0.42,-0.18 -0.09,-0.09 -0.54,-0.5 -0.64,-0.5 -0.03,0 -0.08,0 -0.23,0.11 -0.56,0.32 -1.49,0.57 -2.74,0.57 -4.11,0 -4.95,-1.89 -4.95,-3.04 0,-2.34 2.89,-2.79 5.17,-3.14 1.46,-0.21 3.74,-0.57 3.74,-2.26 0,-0.88 -0.72,-2.17 -3.74,-2.17 -1.69,0 -3.33,0.62 -4.08,3.26 -0.12,0.46 -0.15,0.52 -0.57,0.52 -0.52,0 -0.52,-0.19 -0.52,-0.72 v -3.19 c 0,-0.42 0,-0.7 0.39,-0.7 0.2,0 0.22,0.03 0.7,0.5 l 0.64,0.62 c 1.25,-1.09 2.82,-1.12 3.44,-1.12 4.16,0 4.99,2.17 4.99,3.42 0,1.13 -0.63,1.94 -1.57,2.53 -1,0.63 -1.75,0.74 -3.84,1.05 -1.59,0.25 -3.52,0.56 -3.52,1.87 0,0.88 0.97,1.82 3.69,1.82 2.08,0 3.27,-0.82 3.42,-2.53 0.02,-0.38 0.05,-0.54 0.52,-0.54 0.53,0 0.53,0.18 0.53,0.71 z"
             id="path75687" /></g>      </g>
      <path
         sodipodi:nodetypes="cc"
         inkscape:connector-curvature="0"
         id="path5281-39-5-6-04-9-4-38"
         d="m 892.91339,1178.1496 v -3.5433"
         style="fill:none;stroke:#000000;stroke-width:0;stroke-linecap:round;stroke-linejoin:miter;stroke-miterlimit:4;stroke-dasharray:none;stroke-opacity:1" />
      <path
         inkscape:connector-curvature="0"
         id="path4820-3-2-9-4"
         d="m 797.24409,1179.9212 v -53.1496"
         style="fill:none;stroke:#000000;stroke-width:0.53149605;stroke-linecap:square;stroke-linejoin:miter;stroke-miterlimit:8;stroke-dasharray:none;stroke-opacity:1;marker-start:none;marker-mid:none;marker-end:url(#MaßpfeilLend)" />
      <g
         style="fill:#000060;fill-opacity:1"
         transform="matrix(0.2,0,0,0.2,719.47701,1058.9662)"
         id="g97593">
        <g
           style="font-style:normal;font-variant:normal;font-weight:normal;font-stretch:normal;letter-spacing:normal;word-spacing:normal;text-anchor:start;fill:#000060;fill-opacity:1;stroke:#000000;stroke-width:5;stroke-linecap:butt;stroke-linejoin:miter;stroke-miterlimit:10.43299961;stroke-dasharray:none;stroke-dashoffset:0;stroke-opacity:1"
           word-spacing="normal"
           letter-spacing="normal"
           font-size-adjust="none"
           font-stretch="normal"
           font-weight="normal"
           font-variant="normal"
           font-style="normal"
           stroke-miterlimit="10.433"
           xml:space="preserve"
           transform="matrix(1.0629921,0,0,-1.0629921,-186.02362,789.27165)"
           id="g97595"><path
             style="fill:#000060;fill-opacity:1;stroke-width:0"
             inkscape:connector-curvature="0"
             id="path97597"
             d="m 493.54,436.39 0.04,0.16 0.04,0.16 0.04,0.15 0.04,0.14 0.04,0.14 0.04,0.13 0.04,0.12 0.05,0.11 0.05,0.11 0.05,0.11 0.06,0.09 0.07,0.09 0.07,0.09 0.08,0.08 0.09,0.07 0.09,0.07 0.11,0.06 0.11,0.06 0.13,0.05 0.14,0.05 0.15,0.04 0.16,0.04 0.09,0.02 0.09,0.02 0.09,0.01 0.1,0.02 0.1,0.01 0.1,0.01 0.11,0.02 0.11,0.01 0.12,0.01 h 0.12 l 0.13,0.01 0.13,0.01 0.13,0.01 h 0.14 0.14 l 0.15,0.01 h 0.15 0.16 0.16 0.17 c 1.3,0 1.69,0 1.69,1 0,0.55 -0.55,0.55 -0.7,0.55 -1.39,0 -4.97,-0.16 -6.38,-0.16 -1.44,0 -4.98,0.16 -6.42,0.16 -0.39,0 -0.95,0 -0.95,-1 0,-0.55 0.45,-0.55 1.4,-0.55 0.1,0 1.05,0 1.89,-0.09 0.89,-0.11 1.35,-0.16 1.35,-0.8 0,-0.2 -0.05,-0.31 -0.21,-0.95 l -2.98,-12.16 h -15.2 l 2.95,11.71 c 0.44,1.79 0.59,2.29 4.17,2.29 1.3,0 1.71,0 1.71,1 0,0.55 -0.55,0.55 -0.71,0.55 -1.39,0 -4.98,-0.16 -6.37,-0.16 -1.44,0 -4.99,0.16 -6.42,0.16 -0.41,0 -0.96,0 -0.96,-1 0,-0.55 0.46,-0.55 1.39,-0.55 0.11,0 1.05,0 1.91,-0.09 0.89,-0.11 1.34,-0.16 1.34,-0.8 0,-0.2 -0.06,-0.36 -0.2,-0.95 l -6.67,-26.75 c -0.5,-1.95 -0.61,-2.34 -4.55,-2.34 -0.89,0 -1.34,0 -1.34,-1 0,-0.55 0.61,-0.55 0.7,-0.55 1.39,0 4.94,0.16 6.33,0.16 1.05,0 2.14,-0.07 3.19,-0.07 1.09,0 2.18,-0.09 3.23,-0.09 0.41,0 1,0 1,1 0,0.55 -0.45,0.55 -1.39,0.55 -1.84,0 -3.23,0 -3.23,0.89 0,0.29 0.09,0.54 0.14,0.84 l 3.39,13.66 H 486 c -2.09,-8.27 -3.23,-13 -3.43,-13.75 -0.49,-1.6 -1.44,-1.64 -4.53,-1.64 -0.75,0 -1.19,0 -1.19,-1 0,-0.55 0.59,-0.55 0.69,-0.55 1.4,0 4.93,0.16 6.32,0.16 1.05,0 2.14,-0.07 3.19,-0.07 1.11,0 2.2,-0.09 3.25,-0.09 0.39,0 0.99,0 0.99,1 0,0.55 -0.44,0.55 -1.4,0.55 -1.84,0 -3.23,0 -3.23,0.89 0,0.29 0.09,0.54 0.14,0.84 z" /><path
             style="fill:#000060;fill-opacity:1;stroke-width:0"
             inkscape:connector-curvature="0"
             id="path97599"
             d="m 503.86,406.7 v 0.28 l 0.02,0.28 0.02,0.28 0.02,0.28 0.04,0.28 0.05,0.29 0.05,0.28 0.06,0.28 0.07,0.27 0.09,0.28 0.09,0.27 0.09,0.26 0.11,0.26 0.12,0.25 0.13,0.25 0.13,0.24 0.15,0.23 0.16,0.22 0.16,0.21 0.18,0.19 0.18,0.19 0.2,0.18 0.21,0.16 0.21,0.15 0.23,0.13 0.24,0.12 0.25,0.1 0.26,0.09 0.27,0.06 0.28,0.05 0.3,0.03 0.3,0.01 c -0.31,-0.25 -0.59,-0.7 -0.59,-1.25 0,-1.15 0.9,-1.61 1.56,-1.61 0.84,0 1.61,0.57 1.61,1.61 0,1.19 -1.13,2.22 -2.77,2.22 -1.73,0 -3.65,-1.08 -4.7,-3.72 h -0.03 v 3.72 l -4.99,-0.37 v -1.25 c 2.35,0 2.63,-0.25 2.63,-1.96 v -9.03 c 0,-1.5 -0.36,-1.5 -2.63,-1.5 v -1.25 c 0.18,0 2.55,0.14 3.97,0.14 1.5,0 3.05,-0.08 4.53,-0.14 v 1.25 h -0.68 c -2.58,0 -2.58,0.39 -2.58,1.58 z" /></g>      </g>
      <g
         style="fill:#600000;fill-opacity:1"
         transform="matrix(0.2,0,0,0.2,742.05425,1059.1979)"
         id="g101855">
        <g
           style="font-style:normal;font-variant:normal;font-weight:normal;font-stretch:normal;letter-spacing:normal;word-spacing:normal;text-anchor:start;fill:#600000;fill-opacity:1;stroke:#000000;stroke-width:5;stroke-linecap:butt;stroke-linejoin:miter;stroke-miterlimit:10.43299961;stroke-dasharray:none;stroke-dashoffset:0;stroke-opacity:1"
           id="g101857"
           transform="matrix(1.0629921,0,0,-1.0629921,-186.02362,789.27165)"
           xml:space="preserve"
           stroke-miterlimit="10.433"
           font-style="normal"
           font-variant="normal"
           font-weight="normal"
           font-stretch="normal"
           font-size-adjust="none"
           letter-spacing="normal"
           word-spacing="normal"><path
             style="fill:#600000;fill-opacity:1;stroke-width:0"
             inkscape:connector-curvature="0"
             d="m 487.66,440.82 v 0.02 0.02 0.01 l -0.01,0.02 v 0.02 0.02 l -0.01,0.02 v 0.02 l -0.01,0.02 -0.01,0.02 -0.01,0.02 -0.01,0.02 -0.01,0.02 -0.01,0.02 -0.01,0.02 -0.02,0.02 -0.02,0.02 -0.01,0.02 -0.02,0.02 -0.02,0.02 -0.02,0.01 -0.03,0.02 -0.02,0.01 -0.03,0.02 -0.02,0.01 -0.03,0.01 -0.02,0.01 h -0.01 l -0.02,0.01 h -0.02 -0.01 l -0.02,0.01 h -0.02 -0.02 -0.02 -0.02 -0.02 -0.02 c -0.25,0 -0.31,-0.04 -0.9,-0.75 l -2.39,-2.84 c -1.3,2.34 -3.89,3.59 -7.13,3.59 -6.33,0 -12.3,-5.73 -12.3,-11.76 0,-4.03 2.65,-6.33 5.18,-7.06 l 5.32,-1.41 c 1.85,-0.44 4.6,-1.19 4.6,-5.28 0,-4.49 -4.1,-9.16 -8.97,-9.16 -3.19,0 -8.72,1.1 -8.72,7.27 0,1.2 0.25,2.39 0.3,2.69 0.04,0.2 0.09,0.25 0.09,0.35 0,0.5 -0.34,0.55 -0.59,0.55 -0.25,0 -0.35,-0.05 -0.5,-0.2 -0.21,-0.2 -2.99,-11.56 -2.99,-11.7 0,-0.3 0.25,-0.5 0.55,-0.5 0.25,0 0.3,0.04 0.89,0.75 l 2.45,2.82 c 2.14,-2.89 5.52,-3.57 8.41,-3.57 6.78,0 12.66,6.62 12.66,12.79 0,3.44 -1.69,5.14 -2.44,5.83 -1.14,1.16 -1.89,1.34 -6.33,2.5 -1.09,0.3 -2.89,0.8 -3.34,0.89 -1.35,0.45 -3.03,1.89 -3.03,4.53 0,4.05 3.98,8.28 8.71,8.28 4.15,0 7.18,-2.14 7.18,-7.73 0,-1.59 -0.21,-2.49 -0.21,-2.78 0,-0.05 0,-0.5 0.61,-0.5 0.5,0 0.55,0.15 0.74,1 z"
             id="path101859" /></g>      </g>
      <g
         transform="matrix(0.2,0,0,0.2,752.64378,1058.9662)"
         id="g110397">
        <g
           style="font-style:normal;font-variant:normal;font-weight:normal;font-stretch:normal;letter-spacing:normal;word-spacing:normal;text-anchor:start;fill:none;stroke:#000000;stroke-width:5;stroke-linecap:butt;stroke-linejoin:miter;stroke-miterlimit:10.43299961;stroke-dasharray:none;stroke-dashoffset:0;stroke-opacity:1"
           id="g110399"
           transform="matrix(1.0629921,0,0,-1.0629921,-186.02362,789.27165)"
           xml:space="preserve"
           stroke-miterlimit="10.433"
           font-style="normal"
           font-variant="normal"
           font-weight="normal"
           font-stretch="normal"
           font-size-adjust="none"
           letter-spacing="normal"
           word-spacing="normal"><path
             style="fill:#000000;stroke-width:0"
             inkscape:connector-curvature="0"
             d="m 479.68,426.68 -4.18,9.91 c -0.15,0.41 -0.25,0.59 -0.25,0.64 0,0.31 0.85,1.25 2.94,1.45 0.5,0.05 1,0.1 1,0.96 0,0.59 -0.61,0.59 -0.75,0.59 -2.05,0 -4.19,-0.16 -6.28,-0.16 -1.25,0 -4.33,0.16 -5.58,0.16 -0.29,0 -0.9,0 -0.9,-1 0,-0.55 0.5,-0.55 1.15,-0.55 2.99,0 3.28,-0.5 3.74,-1.59 l 5.87,-13.91 -10.51,-11.31 -0.64,-0.55 c -2.44,-2.64 -4.79,-3.43 -7.33,-3.57 -0.64,-0.05 -1.1,-0.05 -1.1,-1 0,-0.05 0,-0.55 0.66,-0.55 1.48,0 3.12,0.16 4.67,0.16 1.85,0 3.8,-0.16 5.58,-0.16 0.31,0 0.91,0 0.91,1 0,0.5 -0.5,0.55 -0.6,0.55 -0.45,0.04 -2,0.14 -2,1.54 0,0.8 0.75,1.6 1.35,2.24 l 5.07,5.39 4.49,4.87 5.03,-11.9 c 0.2,-0.55 0.25,-0.6 0.25,-0.71 0,-0.39 -0.94,-1.23 -2.89,-1.43 -0.55,-0.05 -0.99,-0.11 -0.99,-0.96 0,-0.59 0.55,-0.59 0.74,-0.59 1.41,0 4.89,0.16 6.28,0.16 1.25,0 4.28,-0.16 5.53,-0.16 0.35,0 0.95,0 0.95,0.95 0,0.6 -0.5,0.6 -0.9,0.6 -3.33,0.04 -3.44,0.2 -4.28,2.18 -1.94,4.64 -5.28,12.41 -6.42,15.39 3.39,3.5 8.6,9.43 10.2,10.82 1.45,1.2 3.34,2.39 6.33,2.54 0.65,0.05 1.09,0.05 1.09,1 0,0.05 0,0.55 -0.64,0.55 -1.5,0 -3.14,-0.16 -4.69,-0.16 -1.84,0 -3.73,0.16 -5.53,0.16 -0.3,0 -0.94,0 -0.94,-1 0,-0.34 0.25,-0.5 0.6,-0.55 0.45,-0.04 2,-0.15 2,-1.54 0,-0.71 -0.55,-1.35 -0.96,-1.8 z"
             id="path110401" /><path
             style="fill:#000000;stroke-width:0"
             inkscape:connector-curvature="0"
             d="m 503.16,413.4 v 0.06 0.05 0.05 0.05 0.05 0.05 0.04 0.04 l -0.01,0.05 v 0.04 l -0.01,0.03 v 0.04 l -0.01,0.03 -0.01,0.04 -0.01,0.03 -0.01,0.03 -0.01,0.03 -0.01,0.02 -0.02,0.03 -0.01,0.02 -0.02,0.02 -0.02,0.02 -0.03,0.02 -0.02,0.01 -0.03,0.01 -0.03,0.02 -0.03,0.01 h -0.03 l -0.02,0.01 h -0.02 -0.02 l -0.01,0.01 h -0.03 -0.02 -0.02 -0.02 c -0.17,0 -0.25,0 -0.7,-0.42 -0.07,-0.03 -0.41,-0.35 -0.63,-0.53 -1.05,0.73 -2.36,0.95 -3.65,0.95 -4.99,0 -6.18,-2.63 -6.18,-4.36 0,-1.13 0.5,-2.02 1.33,-2.72 1.33,-1.16 2.66,-1.39 4.81,-1.75 1.74,-0.31 4.57,-0.8 4.57,-3.12 0,-1.36 -0.94,-2.97 -4.28,-2.97 -3.35,0 -4.57,2.2 -5.21,4.56 -0.09,0.45 -0.14,0.59 -0.62,0.59 -0.6,0 -0.6,-0.23 -0.6,-0.93 v -4.29 c 0,-0.59 0,-0.9 0.5,-0.9 0.32,0 0.97,0.73 1.68,1.5 1.53,-1.44 3.4,-1.5 4.25,-1.5 4.53,0 6.2,2.44 6.2,4.9 0,1.33 -0.6,2.38 -1.5,3.21 -1.33,1.22 -2.94,1.5 -4.16,1.72 -2.78,0.48 -5.04,0.9 -5.04,2.75 0,1.11 0.93,2.46 4.25,2.46 4.04,0 4.21,-2.82 4.28,-3.82 0.04,-0.39 0.45,-0.39 0.59,-0.39 0.59,0 0.59,0.25 0.59,0.9 z"
             id="path110403" /></g>      </g>
    </g>
  </g>
</svg>
