<?xml version="1.0" encoding="UTF-8" standalone="no"?>
<!-- Generator: Adobe Illustrator 15.1.0, SVG Export Plug-In . SVG Version: 6.00 Build 0)  -->

<svg
   xmlns:dc="http://purl.org/dc/elements/1.1/"
   xmlns:cc="http://creativecommons.org/ns#"
   xmlns:rdf="http://www.w3.org/1999/02/22-rdf-syntax-ns#"
   xmlns:svg="http://www.w3.org/2000/svg"
   xmlns="http://www.w3.org/2000/svg"
   xmlns:sodipodi="http://sodipodi.sourceforge.net/DTD/sodipodi-0.dtd"
   xmlns:inkscape="http://www.inkscape.org/namespaces/inkscape"
   version="1.1"
   id="Layer_1"
   x="0px"
   y="0px"
   width="543.76"
   height="564.72"
   viewBox="0 82.5 543.76 564.72"
   enable-background="new 0 82.5 742.5 650"
   xml:space="preserve"
   inkscape:version="0.91 r13725"
   sodipodi:docname="Logo.svg"
   inkscape:export-filename="/home/emu/Dropbox/Privat/Bilder/animatedSVG/engineering/root/Logo.png"
   inkscape:export-xdpi="99.971"
   inkscape:export-ydpi="99.971"><metadata
     id="metadata38"><rdf:RDF><cc:Work
         rdf:about=""><dc:format>image/svg+xml</dc:format><dc:type
           rdf:resource="http://purl.org/dc/dcmitype/StillImage" /><dc:title /></cc:Work></rdf:RDF></metadata><defs
     id="defs36" /><sodipodi:namedview
     pagecolor="#ffffff"
     bordercolor="#666666"
     borderopacity="1"
     objecttolerance="10"
     gridtolerance="10"
     guidetolerance="10"
     inkscape:pageopacity="0"
     inkscape:pageshadow="2"
     inkscape:window-width="3440"
     inkscape:window-height="1440"
     id="namedview34"
     showgrid="false"
     inkscape:zoom="1.02694"
     inkscape:cx="330.20391"
     inkscape:cy="190.042"
     inkscape:window-x="0"
     inkscape:window-y="0"
     inkscape:window-maximized="0"
     inkscape:current-layer="Layer_1"
     fit-margin-top="0"
     fit-margin-left="0"
     fit-margin-right="0"
     fit-margin-bottom="0"
     inkscape:object-paths="true" /><g
     id="g4194"
     transform="matrix(1.0524,0,0,1.0524,-197.52,-82.613)"><path
       inkscape:connector-curvature="0"
       id="path13"
       d="m 285.56,553.09 -95.08,0 -2.79,34.96 3.74,0 c 2.2,-25.15 4.54,-30.28 28.12,-30.28 2.79,0 6.88,0 8.42,0 3.28,0.45 3.28,2.25 3.28,5.94 l 0,81.99 c 0,5.31 0,7.51 -16.38,7.51 l -6.25,0 0,4.86 c 6.39,-0.45 22.18,-0.45 29.34,-0.45 7.2,0 23.26,0 29.65,0.45 l 0,-4.86 -6.25,0 c -16.38,0 -16.38,-2.25 -16.38,-7.51 l 0,-81.99 c 0,-3.15 0,-5.31 2.79,-5.94 1.71,0 5.94,0 8.91,0 23.44,0 25.78,5.13 27.94,30.28 l 3.92,0 -2.97,-34.96 z" /><path
       inkscape:connector-curvature="0"
       id="path15"
       d="m 369.26,653.35 -3.87,0 c -3.91,23.9 -7.51,35.28 -34.2,35.28 l -20.61,0 c -7.33,0 -7.65,-0.9 -7.65,-6.25 l 0,-41.54 13.91,0 c 15.16,0 16.88,5 16.88,18.27 l 3.91,0 0,-41.22 -3.96,0 c 0,13.28 -1.71,18.14 -16.87,18.14 l -13.87,0 0,-37.31 c 0,-5.17 0.45,-6.25 7.65,-6.25 l 19.98,0 c 23.9,0 27.95,8.59 30.47,30.28 l 3.87,0 -4.36,-34.96 -87.44,0 0,4.68 3.6,0 c 12.02,0 12.33,1.8 12.33,7.33 l 0,81.5 c 0,5.62 -0.45,7.33 -12.33,7.33 l -3.6,0 0,4.86 89.64,0 6.52,-40.14 z" /><path
       inkscape:connector-curvature="0"
       id="path17"
       d="M 416.29,598.23 437.66,567 c 3.29,-5 8.6,-10 22.5,-10.18 l 0,-4.68 -37.17,0 0,4.68 c 6.26,0 9.68,3.6 9.68,7.2 0,1.8 -0.45,1.8 -1.4,3.6 l -17.82,26.24 -19.97,-29.97 c -0.45,-0.45 -1.08,-1.8 -1.08,-2.25 0,-1.8 3.41,-4.55 9.99,-4.68 l 0,-4.68 c -5.31,0.45 -16.7,0.45 -22.64,0.45 -4.86,0 -14.53,0 -20.29,-0.45 l 0,4.68 2.97,0 c 8.59,0 11.56,0.9 14.53,5.44 l 28.58,43.25 -25.47,37.62 c -2.21,3.15 -6.89,10.31 -22.5,10.31 l 0,4.86 37.17,0 0,-4.86 c -7.2,0 -9.86,-4.5 -9.86,-7.21 0,-1.35 0.45,-1.79 1.58,-3.6 l 22,-32.62 24.66,37.17 c 0.45,0.45 0.76,1.35 0.76,1.8 0,1.8 -3.42,4.54 -10.17,4.68 l 0,4.86 c 5.45,-0.45 16.88,-0.45 22.64,-0.45 6.57,0 13.72,0 20.29,0.45 l 0,-4.86 -2.88,0 c -8.09,0 -11.38,-0.9 -14.67,-5.63 l -32.8,-49.94 z" /></g><path
     d="m 0.7991224,485.4 0,-19.22 L 306.79585,82.5 l 22.50571,0 0,386.88 42.52826,0 0,16.02 -42.52826,0 0,161.92116 -18.00007,0 0,-161.92116 z M 311.30149,104.93 l -1.79776,0 -290.704536,364.45 292.502296,0 z"
     style="font-style:normal;font-variant:normal;font-weight:100;font-stretch:normal;font-size:801px;font-family:'Helvetica Neue';-inkscape-font-specification:'Helvetica Neue Thin'"
     id="path4175"
     inkscape:connector-curvature="0"
     sodipodi:nodetypes="ccccccccccccccccc" /><g
     id="text21"
     style="font-size:300px;font-family:HelveticaNeue-UltraLight"
     transform="translate(329.48,451.07)" /><g
     id="g23"
     transform="translate(-173.09,-46.3)"><path
       inkscape:connector-curvature="0"
       d="m 342.4,517.09 62.43,0 c 0,-8.88 -0.63,-10.64 -15.33,-10.64 2.35,-7.04 11.89,-24.08 17.19,-24.08 4.7,0 10.29,0.26 10.29,10.96 0,12.16 20.46,31.75 25.42,23.76 7.39,-11.92 -12.71,-8.28 -12.71,-37.02 0,-39.31 22.94,-33.71 22.94,-55.79 0,-11.05 -3.05,-12.54 -3.05,-20.44 0,-10.44 9.19,-9.84 7.4,-18.49 -1.23,-5.98 -2.2,-10.78 -2.92,-18.01 -0.51,-5.13 -0.67,-10.6 -6,-10.38 -6.26,0.26 -8.64,11.28 -18.37,12.07 -9.71,0.79 -17.99,-8.27 -21.75,-6.97 -3.73,1.28 -2.56,11.39 -0.35,18.57 3.47,11.29 11.05,25.97 -2.76,28.18 -13.81,2.21 -37.57,4.42 -54.69,27.07 -17.13,22.65 -16.5,49.23 -23.21,57.45 -22.51,27.6 -45.58,16.27 -45.58,39.23 0,10.27 17.41,17.68 20.17,14.36 2.77,-3.31 -23.47,-13.19 5.88,-24.86 25.08,-9.97 27.32,-12 35,-4.97 z"
       id="path1891" /></g><g
     id="g12"
     transform="matrix(0,-0.88518738,-0.88518738,0,900.19828,613.72444)"
     style="fill:#000000;fill-opacity:1"><path
       d="m 48.07,232.94 0,-232.94 50.524,0 0,232.6 56.116,0 0,-232.6 160.68,0 0,230.14 57.17,0 0,-230.0775 52.99,0 0,230.0775 57.88,0 0,-230.0775 52.98,0 0,283.3975 -271.88,0 0,-231.882 -58.24,0 0,231.542 -206.29,0 0,-50.18 48.07,0"
       style="fill:#000000;fill-opacity:1;fill-rule:nonzero;stroke:none"
       id="path14"
       inkscape:connector-curvature="0" /></g><path
     d="m 327.61629,469.46489 216.30873,0 0,16.02 -216.30873,0 z"
     style="font-style:normal;font-variant:normal;font-weight:100;font-stretch:normal;font-size:801px;font-family:'Helvetica Neue';-inkscape-font-specification:'Helvetica Neue Thin'"
     id="path4175-6"
     inkscape:connector-curvature="0"
     sodipodi:nodetypes="ccccc" /><path
     d="m 312.82444,375.41872 230.94911,0 0,16.02 -230.94911,0 z"
     style="font-style:normal;font-variant:normal;font-weight:100;font-stretch:normal;font-size:801px;font-family:'Helvetica Neue';-inkscape-font-specification:'Helvetica Neue Thin'"
     id="path4175-6-4"
     inkscape:connector-curvature="0"
     sodipodi:nodetypes="ccccc" /><path
     d="m 313.03835,82.474607 230.83604,0 0,16.02 -230.83604,0 z"
     style="font-style:normal;font-variant:normal;font-weight:100;font-stretch:normal;font-size:801px;font-family:'Helvetica Neue';-inkscape-font-specification:'Helvetica Neue Thin'"
     id="path4175-6-4-7"
     inkscape:connector-curvature="0"
     sodipodi:nodetypes="ccccc" /><path
     d="m 313.52622,182.51337 230.83604,0 0,16.02 -230.83604,0 z"
     style="font-style:normal;font-variant:normal;font-weight:100;font-stretch:normal;font-size:801px;font-family:'Helvetica Neue';-inkscape-font-specification:'Helvetica Neue Thin'"
     id="path4175-6-4-7-4"
     inkscape:connector-curvature="0"
     sodipodi:nodetypes="ccccc" /><path
     d="m 313.84097,277.82524 230.31962,0 0,16.02 -230.31962,0 z"
     style="font-style:normal;font-variant:normal;font-weight:100;font-stretch:normal;font-size:801px;font-family:'Helvetica Neue';-inkscape-font-specification:'Helvetica Neue Thin'"
     id="path4175-6-4-7-0"
     inkscape:connector-curvature="0"
     sodipodi:nodetypes="ccccc" /><path
     d="m 544.24072,279.61664 10e-6,109.1152 -16.02,0 -10e-6,-109.1152 z"
     style="font-style:normal;font-variant:normal;font-weight:100;font-stretch:normal;font-size:801px;font-family:'Helvetica Neue';-inkscape-font-specification:'Helvetica Neue Thin'"
     id="path4175-6-4-70"
     inkscape:connector-curvature="0"
     sodipodi:nodetypes="ccccc" /><rect
     style="opacity:1;fill:#ffffff;fill-opacity:1;fill-rule:nonzero;stroke:none;stroke-width:3;stroke-linecap:round;stroke-linejoin:round;stroke-miterlimit:4;stroke-dasharray:none;stroke-dashoffset:0;stroke-opacity:1"
     id="rect4148"
     width="224.82372"
     height="81.594017"
     x="303.38931"
     y="293.86847" /></svg>