<svg xmlns:rdf="http://www.w3.org/1999/02/22-rdf-syntax-ns#" xmlns="http://www.w3.org/2000/svg" xml:space="preserve" height="68.694" viewBox="0 0 69.658 68.694" width="69.658" version="1.1" xmlns:cc="http://creativecommons.org/ns#" xmlns:dc="http://purl.org/dc/elements/1.1/"><g transform="matrix(1.25,0,0,-1.25,0,68.694)"><g transform="matrix(1,0,0,-1,0,54.955)"><path style="stroke:#000;stroke-linecap:square;stroke-miterlimit:8;stroke-width:.46854;fill:none" d="m1.832 48.223h48.188"/></g><path d="m47.68 5.611 7.023 1.121-7.023 1.125v-2.246z"/><g transform="matrix(1,0,0,-1,0,54.955)"><path style="stroke:#000;stroke-linecap:square;stroke-miterlimit:8;stroke-width:.46854;fill:none" d="m7.5 53.891v-48.188"/></g><path d="m8.625 46.912-1.125 7.023-1.121-7.023h2.246z"/><g transform="matrix(1,0,0,-1,0,54.955)"><path style="stroke:#000;stroke-linecap:square;stroke-miterlimit:8;stroke-width:.56693;fill:none" d="m7.5 48.223 19.844-25.512"/></g><path d="m26.68 29.174 4.14 7.543-6.289-5.871 2.149-1.672z"/><g transform="matrix(.98241 0 0 1 0 54.955)"><path style="stroke-opacity:.75294;stroke:#000;stroke-dasharray:2.02482, 2.02482;stroke-width:.33747;fill:none" d="m45.146-48.223c0 20.352-16.796 36.852-37.512 36.852"/></g><g transform="matrix(.98241 0 0 1 0 54.955)"><path style="stroke-opacity:.75294;stroke:#000;stroke-linecap:square;stroke-dasharray:1.71595, 1.71595;stroke-width:.42899;fill:none" d="m27.833-48.223c0 6.114-2.866 11.883-7.769 15.645"/></g><path style="fill-rule:evenodd" d="m30.18 36.81c.519 0 .945-.422.945-.945 0-.519-.426-.941-.945-.941-.524 0-.946.422-.946.941 0 .523.422.945.946.945"/><path style="fill:#000080" d="m51.68 15.404v.02.01l-.02.02-.02.01h-.01l-.02.01h-.03-.05c-.586 0-1.617-.238-2.059-.957-.129.242-.543.863-1.187.863-.574 0-.949-.535-.949-1.019 0-.32.195-.531.433-.778.477-.476.477-.609.477-.925 0-.496-.05-1.008-.422-1.008-.227 0-.27.316-.277.469 0 .07 0 .132-.11.132-.101 0-.101-.09-.101-.125 0-.152.08-.66.488-.66.691 0 .691 1.082.691 1.278 0 .254-.02.578-.597 1.113-.235.211-.328.34-.328.523 0 .364.246.813.687.813s.781-.66.781-1.652v-2.5c0-.07 0-1.633-.554-1.633-.313 0-.625.261-.805.797.03 0 .195.06.195.132 0 .05-.07.09-.09.09-.03 0-.14-.04-.175-.06 0 .05-.05.144-.114.144-.05 0-.109-.07-.109-.113 0-.03.02-.08.03-.11-.05 0-.176-.06-.176-.125 0-.04.05-.09.09-.09.02 0 .125.04.149.05.273-.734.707-.906 1-.906.605 0 1.273.774 1.273 2.492v1.293c0 .586-.08.918-.172 1.18.301.813 1.395.969 1.399.969.02 0 .07-.09.08-.09l1.063-1.981c-.782-.434-.961-.434-1.207-.434h-1.227v-.261h.973l.113-1.856c0-.06-.03-.117-.03-.277 0-.512.414-.977.984-.977.106 0 .125 0 .285.117l.614.477c.1.086.105.094.105.125 0 .066-.133.121-.16.121-.04 0-.348-.246-.727-.559-.289.184-.39.465-.39.696 0 .16.03.183.03.277 0 .246-.04.688-.05.949-.02.172-.05.848-.06.965.476.156 1.398.695 1.418.703.02.03.04.04.04.09 0 .02-.05.121-.06.129l-1.109 2.043z"/><path style="fill:#800000" d="m13.176 49.224v.02l-.01.01c-1.278.08-1.621.926-1.621 1.426 0 .848.773 1.426 1.547 1.426.48 0 .75-.309 1.113-.766.383-.484.789-1 1.519-1 .594 0 .969.274.969.594 0 .109-.09.109-.137.109-.113 0-.121-.04-.128-.117-.07-.398-.668-.398-.684-.398-.121 0-.172.02-.305.273-.758 1.402-1.961 1.488-2.316 1.488-1.024 0-1.84-.711-1.84-1.609 0-1.043 1.043-1.609 1.824-1.609.05 0 .145 0 .145.09z"/><path style="fill:#800000" d="m11.438 47.931h-.122-.02-.02l-.02-.02v-.02c0-.02 0-.08.08-.09.297-.02.567-.04 1.227-.637.898-.82 1.086-.82 1.765-.82.438 0 .793 0 1.211.285.293.207.543.543.543.977 0 .304-.121.484-.433.82-.328.379-.356.519-.356.715 0 .363.09.762.406.762 0 0 .625 0 .704-.594 0-.05.02-.11.128-.11.11 0 .133.04.133.118 0 .367-.383.773-.98.773-.613 0-1.106-.445-1.106-.973 0-.339.2-.554.453-.839.313-.356.34-.493.34-.672 0-.789-.879-1.067-1.027-1.067-.05 0-.289.07-.559.262-.152.113-.39.332-.425.355-.621.586-.942.832-1.532.832h-.339z"/><path d="m18.207 9.381v-.164c0-.184.16-.235.246-.235.04 0 .227.024.313.219.02.066.07.348.296 1.551.07 0 .137-.02.278-.02 1.41 0 2.715 1.332 2.715 2.668l-.239-.187c0-.957-1.093-1.993-2.398-1.993-.07 0-.09 0-.152.01-.106 0-.11 0-.11.03 0 .02.141.789.168.918.262 1.082.926 1.895 1.676 1.895.586 0 .816-.457.816-.863l.239.187c0 .66-.332 1.168-.969 1.168-1.227 0-1.734-1.641-2.246-3.293-.914.168-1.391.641-1.391 1.25 0 .238.199 1.172.707 1.758.07.07.07.09.07.109 0 .03-.02.08-.102.08-.238 0-.891-1.226-.891-2.039 0-.797.559-1.418 1.465-1.625l-.491-1.424z"/><g transform="matrix(1,0,0,-1,0,54.955)"><path style="stroke-opacity:.75294;stroke:#000;stroke-linecap:square;stroke-miterlimit:7.7;stroke-dasharray:1.70079, 1.70079;stroke-width:.4252;fill:none" d="m30.18 48.223v-29.293"/></g><g transform="matrix(1,0,0,-1,0,54.955)"><path style="stroke:#00f;stroke-miterlimit:8;stroke-width:.76841;fill:none" d="m7.5 48.223h22.68"/></g><path style="fill:#f00" d="m.477 10.791h-.016-.004-.004-.004-.004-.004-.003l-.012-.01h-.004-.008-.004-.004-.004v-.01h-.004c0-.211.055-.675.067-.84.004-.050.012-.121.125-.121.078 0 .078.059.078.153 0 .304.043.316.105.316.047 0 .262-.06.395-.09l2.074-.519c.317-.074.418-.102.641-.102.601 0 .996.336.996.809h-.137c0-.219-.172-.426-.644-.426-.121 0-.239 0-.641.098l-.586.14c-.141.04-.152.04-.223.1-.41.309-.507.598-.507.762 0 .23.191.402.601.402.371 0 1.102-.211 1.344-.324.426-.211.656-.504.656-.75h.137c0 .75-.945 1.527-1.859 1.527-.579 0-1.016-.336-1.016-.844 0-.289.18-.55.379-.742l-1.906.473z"/><path d="m2.738 18.138v.05.01.02.01.01l-.01.02h-.01l-.01.02h-.01-.01-.015-.016c-.129 0-.129-.121-.129-.211v-3.804c0-.09 0-.211.129-.211.125 0 .125.121.125.215v3.792z"/><path d="m3.973 18.146v.02.02.04.02l-.019.04h-.01-.01-.01-.01-.027c-.125 0-.125-.121-.125-.215v-3.793c0-.1 0-.214.125-.214.129 0 .129.117.129.207v3.804z"/><path d="m4.441 21.037h.01.012.01.011.02.02.019.023.04.011.01.01.01.011.01.01.01.01.01.024c.113 0 .172.09.172.184 0 .07-.051.191-.18.234-.023.01-.891.227-1.004.254-.207.05-.652.164-.824.203-.082.03-.383.203-.524.356-.043.05-.207.234-.207.512 0 .16.075.257.075.261.031-.187.187-.328.351-.328.098 0 .223.07.223.242s-.149.348-.375.348c-.223 0-.414-.203-.414-.523 0-.418.312-.696.488-.817-.285-.05-.488-.281-.488-.578 0-.289.246-.414.359-.473.219-.113.598-.195.621-.195.063 0 .063.06.063.08 0 .06-.01.07-.149.11-.449.105-.754.234-.754.46 0 .11.051.2.29.2.136 0 .207-.02.535-.102l1.468-.367z"/><path d="m3.227 26.15h-.016-.02-.015-.031-.02-.012-.015l-.032-.02h-.011-.016l-.012-.01h-.015l-.024-.02-.01-.01-.023-.02-.01-.02-.01-.01-.011-.02-.01-.01v-.02l-.01-.02-.015-.06v-.02-.04c0-.183.152-.336.336-.336.183 0 .335.153.335.336 0 .188-.152.34-.335.34z"/><path d="m3.582 29.435v.01.02.02l.01.02.01.05.016.05.016.05.011.03.01.03.012.03.016.03.011.03.016.03.019.03.016.03.02.03.019.02.024.02.027.02.023.02.028.02.027.02.016.01.031.02h.016.019.016.019.016.039.019.02.043c.32 0 .578-.223.578-.715 0-.535-.363-.766-.902-.887-.082-.02-.11-.02-.11-.09 0-.09.043-.09.161-.09h.839c.106 0 .153 0 .153.07 0 .03-.01.04-.129.161-.012.01-.024.01-.145.128.266.278.274.563.274.7 0 .726-.43 1.019-.883 1.019-.34 0-.531-.191-.606-.265-.202-.182-.252-.428-.303-.698-.071-.355-.153-.781-.524-.781-.222 0-.48.168-.48.711 0 .699.57.734.769.746.055 0 .055.06.055.08 0 .08-.031.08-.152.08h-.641c-.109 0-.152 0-.152-.07 0-.03 0-.04.074-.129.027-.02.082-.08.105-.106-.179-.242-.179-.504-.179-.601 0-.774.426-1.016.781-1.016.223 0 .402.102.539.274.168.203.203.382.293.839z"/><path d="m2.008 31.748.07-.891h.195c0 .414.039.473.348.473h1.711c.285 0 .285-.07.285-.496h.199c-.01.203-.019.547-.019.699 0 .223.012.445.019.66h-.199c0-.418-.031-.445-.277-.445h-2.332z"/><path d="m.902 31.775h-.019-.02-.015-.02-.016-.015-.02-.015-.016-.012l-.015-.01h-.012-.016l-.046-.05-.008-.01-.012-.01-.008-.02-.008-.01-.007-.02-.008-.01-.004-.02-.008-.02-.016-.06v-.04l-.004-.02c0-.195.172-.336.336-.336.176 0 .34.141.34.336 0 .18-.133.34-.34.34h.004z"/><path d="m2.629 33.084h1.703c.285 0 .285-.07.285-.496h.199c-.01.222-.019.547-.019.718 0 .165.012.497.019.711h-.199c0-.425 0-.496-.285-.496h-1.168c-.664 0-1.016.45-1.016.86 0 .398.34.468.704.468h1.48c.285 0 .285-.07.285-.496h.199c-.01.223-.019.547-.019.719 0 .164.012.496.019.711h-.199c0-.328 0-.488-.191-.496h-1.211c-.547 0-.746 0-.973-.195-.109-.09-.234-.301-.234-.668 0-.465.273-.762.664-.942h-.664l.07-.894h.195c0 .441.043.496.356.496z"/><path d="m6.34 38.006h-.016-.01l-.016-.02-.012-.01h-.01l-.012-.01-.02-.02h-.01c-.801-.793-2-.996-2.972-.996-1.106 0-2.211.238-3.004 1.02-.078.08-.09.08-.11.08-.047 0-.062-.02-.062-.06 0-.06.429-.637 1.238-1.008.699-.324 1.402-.402 1.938-.402.496 0 1.261.07 1.984.418.781.383 1.191.93 1.191.992 0 .04-.015.06-.062.06z"/><path d="m5.895 39.447h.01.01.01.01.01.01.011.012.016.01c.137 0 .176.125.176.188 0 .03-.015.171-.164.234-.051.02-.262.05-1.164.223.01.06.012.101.012.21 0 1.055-.996 2.032-2 2.032l.14-.18c.719 0 1.493-.816 1.493-1.797 0-.05 0-.06-.01-.113 0-.08 0-.08-.024-.08-.011 0-.589.105-.687.125-.813.199-1.422.695-1.422 1.258 0 .441.344.609.648.609l-.14.18c-.496 0-.875-.246-.875-.723 0-.922 1.23-1.301 2.469-1.684-.125-.687-.481-1.042-.938-1.042-.18 0-.879.144-1.316.527-.059.05-.071.05-.082.05-.028 0-.067-.02-.067-.08 0-.176.922-.668 1.531-.668.598 0 1.063.421 1.219 1.101l1.071-.332z"/><path d="m3.227 44.365h-.145-.055-.105-.113-.118l-.121-.039-.125-.016-.129-.019-.128-.028-.266-.062-.133-.039-.273-.094-.071-.027-.066-.031-.067-.028-.070-.035c-.777-.379-1.191-.926-1.191-.988 0-.04.023-.07.062-.07.02 0 .032 0 .145.121.629.625 1.64.989 2.969.989 1.085 0 2.207-.239 3.007-1.024.075-.09.086-.09.106-.09.039 0 .062.03.062.07 0 .06-.429.633-1.238 1.012-.695.32-1.402.394-1.937.394z"/><path style="fill:#00f" d="m12.449 4.029-.01.02-.01.023v.02l-.01.019-.02.02-.01.023-.01.016-.03.039-.02.015-.01.02-.02.016-.02.015-.02.016-.02.012-.02.015-.02.012-.01.012-.02.015-.02.01-.02.012-.02.011-.02.01-.02.01-.02.01-.09.016h-.03-.05v-.136c.41 0 .5-.52.5-.559s-.01-.078-.02-.109l-.320-1.251c-.031-.114-.031-.125-.129-.235-.277-.351-.539-.449-.715-.449-.32 0-.41.348-.41.594 0 .32.203 1.101.352 1.394.195.375.484.61.738.61v.136c-.742 0-1.531-.929-1.531-1.859 0-.598.348-1.016.844-1.016.129 0 .445.028.828.477.05-.27.269-.477.574-.477.227 0 .371.145.473.348.109.231.191.617.191.629 0 .066-.06.066-.07.066-.07 0-.07-.027-.09-.117-.109-.414-.223-.785-.484-.785-.172 0-.192.164-.192.289 0 .141.01.192.08.473.07.265.08.332.141.57l.23.891c.04.176.04.191.04.215 0 .109-.08.171-.183.171-.153 0-.25-.14-.27-.277z"/><path d="m19.574 3.705h.07.01.02l.02.01.03.015.02.016v.01l.01.011v.01.012.01.02c0 .129-.121.129-.207.129h-3.809c-.09 0-.207 0-.207-.129 0-.125.118-.125.215-.125h3.789z"/><path d="m19.582 2.471h.06.02.01l.02.01h.01l.02.023v.016.02c0 .128-.121.128-.215.128h-3.793c-.1 0-.215 0-.215-.128 0-.125.118-.125.207-.125h3.805z"/><path d="m22.473 2.002v-.012-.01-.011-.01-.02-.023l-.01-.059v-.023-.01-.01-.012-.01-.01-.012-.016-.01-.01-.02c0-.113.09-.172.184-.172.08 0 .191.047.234.176.01.028.227.891.254 1.004.05.211.164.652.203.828.03.082.203.383.356.52.05.043.234.211.511.211.16 0 .258-.078.266-.078-.241-.018-.381-.170-.381-.334 0-.102.07-.223.242-.223s.348.145.348.375c0 .223-.203.41-.524.41-.414 0-.695-.308-.816-.484-.05.281-.281.484-.578.484-.293 0-.414-.246-.469-.359-.113-.219-.199-.598-.199-.617 0-.067.06-.067.08-.067.06 0 .07.012.105.149.11.453.239.758.465.758.11 0 .199-.051.199-.293 0-.133-.02-.203-.101-.535l-.369-1.465z"/><path d="m27.586 3.213v.019.016.015.016.02l-.01.047v.011l-.01.016v.015.012.016l-.01.012v.011l-.02.024-.02.011-.01.01-.01.012-.02.01-.01.01-.03.015h-.02l-.02.01-.03.01h-.02-.02-.03c-.184 0-.34-.149-.34-.336 0-.184.156-.336.34-.336s.336.152.336.336z"/><path d="m30.293 3.01v.05.043.047.047.086.039.043.039.039.035.039l.02.071.04.125.02.058.02.055.05.102.06.085.03.036.03.039.07.062.04.024.04.027.07.039.04.016.04.015.04.012.106.023h.03.04.03c.05 0 .457-.01.68-.234-.262-.02-.297-.211-.297-.293 0-.168.113-.293.293-.293.16 0 .289.109.289.297 0 .433-.48.68-.972.68-.793 0-1.379-.684-1.379-1.473 0-.813.629-1.442 1.367-1.442.851 0 1.055.762 1.055.825 0 .062-.06.062-.08.062-.06 0-.07-.023-.08-.062-.18-.59-.594-.664-.829-.664-.336 0-.898.273-.898 1.293z"/><path d="m35.359 2.986v.074l-.02.149-.01.074-.02.07-.02.071-.02.07-.02.066-.03.067-.06.125-.08.117-.04.059-.04.054-.09.102-.05.047-.05.043-.05.043-.06.039-.06.035-.06.031-.06.031-.06.028-.07.023-.07.02-.07.015-.07.016-.141.016h-.07v-.137c.278 0 .551-.141.719-.414.164-.274.164-.641.164-.883 0-.231 0-.57-.141-.852-.155-.285-.437-.468-.757-.468-.269 0-.551.132-.723.421-.156.282-.156.668-.156.899 0 .246 0 .59.149.871.172.289.472.426.726.426v.137c-.793 0-1.41-.692-1.41-1.485 0-.82.66-1.43 1.406-1.43.77 0 1.41.622 1.41 1.43z"/><path d="m36.871 2.857h.01.02.02.02.02l.02-.01h.02l.03-.01.02-.01.03-.011.03-.01.03-.012.03-.012.03-.011.08-.047.05-.039.02-.02.05-.047.02-.027.04-.055.03-.062v-.016-.016l.01-.058v-.016-.023-.02-.039c0-.324-.222-.578-.719-.578-.531 0-.761.363-.882.902-.02.082-.02.106-.09.106-.09 0-.09-.043-.09-.156v-.84c0-.11 0-.153.07-.153.03 0 .04 0 .16.129.01.012.01.024.129.145.278-.27.567-.274.695-.274.731 0 1.024.426 1.024.883 0 .336-.191.528-.266.606-.207.203-.457.254-.726.304-.352.071-.782.153-.782.52 0 .223.168.484.711.484.704 0 .735-.574.747-.769 0-.059.06-.059.08-.059.08 0 .08.031.08.153v.644c0 .106 0 .149-.07.149-.04 0-.04 0-.129-.075-.02-.027-.08-.082-.105-.101-.242.176-.504.176-.602.176-.773 0-1.015-.422-1.015-.778 0-.222.101-.402.273-.543.203-.164.383-.203.84-.289z"/><path d="m40.164.099v.008.012.004.004.004.004.003l-.02.016v.004.004.004.004l-.02.015v.004l-.03.028v.004.007l-.01.012c-.793.801-.996 2-.996 2.973 0 1.105.238 2.215 1.019 3.008.08.078.08.089.08.109 0 .043-.02.062-.06.062-.06 0-.633-.433-1.008-1.238-.324-.699-.402-1.406-.402-1.941 0-.496.07-1.262.417-1.981.383-.781.93-1.195.993-1.195.04 0 .06.019.06.062z"/><path d="m41.605.545v-.004-.004-.004-.008-.004-.004-.007-.004-.008-.004-.004-.012-.004-.003-.004-.008-.004-.012-.004-.019c0-.141.122-.18.184-.18.03 0 .172.02.238.168.02.047.05.258.219 1.16.06 0 .102-.012.211-.012 1.055 0 2.035 1 2.035 2l-.219-.136c0-.719-.82-1.496-1.8-1.496-.05 0-.06 0-.114.01-.08 0-.08.01-.08.028 0 .012.11.59.129.683.196.813.692 1.422 1.258 1.422.438 0 .609-.34.609-.644l.18.136c0 .497-.25.879-.726.879-.922 0-1.301-1.23-1.684-2.472-.690.126-1.045.481-1.045.938 0 .18.148.875.527 1.317.05.058.05.066.05.082 0 .023-.01.062-.07.062-.18 0-.672-.922-.672-1.531 0-.598.422-1.063 1.102-1.219l-.329-1.07z"/><path d="m46.523 3.213v.047.05.102l-.02.219v.117l-.02.121-.01.125-.05.258-.03.133-.04.132-.04.137-.09.274-.03.066-.03.066-.03.071-.03.066c-.382.781-.929 1.195-.992 1.195-.04 0-.07-.027-.07-.062 0-.02 0-.035.121-.149.625-.628.988-1.64.988-2.968 0-1.086-.238-2.203-1.027-3.004-.08-.074-.08-.09-.08-.11 0-.035.03-.062.07-.062.06 0 .633.434 1.008 1.238.324.699.402 1.403.402 1.938z"/><g transform="matrix(1,0,0,-1,0,54.955)"><path style="stroke:#f00;stroke-miterlimit:8;stroke-width:.87947;fill:none" d="m7.5 18.516v29.707"/></g><path style="fill:#fff;fill-rule:evenodd" d="m7.5 35.865h22.68"/><g transform="matrix(1,0,0,-1,0,54.955)"><path style="stroke-opacity:.75294;stroke:#000;stroke-linecap:square;stroke-miterlimit:7.7;stroke-dasharray:1.70079, 1.70079;stroke-width:.4252;fill:none" d="m7.5 19.09h22.68"/></g><path d="m17.77 24.474v-.01l.02-.02.02-.02.02-.02.02-.02.02-.02.02-.02.02-.02h.01v-.01l.02-.02v-.01l.04-.04.01-.01c.121-.09.254-.04.328.05.06.09.101.246 0 .394-.02.04-.77.957-.871 1.075-.184.222-.567.699-.719.878-.07.09-.246.52-.274.793 0 .09-.04.418.184.711.129.176.285.219.289.223-.117-.227-.06-.5.113-.629.106-.08.293-.101.43.08.137.184.125.492-.121.672-.238.18-.605.113-.859-.234-.332-.442-.223-.985-.133-1.258-.344.176-.742.09-.981-.231-.23-.308-.07-.632 0-.789.145-.293.485-.687.504-.703.07-.05.121.02.133.03.05.07.04.08-.07.235-.395.473-.618.851-.438 1.098.09.117.211.171.469-.02.144-.105.203-.188.492-.535l1.274-1.567z"/><path style="fill:#f00;fill-rule:evenodd" d="m7.5 36.763c.523 0 .945-.421.945-.945 0-.519-.422-.945-.945-.945-.52 0-.941.426-.941.945 0 .524.421.945.941.945"/><path style="fill:#00f;fill-rule:evenodd" d="m30.18 7.674c.519 0 .945-.426.945-.946 0-.523-.426-.945-.945-.945-.524 0-.946.422-.946.945 0 .52.422.946.946.946"/><path d="m20.82 20.31-1.382 2.309 2.488-1.016-1.106-1.293z"/><path d="m27.656 43.963h.211.02.04c.254.02.566.03.82.04-.179-.168-.281-.274-.922-.754-1.285-.981-1.425-1.395-1.425-1.418 0-.09.09-.09.148-.09.102 0 .106 0 .152.07.231.317.465.36.567.36.172 0 .316-.106.414-.176.195-.141.351-.254.598-.254.71 0 1.171.773 1.171 1.019 0 .09-.105.09-.152.09-.04 0-.113 0-.133-.05-.06-.125-.121-.282-.547-.332-.04 0-1.277-.06-1.418-.07.18.176.282.274.93.766 1.281.98 1.422 1.391 1.422 1.418 0 .09-.09.09-.145.09-.09 0-.109 0-.144-.06-.156-.222-.274-.371-.43-.371-.164 0-.304.106-.449.207-.152.114-.313.227-.547.227-.558 0-.922-.567-.922-.762 0-.09.102-.09.153-.09.06 0 .125 0 .148.08.09.05.133.05.324.07h.125z"/><path d="m26.188 41.01h3.797v-.262h-3.797v.262z"/><path d="m36.062 43.873h.05.01.03.02.02l.02.01.01.01v.03c0 .129-.121.129-.207.129h-3.808c-.09 0-.207 0-.207-.129 0-.125.117-.125.215-.125h3.792z"/><path d="m36.07 42.638h.02.02.05.02.02l.02.01.01.01v.03c0 .129-.121.129-.215.129h-3.792c-.1 0-.215 0-.215-.129s.117-.129.207-.129h3.808z"/><path d="m38.961 42.17v-.02-.01-.04-.02-.02-.04-.01-.01-.02-.01-.02c0-.113.09-.172.184-.172.08 0 .191.05.234.176.02.03.231.895.258 1.008.05.207.164.652.203.824.02.08.203.383.356.524.05.04.234.207.508.207.164 0 .257-.08.265-.08-.191-.03-.328-.187-.328-.351 0-.1.07-.223.242-.223.168 0 .348.149.348.375 0 .223-.203.414-.527.414-.415 0-.692-.312-.813-.488-.05.285-.281.488-.578.488-.293 0-.414-.246-.473-.359-.113-.219-.199-.598-.199-.621 0-.06.07-.06.08-.06.07 0 .07 0 .11.149.109.449.234.754.464.754.106 0 .196-.05.196-.289 0-.137-.02-.207-.102-.536l-.428-1.52z"/><path d="m44.074 43.385v.03.02l-.02.06-.02.03v.02.01l-.01.02v.01l-.01.01v.02l-.01.01h-.01l-.01.01-.02.01h-.01-.02-.01l-.05.02h-.01-.02-.03-.02-.02-.02c-.183 0-.336-.153-.336-.336 0-.184.153-.34.336-.34.184 0 .336.156.336.34z"/><path d="m47.211 43.263h.08.02.08.03.06.03.03.04.07.07.07l.07.02.07.01.105.02.06.02h.03l.06.02c.445.191.476.566.476.656 0 .278-.242.539-.68.539v-.14c.301 0 .469-.184.469-.399 0-.66-1.015-.66-1.277-.66h-.258c.246.965.902 1.059 1.066 1.059v.14c-.707 0-1.664-.617-1.664-1.726 0-.649.375-1.153.996-1.153.911 0 1.442.672 1.442.75 0 .04-.03.08-.07.08-.03 0-.04-.01-.08-.06-.504-.629-1.196-.629-1.27-.629-.496 0-.555.531-.555.738 0 .07 0 .274.102.66h.336z"/><path d="m50.93 46.869v.03.02.02l-.01.01-.03.02h-.01-.02-.01-.03c-.133 0-.25-.125-.25-.242 0-.07.05-.172.176-.172.121 0 .25.117.25.246z"/><path d="m49.988 43.873-.02-.05-.01-.03v-.02l-.01-.03-.01-.02-.01-.03-.02-.03-.03-.05-.01-.02-.02-.02-.02-.02-.02-.02-.02-.02-.02-.02-.02-.01-.02-.02-.06-.05-.02-.01-.02-.02-.02-.01h-.02l-.02-.01h-.02-.02-.05-.03-.02c-.05 0-.109 0-.16.02.113.05.152.16.152.23 0 .106-.09.16-.176.16-.136 0-.25-.117-.25-.261 0-.168.172-.278.438-.278.27 0 .785.157.926.7l.398 1.593c.02.05.02.09.02.157 0 .242-.211.414-.477.414-.492 0-.777-.618-.777-.68 0-.05.06-.05.08-.05.05 0 .05.01.09.08.113.258.344.536.601.536.11 0 .153-.08.153-.219 0-.05 0-.113-.02-.133l-.426-1.703z"/><path d="m52.742 44.053h.141c.8 0 1.535.652 1.535 1.355l-.16-.09c0-.449-.563-.968-1.328-.968h-.141c.09.512.125.711.34 1 .199.27.433.395.656.395.309 0 .473-.203.473-.434l.16.09c0 .391-.235.645-.582.645-.614 0-.942-.782-1.063-1.114-.06-.164-.156-.476-.183-.558-.489.07-.801.289-.801.617 0 0 .03.5.387.902.03.03.04.04.04.05 0 .05-.05.05-.07.05-.04 0-.06 0-.14-.1-.25-.309-.367-.77-.367-.961 0-.394.293-.734.863-.859-.223-.692-.246-.774-.246-.817 0-.121.101-.14.148-.14.05 0 .141.03.172.1.03.07.07.293.164.825z"/></g></svg>
