<?xml version="1.0" encoding="UTF-8" standalone="no"?>
<!-- Created with Inkscape (http://www.inkscape.org/) -->

<svg
   xmlns:dc="http://purl.org/dc/elements/1.1/"
   xmlns:cc="http://creativecommons.org/ns#"
   xmlns:rdf="http://www.w3.org/1999/02/22-rdf-syntax-ns#"
   xmlns:svg="http://www.w3.org/2000/svg"
   xmlns="http://www.w3.org/2000/svg"
   xmlns:sodipodi="http://sodipodi.sourceforge.net/DTD/sodipodi-0.dtd"
   xmlns:inkscape="http://www.inkscape.org/namespaces/inkscape"
   id="svg2"
   version="1.1"
   inkscape:version="0.91 r13725"
   xml:space="preserve"
   width="745.0116"
   height="400.01163"
   viewBox="0 0 745.0116 400.01163"
   sodipodi:docname="petrinet-classes.svg"><metadata
     id="metadata8"><rdf:RDF><cc:Work
         rdf:about=""><dc:format>image/svg+xml</dc:format><dc:type
           rdf:resource="http://purl.org/dc/dcmitype/StillImage" /><dc:title></dc:title></cc:Work></rdf:RDF></metadata><defs
     id="defs6"><clipPath
       clipPathUnits="userSpaceOnUse"
       id="clipPath16"><path
         d="M 0,0 720,0 720,540 0,540 0,0 Z"
         id="path18"
         inkscape:connector-curvature="0"
         style="clip-rule:evenodd" /></clipPath><clipPath
       clipPathUnits="userSpaceOnUse"
       id="clipPath28"><path
         d="M 0,0 720,0 720,540 0,540 0,0 Z"
         id="path30"
         inkscape:connector-curvature="0"
         style="clip-rule:evenodd" /></clipPath><clipPath
       clipPathUnits="userSpaceOnUse"
       id="clipPath156"><path
         d="m 53.9,0 666.4,0 0,540.1 -666.4,0 0,-540.1 z"
         id="path158"
         inkscape:connector-curvature="0" /></clipPath><clipPath
       clipPathUnits="userSpaceOnUse"
       id="clipPath170"><path
         d="m 0,399 547.3,0 0,6 -547.3,0 0,-6 z"
         id="path172"
         inkscape:connector-curvature="0" /></clipPath><clipPath
       clipPathUnits="userSpaceOnUse"
       id="clipPath188"><path
         d="M 0,0 720,0 720,540 0,540 0,0 Z"
         id="path190"
         inkscape:connector-curvature="0"
         style="clip-rule:evenodd" /></clipPath></defs><sodipodi:namedview
     pagecolor="#ffffff"
     bordercolor="#666666"
     borderopacity="1"
     objecttolerance="10"
     gridtolerance="10"
     guidetolerance="10"
     inkscape:pageopacity="0"
     inkscape:pageshadow="2"
     inkscape:window-width="1710"
     inkscape:window-height="1411"
     id="namedview4"
     showgrid="false"
     fit-margin-top="0"
     fit-margin-left="0"
     fit-margin-right="0"
     fit-margin-bottom="0"
     inkscape:zoom="0.98890193"
     inkscape:cx="484.38916"
     inkscape:cy="72.971314"
     inkscape:window-x="1720"
     inkscape:window-y="24"
     inkscape:window-maximized="0"
     inkscape:current-layer="g10" /><g
     id="g10"
     inkscape:groupmode="layer"
     inkscape:label="petrinets"
     transform="matrix(1.25,0,0,-1.25,-81.244188,458.75581)"><path
       d="M 119,366 C 92.5,366 66,339.5 66,313 L 66,101 C 66,74.5 92.5,48 119,48 l 488,0 c 26.5,0 53,26.5 53,53 l 0,212 c 0,26.5 -26.5,53 -53,53 l -488,0 z m -53,0 0,0 z m 594,-318 0,0 z"
       style="fill:#ffffff;fill-opacity:1;fill-rule:evenodd;stroke:none"
       id="path198"
       inkscape:connector-curvature="0" /><g
       id="g200"><path
         d="M 119,366 C 92.5,366 66,339.5 66,313 L 66,101 C 66,74.5 92.5,48 119,48 l 488,0 c 26.5,0 53,26.5 53,53 l 0,212 c 0,26.5 -26.5,53 -53,53 l -488,0 z"
         style="fill:none;stroke:#000000;stroke-width:2.00929999;stroke-linecap:square;stroke-linejoin:miter;stroke-miterlimit:7.66129017;stroke-dasharray:none;stroke-opacity:1"
         id="path202"
         inkscape:connector-curvature="0" /></g><g
       id="g204"><path
         d="m 66,366 0,0 z"
         style="fill:none;stroke:#000000;stroke-width:2.00929999;stroke-linecap:square;stroke-linejoin:miter;stroke-miterlimit:7.66129017;stroke-dasharray:none;stroke-opacity:1"
         id="path206"
         inkscape:connector-curvature="0" /></g><g
       id="g208"><path
         d="m 660,48 0,0 z"
         style="fill:none;stroke:#000000;stroke-width:2.00929999;stroke-linecap:square;stroke-linejoin:miter;stroke-miterlimit:7.66129017;stroke-dasharray:none;stroke-opacity:1"
         id="path210"
         inkscape:connector-curvature="0" /></g><g
       id="g212"><text
         transform="matrix(1,0,0,-1,349.4,199)"
         style="font-variant:normal;font-weight:normal;font-size:20px;font-family:Verdana;-inkscape-font-specification:Verdana;writing-mode:lr-tb;fill:#000000;fill-opacity:1;fill-rule:nonzero;stroke:none"
         id="text214"><tspan
           x="0 12.08"
           y="0"
           sodipodi:role="line"
           id="tspan216">PN</tspan></text>
</g><path
       d="M 363,354 C 528,354 654,290.4 654,207 654,123.7 528,60 363,60 198,60 72,123.7 72,207 c 0,83.4 126,147 291,147 z m -291,0 0,0 z m 582,-294 0,0 z"
       style="fill:#ffffff;fill-opacity:1;fill-rule:evenodd;stroke:none"
       id="path218"
       inkscape:connector-curvature="0" /><g
       id="g220"><path
         d="M 363,354 C 528,354 654,290.4 654,207 654,123.7 528,60 363,60 198,60 72,123.7 72,207 c 0,83.4 126,147 291,147 z"
         style="fill:none;stroke:#000000;stroke-width:2.00929999;stroke-linecap:square;stroke-linejoin:miter;stroke-miterlimit:7.66129017;stroke-dasharray:none;stroke-opacity:1"
         id="path222"
         inkscape:connector-curvature="0" /></g><g
       id="g224"><path
         d="m 72,354 0,0 z"
         style="fill:none;stroke:#000000;stroke-width:2.00929999;stroke-linecap:square;stroke-linejoin:miter;stroke-miterlimit:7.66129017;stroke-dasharray:none;stroke-opacity:1"
         id="path226"
         inkscape:connector-curvature="0" /></g><g
       id="g228"><path
         d="m 654,60 0,0 z"
         style="fill:none;stroke:#000000;stroke-width:2.00929999;stroke-linecap:square;stroke-linejoin:miter;stroke-miterlimit:7.66129017;stroke-dasharray:none;stroke-opacity:1"
         id="path230"
         inkscape:connector-curvature="0" /></g><path
       d="M 411,330 C 545.4,330 648,276.8 648,207 648,137.3 545.4,84 411,84 276.6,84 174,137.3 174,207 c 0,69.8 102.6,123 237,123 z m -237,0 0,0 z m 474,-246 0,0 z"
       style="fill:#ffffff;fill-opacity:1;fill-rule:evenodd;stroke:none"
       id="path232"
       inkscape:connector-curvature="0" /><g
       id="g234"><path
         d="M 411,330 C 545.4,330 648,276.8 648,207 648,137.3 545.4,84 411,84 276.6,84 174,137.3 174,207 c 0,69.8 102.6,123 237,123 z"
         style="fill:none;stroke:#000000;stroke-width:2.00929999;stroke-linecap:square;stroke-linejoin:miter;stroke-miterlimit:7.66129017;stroke-dasharray:none;stroke-opacity:1"
         id="path236"
         inkscape:connector-curvature="0" /></g><g
       id="g238"><path
         d="m 174,330 0,0 z"
         style="fill:none;stroke:#000000;stroke-width:2.00929999;stroke-linecap:square;stroke-linejoin:miter;stroke-miterlimit:7.66129017;stroke-dasharray:none;stroke-opacity:1"
         id="path240"
         inkscape:connector-curvature="0" /></g><g
       id="g242"><path
         d="m 648,84 0,0 z"
         style="fill:none;stroke:#000000;stroke-width:2.00929999;stroke-linecap:square;stroke-linejoin:miter;stroke-miterlimit:7.66129017;stroke-dasharray:none;stroke-opacity:1"
         id="path244"
         inkscape:connector-curvature="0" /></g><path
       d="m 456,312 c 105.4,0 186,-45.4 186,-105 0,-59.5 -80.6,-105 -186,-105 -105.5,0 -186,45.5 -186,105 0,59.6 80.5,105 186,105 z m -186,0 0,0 z m 372,-210 0,0 z"
       style="fill:#ffffff;fill-opacity:1;fill-rule:evenodd;stroke:none"
       id="path246"
       inkscape:connector-curvature="0" /><g
       id="g248"><path
         d="m 456,312 c 105.4,0 186,-45.4 186,-105 0,-59.5 -80.6,-105 -186,-105 -105.5,0 -186,45.5 -186,105 0,59.6 80.5,105 186,105 z"
         style="fill:none;stroke:#000000;stroke-width:2.00929999;stroke-linecap:square;stroke-linejoin:miter;stroke-miterlimit:7.66129017;stroke-dasharray:none;stroke-opacity:1"
         id="path250"
         inkscape:connector-curvature="0" /></g><g
       id="g252"><path
         d="m 270,312 0,0 z"
         style="fill:none;stroke:#000000;stroke-width:2.00929999;stroke-linecap:square;stroke-linejoin:miter;stroke-miterlimit:7.66129017;stroke-dasharray:none;stroke-opacity:1"
         id="path254"
         inkscape:connector-curvature="0" /></g><g
       id="g256"><path
         d="m 642,102 0,0 z"
         style="fill:none;stroke:#000000;stroke-width:2.00929999;stroke-linecap:square;stroke-linejoin:miter;stroke-miterlimit:7.66129017;stroke-dasharray:none;stroke-opacity:1"
         id="path258"
         inkscape:connector-curvature="0" /></g><g
       id="g260"><text
         transform="matrix(1,0,0,-1,97.1,320.3)"
         style="font-variant:normal;font-weight:normal;font-size:24px;font-family:Verdana;-inkscape-font-specification:Verdana;writing-mode:lr-tb;fill:#000000;fill-opacity:1;fill-rule:nonzero;stroke:none"
         id="text262"><tspan
           x="0 14.472"
           y="0"
           sodipodi:role="line"
           id="tspan264">PN</tspan></text>
</g><g
       id="g266"><text
         transform="matrix(1,0,0,-1,121.1,248.3)"
         style="font-variant:normal;font-weight:normal;font-size:24px;font-family:Verdana;-inkscape-font-specification:Verdana;writing-mode:lr-tb;fill:#000000;fill-opacity:1;fill-rule:nonzero;stroke:none"
         id="text268"><tspan
           x="0 16.392"
           y="0"
           sodipodi:role="line"
           id="tspan270">AC</tspan></text>
</g><g
       id="g272"><text
         transform="matrix(1,0,0,-1,217.1,248.3)"
         style="font-variant:normal;font-weight:normal;font-size:24px;font-family:Verdana;-inkscape-font-specification:Verdana;writing-mode:lr-tb;fill:#000000;fill-opacity:1;fill-rule:nonzero;stroke:none"
         id="text274"><tspan
           x="0 15.096 28.872"
           y="0"
           sodipodi:role="line"
           id="tspan276">EFC</tspan></text>
</g><g
       id="g278"><text
         transform="matrix(1,0,0,-1,325,248.3)"
         style="font-variant:normal;font-weight:normal;font-size:24px;font-family:Verdana;-inkscape-font-specification:Verdana;writing-mode:lr-tb;fill:#000000;fill-opacity:1;fill-rule:nonzero;stroke:none"
         id="text280"><tspan
           x="0 13.872"
           y="0"
           sodipodi:role="line"
           id="tspan282">FC</tspan></text>
</g><path
       d="m 453,282 c 42.5,0 75,-33.7 75,-78 0,-44.2 -32.5,-78 -75,-78 -42.5,0 -75,33.8 -75,78 0,44.3 32.5,78 75,78 z m -75,0 0,0 z m 150,-156 0,0 z"
       style="fill:#ffffff;fill-opacity:1;fill-rule:evenodd;stroke:none"
       id="path284"
       inkscape:connector-curvature="0" /><g
       id="g286"><path
         d="m 453,282 c 42.5,0 75,-33.7 75,-78 0,-44.2 -32.5,-78 -75,-78 -42.5,0 -75,33.8 -75,78 0,44.3 32.5,78 75,78 z"
         style="fill:none;stroke:#000000;stroke-width:2.00929999;stroke-linecap:square;stroke-linejoin:miter;stroke-miterlimit:7.66129017;stroke-dasharray:none;stroke-opacity:1"
         id="path288"
         inkscape:connector-curvature="0" /></g><g
       id="g290"><path
         d="m 378,282 0,0 z"
         style="fill:none;stroke:#000000;stroke-width:2.00929999;stroke-linecap:square;stroke-linejoin:miter;stroke-miterlimit:7.66129017;stroke-dasharray:none;stroke-opacity:1"
         id="path292"
         inkscape:connector-curvature="0" /></g><g
       id="g294"><path
         d="m 528,126 0,0 z"
         style="fill:none;stroke:#000000;stroke-width:2.00929999;stroke-linecap:square;stroke-linejoin:miter;stroke-miterlimit:7.66129017;stroke-dasharray:none;stroke-opacity:1"
         id="path296"
         inkscape:connector-curvature="0" /></g><g
       id="g298"><path
         d="m 543,282 c 42.5,0 75,-33.7 75,-78 0,-44.2 -32.5,-78 -75,-78 -42.5,0 -75,33.8 -75,78 0,44.3 32.5,78 75,78 z"
         style="fill:none;stroke:#000000;stroke-width:2.00929999;stroke-linecap:square;stroke-linejoin:miter;stroke-miterlimit:7.66129017;stroke-dasharray:none;stroke-opacity:1"
         id="path300"
         inkscape:connector-curvature="0" /></g><g
       id="g302"><path
         d="m 468,282 0,0 z"
         style="fill:none;stroke:#000000;stroke-width:2.00929999;stroke-linecap:square;stroke-linejoin:miter;stroke-miterlimit:7.66129017;stroke-dasharray:none;stroke-opacity:1"
         id="path304"
         inkscape:connector-curvature="0" /></g><g
       id="g306"><path
         d="m 618,126 0,0 z"
         style="fill:none;stroke:#000000;stroke-width:2.00929999;stroke-linecap:square;stroke-linejoin:miter;stroke-miterlimit:7.66129017;stroke-dasharray:none;stroke-opacity:1"
         id="path308"
         inkscape:connector-curvature="0" /></g><g
       id="g310"><text
         transform="matrix(1,0,0,-1,427.1,248.3)"
         style="font-variant:normal;font-weight:normal;font-size:24px;font-family:Verdana;-inkscape-font-specification:Verdana;writing-mode:lr-tb;fill:#000000;fill-opacity:1;fill-rule:nonzero;stroke:none"
         id="text312"><tspan
           x="0 16.392"
           y="0"
           sodipodi:role="line"
           id="tspan314">SM</tspan></text>
</g><g
       id="g316"><text
         transform="matrix(1,0,0,-1,529.1,248.3)"
         style="font-variant:normal;font-weight:normal;font-size:24px;font-family:Verdana;-inkscape-font-specification:Verdana;writing-mode:lr-tb;fill:#000000;fill-opacity:1;fill-rule:nonzero;stroke:none"
         id="text318"><tspan
           x="0 20.208"
           y="0"
           sodipodi:role="line"
           id="tspan320">MG</tspan></text>
</g><path
       d="m 429,174 -3,0 0,36 6,0 0,-36 -3,0 z"
       style="fill:#ffff99;fill-opacity:1;fill-rule:evenodd;stroke:none"
       id="path322"
       inkscape:connector-curvature="0" /><g
       id="g324"><path
         d="m 429,174 -3,0 0,36 6,0 0,-36 -3,0 z"
         style="fill:none;stroke:#000000;stroke-width:0.73580003;stroke-linecap:square;stroke-linejoin:miter;stroke-miterlimit:7.66129017;stroke-dasharray:none;stroke-opacity:1"
         id="path326"
         inkscape:connector-curvature="0" /></g><path
       d="m 570,204 c 6.8,0 12,-5.1 12,-12 0,-6.8 -5.2,-12 -12,-12 -6.8,0 -12,5.2 -12,12 0,6.9 5.2,12 12,12 z m -12,0 0,0 z m 24,-24 0,0 z"
       style="fill:#ffff99;fill-opacity:1;fill-rule:evenodd;stroke:none"
       id="path328"
       inkscape:connector-curvature="0" /><g
       id="g330"><path
         d="m 570,204 c 6.8,0 12,-5.1 12,-12 0,-6.8 -5.2,-12 -12,-12 -6.8,0 -12,5.2 -12,12 0,6.9 5.2,12 12,12 z"
         style="fill:none;stroke:#000000;stroke-width:0.73580003;stroke-linecap:square;stroke-linejoin:miter;stroke-miterlimit:7.66129017;stroke-dasharray:none;stroke-opacity:1"
         id="path332"
         inkscape:connector-curvature="0" /></g><g
       id="g334"><path
         d="m 558,204 0,0 z"
         style="fill:none;stroke:#000000;stroke-width:0.73580003;stroke-linecap:square;stroke-linejoin:miter;stroke-miterlimit:7.66129017;stroke-dasharray:none;stroke-opacity:1"
         id="path336"
         inkscape:connector-curvature="0" /></g><g
       id="g338"><path
         d="m 582,180 0,0 z"
         style="fill:none;stroke:#000000;stroke-width:0.73580003;stroke-linecap:square;stroke-linejoin:miter;stroke-miterlimit:7.66129017;stroke-dasharray:none;stroke-opacity:1"
         id="path340"
         inkscape:connector-curvature="0" /></g><g
       id="g342"><path
         d="m 408,192 12.4,0"
         style="fill:none;stroke:#000000;stroke-width:0.73580003;stroke-linecap:square;stroke-linejoin:miter;stroke-miterlimit:10;stroke-dasharray:none;stroke-opacity:1"
         id="path344"
         inkscape:connector-curvature="0" /></g><path
       d="m 426,192 -6,-3 0,6 6,-3 z"
       style="fill:#000000;fill-opacity:1;fill-rule:evenodd;stroke:none"
       id="path346"
       inkscape:connector-curvature="0" /><g
       id="g348"><path
         d="m 432,192 12.4,0"
         style="fill:none;stroke:#000000;stroke-width:0.73580003;stroke-linecap:square;stroke-linejoin:miter;stroke-miterlimit:10;stroke-dasharray:none;stroke-opacity:1"
         id="path350"
         inkscape:connector-curvature="0" /></g><path
       d="m 450,192 -6,-3 0,6 6,-3 z"
       style="fill:#000000;fill-opacity:1;fill-rule:evenodd;stroke:none"
       id="path352"
       inkscape:connector-curvature="0" /><g
       id="g354"><path
         d="m 540,192 12.4,0"
         style="fill:none;stroke:#000000;stroke-width:0.73580003;stroke-linecap:square;stroke-linejoin:miter;stroke-miterlimit:10;stroke-dasharray:none;stroke-opacity:1"
         id="path356"
         inkscape:connector-curvature="0" /></g><path
       d="m 558,192 -6,-3 0,6 6,-3 z"
       style="fill:#000000;fill-opacity:1;fill-rule:evenodd;stroke:none"
       id="path358"
       inkscape:connector-curvature="0" /><g
       id="g360"><path
         d="m 582,192 12.5,0"
         style="fill:none;stroke:#000000;stroke-width:0.73580003;stroke-linecap:square;stroke-linejoin:miter;stroke-miterlimit:10;stroke-dasharray:none;stroke-opacity:1"
         id="path362"
         inkscape:connector-curvature="0" /></g><path
       d="m 600,192 -5.9,-3 0,6 5.9,-3 z"
       style="fill:#000000;fill-opacity:1;fill-rule:evenodd;stroke:none"
       id="path364"
       inkscape:connector-curvature="0" /><path
       d="m 318,234 c 6.8,0 12,-5.2 12,-12 0,-6.8 -5.2,-12 -12,-12 -6.8,0 -12,5.2 -12,12 0,6.8 5.2,12 12,12 z m -12,0 0,0 z m 24,-24 0,0 z"
       style="fill:#ffff99;fill-opacity:1;fill-rule:evenodd;stroke:none"
       id="path366"
       inkscape:connector-curvature="0" /><g
       id="g368"><path
         d="m 318,234 c 6.8,0 12,-5.2 12,-12 0,-6.8 -5.2,-12 -12,-12 -6.8,0 -12,5.2 -12,12 0,6.8 5.2,12 12,12 z"
         style="fill:none;stroke:#000000;stroke-width:0.73580003;stroke-linecap:square;stroke-linejoin:miter;stroke-miterlimit:7.66129017;stroke-dasharray:none;stroke-opacity:1"
         id="path370"
         inkscape:connector-curvature="0" /></g><g
       id="g372"><path
         d="m 306,234 0,0 z"
         style="fill:none;stroke:#000000;stroke-width:0.73580003;stroke-linecap:square;stroke-linejoin:miter;stroke-miterlimit:7.66129017;stroke-dasharray:none;stroke-opacity:1"
         id="path374"
         inkscape:connector-curvature="0" /></g><g
       id="g376"><path
         d="m 330,210 0,0 z"
         style="fill:none;stroke:#000000;stroke-width:0.73580003;stroke-linecap:square;stroke-linejoin:miter;stroke-miterlimit:7.66129017;stroke-dasharray:none;stroke-opacity:1"
         id="path378"
         inkscape:connector-curvature="0" /></g><g
       id="g380"><path
         d="m 330,222 12.5,0"
         style="fill:none;stroke:#000000;stroke-width:0.73580003;stroke-linecap:square;stroke-linejoin:miter;stroke-miterlimit:10;stroke-dasharray:none;stroke-opacity:1"
         id="path382"
         inkscape:connector-curvature="0" /></g><path
       d="m 348,222 -5.9,-3 0,6 5.9,-3 z"
       style="fill:#000000;fill-opacity:1;fill-rule:evenodd;stroke:none"
       id="path384"
       inkscape:connector-curvature="0" /><path
       d="m 318,180 c 6.8,0 12,-5.2 12,-12 0,-6.8 -5.2,-12 -12,-12 -6.8,0 -12,5.2 -12,12 0,6.8 5.2,12 12,12 z m -12,0 0,0 z m 24,-24 0,0 z"
       style="fill:#ffff99;fill-opacity:1;fill-rule:evenodd;stroke:none"
       id="path386"
       inkscape:connector-curvature="0" /><g
       id="g388"><path
         d="m 318,180 c 6.8,0 12,-5.2 12,-12 0,-6.8 -5.2,-12 -12,-12 -6.8,0 -12,5.2 -12,12 0,6.8 5.2,12 12,12 z"
         style="fill:none;stroke:#000000;stroke-width:0.73580003;stroke-linecap:square;stroke-linejoin:miter;stroke-miterlimit:7.66129017;stroke-dasharray:none;stroke-opacity:1"
         id="path390"
         inkscape:connector-curvature="0" /></g><g
       id="g392"><path
         d="m 306,180 0,0 z"
         style="fill:none;stroke:#000000;stroke-width:0.73580003;stroke-linecap:square;stroke-linejoin:miter;stroke-miterlimit:7.66129017;stroke-dasharray:none;stroke-opacity:1"
         id="path394"
         inkscape:connector-curvature="0" /></g><g
       id="g396"><path
         d="m 330,156 0,0 z"
         style="fill:none;stroke:#000000;stroke-width:0.73580003;stroke-linecap:square;stroke-linejoin:miter;stroke-miterlimit:7.66129017;stroke-dasharray:none;stroke-opacity:1"
         id="path398"
         inkscape:connector-curvature="0" /></g><g
       id="g400"><path
         d="m 330,168 19,9.5"
         style="fill:none;stroke:#000000;stroke-width:0.73580003;stroke-linecap:square;stroke-linejoin:miter;stroke-miterlimit:10;stroke-dasharray:none;stroke-opacity:1"
         id="path402"
         inkscape:connector-curvature="0" /></g><path
       d="m 354,180 -4,-5.3 -2.7,5.3 6.7,0 z"
       style="fill:#000000;fill-opacity:1;fill-rule:evenodd;stroke:none"
       id="path404"
       inkscape:connector-curvature="0" /><path
       d="m 357,168 -3,0 0,36 6,0 0,-36 -3,0 z"
       style="fill:#ffff99;fill-opacity:1;fill-rule:evenodd;stroke:none"
       id="path406"
       inkscape:connector-curvature="0" /><g
       id="g408"><path
         d="m 357,168 -3,0 0,36 6,0 0,-36 -3,0 z"
         style="fill:none;stroke:#000000;stroke-width:0.73580003;stroke-linecap:square;stroke-linejoin:miter;stroke-miterlimit:7.66129017;stroke-dasharray:none;stroke-opacity:1"
         id="path410"
         inkscape:connector-curvature="0" /></g><path
       d="m 357,126 -3,0 0,36 6,0 0,-36 -3,0 z"
       style="fill:#ffff99;fill-opacity:1;fill-rule:evenodd;stroke:none"
       id="path412"
       inkscape:connector-curvature="0" /><g
       id="g414"><path
         d="m 357,126 -3,0 0,36 6,0 0,-36 -3,0 z"
         style="fill:none;stroke:#000000;stroke-width:0.73580003;stroke-linecap:square;stroke-linejoin:miter;stroke-miterlimit:7.66129017;stroke-dasharray:none;stroke-opacity:1"
         id="path416"
         inkscape:connector-curvature="0" /></g><g
       id="g418"><path
         d="m 330,162 19,-9.5"
         style="fill:none;stroke:#000000;stroke-width:0.73580003;stroke-linecap:square;stroke-linejoin:miter;stroke-miterlimit:10;stroke-dasharray:none;stroke-opacity:1"
         id="path420"
         inkscape:connector-curvature="0" /></g><path
       d="m 354,150 -6.7,0 2.7,5.3 4,-5.3 z"
       style="fill:#000000;fill-opacity:1;fill-rule:evenodd;stroke:none"
       id="path422"
       inkscape:connector-curvature="0" /><path
       d="m 210,222 c 6.8,0 12,-5.1 12,-12 0,-6.8 -5.2,-12 -12,-12 -6.8,0 -12,5.2 -12,12 0,6.9 5.2,12 12,12 z m -12,0 0,0 z m 24,-24 0,0 z"
       style="fill:#ffff99;fill-opacity:1;fill-rule:evenodd;stroke:none"
       id="path424"
       inkscape:connector-curvature="0" /><g
       id="g426"><path
         d="m 210,222 c 6.8,0 12,-5.1 12,-12 0,-6.8 -5.2,-12 -12,-12 -6.8,0 -12,5.2 -12,12 0,6.9 5.2,12 12,12 z"
         style="fill:none;stroke:#000000;stroke-width:0.73580003;stroke-linecap:square;stroke-linejoin:miter;stroke-miterlimit:7.66129017;stroke-dasharray:none;stroke-opacity:1"
         id="path428"
         inkscape:connector-curvature="0" /></g><g
       id="g430"><path
         d="m 198,222 0,0 z"
         style="fill:none;stroke:#000000;stroke-width:0.73580003;stroke-linecap:square;stroke-linejoin:miter;stroke-miterlimit:7.66129017;stroke-dasharray:none;stroke-opacity:1"
         id="path432"
         inkscape:connector-curvature="0" /></g><g
       id="g434"><path
         d="m 222,198 0,0 z"
         style="fill:none;stroke:#000000;stroke-width:0.73580003;stroke-linecap:square;stroke-linejoin:miter;stroke-miterlimit:7.66129017;stroke-dasharray:none;stroke-opacity:1"
         id="path436"
         inkscape:connector-curvature="0" /></g><g
       id="g438"><path
         d="m 222,210 12.5,0"
         style="fill:none;stroke:#000000;stroke-width:0.73580003;stroke-linecap:square;stroke-linejoin:miter;stroke-miterlimit:10;stroke-dasharray:none;stroke-opacity:1"
         id="path440"
         inkscape:connector-curvature="0" /></g><path
       d="m 240,210 -5.9,-3 0,6 5.9,-3 z"
       style="fill:#000000;fill-opacity:1;fill-rule:evenodd;stroke:none"
       id="path442"
       inkscape:connector-curvature="0" /><path
       d="m 243,192 -3,0 0,36 6,0 0,-36 -3,0 z"
       style="fill:#ffff99;fill-opacity:1;fill-rule:evenodd;stroke:none"
       id="path444"
       inkscape:connector-curvature="0" /><g
       id="g446"><path
         d="m 243,192 -3,0 0,36 6,0 0,-36 -3,0 z"
         style="fill:none;stroke:#000000;stroke-width:0.73580003;stroke-linecap:square;stroke-linejoin:miter;stroke-miterlimit:7.66129017;stroke-dasharray:none;stroke-opacity:1"
         id="path448"
         inkscape:connector-curvature="0" /></g><path
       d="m 210,180 c 6.8,0 12,-5.2 12,-12 0,-6.8 -5.2,-12 -12,-12 -6.8,0 -12,5.2 -12,12 0,6.8 5.2,12 12,12 z m -12,0 0,0 z m 24,-24 0,0 z"
       style="fill:#ffff99;fill-opacity:1;fill-rule:evenodd;stroke:none"
       id="path450"
       inkscape:connector-curvature="0" /><g
       id="g452"><path
         d="m 210,180 c 6.8,0 12,-5.2 12,-12 0,-6.8 -5.2,-12 -12,-12 -6.8,0 -12,5.2 -12,12 0,6.8 5.2,12 12,12 z"
         style="fill:none;stroke:#000000;stroke-width:0.73580003;stroke-linecap:square;stroke-linejoin:miter;stroke-miterlimit:7.66129017;stroke-dasharray:none;stroke-opacity:1"
         id="path454"
         inkscape:connector-curvature="0" /></g><g
       id="g456"><path
         d="m 198,180 0,0 z"
         style="fill:none;stroke:#000000;stroke-width:0.73580003;stroke-linecap:square;stroke-linejoin:miter;stroke-miterlimit:7.66129017;stroke-dasharray:none;stroke-opacity:1"
         id="path458"
         inkscape:connector-curvature="0" /></g><g
       id="g460"><path
         d="m 222,156 0,0 z"
         style="fill:none;stroke:#000000;stroke-width:0.73580003;stroke-linecap:square;stroke-linejoin:miter;stroke-miterlimit:7.66129017;stroke-dasharray:none;stroke-opacity:1"
         id="path462"
         inkscape:connector-curvature="0" /></g><g
       id="g464"><path
         d="m 222,168 12.5,0"
         style="fill:none;stroke:#000000;stroke-width:0.73580003;stroke-linecap:square;stroke-linejoin:miter;stroke-miterlimit:10;stroke-dasharray:none;stroke-opacity:1"
         id="path466"
         inkscape:connector-curvature="0" /></g><path
       d="m 240,168 -5.9,-3 0,6 5.9,-3 z"
       style="fill:#000000;fill-opacity:1;fill-rule:evenodd;stroke:none"
       id="path468"
       inkscape:connector-curvature="0" /><path
       d="m 243,150 -3,0 0,36 6,0 0,-36 -3,0 z"
       style="fill:#ffff99;fill-opacity:1;fill-rule:evenodd;stroke:none"
       id="path470"
       inkscape:connector-curvature="0" /><g
       id="g472"><path
         d="m 243,150 -3,0 0,36 6,0 0,-36 -3,0 z"
         style="fill:none;stroke:#000000;stroke-width:0.73580003;stroke-linecap:square;stroke-linejoin:miter;stroke-miterlimit:7.66129017;stroke-dasharray:none;stroke-opacity:1"
         id="path474"
         inkscape:connector-curvature="0" /></g><g
       id="g476"><path
         d="m 222,174 14.7,19.6"
         style="fill:none;stroke:#000000;stroke-width:0.73580003;stroke-linecap:square;stroke-linejoin:miter;stroke-miterlimit:10;stroke-dasharray:none;stroke-opacity:1"
         id="path478"
         inkscape:connector-curvature="0" /></g><path
       d="m 240,198 -1.2,-6.5 -4.7,3.6 5.9,2.9 z"
       style="fill:#000000;fill-opacity:1;fill-rule:evenodd;stroke:none"
       id="path480"
       inkscape:connector-curvature="0" /><g
       id="g482"><path
         d="m 222,204 14.7,-19.5"
         style="fill:none;stroke:#000000;stroke-width:0.73580003;stroke-linecap:square;stroke-linejoin:miter;stroke-miterlimit:10;stroke-dasharray:none;stroke-opacity:1"
         id="path484"
         inkscape:connector-curvature="0" /></g><path
       d="m 240,180 -5.9,3 4.7,3.5 1.2,-6.5 z"
       style="fill:#000000;fill-opacity:1;fill-rule:evenodd;stroke:none"
       id="path486"
       inkscape:connector-curvature="0" /><path
       d="m 120,222 c 6.8,0 12,-5.1 12,-12 0,-6.8 -5.2,-12 -12,-12 -6.8,0 -12,5.2 -12,12 0,6.9 5.2,12 12,12 z m -12,0 0,0 z m 24,-24 0,0 z"
       style="fill:#ffff99;fill-opacity:1;fill-rule:evenodd;stroke:none"
       id="path488"
       inkscape:connector-curvature="0" /><g
       id="g490"><path
         d="m 120,222 c 6.8,0 12,-5.1 12,-12 0,-6.8 -5.2,-12 -12,-12 -6.8,0 -12,5.2 -12,12 0,6.9 5.2,12 12,12 z"
         style="fill:none;stroke:#000000;stroke-width:0.73580003;stroke-linecap:square;stroke-linejoin:miter;stroke-miterlimit:7.66129017;stroke-dasharray:none;stroke-opacity:1"
         id="path492"
         inkscape:connector-curvature="0" /></g><g
       id="g494"><path
         d="m 108,222 0,0 z"
         style="fill:none;stroke:#000000;stroke-width:0.73580003;stroke-linecap:square;stroke-linejoin:miter;stroke-miterlimit:7.66129017;stroke-dasharray:none;stroke-opacity:1"
         id="path496"
         inkscape:connector-curvature="0" /></g><g
       id="g498"><path
         d="m 132,198 0,0 z"
         style="fill:none;stroke:#000000;stroke-width:0.73580003;stroke-linecap:square;stroke-linejoin:miter;stroke-miterlimit:7.66129017;stroke-dasharray:none;stroke-opacity:1"
         id="path500"
         inkscape:connector-curvature="0" /></g><g
       id="g502"><path
         d="m 132,210 12.5,0"
         style="fill:none;stroke:#000000;stroke-width:0.73580003;stroke-linecap:square;stroke-linejoin:miter;stroke-miterlimit:10;stroke-dasharray:none;stroke-opacity:1"
         id="path504"
         inkscape:connector-curvature="0" /></g><path
       d="m 150,210 -5.9,-3 0,6 5.9,-3 z"
       style="fill:#000000;fill-opacity:1;fill-rule:evenodd;stroke:none"
       id="path506"
       inkscape:connector-curvature="0" /><path
       d="m 153,192 -3,0 0,36 6,0 0,-36 -3,0 z"
       style="fill:#ffff99;fill-opacity:1;fill-rule:evenodd;stroke:none"
       id="path508"
       inkscape:connector-curvature="0" /><g
       id="g510"><path
         d="m 153,192 -3,0 0,36 6,0 0,-36 -3,0 z"
         style="fill:none;stroke:#000000;stroke-width:0.73580003;stroke-linecap:square;stroke-linejoin:miter;stroke-miterlimit:7.66129017;stroke-dasharray:none;stroke-opacity:1"
         id="path512"
         inkscape:connector-curvature="0" /></g><path
       d="m 120,180 c 6.8,0 12,-5.2 12,-12 0,-6.8 -5.2,-12 -12,-12 -6.8,0 -12,5.2 -12,12 0,6.8 5.2,12 12,12 z m -12,0 0,0 z m 24,-24 0,0 z"
       style="fill:#ffff99;fill-opacity:1;fill-rule:evenodd;stroke:none"
       id="path514"
       inkscape:connector-curvature="0" /><g
       id="g516"><path
         d="m 120,180 c 6.8,0 12,-5.2 12,-12 0,-6.8 -5.2,-12 -12,-12 -6.8,0 -12,5.2 -12,12 0,6.8 5.2,12 12,12 z"
         style="fill:none;stroke:#000000;stroke-width:0.73580003;stroke-linecap:square;stroke-linejoin:miter;stroke-miterlimit:7.66129017;stroke-dasharray:none;stroke-opacity:1"
         id="path518"
         inkscape:connector-curvature="0" /></g><g
       id="g520"><path
         d="m 108,180 0,0 z"
         style="fill:none;stroke:#000000;stroke-width:0.73580003;stroke-linecap:square;stroke-linejoin:miter;stroke-miterlimit:7.66129017;stroke-dasharray:none;stroke-opacity:1"
         id="path522"
         inkscape:connector-curvature="0" /></g><g
       id="g524"><path
         d="m 132,156 0,0 z"
         style="fill:none;stroke:#000000;stroke-width:0.73580003;stroke-linecap:square;stroke-linejoin:miter;stroke-miterlimit:7.66129017;stroke-dasharray:none;stroke-opacity:1"
         id="path526"
         inkscape:connector-curvature="0" /></g><g
       id="g528"><path
         d="m 132,168 12.5,0"
         style="fill:none;stroke:#000000;stroke-width:0.73580003;stroke-linecap:square;stroke-linejoin:miter;stroke-miterlimit:10;stroke-dasharray:none;stroke-opacity:1"
         id="path530"
         inkscape:connector-curvature="0" /></g><path
       d="m 150,168 -5.9,-3 0,6 5.9,-3 z"
       style="fill:#000000;fill-opacity:1;fill-rule:evenodd;stroke:none"
       id="path532"
       inkscape:connector-curvature="0" /><path
       d="m 153,150 -3,0 0,36 6,0 0,-36 -3,0 z"
       style="fill:#ffff99;fill-opacity:1;fill-rule:evenodd;stroke:none"
       id="path534"
       inkscape:connector-curvature="0" /><g
       id="g536"><path
         d="m 153,150 -3,0 0,36 6,0 0,-36 -3,0 z"
         style="fill:none;stroke:#000000;stroke-width:0.73580003;stroke-linecap:square;stroke-linejoin:miter;stroke-miterlimit:7.66129017;stroke-dasharray:none;stroke-opacity:1"
         id="path538"
         inkscape:connector-curvature="0" /></g><g
       id="g540"><path
         d="m 132,174 14.7,19.6"
         style="fill:none;stroke:#000000;stroke-width:0.73580003;stroke-linecap:square;stroke-linejoin:miter;stroke-miterlimit:10;stroke-dasharray:none;stroke-opacity:1"
         id="path542"
         inkscape:connector-curvature="0" /></g><path
       d="m 150,198 -1.2,-6.5 -4.7,3.6 5.9,2.9 z"
       style="fill:#000000;fill-opacity:1;fill-rule:evenodd;stroke:none"
       id="path544"
       inkscape:connector-curvature="0" /></g></svg>