<?xml version="1.0" encoding="UTF-8" standalone="no"?>
<svg
   xmlns:dc="http://purl.org/dc/elements/1.1/"
   xmlns:cc="http://creativecommons.org/ns#"
   xmlns:rdf="http://www.w3.org/1999/02/22-rdf-syntax-ns#"
   xmlns:svg="http://www.w3.org/2000/svg"
   xmlns="http://www.w3.org/2000/svg"
   viewBox="0 0 38.566666 4.5354948"
   height="4.5354948"
   width="38.566666"
   xml:space="preserve"
   id="svg2"
   version="1.1"><metadata
     id="metadata8"><rdf:RDF><cc:Work
         rdf:about=""><dc:format>image/svg+xml</dc:format><dc:type
           rdf:resource="http://purl.org/dc/dcmitype/StillImage" /></cc:Work></rdf:RDF></metadata><defs
     id="defs6" /><g
     transform="matrix(1.3333333,0,0,-1.3333333,0,4.5354947)"
     id="g10"><g
       id="g12"><g
         transform="matrix(1,0,0,-1,0,3.401621)"
         id="g14"><path
           id="path16"
           style="fill:#ffffff;fill-opacity:1;fill-rule:evenodd;stroke:#000000;stroke-width:0.56692898;stroke-linecap:square;stroke-linejoin:miter;stroke-miterlimit:7.69999981;stroke-dasharray:none;stroke-opacity:1"
           d="M 5.957,1.703 H 0.285" /></g><g
         transform="matrix(0.999997,0,0,-1,0,3.401621)"
         id="g18"><path
           id="path20"
           style="fill:none;stroke:#000000;stroke-width:0.56693;stroke-linecap:square;stroke-linejoin:miter;stroke-miterlimit:7.69999981;stroke-dasharray:none;stroke-opacity:1"
           d="m 8.789,1.703 c 0,0.781 -0.633,1.414 -1.418,1.414 -0.781,0 -1.414,-0.633 -1.414,-1.414 0,-0.785 0.633,-1.418 1.414,-1.418 0.785,0 1.418,0.633 1.418,1.418 z" /></g><g
         transform="matrix(0.999997,0,0,-1,0,3.401621)"
         id="g22"><path
           id="path24"
           style="fill:none;stroke:#000000;stroke-width:0.56693;stroke-linecap:square;stroke-linejoin:miter;stroke-miterlimit:7.69999981;stroke-dasharray:none;stroke-opacity:1"
           d="m 22.965,1.703 c 0,0.781 -0.637,1.414 -1.418,1.414 -0.785,0 -1.418,-0.633 -1.418,-1.414 0,-0.785 0.633,-1.418 1.418,-1.418 0.781,0 1.418,0.633 1.418,1.418 z" /></g><g
         transform="matrix(1,0,0,-1,0,3.401621)"
         id="g26"><path
           id="path28"
           style="fill:#ffffff;fill-opacity:1;fill-rule:evenodd;stroke:#000000;stroke-width:0.56692898;stroke-linecap:square;stroke-linejoin:miter;stroke-miterlimit:7.69999981;stroke-dasharray:none;stroke-opacity:1"
           d="M 28.633,1.703 H 22.965" /></g></g></g></svg>