<?xml version="1.0" encoding="UTF-8" standalone="no"?>
<svg
   xmlns:dc="http://purl.org/dc/elements/1.1/"
   xmlns:cc="http://creativecommons.org/ns#"
   xmlns:rdf="http://www.w3.org/1999/02/22-rdf-syntax-ns#"
   xmlns:svg="http://www.w3.org/2000/svg"
   xmlns="http://www.w3.org/2000/svg"
   viewBox="0 0 56.999001 42.689713"
   height="42.689713"
   width="56.999001"
   xml:space="preserve"
   id="svg2"
   version="1.1"><metadata
     id="metadata8"><rdf:RDF><cc:Work
         rdf:about=""><dc:format>image/svg+xml</dc:format><dc:type
           rdf:resource="http://purl.org/dc/dcmitype/StillImage" /></cc:Work></rdf:RDF></metadata><defs
     id="defs6" /><g
     transform="matrix(1.3333333,0,0,-1.3333333,0,42.689712)"
     id="g10"><g
       id="g12"><g
         transform="matrix(1,0,0,-1,0,32.017284)"
         id="g14"><path
           id="path16"
           style="fill:none;stroke:#000000;stroke-width:0.283465;stroke-linecap:square;stroke-linejoin:miter;stroke-miterlimit:8;stroke-dasharray:none;stroke-opacity:1"
           d="m 0.148,17.707 h 39.61" /></g><path
         id="path18"
         style="fill:#000000;fill-opacity:1;fill-rule:nonzero;stroke:none"
         d="m 38.344,13.631 4.246,0.679 -4.246,0.68 z" /><g
         transform="matrix(1,0,0,-1,0,32.017284)"
         id="g20"><path
           id="path22"
           style="fill:none;stroke:#000000;stroke-width:0.283465;stroke-linecap:square;stroke-linejoin:miter;stroke-miterlimit:8;stroke-dasharray:none;stroke-opacity:1"
           d="M 19.988,31.883 V 3.914" /></g><path
         id="path24"
         style="fill:#000000;fill-opacity:1;fill-rule:nonzero;stroke:none"
         d="m 20.672,26.685 -0.684,4.25 -0.679,-4.25 z" /><g
         id="text28"
         style="font-variant:normal;font-weight:normal;font-size:8px;font-family:cmmi10;-inkscape-font-specification:Cmmi10;writing-mode:lr-tb;fill:#000000;fill-opacity:1;fill-rule:nonzero;stroke:none"
         transform="matrix(1,0,0,-1,36.998047,8.639599)"
         aria-label="q"><path
           id="path92"
           style=""
           d="M 1.1757812,1.4492187 Q 1.203125,1.2734375 1.28125,1.2734375 q 0.2890625,0 0.453125,-0.046875 Q 1.9023437,1.1796875 1.953125,1 l 0.34375,-1.359375 q -0.4570313,0.44921875 -0.9140625,0.44921875 -0.50390625,0 -0.79296875,-0.37890625 Q 0.3046875,-0.671875 0.3046875,-1.1914062 q 0,-0.5117188 0.26171875,-1.0625001 0.265625,-0.5507812 0.71484375,-0.9140625 0.453125,-0.3671875 0.9765625,-0.3671875 0.2421875,0 0.4375,0.1445313 0.1953125,0.1445312 0.296875,0.3828125 0.046875,-0.09375 0.2578125,-0.3085938 0.2148438,-0.21875 0.3007813,-0.21875 0.089844,0 0.089844,0.1015625 L 2.5195313,1.03125 Q 2.5,1.1484375 2.4960938,1.1679687 q 0,0.1054688 0.5273437,0.1054688 0.039063,0 0.058594,0.03125 0.023437,0.03125 0.023437,0.070312 -0.027344,0.1054687 -0.046875,0.140625 -0.015625,0.035156 -0.089844,0.035156 H 1.2578125 q -0.082031,0 -0.082031,-0.1015625 z m 0.2226563,-1.57031245 q 0.28125,0 0.546875,-0.2109375 0.2695313,-0.21484375 0.46875,-0.5078125 L 2.8632813,-2.640625 Q 2.8164063,-2.921875 2.65625,-3.125 2.5,-3.328125 2.2382813,-3.328125 q -0.2695313,0 -0.5039063,0.2226562 -0.2304688,0.21875 -0.390625,0.5195313 -0.15625,0.3203125 -0.3007813,0.8789063 -0.14062495,0.5585937 -0.14062495,0.86718745 0,0.27734375 0.11718745,0.5 0.1210938,0.21875 0.3789063,0.21875 z" /></g><g
         id="text32"
         style="font-variant:normal;font-weight:normal;font-size:5.20007277px;font-family:cmr10;-inkscape-font-specification:Cmr10;writing-mode:lr-tb;fill:#000000;fill-opacity:1;fill-rule:nonzero;stroke:none"
         transform="matrix(1,0,0,-1,40.560547,7.039599)"
         aria-label="1"><path
           id="path95"
           style=""
           d="m 0.48242863,0 v -0.18281506 q 0.65000907,0 0.65000907,-0.16504137 V -3.0773868 q -0.26914437,0.129494 -0.68047825,0.129494 v -0.1828151 q 0.63731365,0 0.96231815,-0.3326218 h 0.073634 q 0.017774,0 0.033008,0.015235 0.017774,0.012695 0.017774,0.030469 v 3.06976947 q 0,0.16504137 0.6500091,0.16504137 V 0 Z" /></g><g
         id="text36"
         style="font-variant:normal;font-weight:normal;font-size:8px;font-family:cmmi10;-inkscape-font-specification:Cmmi10;writing-mode:lr-tb;fill:#000000;fill-opacity:1;fill-rule:nonzero;stroke:none"
         transform="matrix(1,0,0,-1,11.48623,28.482128)"
         aria-label="q"><path
           id="path98"
           style=""
           d="M 1.1757812,1.4492187 Q 1.203125,1.2734375 1.28125,1.2734375 q 0.2890625,0 0.453125,-0.046875 Q 1.9023437,1.1796875 1.953125,1 l 0.34375,-1.359375 q -0.4570313,0.44921875 -0.9140625,0.44921875 -0.50390625,0 -0.79296875,-0.37890625 Q 0.3046875,-0.671875 0.3046875,-1.1914062 q 0,-0.5117188 0.26171875,-1.0625001 0.265625,-0.5507812 0.71484375,-0.9140625 0.453125,-0.3671875 0.9765625,-0.3671875 0.2421875,0 0.4375,0.1445313 0.1953125,0.1445312 0.296875,0.3828125 0.046875,-0.09375 0.2578125,-0.3085938 0.2148438,-0.21875 0.3007813,-0.21875 0.089844,0 0.089844,0.1015625 L 2.5195313,1.03125 Q 2.5,1.1484375 2.4960938,1.1679687 q 0,0.1054688 0.5273437,0.1054688 0.039063,0 0.058594,0.03125 0.023437,0.03125 0.023437,0.070312 -0.027344,0.1054687 -0.046875,0.140625 -0.015625,0.035156 -0.089844,0.035156 H 1.2578125 q -0.082031,0 -0.082031,-0.1015625 z m 0.2226563,-1.57031245 q 0.28125,0 0.546875,-0.2109375 0.2695313,-0.21484375 0.46875,-0.5078125 L 2.8632813,-2.640625 Q 2.8164063,-2.921875 2.65625,-3.125 2.5,-3.328125 2.2382813,-3.328125 q -0.2695313,0 -0.5039063,0.2226562 -0.2304688,0.21875 -0.390625,0.5195313 -0.15625,0.3203125 -0.3007813,0.8789063 -0.14062495,0.5585937 -0.14062495,0.86718745 0,0.27734375 0.11718745,0.5 0.1210938,0.21875 0.3789063,0.21875 z" /></g><g
         id="text40"
         style="font-variant:normal;font-weight:normal;font-size:5.20007277px;font-family:cmr10;-inkscape-font-specification:Cmr10;writing-mode:lr-tb;fill:#000000;fill-opacity:1;fill-rule:nonzero;stroke:none"
         transform="matrix(1,0,0,-1,15.04873,26.882128)"
         aria-label="2"><path
           id="path101"
           style=""
           d="m 0.258988,0 v -0.13965039 q 0,-0.0126955 0.0101564,-0.0279301 L 1.0765776,-1.061343 q 0.182815,-0.1980496 0.2970744,-0.3326218 0.1142594,-0.1345722 0.2259798,-0.30977 0.1117203,-0.1751977 0.1751977,-0.3554737 0.066017,-0.1828151 0.066017,-0.3859429 0,-0.2132842 -0.078712,-0.4062557 -0.078712,-0.1955105 -0.2361361,-0.312309 -0.154885,-0.1167986 -0.3757865,-0.1167986 -0.22597972,0 -0.40625568,0.1371113 -0.18027596,0.1345722 -0.2539098,0.3503956 0.0203128,-0.00508 0.0558602,-0.00508 0.11679851,0 0.19804964,0.078712 0.0837902,0.078712 0.0837902,0.2031279 0,0.1193376 -0.0837902,0.2031278 -0.0812511,0.081251 -0.19804964,0.081251 -0.12187671,0 -0.20566694,-0.08379 -0.0812511,-0.086329 -0.0812511,-0.2005887 0,-0.1955106 0.0736338,-0.3656302 0.0736338,-0.1726586 0.21074514,-0.3046917 0.13965039,-0.1345722 0.31230906,-0.205667 0.17519776,-0.071095 0.37070826,-0.071095 0.2970745,0 0.5535234,0.1269549 0.2564489,0.1244158 0.4062557,0.3554737 0.1498068,0.2285188 0.1498068,0.5357497 0,0.2259797 -0.099025,0.4291076 Q 2.1379205,-1.812916 1.9830356,-1.6453355 1.8281506,-1.4802942 1.5869363,-1.269549 1.345722,-1.0588039 1.269549,-0.98770913 L 0.68047827,-0.42149027 H 1.1806806 q 0.3681692,0 0.6144617,-0.005078 0.2488316,-0.007617 0.2640662,-0.0203128 0.060938,-0.0660165 0.1244158,-0.47988953 H 2.3359702 L 2.1887025,0 Z" /></g><g
         transform="matrix(1,0,0,-1,0,32.017284)"
         id="g42"><path
           id="path44"
           style="fill:none;stroke:#000000;stroke-width:0.42519701;stroke-linecap:butt;stroke-linejoin:miter;stroke-miterlimit:4;stroke-dasharray:none;stroke-opacity:1"
           d="M 39.832,16.324 C 24.387,16.473 22.156,16.473 22.191,3.535" /></g><g
         transform="matrix(1,0,0,-1,0,32.017284)"
         id="g46"><path
           id="path48"
           style="fill:none;stroke:#000000;stroke-width:0.42519701;stroke-linecap:butt;stroke-linejoin:miter;stroke-miterlimit:4;stroke-dasharray:none;stroke-opacity:1"
           d="M 39.832,15.527 C 28.492,15.492 25.66,14.875 25.66,3.535" /></g><path
         id="path50"
         style="fill:#000000;fill-opacity:1;fill-rule:nonzero;stroke:none"
         d="m 28.047,21.451 -2.738,-0.734 0.343,4.191 z" /><path
         id="path52"
         style="fill:#000000;fill-opacity:1;fill-rule:nonzero;stroke:none"
         d="M 26.781,15.728 V 12.892 L 22.824,14.31 Z" /><path
         id="path54"
         style="fill:#000000;fill-opacity:1;fill-rule:nonzero;stroke:none"
         d="m 13.199,15.728 v -2.836 l 3.957,1.418 z" /><path
         id="path56"
         style="fill:#000000;fill-opacity:1;fill-rule:nonzero;stroke:none"
         d="m 21.406,17.998 h -2.832 l 1.414,3.961 z" /><path
         id="path58"
         style="fill:#000000;fill-opacity:1;fill-rule:nonzero;stroke:none"
         d="m 18.574,10.619 h 2.832 L 19.988,6.662 Z" /><path
         id="path60"
         style="fill:#ff0000;fill-opacity:1;fill-rule:evenodd;stroke:none"
         d="m 19.988,15.381 c 0.524,0 0.946,-0.426 0.946,-0.946 0,-0.523 -0.422,-0.945 -0.946,-0.945 -0.519,0 -0.941,0.422 -0.941,0.945 0,0.52 0.422,0.946 0.941,0.946" /><g
         transform="rotate(180,0,16.008642)"
         id="g62"><path
           id="path64"
           style="fill:none;stroke:#000000;stroke-width:0.42519701;stroke-linecap:butt;stroke-linejoin:miter;stroke-miterlimit:4;stroke-dasharray:none;stroke-opacity:1"
           d="M -0.148,16.324 C -15.594,16.473 -17.824,16.473 -17.789,3.535" /></g><g
         transform="rotate(180,0,16.008642)"
         id="g66"><path
           id="path68"
           style="fill:none;stroke:#000000;stroke-width:0.42519701;stroke-linecap:butt;stroke-linejoin:miter;stroke-miterlimit:4;stroke-dasharray:none;stroke-opacity:1"
           d="M -0.148,15.527 C -11.484,15.492 -14.32,14.875 -14.32,3.535" /></g><path
         id="path70"
         style="fill:#000000;fill-opacity:1;fill-rule:nonzero;stroke:none"
         d="m 11.934,21.451 2.738,-0.734 -0.348,4.191 z" /><g
         transform="matrix(-1,0,0,1,0,32.017284)"
         id="g72"><path
           id="path74"
           style="fill:none;stroke:#000000;stroke-width:0.42519701;stroke-linecap:butt;stroke-linejoin:miter;stroke-miterlimit:4;stroke-dasharray:none;stroke-opacity:1"
           d="m -0.148,-19.094 c -15.446,0.153 -17.676,0.153 -17.641,-12.789" /></g><g
         transform="matrix(-1,0,0,1,0,32.017284)"
         id="g76"><path
           id="path78"
           style="fill:none;stroke:#000000;stroke-width:0.42519701;stroke-linecap:butt;stroke-linejoin:miter;stroke-miterlimit:4;stroke-dasharray:none;stroke-opacity:1"
           d="M -0.148,-19.887 C -11.484,-19.926 -14.32,-20.543 -14.32,-31.883" /></g><path
         id="path80"
         style="fill:#000000;fill-opacity:1;fill-rule:nonzero;stroke:none"
         d="M 11.934,7.166 14.672,7.9 14.324,3.709 Z" /><g
         transform="translate(0,32.017284)"
         id="g82"><path
           id="path84"
           style="fill:none;stroke:#000000;stroke-width:0.42519701;stroke-linecap:butt;stroke-linejoin:miter;stroke-miterlimit:4;stroke-dasharray:none;stroke-opacity:1"
           d="m 39.832,-19.094 c -15.445,0.153 -17.676,0.153 -17.641,-12.789" /></g><g
         transform="translate(0,32.017284)"
         id="g86"><path
           id="path88"
           style="fill:none;stroke:#000000;stroke-width:0.42519701;stroke-linecap:butt;stroke-linejoin:miter;stroke-miterlimit:4;stroke-dasharray:none;stroke-opacity:1"
           d="M 39.832,-19.887 C 28.492,-19.926 25.66,-20.543 25.66,-31.883" /></g><path
         id="path90"
         style="fill:#000000;fill-opacity:1;fill-rule:nonzero;stroke:none"
         d="M 28.047,7.166 25.309,7.9 25.652,3.709 Z" /></g></g></svg>