<svg id="svg4861" xmlns:rdf="http://www.w3.org/1999/02/22-rdf-syntax-ns#" xmlns="http://www.w3.org/2000/svg" height="124.41" viewBox="0 0 187 124.41" width="187" version="1.1" xmlns:cc="http://creativecommons.org/ns#" xmlns:xlink="http://www.w3.org/1999/xlink" xmlns:dc="http://purl.org/dc/elements/1.1/">
	<style id="style3" type="text/css"><![CDATA[
			text {
				font-size: 1em;
			}
		]]></style>
	<script id="script5" xlink:href="/home/emu/Dropbox/Privat/Bilder/animatedSVG/op-amp/../latex4ei.js"/>
	<g id="Resistor-0-0-9-3" transform="matrix(1,0,0,-1,48.502,421.31)">
		<rect id="rect10224-9-8-2-43-72-6-2-6-3-9-5-66-1-29-5-99-9-9" style="stroke-linejoin:round;color:#000000;stroke-dashoffset:1.76;stroke:#000;stroke-linecap:round;fill:none" height="10" width="30" y="397.4" x="55"/>
		<path id="path1450-1-5-3-4-1-0-3-3-6-5-90-3-0-17-1-6-2" d="m85.01 402.4h4.98" style="stroke-linejoin:round;stroke:#000;stroke-linecap:round;fill:#fff;fill-rule:evenodd"/>
		<path id="path1450-1-5-3-4-1-0-3-8-8-0-2-2-8-3-0-0-2-6" d="m55 402.4h-5-35" style="stroke-linejoin:round;stroke:#000;stroke-linecap:round;fill:#fff;fill-rule:evenodd"/>
	</g>
	<g id="g8231-3-8-3-3-6" transform="matrix(1,0,0,-1,-641.5,219.01)">
		<path id="path6710-4-3-1-3-1-0" d="m740 130v40.12l40-20.14z" style="stroke:#000;stroke-width:1px;fill:none"/>
		<path id="path6744-7-1-2-0-1" d="m740 140.1h-10" style="stroke:#000;stroke-width:1px;stroke-linecap:round;fill:none"/>
		<path id="path6746-6-0-6-7-1" d="m740 160.1h-10" style="stroke:#000;stroke-width:1px;stroke-linecap:round;fill:none"/>
		<path id="path6746-8-13-9-3-4-0" d="m790 150.1h-10" style="stroke:#000;stroke-width:1px;stroke-linecap:round;fill:none"/>
		<path id="path6744-5-0-8-6-6-9" d="m750 140h-6" style="stroke:#000;stroke-width:1px;stroke-linecap:round;fill:none"/>
		<path id="path6744-5-7-8-0-2-5-9" d="m750 160h-6" style="stroke:#000;stroke-width:1px;stroke-linecap:round;fill:none"/>
		<path id="path6744-5-75-0-1-1-0-3" d="m747 143v-6" style="stroke:#000;stroke-width:1px;stroke-linecap:round;fill:none"/>
	</g>
	<path id="path5067-8-5-7-2" style="stroke:#000;stroke-linecap:round;stroke-width:1px;fill:none" d="m148.5 68.91h30"/>
	<g id="Resistor-0-6-7-6-1" transform="matrix(1,0,0,-1,-26.488,421.31)">
		<rect id="rect10224-9-8-2-43-72-6-2-6-3-9-5-66-1-29-5-9-3-1-4" style="stroke-linejoin:round;color:#000000;stroke-dashoffset:1.76;stroke:#000;stroke-linecap:round;fill:none" height="10" width="30" y="397.4" x="55"/>
		<path id="path1450-1-5-3-4-1-0-3-3-6-5-90-3-0-17-7-3-8-9" d="m85.01 402.4h4.98" style="stroke-linejoin:round;stroke:#000;stroke-linecap:round;fill:#fff;fill-rule:evenodd"/>
		<path id="path1450-1-5-3-4-1-0-3-8-8-0-2-2-8-3-0-8-4-8-35" d="m35.01 402.4h19.99" style="stroke-linejoin:round;stroke:#000;stroke-linecap:round;fill:#fff;fill-rule:evenodd"/>
	</g>
	<path id="path5169-8-0-2" style="stroke:#000;stroke-linecap:round;stroke-width:1px;fill:none" d="m88.502 58.91h-10v-40"/>
	<circle id="path7434-4-0-2-5-97-1-7" style="stroke-linejoin:round;stroke:#000;stroke-linecap:round" transform="scale(1,-1)" cy="-68.91" cx="158.5" r="2"/>
	<g id="g7962-0-1-0-5-2-1-5" transform="matrix(-1,0,0,-1,648.5,158.91)">
		<circle id="path8029-9-0-2-4-8-8-0" style="stroke-linejoin:round;stroke:#000;stroke-linecap:round;fill:none" cx="-465" transform="scale(-1,1)" cy="90" r="3"/>
		<path id="path8033-1-9-6-8-6-2-9" d="m470 90h-2" style="stroke:#000;stroke-width:1px;stroke-linecap:round;fill:none"/>
	</g>
	<circle id="path7434-4-0-2-5-9-5-2-2" style="stroke-linejoin:round;stroke:#000;stroke-linecap:round" transform="scale(1,-1)" cy="-18.91" cx="78.502" r="2"/>
	<g id="Resistor-0-0-9-7-0" transform="matrix(-1,0,0,-1,108.49,521.31)">
		<rect id="rect10224-9-8-2-43-72-6-2-6-3-9-5-66-1-29-5-99-9-6-4" style="stroke-linejoin:round;color:#000000;stroke-dashoffset:1.76;stroke:#000;stroke-linecap:round;fill:none" height="10" width="30" y="397.4" x="49.99"/>
		<path id="path1450-1-5-3-4-1-0-3-3-6-5-90-3-0-17-1-6-6-0" d="m79.99 402.4h10" style="stroke-linejoin:round;stroke:#000;stroke-linecap:round;fill:#fff;fill-rule:evenodd"/>
		<path id="path1450-1-5-3-4-1-0-3-8-8-0-2-2-8-3-0-0-2-9-6" d="m50 402.4h-35" style="stroke-linejoin:round;stroke:#000;stroke-linecap:round;fill:#fff;fill-rule:evenodd"/>
	</g>
	<g id="Resistor-0-6-7-6-5-7" transform="matrix(-1,0,0,-1,183.5,521.31)">
		<rect id="rect10224-9-8-2-43-72-6-2-6-3-9-5-66-1-29-5-9-3-1-9-2" style="stroke-linejoin:round;color:#000000;stroke-dashoffset:1.76;stroke:#000;stroke-linecap:round;fill:none" height="10" width="30" y="397.4" x="49.98"/>
		<path id="path1450-1-5-3-4-1-0-3-3-6-5-90-3-0-17-7-3-8-2-9" d="m79.98 402.4h10.01" style="stroke-linejoin:round;stroke:#000;stroke-linecap:round;fill:#fff;fill-rule:evenodd"/>
		<path id="path1450-1-5-3-4-1-0-3-8-8-0-2-2-8-3-0-8-4-8-3-8" d="m24.98 402.4h25" style="stroke-linejoin:round;stroke:#000;stroke-linecap:round;fill:#fff;fill-rule:evenodd"/>
	</g>
	<circle id="path7434-4-0-2-5-9-5-2-4-4" style="stroke-linejoin:round;stroke:#000;stroke-linecap:round" transform="scale(-1)" cy="-118.91" cx="-78.492" r="2"/>
	<path id="path5613-7" style="stroke:#000;stroke-width:1px;fill:none" d="m88.502 78.91h-10v40"/>
	<path id="path5615-7" style="stroke:#000;stroke-linecap:round;stroke-width:1px;fill:none" d="m18.502 118.91h-10"/>
	<g id="g7962-0-1-0-6-2-4" transform="matrix(1,0,0,-1,-461.5,208.91)">
		<circle id="path8029-9-0-2-6-5-8" style="stroke-linejoin:round;stroke:#000;stroke-linecap:round;fill:none" cx="-465" transform="scale(-1,1)" cy="90" r="3"/>
		<path id="path8033-1-9-6-3-9-8" d="m470 90h-2" style="stroke:#000;stroke-width:1px;stroke-linecap:round;fill:none"/>
	</g>
	<g id="g7962-0-1-0-6-2-7-6" transform="matrix(1,0,0,-1,-461.5,108.91)">
		<circle id="path8029-9-0-2-6-5-4-0" style="stroke-linejoin:round;stroke:#000;stroke-linecap:round;fill:none" cx="-465" transform="scale(-1,1)" cy="90" r="3"/>
		<path id="path8033-1-9-6-3-9-7-9" d="m470 90h-2" style="stroke:#000;stroke-width:1px;stroke-linecap:round;fill:none"/>
	</g>
	<text id="text54-2-9" y="8.90625" x="33.502033" style="font-size:12px" space="preserve">R1</text>
	<text id="text54-3-2-2" y="8.90625" x="108.50204" style="font-size:12px" space="preserve">R2</text>
	<text id="text54-2-0-1" y="108.90626" x="33.502033" style="font-size:12px" space="preserve">R3</text>
	<text id="text54-2-2-5" y="108.90626" x="108.50204" style="font-size:12px" space="preserve">R4</text>
	<path id="path5844" style="stroke:#000;stroke-linecap:round;stroke-width:1px;fill:none" d="m158.5 118.91v-50"/>
	<path id="path5846" style="stroke:#000;stroke-linecap:round;stroke-width:1px;fill:none" d="m138.5 18.91h20"/>
	<g id="g7422-6-3-3-6-3" transform="translate(108.5,-321.09)">
		<path id="path5375-73-1-0-4-4" d="m40 355h20" style="stroke:#000;stroke-width:1px;stroke-linecap:round;fill:none"/>
		<path id="path5375-1-14-1-7-3-0" d="m45 360h10" style="stroke:#000;stroke-width:1px;stroke-linecap:round;fill:none"/>
		<path id="path5375-7-1-4-6-9-5" d="m48 365h4" style="stroke:#000;stroke-width:1px;stroke-linecap:round;fill:none"/>
		<path id="path5375-1-1-27-1-4-8-9" d="m50 355v-15" style="stroke:#000;stroke-width:1px;stroke-linecap:round;fill:none"/>
	</g>
</svg>
