<?xml version="1.0" encoding="UTF-8" standalone="no"?>
<!-- Created with Inkscape (http://www.inkscape.org/) -->

<svg
   xmlns:dc="http://purl.org/dc/elements/1.1/"
   xmlns:cc="http://creativecommons.org/ns#"
   xmlns:rdf="http://www.w3.org/1999/02/22-rdf-syntax-ns#"
   xmlns:svg="http://www.w3.org/2000/svg"
   xmlns="http://www.w3.org/2000/svg"
   xmlns:sodipodi="http://sodipodi.sourceforge.net/DTD/sodipodi-0.dtd"
   xmlns:inkscape="http://www.inkscape.org/namespaces/inkscape"
   id="svg2"
   version="1.1"
   inkscape:version="0.91 r13725"
   xml:space="preserve"
   width="221.95309"
   height="78.82914"
   viewBox="0 0 221.95309 78.829139"
   sodipodi:docname="petri-example.svg"><metadata
     id="metadata8"><rdf:RDF><cc:Work
         rdf:about=""><dc:format>image/svg+xml</dc:format><dc:type
           rdf:resource="http://purl.org/dc/dcmitype/StillImage" /><dc:title></dc:title></cc:Work></rdf:RDF></metadata><defs
     id="defs6" /><sodipodi:namedview
     pagecolor="#ffffff"
     bordercolor="#666666"
     borderopacity="1"
     objecttolerance="10"
     gridtolerance="10"
     guidetolerance="10"
     inkscape:pageopacity="0"
     inkscape:pageshadow="2"
     inkscape:window-width="1710"
     inkscape:window-height="1411"
     id="namedview4"
     showgrid="false"
     fit-margin-top="0"
     fit-margin-left="0"
     fit-margin-right="0"
     fit-margin-bottom="0"
     inkscape:zoom="0.69379625"
     inkscape:cx="387.67236"
     inkscape:cy="-12.576331"
     inkscape:window-x="1720"
     inkscape:window-y="24"
     inkscape:window-maximized="0"
     inkscape:current-layer="g10" /><g
     id="g10"
     inkscape:groupmode="layer"
     inkscape:label="kap02_modellierung"
     transform="matrix(1.25,0,0,-1.25,-157.2824,158.91234)"><g
       id="g136"
       transform="matrix(0.7213,0,0,0.7213,188.41721,170.64528)" /><g
       id="g616"
       transform="matrix(0.7213,0,0,0.7213,163.49115,95.598574)"><g
         id="g618"><g
           id="g620" /><g
           id="g622"><g
             id="g624"><g
               id="g626"
               transform="translate(-52.219,-34.813)"><g
                 id="g628"
                 transform="translate(8.903,69.625)"><g
                   id="g630"><g
                     id="g632"><g
                       id="g634"><path
                         d="M 8.50403,0 C 8.50403,4.69669 4.69669,8.50403 0,8.50403 -4.69669,8.50403 -8.50403,4.69669 -8.50403,0 c 0,-4.69669 3.80734,-8.50403 8.50403,-8.50403 4.69669,0 8.50403,3.80734 8.50403,8.50403 z"
                         style="fill:none;stroke:#000000;stroke-width:0.79701;stroke-linecap:butt;stroke-linejoin:miter;stroke-miterlimit:10;stroke-dasharray:none;stroke-opacity:1"
                         id="path636"
                         inkscape:connector-curvature="0" /></g><g
                       id="g638"><g
                         id="g640" /></g></g><g
                     id="g642"><g
                       id="g644"><g
                         id="g646"><path
                           d="m -1.27908,0 c 0,1.41284 -1.14533,2.55817 -2.55819,2.55817 -1.41285,0 -2.55816,-1.14533 -2.55816,-2.55817 0,-1.41284 1.14531,-2.55817 2.55816,-2.55817 1.41286,0 2.55819,1.14533 2.55819,2.55817 z"
                           style="fill:#000000;fill-opacity:1;fill-rule:nonzero;stroke:none"
                           id="path648"
                           inkscape:connector-curvature="0" /></g><g
                         id="g650"
                         transform="translate(-3.837,0)"><g
                           id="g652" /><g
                           id="g654"
                           transform="translate(3.837,0)" /></g></g></g><g
                     id="g656"><g
                       id="g658"><g
                         id="g660"><path
                           d="m 6.39543,0 c 0,1.41284 -1.14531,2.55817 -2.55816,2.55817 C 2.42441,2.55817 1.27908,1.41284 1.27908,0 c 0,-1.41284 1.14533,-2.55817 2.55819,-2.55817 1.41285,0 2.55816,1.14533 2.55816,2.55817 z"
                           style="fill:#000000;fill-opacity:1;fill-rule:nonzero;stroke:none"
                           id="path662"
                           inkscape:connector-curvature="0" /></g><g
                         id="g664"
                         transform="translate(3.837,0)"><g
                           id="g666" /><g
                           id="g668"
                           transform="translate(-3.837,0)" /></g></g></g></g><g
                   id="g670"
                   transform="translate(43.316,0)"><g
                     id="g672" /><g
                     id="g674"
                     transform="translate(43.317,0)"><g
                       id="g676"><g
                         id="g678"><g
                           id="g680"><path
                             d="M 8.50403,0 C 8.50403,4.69669 4.69669,8.50403 0,8.50403 -4.69669,8.50403 -8.50403,4.69669 -8.50403,0 c 0,-4.69669 3.80734,-8.50403 8.50403,-8.50403 4.69669,0 8.50403,3.80734 8.50403,8.50403 z"
                             style="fill:none;stroke:#000000;stroke-width:0.79701;stroke-linecap:butt;stroke-linejoin:miter;stroke-miterlimit:10;stroke-dasharray:none;stroke-opacity:1"
                             id="path682"
                             inkscape:connector-curvature="0" /></g><g
                           id="g684"><g
                             id="g686" /></g></g></g><g
                       id="g688"
                       transform="translate(-86.633,-34.812)"><g
                         id="g690" /><g
                         id="g692"
                         transform="translate(43.316,0)"><g
                           id="g694"><g
                             id="g696"><g
                               id="g698"><path
                                 d="m -5.66927,-14.17339 11.33855,0 0,28.34679 -11.33855,0 0,-28.34679 z"
                                 style="fill:none;stroke:#000000;stroke-width:0.79701;stroke-linecap:butt;stroke-linejoin:miter;stroke-miterlimit:10;stroke-dasharray:none;stroke-opacity:1"
                                 id="path700"
                                 inkscape:connector-curvature="0" /></g><g
                               id="g702"><g
                                 id="g704" /></g></g></g><g
                           id="g706"
                           transform="translate(43.317,0)"><g
                             id="g708"><g
                               id="g710"><g
                                 id="g712"><path
                                   d="M 8.50403,0 C 8.50403,4.69669 4.69669,8.50403 0,8.50403 -4.69669,8.50403 -8.50403,4.69669 -8.50403,0 c 0,-4.69669 3.80734,-8.50403 8.50403,-8.50403 4.69669,0 8.50403,3.80734 8.50403,8.50403 z"
                                   style="fill:none;stroke:#000000;stroke-width:0.79701;stroke-linecap:butt;stroke-linejoin:miter;stroke-miterlimit:10;stroke-dasharray:none;stroke-opacity:1"
                                   id="path714"
                                   inkscape:connector-curvature="0" /></g><g
                                 id="g716"><g
                                   id="g718" /></g></g></g><g
                             id="g720"
                             transform="translate(-86.633,-34.813)"><g
                               id="g722"><g
                                 id="g724"><g
                                   id="g726"><path
                                   d="M 8.50403,0 C 8.50403,4.69669 4.69669,8.50403 0,8.50403 -4.69669,8.50403 -8.50403,4.69669 -8.50403,0 c 0,-4.69669 3.80734,-8.50403 8.50403,-8.50403 4.69669,0 8.50403,3.80734 8.50403,8.50403 z"
                                   style="fill:none;stroke:#000000;stroke-width:0.79701;stroke-linecap:butt;stroke-linejoin:miter;stroke-miterlimit:10;stroke-dasharray:none;stroke-opacity:1"
                                   id="path728"
                                   inkscape:connector-curvature="0" /></g><g
                                   id="g730"><g
                                   id="g732" /></g></g><g
                                 id="g734"><g
                                   id="g736"><g
                                   id="g738"><path
                                   d="m -1.27908,0 c 0,1.41284 -1.14533,2.55817 -2.55819,2.55817 -1.41285,0 -2.55816,-1.14533 -2.55816,-2.55817 0,-1.41284 1.14531,-2.55817 2.55816,-2.55817 1.41286,0 2.55819,1.14533 2.55819,2.55817 z"
                                   style="fill:#000000;fill-opacity:1;fill-rule:nonzero;stroke:none"
                                   id="path740"
                                   inkscape:connector-curvature="0" /></g><g
                                   id="g742"
                                   transform="translate(-3.837,0)"><g
                                   id="g744" /><g
                                   id="g746"
                                   transform="translate(3.837,0)" /></g></g></g><g
                                 id="g748"><g
                                   id="g750"><g
                                   id="g752"><path
                                   d="m 6.39543,0 c 0,1.41284 -1.14531,2.55817 -2.55816,2.55817 C 2.42441,2.55817 1.27908,1.41284 1.27908,0 c 0,-1.41284 1.14533,-2.55817 2.55819,-2.55817 1.41285,0 2.55816,1.14533 2.55816,2.55817 z"
                                   style="fill:#000000;fill-opacity:1;fill-rule:nonzero;stroke:none"
                                   id="path754"
                                   inkscape:connector-curvature="0" /></g><g
                                   id="g756"
                                   transform="translate(3.837,0)"><g
                                   id="g758" /><g
                                   id="g760"
                                   transform="translate(-3.837,0)" /></g></g></g></g><g
                               id="g762"
                               transform="translate(43.316,0)"><g
                                 id="g764" /><g
                                 id="g766"
                                 transform="translate(43.317,0)"><g
                                   id="g768" /><g
                                   id="g770"
                                   transform="translate(-95.536,0)" /></g></g></g></g></g></g></g></g></g><g
                 id="g772"
                 transform="translate(52.219,34.813)" /></g></g><g
             id="g774"><g
               id="g776"><path
                 d="M -34.8095,27.97554 -10.11316,8.12677"
                 style="fill:none;stroke:#000000;stroke-width:1.19553006;stroke-linecap:butt;stroke-linejoin:miter;stroke-miterlimit:10;stroke-dasharray:none;stroke-opacity:1"
                 id="path778"
                 inkscape:connector-curvature="0" /><g
                 id="g780"
                 transform="matrix(0.78087,-0.62758,0.62758,0.78087,-10.11317,8.12679)"><g
                   id="g782"><path
                     d="M 3.18808,0 -1.91284,2.55046 0,0 -1.91284,-2.55046"
                     style="fill:#000000;fill-opacity:1;fill-rule:nonzero;stroke:none"
                     id="path784"
                     inkscape:connector-curvature="0" /></g></g></g></g><g
             id="g786"><g
               id="g788"><path
                 d="m -34.8095,-27.97554 24.69634,19.84877"
                 style="fill:none;stroke:#000000;stroke-width:1.19553006;stroke-linecap:butt;stroke-linejoin:miter;stroke-miterlimit:10;stroke-dasharray:none;stroke-opacity:1"
                 id="path790"
                 inkscape:connector-curvature="0" /><g
                 id="g792"
                 transform="matrix(0.78087,0.62758,-0.62758,0.78087,-10.11317,-8.12679)"><g
                   id="g794"><path
                     d="M 3.18808,0 -1.91284,2.55046 0,0 -1.91284,-2.55046"
                     style="fill:#000000;fill-opacity:1;fill-rule:nonzero;stroke:none"
                     id="path796"
                     inkscape:connector-curvature="0" /></g></g><g
                 id="g798"><g
                   id="g800"
                   transform="translate(-31.03,-12.785)"><g
                     id="g802"><g
                       id="g804"
                       transform="translate(-172.954,-74.635)"><text
                         transform="matrix(1,0,0,-1,172.954,74.635)"
                         style="font-variant:normal;font-size:10.90909958px;font-family:'URW Palladio L';-inkscape-font-specification:URWPalladioL-Roma;writing-mode:lr-tb;fill:#000000;fill-opacity:1;fill-rule:nonzero;stroke:none"
                         id="text806"><tspan
                           x="0"
                           y="0"
                           id="tspan808">2</tspan></text>
<g
                         id="g810"
                         transform="translate(172.954,74.635)" /></g></g><g
                     id="g812"
                     transform="translate(31.03,12.785)" /></g></g></g></g><g
             id="g814"><g
               id="g816"><path
                 d="M 7.62369,6.12578 32.32004,25.97476"
                 style="fill:none;stroke:#000000;stroke-width:1.19553006;stroke-linecap:butt;stroke-linejoin:miter;stroke-miterlimit:10;stroke-dasharray:none;stroke-opacity:1"
                 id="path818"
                 inkscape:connector-curvature="0" /><g
                 id="g820"
                 transform="matrix(0.78087,0.6276,-0.6276,0.78087,32.32002,25.97475)"><g
                   id="g822"><path
                     d="M 3.18808,0 -1.91284,2.55046 0,0 -1.91284,-2.55046"
                     style="fill:#000000;fill-opacity:1;fill-rule:nonzero;stroke:none"
                     id="path824"
                     inkscape:connector-curvature="0" /></g></g><g
                 id="g826"><g
                   id="g828"
                   transform="translate(11.403,21.518)"><g
                     id="g830"><g
                       id="g832"
                       transform="translate(-215.387,-108.938)"><text
                         transform="matrix(1,0,0,-1,215.387,108.938)"
                         style="font-variant:normal;font-size:10.90909958px;font-family:'URW Palladio L';-inkscape-font-specification:URWPalladioL-Roma;writing-mode:lr-tb;fill:#000000;fill-opacity:1;fill-rule:nonzero;stroke:none"
                         id="text834"><tspan
                           x="0"
                           y="0"
                           id="tspan836">3</tspan></text>
<g
                         id="g838"
                         transform="translate(215.387,108.938)" /></g></g><g
                     id="g840"
                     transform="translate(-11.403,-21.518)" /></g></g></g></g><g
             id="g842"><g
               id="g844"><path
                 d="M 8.06032,0 29.23395,0"
                 style="fill:none;stroke:#000000;stroke-width:1.19553006;stroke-linecap:butt;stroke-linejoin:miter;stroke-miterlimit:10;stroke-dasharray:none;stroke-opacity:1"
                 id="path846"
                 inkscape:connector-curvature="0" /><g
                 id="g848"
                 transform="translate(29.23395,0)"><g
                   id="g850"><path
                     d="M 3.18808,0 -1.91284,2.55046 0,0 -1.91284,-2.55046"
                     style="fill:#000000;fill-opacity:1;fill-rule:nonzero;stroke:none"
                     id="path852"
                     inkscape:connector-curvature="0" /></g></g></g></g><g
             id="g854"><g
               id="g856"
               transform="translate(89.514,-34.813)"><g
                 id="g858"
                 transform="translate(8.902,69.625)"><g
                   id="g860"><g
                     id="g862"><g
                       id="g864"><path
                         d="M 8.50403,0 C 8.50403,4.69669 4.69669,8.50403 0,8.50403 -4.69669,8.50403 -8.50403,4.69669 -8.50403,0 c 0,-4.69669 3.80734,-8.50403 8.50403,-8.50403 4.69669,0 8.50403,3.80734 8.50403,8.50403 z"
                         style="fill:none;stroke:#000000;stroke-width:0.79701;stroke-linecap:butt;stroke-linejoin:miter;stroke-miterlimit:10;stroke-dasharray:none;stroke-opacity:1"
                         id="path866"
                         inkscape:connector-curvature="0" /></g><g
                       id="g868"><g
                         id="g870" /></g></g><g
                     id="g872"><g
                       id="g874"><g
                         id="g876"><path
                           d="M 2.55817,0 C 2.55817,1.41284 1.41284,2.55817 0,2.55817 -1.41284,2.55817 -2.55817,1.41284 -2.55817,0 c 0,-1.41284 1.14533,-2.55817 2.55817,-2.55817 1.41284,0 2.55817,1.14533 2.55817,2.55817 z"
                           style="fill:#000000;fill-opacity:1;fill-rule:nonzero;stroke:none"
                           id="path878"
                           inkscape:connector-curvature="0" /></g><g
                         id="g880"><g
                           id="g882" /></g></g></g></g><g
                   id="g884"
                   transform="translate(43.317,0)"><g
                     id="g886" /><g
                     id="g888"
                     transform="translate(43.316,0)"><g
                       id="g890"><g
                         id="g892"><g
                           id="g894"><path
                             d="M 8.50403,0 C 8.50403,4.69669 4.69669,8.50403 0,8.50403 -4.69669,8.50403 -8.50403,4.69669 -8.50403,0 c 0,-4.69669 3.80734,-8.50403 8.50403,-8.50403 4.69669,0 8.50403,3.80734 8.50403,8.50403 z"
                             style="fill:none;stroke:#000000;stroke-width:0.79701;stroke-linecap:butt;stroke-linejoin:miter;stroke-miterlimit:10;stroke-dasharray:none;stroke-opacity:1"
                             id="path896"
                             inkscape:connector-curvature="0" /></g><g
                           id="g898"><g
                             id="g900" /></g></g><g
                         id="g902"><g
                           id="g904"><g
                             id="g906"><path
                               d="m 2.55817,4.37453 c 0,1.41285 -1.14533,2.55818 -2.55817,2.55818 -1.41284,0 -2.55817,-1.14533 -2.55817,-2.55818 0,-1.41286 1.14533,-2.55817 2.55817,-2.55817 1.41284,0 2.55817,1.14531 2.55817,2.55817 z"
                               style="fill:#000000;fill-opacity:1;fill-rule:nonzero;stroke:none"
                               id="path908"
                               inkscape:connector-curvature="0" /></g><g
                             id="g910"
                             transform="translate(0,4.375)"><g
                               id="g912" /><g
                               id="g914"
                               transform="translate(0,-4.375)" /></g></g></g><g
                         id="g916"><g
                           id="g918"><g
                             id="g920"><path
                               d="m -1.27908,-2.34862 c 0,1.41286 -1.14533,2.55815 -2.55819,2.55815 -1.41285,0 -2.55816,-1.14529 -2.55816,-2.55815 0,-1.41285 1.14531,-2.55818 2.55816,-2.55818 1.41286,0 2.55819,1.14533 2.55819,2.55818 z"
                               style="fill:#000000;fill-opacity:1;fill-rule:nonzero;stroke:none"
                               id="path922"
                               inkscape:connector-curvature="0" /></g><g
                             id="g924"
                             transform="translate(-3.837,-2.348)"><g
                               id="g926" /><g
                               id="g928"
                               transform="translate(3.837,2.348)" /></g></g></g><g
                         id="g930"><g
                           id="g932"><g
                             id="g934"><path
                               d="m 6.39543,-2.34862 c 0,1.41286 -1.14531,2.55815 -2.55816,2.55815 -1.41286,0 -2.55819,-1.14529 -2.55819,-2.55815 0,-1.41285 1.14533,-2.55818 2.55819,-2.55818 1.41285,0 2.55816,1.14533 2.55816,2.55818 z"
                               style="fill:#000000;fill-opacity:1;fill-rule:nonzero;stroke:none"
                               id="path936"
                               inkscape:connector-curvature="0" /></g><g
                             id="g938"
                             transform="translate(3.837,-2.348)"><g
                               id="g940" /><g
                               id="g942"
                               transform="translate(-3.837,2.348)" /></g></g></g></g><g
                       id="g944"
                       transform="translate(-86.633,-34.812)"><g
                         id="g946" /><g
                         id="g948"
                         transform="translate(43.317,0)"><g
                           id="g950"><g
                             id="g952"><g
                               id="g954"><path
                                 d="m -5.66927,-14.17339 11.33855,0 0,28.34679 -11.33855,0 0,-28.34679 z"
                                 style="fill:none;stroke:#000000;stroke-width:0.79701;stroke-linecap:butt;stroke-linejoin:miter;stroke-miterlimit:10;stroke-dasharray:none;stroke-opacity:1"
                                 id="path956"
                                 inkscape:connector-curvature="0" /></g><g
                               id="g958"><g
                                 id="g960" /></g></g></g><g
                           id="g962"
                           transform="translate(43.316,0)"><g
                             id="g964"><g
                               id="g966"><g
                                 id="g968"><path
                                   d="M 8.50403,0 C 8.50403,4.69669 4.69669,8.50403 0,8.50403 -4.69669,8.50403 -8.50403,4.69669 -8.50403,0 c 0,-4.69669 3.80734,-8.50403 8.50403,-8.50403 4.69669,0 8.50403,3.80734 8.50403,8.50403 z"
                                   style="fill:none;stroke:#000000;stroke-width:0.79701;stroke-linecap:butt;stroke-linejoin:miter;stroke-miterlimit:10;stroke-dasharray:none;stroke-opacity:1"
                                   id="path970"
                                   inkscape:connector-curvature="0" /></g><g
                                 id="g972"><g
                                   id="g974" /></g></g><g
                               id="g976"><g
                                 id="g978"><g
                                   id="g980"><path
                                   d="M 2.55817,0 C 2.55817,1.41284 1.41284,2.55817 0,2.55817 -1.41284,2.55817 -2.55817,1.41284 -2.55817,0 c 0,-1.41284 1.14533,-2.55817 2.55817,-2.55817 1.41284,0 2.55817,1.14533 2.55817,2.55817 z"
                                   style="fill:#000000;fill-opacity:1;fill-rule:nonzero;stroke:none"
                                   id="path982"
                                   inkscape:connector-curvature="0" /></g><g
                                   id="g984"><g
                                   id="g986" /></g></g></g></g><g
                             id="g988"
                             transform="translate(-86.633,-34.813)"><g
                               id="g990"><g
                                 id="g992"><g
                                   id="g994"><path
                                   d="M 8.50403,0 C 8.50403,4.69669 4.69669,8.50403 0,8.50403 -4.69669,8.50403 -8.50403,4.69669 -8.50403,0 c 0,-4.69669 3.80734,-8.50403 8.50403,-8.50403 4.69669,0 8.50403,3.80734 8.50403,8.50403 z"
                                   style="fill:none;stroke:#000000;stroke-width:0.79701;stroke-linecap:butt;stroke-linejoin:miter;stroke-miterlimit:10;stroke-dasharray:none;stroke-opacity:1"
                                   id="path996"
                                   inkscape:connector-curvature="0" /></g><g
                                   id="g998"><g
                                   id="g1000" /></g></g></g><g
                               id="g1002"
                               transform="translate(43.317,0)"><g
                                 id="g1004" /><g
                                 id="g1006"
                                 transform="translate(43.316,0)"><g
                                   id="g1008" /><g
                                   id="g1010"
                                   transform="translate(-95.535,0)" /></g></g></g></g></g></g></g></g></g><g
                 id="g1012"
                 transform="translate(-89.514,34.813)" /></g></g><g
             id="g1014"><g
               id="g1016"><path
                 d="M 106.92453,27.97554 131.62088,8.12677"
                 style="fill:none;stroke:#000000;stroke-width:1.19553006;stroke-linecap:butt;stroke-linejoin:miter;stroke-miterlimit:10;stroke-dasharray:none;stroke-opacity:1"
                 id="path1018"
                 inkscape:connector-curvature="0" /><g
                 id="g1020"
                 transform="matrix(0.78087,-0.62758,0.62758,0.78087,131.62086,8.12679)"><g
                   id="g1022"><path
                     d="M 3.18808,0 -1.91284,2.55046 0,0 -1.91284,-2.55046"
                     style="fill:#000000;fill-opacity:1;fill-rule:nonzero;stroke:none"
                     id="path1024"
                     inkscape:connector-curvature="0" /></g></g></g></g><g
             id="g1026"><g
               id="g1028"><path
                 d="m 106.92453,-27.97554 24.69635,19.84877"
                 style="fill:none;stroke:#000000;stroke-width:1.19553006;stroke-linecap:butt;stroke-linejoin:miter;stroke-miterlimit:10;stroke-dasharray:none;stroke-opacity:1"
                 id="path1030"
                 inkscape:connector-curvature="0" /><g
                 id="g1032"
                 transform="matrix(0.78087,0.62758,-0.62758,0.78087,131.62086,-8.12679)"><g
                   id="g1034"><path
                     d="M 3.18808,0 -1.91284,2.55046 0,0 -1.91284,-2.55046"
                     style="fill:#000000;fill-opacity:1;fill-rule:nonzero;stroke:none"
                     id="path1036"
                     inkscape:connector-curvature="0" /></g></g><g
                 id="g1038"><g
                   id="g1040"
                   transform="translate(110.702,-12.785)"><g
                     id="g1042"><g
                       id="g1044"
                       transform="translate(-314.686,-74.635)"><text
                         transform="matrix(1,0,0,-1,314.686,74.635)"
                         style="font-variant:normal;font-size:10.90909958px;font-family:'URW Palladio L';-inkscape-font-specification:URWPalladioL-Roma;writing-mode:lr-tb;fill:#000000;fill-opacity:1;fill-rule:nonzero;stroke:none"
                         id="text1046"><tspan
                           x="0"
                           y="0"
                           id="tspan1048">2</tspan></text>
<g
                         id="g1050"
                         transform="translate(314.686,74.635)" /></g></g><g
                     id="g1052"
                     transform="translate(-110.702,12.785)" /></g></g></g></g><g
             id="g1054"><g
               id="g1056"><path
                 d="M 149.35774,6.12578 174.0541,25.97476"
                 style="fill:none;stroke:#000000;stroke-width:1.19553006;stroke-linecap:butt;stroke-linejoin:miter;stroke-miterlimit:10;stroke-dasharray:none;stroke-opacity:1"
                 id="path1058"
                 inkscape:connector-curvature="0" /><g
                 id="g1060"
                 transform="matrix(0.78087,0.6276,-0.6276,0.78087,174.05408,25.97475)"><g
                   id="g1062"><path
                     d="M 3.18808,0 -1.91284,2.55046 0,0 -1.91284,-2.55046"
                     style="fill:#000000;fill-opacity:1;fill-rule:nonzero;stroke:none"
                     id="path1064"
                     inkscape:connector-curvature="0" /></g></g><g
                 id="g1066"><g
                   id="g1068"
                   transform="translate(153.135,21.518)"><g
                     id="g1070"><g
                       id="g1072"
                       transform="translate(-357.119,-108.938)"><text
                         transform="matrix(1,0,0,-1,357.119,108.938)"
                         style="font-variant:normal;font-size:10.90909958px;font-family:'URW Palladio L';-inkscape-font-specification:URWPalladioL-Roma;writing-mode:lr-tb;fill:#000000;fill-opacity:1;fill-rule:nonzero;stroke:none"
                         id="text1074"><tspan
                           x="0"
                           y="0"
                           id="tspan1076">3</tspan></text>
<g
                         id="g1078"
                         transform="translate(357.119,108.938)" /></g></g><g
                     id="g1080"
                     transform="translate(-153.135,-21.518)" /></g></g></g></g><g
             id="g1082"><g
               id="g1084"><path
                 d="m 149.79437,0 21.17362,0"
                 style="fill:none;stroke:#000000;stroke-width:1.19553006;stroke-linecap:butt;stroke-linejoin:miter;stroke-miterlimit:10;stroke-dasharray:none;stroke-opacity:1"
                 id="path1086"
                 inkscape:connector-curvature="0" /><g
                 id="g1088"
                 transform="translate(170.96799,0)"><g
                   id="g1090"><path
                     d="M 3.18808,0 -1.91284,2.55046 0,0 -1.91284,-2.55046"
                     style="fill:#000000;fill-opacity:1;fill-rule:nonzero;stroke:none"
                     id="path1092"
                     inkscape:connector-curvature="0" /></g></g></g></g></g></g><g
         id="g1094"
         transform="translate(-55.855,-47.351)" /></g></g></svg>