<?xml version="1.0" encoding="UTF-8" standalone="no"?>
<svg
   xmlns:dc="http://purl.org/dc/elements/1.1/"
   xmlns:cc="http://creativecommons.org/ns#"
   xmlns:rdf="http://www.w3.org/1999/02/22-rdf-syntax-ns#"
   xmlns:svg="http://www.w3.org/2000/svg"
   xmlns="http://www.w3.org/2000/svg"
   viewBox="0 0 341.2233 164.03589"
   height="164.03589"
   width="341.2233"
   xml:space="preserve"
   id="svg2"
   version="1.1"><metadata
     id="metadata8"><rdf:RDF><cc:Work
         rdf:about=""><dc:format>image/svg+xml</dc:format><dc:type
           rdf:resource="http://purl.org/dc/dcmitype/StillImage" /></cc:Work></rdf:RDF></metadata><defs
     id="defs6" /><g
     transform="matrix(1.3333333,0,0,-1.3333333,0,164.03589)"
     id="g10"><g
       id="g12"><g
         transform="matrix(1,0,0,-1,0,123.02692)"
         id="g14"><path
           id="path16"
           style="fill:none;stroke:#000000;stroke-width:0.79936999;stroke-linecap:butt;stroke-linejoin:miter;stroke-miterlimit:4;stroke-dasharray:none;stroke-opacity:1"
           d="M 0.398,32.176 H 57.093 V 88.871 H 0.398 Z" /></g><path
         id="path18"
         style="fill:#808080;fill-opacity:1;fill-rule:evenodd;stroke:none"
         d="M 133.629,102.187 V 22.82 h 5.668 l -11.34,-5.672 -11.336,5.672 h 5.668 v 79.367 z" /><g
         transform="matrix(1,0,0,-1,0,123.02692)"
         id="g20"><path
           id="path22"
           style="fill:none;stroke:#000000;stroke-width:0.82558602;stroke-linecap:butt;stroke-linejoin:miter;stroke-miterlimit:4;stroke-dasharray:none;stroke-opacity:1"
           d="m 85.438,18.004 h 85.039 v 90.707 H 85.438 Z" /></g><g
         transform="matrix(1,0,0,-1,0,123.02692)"
         id="g24"><path
           id="path26"
           style="fill:none;stroke:#000000;stroke-width:0.283465;stroke-linecap:butt;stroke-linejoin:miter;stroke-miterlimit:4;stroke-dasharray:none;stroke-opacity:1"
           d="M 57.094,46.352 H 0.398" /></g><g
         transform="matrix(1,0,0,-1,0,123.02692)"
         id="g28"><path
           id="path30"
           style="fill:none;stroke:#000000;stroke-width:0.283465;stroke-linecap:butt;stroke-linejoin:miter;stroke-miterlimit:4;stroke-dasharray:none;stroke-opacity:1"
           d="M 57.094,60.523 H 0.398" /></g><g
         transform="matrix(1,0,0,-1,0,123.02692)"
         id="g32"><path
           id="path34"
           style="fill:none;stroke:#000000;stroke-width:0.283465;stroke-linecap:butt;stroke-linejoin:miter;stroke-miterlimit:4;stroke-dasharray:none;stroke-opacity:1"
           d="M 57.094,74.695 H 0.398" /></g><g
         transform="matrix(1,0,0,-1,0,123.02692)"
         id="g36"><path
           id="path38"
           style="fill:none;stroke:#000000;stroke-width:0.283465;stroke-linecap:butt;stroke-linejoin:miter;stroke-miterlimit:4;stroke-dasharray:none;stroke-opacity:1"
           d="M 28.746,88.871 V 32.176" /></g><g
         transform="matrix(1,0,0,-1,0,123.02692)"
         id="g40"><path
           id="path42"
           style="fill:none;stroke:#000000;stroke-width:0.283465;stroke-linecap:butt;stroke-linejoin:miter;stroke-miterlimit:4;stroke-dasharray:none;stroke-opacity:1"
           d="M 42.918,88.871 V 32.176" /></g><g
         transform="matrix(1,0,0,-1,0,123.02692)"
         id="g44"><path
           id="path46"
           style="fill:none;stroke:#000000;stroke-width:0.283465;stroke-linecap:butt;stroke-linejoin:miter;stroke-miterlimit:4;stroke-dasharray:none;stroke-opacity:1"
           d="M 14.574,88.871 V 32.176" /></g><g
         id="text52"
         style="font-variant:normal;font-weight:bold;font-size:12px;font-family:'DejaVu Sans';-inkscape-font-specification:DejaVuSans-Bold;writing-mode:lr-tb;fill:#404040;fill-opacity:1;fill-rule:nonzero;stroke:none"
         transform="matrix(1,0,0,-1,11.738162,65.338453)"
         aria-label="4 × 4
Block"><path
           id="path140"
           style=""
           d="m 4.4179687,-6.890625 -2.4726562,3.6621094 h 2.4726562 z m -0.375,-1.8574219 h 2.5078125 v 5.5195313 H 7.7988281 V -1.59375 H 6.5507812 V 0 H 4.4179687 V -1.59375 H 0.5390625 v -1.9335938 z" /><path
           id="path142"
           style=""
           d="m 21.070687,-6.2988281 -2.542968,2.5429687 2.542968,2.53125 -0.984375,0.98437502 -2.542968,-2.53125002 -2.542969,2.53125002 -0.984375,-0.98437502 2.542969,-2.53125 -2.542969,-2.5429687 0.984375,-0.984375 2.542969,2.5429687 2.542968,-2.5429687 z" /><path
           id="path144"
           style=""
           d="m 31.153969,-6.890625 -2.472656,3.6621094 h 2.472656 z m -0.375,-1.8574219 h 2.507812 v 5.5195313 h 1.248047 V -1.59375 H 33.286781 V 0 h -2.132812 v -1.59375 h -3.878906 v -1.9335938 z" /><path
           id="path146"
           style=""
           d="m 4.6054687,9.6386719 q 0.5332032,0 0.8085938,-0.234375 0.2753906,-0.234375 0.2753906,-0.6914063 0,-0.4511718 -0.2753906,-0.6855468 Q 5.1386719,7.7871094 4.6054687,7.7871094 H 3.3574219 v 1.8515625 z m 0.076172,3.8261721 q 0.6796875,0 1.0195313,-0.28711 0.3457031,-0.287109 0.3457031,-0.867187 0,-0.568359 -0.3398438,-0.849609 -0.3398437,-0.28711 -1.0253906,-0.28711 H 3.3574219 v 2.291016 z m 2.0976563,-3.146485 q 0.7265625,0.210938 1.125,0.779297 0.3984375,0.56836 0.3984375,1.394532 0,1.265625 -0.8554688,1.886718 Q 6.5917969,15 4.8457031,15 H 1.1015625 V 6.2519531 h 3.3867187 q 1.8222657,0 2.6367188,0.5507813 0.8203125,0.5507812 0.8203125,1.7636719 0,0.6386718 -0.2988281,1.0898437 -0.2988282,0.445313 -0.8671875,0.662109 z" /><path
           id="path148"
           style=""
           d="m 10.151813,5.8828125 h 2.097656 V 15 h -2.097656 z" /><path
           id="path150"
           style=""
           d="m 17.37886,9.7792969 q -0.697266,0 -1.066407,0.5039061 -0.363281,0.498047 -0.363281,1.441406 0,0.94336 0.363281,1.447266 0.369141,0.498047 1.066407,0.498047 0.685546,0 1.048828,-0.498047 0.363281,-0.503906 0.363281,-1.447266 0,-0.943359 -0.363281,-1.441406 Q 18.064406,9.7792969 17.37886,9.7792969 Z m 0,-1.5 q 1.693359,0 2.642578,0.9140625 0.955078,0.9140626 0.955078,2.5312496 0,1.617188 -0.955078,2.53125 -0.949219,0.914063 -2.642578,0.914063 -1.699219,0 -2.660157,-0.914063 -0.955078,-0.914062 -0.955078,-2.53125 0,-1.617187 0.955078,-2.5312496 0.960938,-0.9140625 2.660157,-0.9140625 z" /><path
           id="path152"
           style=""
           d="m 27.802547,8.6425781 v 1.7109379 q -0.427734,-0.292969 -0.861328,-0.4335941 -0.427734,-0.140625 -0.890625,-0.140625 -0.878906,0 -1.371093,0.5156251 -0.486329,0.509766 -0.486329,1.429687 0,0.919922 0.486329,1.435547 0.492187,0.509766 1.371093,0.509766 0.492188,0 0.931641,-0.146484 0.445312,-0.146485 0.820312,-0.433594 v 1.716797 q -0.492187,0.18164 -1.001953,0.269531 -0.503906,0.09375 -1.013672,0.09375 -1.77539,0 -2.777343,-0.908203 -1.001953,-0.914063 -1.001953,-2.53711 0,-1.623046 1.001953,-2.5312496 1.001953,-0.9140625 2.777343,-0.9140625 0.515625,0 1.013672,0.09375 0.503907,0.087891 1.001953,0.2695312 z" /><path
           id="path154"
           style=""
           d="m 29.603813,5.8828125 h 2.097656 V 10.845703 L 34.115532,8.4375 h 2.4375 L 33.347954,11.449219 36.804985,15 H 34.262016 L 31.701469,12.263672 V 15 h -2.097656 z" /></g><g
         transform="matrix(1,0,0,-1,0,123.02692)"
         id="g54"><path
           id="path56"
           style="fill:none;stroke:#000000;stroke-width:0.79936999;stroke-linecap:butt;stroke-linejoin:miter;stroke-miterlimit:4;stroke-dasharray:none;stroke-opacity:1"
           d="m 198.824,32.176 h 56.695 v 56.695 h -56.695 z" /></g><g
         transform="matrix(1,0,0,-1,0,123.02692)"
         id="g58"><path
           id="path60"
           style="fill:none;stroke:#000000;stroke-width:0.283465;stroke-linecap:butt;stroke-linejoin:miter;stroke-miterlimit:4;stroke-dasharray:none;stroke-opacity:1"
           d="M 255.52,46.352 H 198.824" /></g><g
         transform="matrix(1,0,0,-1,0,123.02692)"
         id="g62"><path
           id="path64"
           style="fill:none;stroke:#000000;stroke-width:0.283465;stroke-linecap:butt;stroke-linejoin:miter;stroke-miterlimit:4;stroke-dasharray:none;stroke-opacity:1"
           d="M 255.52,60.523 H 198.824" /></g><g
         transform="matrix(1,0,0,-1,0,123.02692)"
         id="g66"><path
           id="path68"
           style="fill:none;stroke:#000000;stroke-width:0.283465;stroke-linecap:butt;stroke-linejoin:miter;stroke-miterlimit:4;stroke-dasharray:none;stroke-opacity:1"
           d="M 255.52,74.695 H 198.824" /></g><g
         transform="matrix(1,0,0,-1,0,123.02692)"
         id="g70"><path
           id="path72"
           style="fill:none;stroke:#000000;stroke-width:0.283465;stroke-linecap:butt;stroke-linejoin:miter;stroke-miterlimit:4;stroke-dasharray:none;stroke-opacity:1"
           d="M 227.172,88.871 V 32.176" /></g><g
         transform="matrix(1,0,0,-1,0,123.02692)"
         id="g74"><path
           id="path76"
           style="fill:none;stroke:#000000;stroke-width:0.283465;stroke-linecap:butt;stroke-linejoin:miter;stroke-miterlimit:4;stroke-dasharray:none;stroke-opacity:1"
           d="M 241.344,88.871 V 32.176" /></g><g
         transform="matrix(1,0,0,-1,0,123.02692)"
         id="g78"><path
           id="path80"
           style="fill:none;stroke:#000000;stroke-width:0.283465;stroke-linecap:butt;stroke-linejoin:miter;stroke-miterlimit:4;stroke-dasharray:none;stroke-opacity:1"
           d="M 213,88.871 V 32.176" /></g><g
         transform="matrix(1,0,0,-1,0,123.02692)"
         id="g82"><path
           id="path84"
           style="fill:#ffffff;fill-opacity:1;fill-rule:nonzero;stroke:#000000;stroke-width:0.42519701;stroke-linecap:butt;stroke-linejoin:miter;stroke-miterlimit:4;stroke-dasharray:none;stroke-opacity:1"
           d="m 91.109,23.672 h 73.699 V 37.848 H 91.109 Z" /></g><g
         id="text88"
         style="font-variant:normal;font-weight:normal;font-size:10px;font-family:'DejaVu Sans';-inkscape-font-specification:DejaVuSans;writing-mode:lr-tb;fill:#000000;fill-opacity:1;fill-rule:nonzero;stroke:none"
         transform="matrix(1,0,0,-1,93.942947,88.015626)"
         aria-label="SubBytes"><path
           id="path157"
           style=""
           d="m 5.3515625,-7.0507812 v 0.961914 Q 4.7900391,-6.3574219 4.2919922,-6.4892578 3.7939453,-6.6210937 3.3300781,-6.6210937 q -0.805664,0 -1.2451172,0.3125 -0.4345703,0.3125 -0.4345703,0.8886718 0,0.4833985 0.288086,0.7324219 0.2929687,0.2441406 1.1035156,0.3955078 l 0.5957031,0.1220703 q 1.1035156,0.209961 1.6259766,0.7421875 0.5273437,0.5273438 0.5273437,1.4160156 0,1.05957036 -0.7128906,1.60644536 -0.7080078,0.546875 -2.0800781,0.546875 -0.5175781,0 -1.1035157,-0.1171875 -0.5810546,-0.1171875 -1.20605464,-0.34667969 V -1.3378906 q 0.60058594,0.336914 1.17675784,0.50781247 0.5761719,0.17089844 1.1328125,0.17089844 0.8447265,0 1.3037109,-0.33203125 0.4589844,-0.33203126 0.4589844,-0.94726566 0,-0.5371093 -0.3320313,-0.8398437 -0.3271484,-0.3027344 -1.0791015,-0.4541016 l -0.600586,-0.1171875 q -1.1035156,-0.2197265 -1.5966797,-0.6884765 -0.49316401,-0.46875 -0.49316401,-1.303711 0,-0.9667968 0.67871091,-1.5234375 0.6835938,-0.5566406 1.8798828,-0.5566406 0.5126954,0 1.0449219,0.092773 0.5322266,0.092774 1.0888672,0.2783204 z" /><path
           id="path159"
           style=""
           d="M 7.1896095,-2.1582031 V -5.46875 H 8.088047 v 3.2763672 q 0,0.7763672 0.3027344,1.1669922 0.3027344,0.38574216 0.9082031,0.38574216 0.7275395,0 1.1474605,-0.46386716 0.424805,-0.4638672 0.424805,-1.2646485 V -5.46875 h 0.898438 V 0 H 10.87125 v -0.83984375 q -0.327148,0.49804687 -0.761719,0.7421875 -0.4296871,0.23925781 -1.0009762,0.23925781 -0.9423828,0 -1.430664,-0.5859375 Q 7.1896095,-1.0302734 7.1896095,-2.1582031 Z m 2.2607422,-3.4423828 z" /><path
           id="path161"
           style=""
           d="m 17.538164,-2.7294922 q 0,-0.9912109 -0.410156,-1.5527344 -0.405274,-0.5664062 -1.118164,-0.5664062 -0.712891,0 -1.123047,0.5664062 -0.405273,0.5615235 -0.405273,1.5527344 0,0.991211 0.405273,1.5576172 0.410156,0.56152344 1.123047,0.56152344 0.71289,0 1.118164,-0.56152344 0.410156,-0.5664062 0.410156,-1.5576172 z m -3.05664,-1.9091797 q 0.283203,-0.4882812 0.71289,-0.7226562 0.43457,-0.2392578 1.035156,-0.2392578 0.996094,0 1.616211,0.7910156 0.625,0.7910156 0.625,2.0800781 0,1.2890625 -0.625,2.08007814 -0.620117,0.79101562 -1.616211,0.79101562 -0.600586,0 -1.035156,-0.234375 -0.429687,-0.23925781 -0.71289,-0.72753906 V 0 h -0.903321 v -7.5976562 h 0.903321 z" /><path
           id="path163"
           style=""
           d="m 20.977774,-3.4814453 v 2.67089842 h 1.582031 q 0.795898,0 1.176758,-0.32714842 0.385742,-0.3320313 0.385742,-1.0107422 0,-0.6835938 -0.385742,-1.0058594 -0.38086,-0.3271484 -1.176758,-0.3271484 z m 0,-2.9980469 v 2.1972656 h 1.459961 q 0.722656,0 1.074218,-0.2685546 0.356446,-0.2734375 0.356446,-0.8300782 0,-0.5517578 -0.356446,-0.8251953 -0.351562,-0.2734375 -1.074218,-0.2734375 z m -0.986328,-0.8105469 h 2.519531 q 1.127929,0 1.738281,0.46875 0.610352,0.46875 0.610352,1.3330079 0,0.6689453 -0.3125,1.0644531 -0.3125,0.3955078 -0.917969,0.493164 0.727539,0.15625 1.12793,0.6542969 0.405273,0.4931641 0.405273,1.2353516 0,0.9765625 -0.664063,1.50878904 Q 23.834219,0 22.608633,0 h -2.617187 z" /><path
           id="path165"
           style=""
           d="M 29.087774,0.5078125 Q 28.706915,1.484375 28.345587,1.7822266 27.984259,2.0800781 27.37879,2.0800781 H 26.661016 V 1.328125 h 0.527344 q 0.371094,0 0.576172,-0.1757813 0.205078,-0.1757812 0.454102,-0.83007807 L 28.379766,-0.08789062 26.167852,-5.46875 h 0.952149 l 1.708984,4.2773438 1.708985,-4.2773438 h 0.952148 z" /><path
           id="path167"
           style=""
           d="M 33.611055,-7.0214844 V -5.46875 h 1.850586 v 0.6982422 h -1.850586 v 2.96875 q 0,0.6689453 0.180664,0.85937499 0.185547,0.19042969 0.747071,0.19042969 h 0.922851 V 0 H 34.53879 q -1.040039,0 -1.435547,-0.38574219 -0.395508,-0.390625 -0.395508,-1.41601561 v -2.96875 h -0.65918 V -5.46875 h 0.65918 v -1.5527344 z" /><path
           id="path169"
           style=""
           d="m 41.320118,-2.9589844 v 0.4394531 h -4.130859 q 0.05859,0.9277344 0.55664,1.4160157 0.50293,0.48339841 1.396485,0.48339841 0.517578,0 1.000976,-0.12695312 0.488281,-0.12695313 0.966797,-0.38085939 v 0.84960939 q -0.483398,0.20507812 -0.991211,0.3125 -0.507812,0.10742187 -1.030273,0.10742187 -1.308594,0 -2.075196,-0.76171875 -0.761718,-0.76171871 -0.761718,-2.06054691 0,-1.3427734 0.722656,-2.1289062 0.727539,-0.7910156 1.958008,-0.7910156 1.103515,0 1.743164,0.7128906 0.644531,0.7080078 0.644531,1.9287109 z M 40.42168,-3.2226563 q -0.0098,-0.7373046 -0.415039,-1.1767578 -0.40039,-0.4394531 -1.064453,-0.4394531 -0.751953,0 -1.206054,0.4248047 -0.449219,0.4248047 -0.517579,1.1962891 z" /><path
           id="path171"
           style=""
           d="m 46.278709,-5.3076172 v 0.8496094 q -0.380859,-0.1953125 -0.791015,-0.2929688 -0.410156,-0.097656 -0.84961,-0.097656 -0.668945,0 -1.005859,0.2050781 -0.332031,0.2050781 -0.332031,0.6152344 0,0.3125 0.239258,0.493164 0.239257,0.1757813 0.961914,0.3369141 l 0.307617,0.068359 q 0.957031,0.2050781 1.357422,0.5810547 0.405273,0.3710937 0.405273,1.040039 0,0.76171879 -0.605469,1.20605472 -0.600586,0.44433594 -1.655273,0.44433594 -0.439453,0 -0.917969,-0.08789062 -0.473633,-0.08300782 -1.000976,-0.25390625 V -1.1279297 q 0.498047,0.25878907 0.981445,0.39062501 0.483398,0.12695313 0.957031,0.12695313 0.634766,0 0.976563,-0.21484375 0.341797,-0.21972659 0.341797,-0.61523439 0,-0.3662109 -0.249024,-0.5615234 -0.24414,-0.1953125 -1.079101,-0.3759766 l -0.3125,-0.073242 q -0.834961,-0.1757812 -1.206055,-0.5371094 -0.371094,-0.3662109 -0.371094,-1.0009765 0,-0.7714844 0.546875,-1.1914063 0.546875,-0.4199218 1.552735,-0.4199218 0.498046,0 0.9375,0.073242 0.439453,0.073242 0.810546,0.2197265 z" /></g><g
         transform="matrix(1,0,0,-1,0,123.02692)"
         id="g90"><path
           id="path92"
           style="fill:#ffffff;fill-opacity:1;fill-rule:nonzero;stroke:#000000;stroke-width:0.42519701;stroke-linecap:butt;stroke-linejoin:miter;stroke-miterlimit:4;stroke-dasharray:none;stroke-opacity:1"
           d="m 91.109,43.516 h 73.699 V 57.688 H 91.109 Z" /></g><g
         id="text96"
         style="font-variant:normal;font-weight:normal;font-size:10px;font-family:'DejaVu Sans';-inkscape-font-specification:DejaVuSans;writing-mode:lr-tb;fill:#000000;fill-opacity:1;fill-rule:nonzero;stroke:none"
         transform="matrix(1,0,0,-1,93.942947,68.173096)"
         aria-label="ShiftRows"><path
           id="path174"
           style=""
           d="m 5.3515625,-7.0507812 v 0.961914 Q 4.7900391,-6.3574219 4.2919922,-6.4892578 3.7939453,-6.6210937 3.3300781,-6.6210937 q -0.805664,0 -1.2451172,0.3125 -0.4345703,0.3125 -0.4345703,0.8886718 0,0.4833985 0.288086,0.7324219 0.2929687,0.2441406 1.1035156,0.3955078 l 0.5957031,0.1220703 q 1.1035156,0.209961 1.6259766,0.7421875 0.5273437,0.5273438 0.5273437,1.4160156 0,1.05957036 -0.7128906,1.60644536 -0.7080078,0.546875 -2.0800781,0.546875 -0.5175781,0 -1.1035157,-0.1171875 -0.5810546,-0.1171875 -1.20605464,-0.34667969 V -1.3378906 q 0.60058594,0.336914 1.17675784,0.50781247 0.5761719,0.17089844 1.1328125,0.17089844 0.8447265,0 1.3037109,-0.33203125 0.4589844,-0.33203126 0.4589844,-0.94726566 0,-0.5371093 -0.3320313,-0.8398437 -0.3271484,-0.3027344 -1.0791015,-0.4541016 l -0.600586,-0.1171875 q -1.1035156,-0.2197265 -1.5966797,-0.6884765 -0.49316401,-0.46875 -0.49316401,-1.303711 0,-0.9667968 0.67871091,-1.5234375 0.6835938,-0.5566406 1.8798828,-0.5566406 0.5126954,0 1.0449219,0.092773 0.5322266,0.092774 1.0888672,0.2783204 z" /><path
           id="path176"
           style=""
           d="M 11.828281,-3.3007813 V 0 h -0.898437 v -3.2714844 q 0,-0.7763672 -0.302734,-1.1621093 -0.302735,-0.3857422 -0.9082036,-0.3857422 -0.7275391,0 -1.1474609,0.4638672 -0.4199219,0.4638671 -0.4199219,1.2646484 V 0 H 7.2482033 v -7.5976562 h 0.9033203 v 2.9785156 q 0.3222656,-0.4931641 0.7568359,-0.7373047 0.4394532,-0.2441406 1.0107422,-0.2441406 0.9423833,0 1.4257813,0.5859375 0.483398,0.5810547 0.483398,1.7138671 z" /><path
           id="path178"
           style=""
           d="M 13.612383,-5.46875 H 14.51082 V 0 h -0.898437 z m 0,-2.1289062 h 0.898437 v 1.1376953 h -0.898437 z" /><path
           id="path180"
           style=""
           d="m 19.150937,-7.5976562 v 0.7470703 h -0.859375 q -0.483398,0 -0.673828,0.1953125 -0.185547,0.1953125 -0.185547,0.703125 V -5.46875 h 1.479492 v 0.6982422 H 17.432187 V 0 h -0.90332 V -4.7705078 H 15.669492 V -5.46875 h 0.859375 v -0.3808594 q 0,-0.9130859 0.424804,-1.328125 0.424805,-0.4199218 1.347657,-0.4199218 z" /><path
           id="path182"
           style=""
           d="M 20.611055,-7.0214844 V -5.46875 h 1.850586 v 0.6982422 h -1.850586 v 2.96875 q 0,0.6689453 0.180664,0.85937499 0.185547,0.19042969 0.747071,0.19042969 h 0.922851 V 0 H 21.53879 q -1.040039,0 -1.435547,-0.38574219 -0.395508,-0.390625 -0.395508,-1.41601561 v -2.96875 h -0.65918 V -5.46875 h 0.65918 v -1.5527344 z" /><path
           id="path184"
           style=""
           d="m 27.138477,-3.4179688 q 0.317383,0.1074219 0.615235,0.4589844 0.302734,0.3515625 0.605468,0.9667969 L 29.360157,0 h -1.05957 L 27.36797,-1.8701172 Q 27.006641,-2.6025391 26.664845,-2.8417969 26.32793,-3.0810547 25.741993,-3.0810547 H 24.667774 V 0 h -0.986328 v -7.2900391 h 2.226563 q 1.25,0 1.865234,0.522461 0.615234,0.5224609 0.615234,1.5771484 0,0.6884766 -0.322265,1.1425781 -0.317383,0.4541016 -0.927735,0.6298828 z m -2.470703,-3.0615234 v 2.5878906 h 1.240235 q 0.71289,0 1.074218,-0.3271484 0.366211,-0.3320312 0.366211,-0.9716797 0,-0.6396484 -0.366211,-0.961914 -0.361328,-0.3271485 -1.074218,-0.3271485 z" /><path
           id="path186"
           style=""
           d="m 32.261524,-4.8388672 q -0.722656,0 -1.142578,0.5664063 -0.419922,0.5615234 -0.419922,1.5429687 0,0.9814453 0.415039,1.5478516 0.419922,0.56152341 1.147461,0.56152341 0.717774,0 1.137696,-0.56640621 0.419921,-0.5664063 0.419921,-1.5429688 0,-0.9716797 -0.419921,-1.5380859 -0.419922,-0.5712891 -1.137696,-0.5712891 z m 0,-0.7617187 q 1.171875,0 1.840821,0.7617187 0.668945,0.7617188 0.668945,2.109375 0,1.3427735 -0.668945,2.10937501 -0.668946,0.76171875 -1.840821,0.76171875 -1.176758,0 -1.845703,-0.76171875 -0.664062,-0.76660151 -0.664062,-2.10937501 0,-1.3476562 0.664062,-2.109375 0.668945,-0.7617187 1.845703,-0.7617187 z" /><path
           id="path188"
           style=""
           d="m 35.729923,-5.46875 h 0.898438 l 1.123047,4.2675781 1.118164,-4.2675781 h 1.05957 l 1.123047,4.2675781 1.118164,-4.2675781 H 43.06879 L 41.638126,0 h -1.05957 L 39.401798,-4.4824219 38.220158,0 h -1.059571 z" /><path
           id="path190"
           style=""
           d="m 47.90871,-5.3076172 v 0.8496094 q -0.380859,-0.1953125 -0.791015,-0.2929688 -0.410156,-0.097656 -0.84961,-0.097656 -0.668945,0 -1.005859,0.2050781 -0.332031,0.2050781 -0.332031,0.6152344 0,0.3125 0.239258,0.493164 0.239257,0.1757813 0.961914,0.3369141 l 0.307617,0.068359 q 0.957031,0.2050781 1.357422,0.5810547 0.405273,0.3710937 0.405273,1.040039 0,0.76171879 -0.605469,1.20605472 -0.600585,0.44433594 -1.655273,0.44433594 -0.439453,0 -0.917969,-0.08789062 -0.473633,-0.08300782 -1.000976,-0.25390625 V -1.1279297 q 0.498047,0.25878907 0.981445,0.39062501 0.483398,0.12695313 0.957031,0.12695313 0.634766,0 0.976563,-0.21484375 0.341797,-0.21972659 0.341797,-0.61523439 0,-0.3662109 -0.249024,-0.5615234 -0.24414,-0.1953125 -1.079101,-0.3759766 l -0.3125,-0.073242 q -0.834961,-0.1757812 -1.206055,-0.5371094 -0.371094,-0.3662109 -0.371094,-1.0009765 0,-0.7714844 0.546875,-1.1914063 0.546875,-0.4199218 1.552735,-0.4199218 0.498046,0 0.9375,0.073242 0.439453,0.073242 0.810546,0.2197265 z" /></g><g
         transform="matrix(1,0,0,-1,0,123.02692)"
         id="g98"><path
           id="path100"
           style="fill:#ffffff;fill-opacity:1;fill-rule:nonzero;stroke:#000000;stroke-width:0.42519701;stroke-linecap:butt;stroke-linejoin:miter;stroke-miterlimit:4;stroke-dasharray:none;stroke-opacity:1"
           d="m 91.109,63.359 h 73.699 V 77.531 H 91.109 Z" /></g><g
         id="text104"
         style="font-variant:normal;font-weight:normal;font-size:10px;font-family:'DejaVu Sans';-inkscape-font-specification:DejaVuSans;writing-mode:lr-tb;fill:#000000;fill-opacity:1;fill-rule:nonzero;stroke:none"
         transform="matrix(1,0,0,-1,93.942947,48.330592)"
         aria-label="MixColumns"><path
           id="path193"
           style=""
           d="M 0.98144531,-7.2900391 H 2.4511719 l 1.8603515,4.9609375 1.8701172,-4.9609375 H 7.6513672 V 0 H 6.6894531 v -6.4013672 l -1.8798828,5 H 3.8183594 l -1.8798828,-5 V 0 H 0.98144531 Z" /><path
           id="path195"
           style=""
           d="M 9.5623827,-5.46875 H 10.46082 V 0 H 9.5623827 Z m 0,-2.1289062 H 10.46082 v 1.1376953 H 9.5623827 Z" /><path
           id="path197"
           style=""
           d="M 16.878282,-5.46875 14.900743,-2.8076172 16.980821,0 H 15.92125 L 14.329453,-2.1484375 12.737657,0 H 11.678086 L 13.80211,-2.8613281 11.85875,-5.46875 h 1.059571 l 1.450195,1.9482422 1.450195,-1.9482422 z" /><path
           id="path199"
           style=""
           d="m 23.740429,-6.7285156 v 1.040039 q -0.498047,-0.4638671 -1.064453,-0.6933593 -0.561524,-0.2294922 -1.196289,-0.2294922 -1.25,0 -1.914063,0.7666015 -0.664062,0.7617188 -0.664062,2.2070313 0,1.4404297 0.664062,2.2070312 0.664063,0.76171879 1.914063,0.76171879 0.634765,0 1.196289,-0.22949219 0.566406,-0.2294922 1.064453,-0.6933594 v 1.03027346 q -0.517578,0.3515625 -1.098633,0.52734375 -0.576172,0.17578125 -1.220703,0.17578125 -1.655273,0 -2.607422,-1.01074219 -0.952148,-1.01562497 -0.952148,-2.76855467 0,-1.7578125 0.952148,-2.7685547 0.952149,-1.015625 2.607422,-1.015625 0.654297,0 1.230469,0.1757813 0.581054,0.1708984 1.088867,0.5175781 z" /><path
           id="path201"
           style=""
           d="m 27.341524,-4.8388672 q -0.722656,0 -1.142578,0.5664063 -0.419922,0.5615234 -0.419922,1.5429687 0,0.9814453 0.415039,1.5478516 0.419922,0.56152341 1.147461,0.56152341 0.717774,0 1.137695,-0.56640621 0.419922,-0.5664063 0.419922,-1.5429688 0,-0.9716797 -0.419922,-1.5380859 -0.419921,-0.5712891 -1.137695,-0.5712891 z m 0,-0.7617187 q 1.171875,0 1.84082,0.7617187 0.668946,0.7617188 0.668946,2.109375 0,1.3427735 -0.668946,2.10937501 -0.668945,0.76171875 -1.84082,0.76171875 -1.176758,0 -1.845703,-0.76171875 -0.664063,-0.76660151 -0.664063,-2.10937501 0,-1.3476562 0.664063,-2.109375 0.668945,-0.7617187 1.845703,-0.7617187 z" /><path
           id="path203"
           style=""
           d="M 31.332382,-7.5976562 H 32.23082 V 0 h -0.898438 z" /><path
           id="path205"
           style=""
           d="M 34.009609,-2.1582031 V -5.46875 h 0.898438 v 3.2763672 q 0,0.7763672 0.302734,1.1669922 0.302734,0.38574216 0.908203,0.38574216 0.727539,0 1.147461,-0.46386716 0.424805,-0.4638672 0.424805,-1.2646485 V -5.46875 h 0.898437 V 0 H 37.69125 v -0.83984375 q -0.327149,0.49804687 -0.761719,0.7421875 -0.429687,0.23925781 -1.000976,0.23925781 -0.942383,0 -1.430665,-0.5859375 -0.488281,-0.58593746 -0.488281,-1.71386716 z m 2.260742,-3.4423828 z" /><path
           id="path207"
           style=""
           d="m 44.690197,-4.4189453 q 0.336914,-0.6054688 0.805664,-0.8935547 0.46875,-0.2880859 1.103516,-0.2880859 0.854492,0 1.318359,0.6005859 0.463867,0.5957031 0.463867,1.6992187 V 0 h -0.90332 v -3.2714844 q 0,-0.7861328 -0.27832,-1.1669922 -0.278321,-0.3808593 -0.84961,-0.3808593 -0.698242,0 -1.103515,0.4638672 -0.405274,0.4638671 -0.405274,1.2646484 V 0 h -0.90332 v -3.2714844 q 0,-0.7910156 -0.27832,-1.1669922 -0.278321,-0.3808593 -0.859375,-0.3808593 -0.688477,0 -1.09375,0.46875 -0.405274,0.4638671 -0.405274,1.2597656 V 0 h -0.90332 v -5.46875 h 0.90332 v 0.8496094 q 0.307617,-0.5029297 0.737305,-0.7421875 0.429687,-0.2392578 1.020508,-0.2392578 0.595703,0 1.010742,0.3027343 0.419922,0.3027344 0.620117,0.8789063 z" /><path
           id="path209"
           style=""
           d="M 54.718281,-3.3007813 V 0 h -0.898438 v -3.2714844 q 0,-0.7763672 -0.302734,-1.1621093 -0.302734,-0.3857422 -0.908203,-0.3857422 -0.727539,0 -1.147461,0.4638672 -0.419922,0.4638671 -0.419922,1.2646484 V 0 h -0.90332 v -5.46875 h 0.90332 v 0.8496094 q 0.322266,-0.4931641 0.756836,-0.7373047 0.439453,-0.2441406 1.010742,-0.2441406 0.942383,0 1.425781,0.5859375 0.483399,0.5810547 0.483399,1.7138671 z" /><path
           id="path211"
           style=""
           d="m 59.988712,-5.3076172 v 0.8496094 q -0.380859,-0.1953125 -0.791015,-0.2929688 -0.410157,-0.097656 -0.84961,-0.097656 -0.668945,0 -1.005859,0.2050781 -0.332031,0.2050781 -0.332031,0.6152344 0,0.3125 0.239257,0.493164 0.239258,0.1757813 0.961915,0.3369141 l 0.307617,0.068359 q 0.957031,0.2050781 1.357422,0.5810547 0.405273,0.3710937 0.405273,1.040039 0,0.76171879 -0.605469,1.20605472 -0.600586,0.44433594 -1.655273,0.44433594 -0.439453,0 -0.917969,-0.08789062 -0.473633,-0.08300782 -1.000976,-0.25390625 V -1.1279297 q 0.498046,0.25878907 0.981445,0.39062501 0.483398,0.12695313 0.957031,0.12695313 0.634766,0 0.976563,-0.21484375 0.341796,-0.21972659 0.341796,-0.61523439 0,-0.3662109 -0.249023,-0.5615234 -0.244141,-0.1953125 -1.079102,-0.3759766 l -0.3125,-0.073242 q -0.83496,-0.1757812 -1.206054,-0.5371094 -0.371094,-0.3662109 -0.371094,-1.0009765 0,-0.7714844 0.546875,-1.1914063 0.546875,-0.4199218 1.552734,-0.4199218 0.498047,0 0.9375,0.073242 0.439454,0.073242 0.810547,0.2197265 z" /></g><g
         transform="matrix(1,0,0,-1,0,123.02692)"
         id="g106"><path
           id="path108"
           style="fill:#ffffff;fill-opacity:1;fill-rule:nonzero;stroke:#000000;stroke-width:0.42519701;stroke-linecap:butt;stroke-linejoin:miter;stroke-miterlimit:4;stroke-dasharray:none;stroke-opacity:1"
           d="m 91.109,83.199 h 73.699 V 97.375 H 91.109 Z" /></g><g
         id="text116"
         style="font-variant:normal;font-weight:normal;font-size:10px;font-family:'DejaVu Sans';-inkscape-font-specification:DejaVuSans;writing-mode:lr-tb;fill:#000000;fill-opacity:1;fill-rule:nonzero;stroke:none"
         transform="matrix(1,0,0,-1,93.942947,28.488062)"
         aria-label="AddRoundKey
plaintextciphertext
round transformation"><path
           id="path214"
           style=""
           d="M 3.4179688,-6.3183594 2.0800781,-2.6904297 H 4.7607422 Z M 2.8613281,-7.2900391 H 3.9794922 L 6.7578125,0 H 5.7324219 L 5.0683594,-1.8701172 H 1.7822266 L 1.1181641,0 H 0.078125 Z" /><path
           id="path216"
           style=""
           d="m 11.201015,-4.6386719 v -2.9589843 h 0.898438 V 0 h -0.898438 v -0.8203125 q -0.283203,0.48828125 -0.717773,0.72753906 -0.429687,0.234375 -1.0351562,0.234375 -0.991211,0 -1.616211,-0.79101562 -0.6201171,-0.79101564 -0.6201171,-2.08007814 0,-1.2890625 0.6201171,-2.0800781 0.625,-0.7910156 1.616211,-0.7910156 0.6054692,0 1.0351562,0.2392578 0.43457,0.234375 0.717773,0.7226562 z m -3.061523,1.9091797 q 0,0.991211 0.4052735,1.5576172 0.4101562,0.56152344 1.1230468,0.56152344 0.7128907,0 1.1230467,-0.56152344 0.410156,-0.5664062 0.410156,-1.5576172 0,-0.9912109 -0.410156,-1.5527344 -0.410156,-0.5664062 -1.1230467,-0.5664062 -0.7128906,0 -1.1230468,0.5664062 -0.4052735,0.5615235 -0.4052735,1.5527344 z" /><path
           id="path218"
           style=""
           d="m 17.541016,-4.6386719 v -2.9589843 h 0.898437 V 0 h -0.898437 v -0.8203125 q -0.283204,0.48828125 -0.717774,0.72753906 -0.429687,0.234375 -1.035156,0.234375 -0.991211,0 -1.616211,-0.79101562 -0.620117,-0.79101564 -0.620117,-2.08007814 0,-1.2890625 0.620117,-2.0800781 0.625,-0.7910156 1.616211,-0.7910156 0.605469,0 1.035156,0.2392578 0.43457,0.234375 0.717774,0.7226562 z m -3.061524,1.9091797 q 0,0.991211 0.405274,1.5576172 0.410156,0.56152344 1.123046,0.56152344 0.712891,0 1.123047,-0.56152344 0.410157,-0.5664062 0.410157,-1.5576172 0,-0.9912109 -0.410157,-1.5527344 -0.410156,-0.5664062 -1.123047,-0.5664062 -0.71289,0 -1.123046,0.5664062 -0.405274,0.5615235 -0.405274,1.5527344 z" /><path
           id="path220"
           style=""
           d="m 23.778477,-3.4179688 q 0.317383,0.1074219 0.615234,0.4589844 0.302734,0.3515625 0.605469,0.9667969 L 26.000156,0 h -1.05957 L 24.007969,-1.8701172 Q 23.646641,-2.6025391 23.304844,-2.8417969 22.96793,-3.0810547 22.381992,-3.0810547 H 21.307774 V 0 h -0.986329 v -7.2900391 h 2.226563 q 1.25,0 1.865234,0.522461 0.615235,0.5224609 0.615235,1.5771484 0,0.6884766 -0.322266,1.1425781 -0.317383,0.4541016 -0.927734,0.6298828 z m -2.470703,-3.0615234 v 2.5878906 h 1.240234 q 0.712891,0 1.074219,-0.3271484 0.366211,-0.3320312 0.366211,-0.9716797 0,-0.6396484 -0.366211,-0.961914 -0.361328,-0.3271485 -1.074219,-0.3271485 z" /><path
           id="path222"
           style=""
           d="m 28.891523,-4.8388672 q -0.722656,0 -1.142578,0.5664063 -0.419922,0.5615234 -0.419922,1.5429687 0,0.9814453 0.415039,1.5478516 0.419922,0.56152341 1.147461,0.56152341 0.717774,0 1.137696,-0.56640621 0.419922,-0.5664063 0.419922,-1.5429688 0,-0.9716797 -0.419922,-1.5380859 -0.419922,-0.5712891 -1.137696,-0.5712891 z m 0,-0.7617187 q 1.171875,0 1.840821,0.7617187 0.668945,0.7617188 0.668945,2.109375 0,1.3427735 -0.668945,2.10937501 -0.668946,0.76171875 -1.840821,0.76171875 -1.176757,0 -1.845703,-0.76171875 -0.664062,-0.76660151 -0.664062,-2.10937501 0,-1.3476562 0.664062,-2.109375 0.668946,-0.7617187 1.845703,-0.7617187 z" /><path
           id="path224"
           style=""
           d="M 32.78961,-2.1582031 V -5.46875 h 0.898437 v 3.2763672 q 0,0.7763672 0.302735,1.1669922 0.302734,0.38574216 0.908203,0.38574216 0.727539,0 1.147461,-0.46386716 0.424805,-0.4638672 0.424805,-1.2646485 V -5.46875 h 0.898437 V 0 h -0.898437 v -0.83984375 q -0.327149,0.49804687 -0.761719,0.7421875 -0.429688,0.23925781 -1.000977,0.23925781 -0.942383,0 -1.430664,-0.5859375 Q 32.78961,-1.0302734 32.78961,-2.1582031 Z m 2.260742,-3.4423828 z" /><path
           id="path226"
           style=""
           d="M 43.758282,-3.3007813 V 0 h -0.898438 v -3.2714844 q 0,-0.7763672 -0.302734,-1.1621093 -0.302735,-0.3857422 -0.908203,-0.3857422 -0.727539,0 -1.147461,0.4638672 -0.419922,0.4638671 -0.419922,1.2646484 V 0 h -0.90332 v -5.46875 h 0.90332 v 0.8496094 q 0.322266,-0.4931641 0.756836,-0.7373047 0.439453,-0.2441406 1.010742,-0.2441406 0.942383,0 1.425781,0.5859375 0.483399,0.5810547 0.483399,1.7138671 z" /><path
           id="path228"
           style=""
           d="m 49.141014,-4.6386719 v -2.9589843 h 0.898438 V 0 h -0.898438 v -0.8203125 q -0.283203,0.48828125 -0.717773,0.72753906 -0.429688,0.234375 -1.035157,0.234375 -0.991211,0 -1.616211,-0.79101562 -0.620117,-0.79101564 -0.620117,-2.08007814 0,-1.2890625 0.620117,-2.0800781 0.625,-0.7910156 1.616211,-0.7910156 0.605469,0 1.035157,0.2392578 0.43457,0.234375 0.717773,0.7226562 z m -3.061523,1.9091797 q 0,0.991211 0.405273,1.5576172 0.410156,0.56152344 1.123047,0.56152344 0.712891,0 1.123047,-0.56152344 0.410156,-0.5664062 0.410156,-1.5576172 0,-0.9912109 -0.410156,-1.5527344 -0.410156,-0.5664062 -1.123047,-0.5664062 -0.712891,0 -1.123047,0.5664062 -0.405273,0.5615235 -0.405273,1.5527344 z" /><path
           id="path230"
           style=""
           d="m 51.921444,-7.2900391 h 0.986328 v 3.0810547 l 3.271484,-3.0810547 h 1.269532 L 53.830624,-3.8916016 57.707577,0 H 56.408749 L 52.907772,-3.5107422 V 0 h -0.986328 z" /><path
           id="path232"
           style=""
           d="m 62.650116,-2.9589844 v 0.4394531 h -4.130859 q 0.05859,0.9277344 0.55664,1.4160157 0.50293,0.48339841 1.396485,0.48339841 0.517578,0 1.000976,-0.12695312 0.488281,-0.12695313 0.966797,-0.38085939 v 0.84960939 q -0.483398,0.20507812 -0.991211,0.3125 -0.507812,0.10742187 -1.030273,0.10742187 -1.308594,0 -2.075196,-0.76171875 -0.761718,-0.76171871 -0.761718,-2.06054691 0,-1.3427734 0.722656,-2.1289062 0.727539,-0.7910156 1.958008,-0.7910156 1.103515,0 1.743164,0.7128906 0.644531,0.7080078 0.644531,1.9287109 z m -0.898438,-0.2636719 q -0.0098,-0.7373046 -0.415039,-1.1767578 -0.40039,-0.4394531 -1.064453,-0.4394531 -0.751953,0 -1.206054,0.4248047 -0.449219,0.4248047 -0.517579,1.1962891 z" /><path
           id="path234"
           style=""
           d="M 66.397774,0.5078125 Q 66.016914,1.484375 65.655586,1.7822266 65.294258,2.0800781 64.688789,2.0800781 H 63.971016 V 1.328125 h 0.527344 q 0.371093,0 0.576172,-0.1757813 0.205078,-0.1757812 0.454101,-0.83007807 L 65.689766,-0.08789062 63.477852,-5.46875 H 64.43 l 1.708985,4.2773438 1.708984,-4.2773438 h 0.952148 z" /><path
           id="path236"
           style=""
           d="m -88.897163,4.8489776 v 2.9003906 h -0.903321 V 0.20054007 h 0.903321 V 1.0306182 q 0.283203,-0.48828126 0.71289,-0.72265626 0.434571,-0.23925781 1.035156,-0.23925781 0.996094,0 1.616211,0.79101562 0.625,0.79101565 0.625,2.08007815 0,1.2890625 -0.625,2.0800781 -0.620117,0.7910156 -1.616211,0.7910156 -0.600585,0 -1.035156,-0.234375 -0.429687,-0.2392578 -0.71289,-0.727539 z m 3.05664,-1.9091797 q 0,-0.991211 -0.410156,-1.5527344 -0.405273,-0.56640625 -1.118164,-0.56640625 -0.712891,0 -1.123047,0.56640625 -0.405273,0.5615234 -0.405273,1.5527344 0,0.9912109 0.405273,1.5576172 0.410156,0.5615234 1.123047,0.5615234 0.712891,0 1.118164,-0.5615234 0.410156,-0.5664063 0.410156,-1.5576172 z" /><path
           id="path238"
           style=""
           d="m -83.426308,-1.9283662 h 0.898438 v 7.5976563 h -0.898438 z" /><path
           id="path240"
           style=""
           d="m -78.170952,2.9202666 q -1.088867,0 -1.508789,0.2490235 -0.419922,0.2490234 -0.419922,0.8496093 0,0.4785157 0.3125,0.7617188 0.317383,0.2783203 0.859375,0.2783203 0.747071,0 1.196289,-0.5273437 0.454102,-0.5322266 0.454102,-1.4111329 V 2.9202666 Z m 1.791992,-0.3710937 v 3.1201172 h -0.898437 V 4.8392119 q -0.307617,0.4980469 -0.766602,0.7373047 -0.458984,0.234375 -1.123047,0.234375 -0.839843,0 -1.33789,-0.46875 -0.493164,-0.4736328 -0.493164,-1.2646484 0,-0.9228516 0.615234,-1.3916016 0.620117,-0.46875 1.845703,-0.46875 h 1.259766 V 2.129251 q 0,-0.6201172 -0.410156,-0.9570312 -0.405274,-0.34179692 -1.142579,-0.34179692 -0.46875,0 -0.913085,0.11230469 -0.444336,0.11230473 -0.854493,0.33691403 V 0.4495635 q 0.493164,-0.19042968 0.957032,-0.28320312 0.463867,-0.09765625 0.90332,-0.09765625 1.186523,0 1.772461,0.61523437 0.585937,0.6152344 0.585937,1.8652344 z" /><path
           id="path242"
           style=""
           d="m -74.536308,0.20054007 h 0.898437 V 5.6692901 h -0.898437 z m 0,-2.12890627 h 0.898437 v 1.13769533 h -0.898437 z" /><path
           id="path244"
           style=""
           d="m -67.220406,2.3685088 v 3.3007813 h -0.898437 V 2.3978057 q 0,-0.7763672 -0.302734,-1.1621094 -0.302735,-0.38574217 -0.908204,-0.38574217 -0.727539,0 -1.147461,0.46386717 -0.419921,0.4638672 -0.419921,1.2646485 v 3.0908203 h -0.903321 V 0.20054007 h 0.903321 V 1.0501494 q 0.322265,-0.49316402 0.756836,-0.73730465 0.439453,-0.24414062 1.010742,-0.24414062 0.942383,0 1.425781,0.5859375 0.483398,0.58105467 0.483398,1.71386717 z" /><path
           id="path246"
           style=""
           d="m -64.547638,-1.3521943 v 1.55273437 h 1.850586 v 0.69824218 h -1.850586 V 3.8675323 q 0,0.6689453 0.180664,0.859375 0.185547,0.1904296 0.74707,0.1904296 h 0.922852 v 0.7519532 h -0.922852 q -1.040039,0 -1.435546,-0.3857422 -0.395508,-0.390625 -0.395508,-1.4160156 V 0.89878225 h -0.65918 V 0.20054007 h 0.65918 V -1.3521943 Z" /><path
           id="path248"
           style=""
           d="m -56.838573,2.7103057 v 0.4394531 h -4.13086 q 0.05859,0.9277344 0.556641,1.4160156 0.502929,0.4833985 1.396484,0.4833985 0.517578,0 1.000977,-0.1269531 0.488281,-0.1269532 0.966797,-0.3808594 v 0.8496094 q -0.483399,0.2050781 -0.991211,0.3125 -0.507813,0.1074218 -1.030274,0.1074218 -1.308594,0 -2.075195,-0.7617187 -0.761719,-0.7617188 -0.761719,-2.0605469 0,-1.3427734 0.722656,-2.12890625 0.727539,-0.79101562 1.958008,-0.79101562 1.103516,0 1.743164,0.71289062 0.644532,0.70800785 0.644532,1.92871095 z m -0.898438,-0.2636719 q -0.0098,-0.7373047 -0.415039,-1.1767578 -0.400391,-0.43945312 -1.064453,-0.43945312 -0.751953,0 -1.206055,0.42480472 -0.449219,0.4248047 -0.517578,1.196289 z" /><path
           id="path250"
           style=""
           d="m -50.99041,0.20054007 -1.977539,2.66113283 2.080078,2.8076172 h -1.05957 l -1.591797,-2.1484375 -1.591797,2.1484375 h -1.05957 l 2.124023,-2.8613282 -1.943359,-2.60742183 h 1.05957 l 1.450196,1.94824223 1.450195,-1.94824223 z" /><path
           id="path252"
           style=""
           d="m -48.737637,-1.3521943 v 1.55273437 h 1.850586 v 0.69824218 h -1.850586 V 3.8675323 q 0,0.6689453 0.180664,0.859375 0.185547,0.1904296 0.747071,0.1904296 h 0.922851 v 0.7519532 h -0.922851 q -1.040039,0 -1.435547,-0.3857422 -0.395508,-0.390625 -0.395508,-1.4160156 V 0.89878225 h -0.65918 V 0.20054007 h 0.65918 V -1.3521943 Z" /><path
           id="path254"
           style=""
           d="m 115.4291,0.410501 v 0.8398438 q -0.38086,-0.209961 -0.7666,-0.31250005 -0.38086,-0.10742187 -0.77149,-0.10742187 -0.87402,0 -1.35742,0.55664062 -0.4834,0.5517578 -0.4834,1.5527344 0,1.0009765 0.4834,1.5576172 0.4834,0.5517578 1.35742,0.5517578 0.39063,0 0.77149,-0.1025391 0.38574,-0.1074219 0.7666,-0.3173828 v 0.8300781 q -0.37598,0.1757813 -0.78125,0.2636719 -0.40039,0.087891 -0.85449,0.087891 -1.23535,0 -1.96289,-0.7763672 -0.72754,-0.7763671 -0.72754,-2.0947265 0,-1.3378906 0.73242,-2.10449221 0.7373,-0.76660156 2.0166,-0.76660156 0.41504,0 0.81055,0.08789062 0.39551,0.0830078 0.7666,0.25390625 z" /><path
           id="path256"
           style=""
           d="m 116.98355,0.20054007 h 0.89844 V 5.6692901 h -0.89844 z m 0,-2.12890627 h 0.89844 v 1.13769533 h -0.89844 z" /><path
           id="path258"
           style=""
           d="m 120.6227,4.8489776 v 2.9003906 h -0.90332 V 0.20054007 h 0.90332 V 1.0306182 q 0.2832,-0.48828126 0.71289,-0.72265626 0.43457,-0.23925781 1.03515,-0.23925781 0.9961,0 1.61621,0.79101562 0.625,0.79101565 0.625,2.08007815 0,1.2890625 -0.625,2.0800781 -0.62011,0.7910156 -1.61621,0.7910156 -0.60058,0 -1.03515,-0.234375 -0.42969,-0.2392578 -0.71289,-0.727539 z m 3.05664,-1.9091797 q 0,-0.991211 -0.41016,-1.5527344 -0.40527,-0.56640625 -1.11816,-0.56640625 -0.71289,0 -1.12305,0.56640625 -0.40527,0.5615234 -0.40527,1.5527344 0,0.9912109 0.40527,1.5576172 0.41016,0.5615234 1.12305,0.5615234 0.71289,0 1.11816,-0.5615234 0.41016,-0.5664063 0.41016,-1.5576172 z" /><path
           id="path260"
           style=""
           d="m 130.63945,2.3685088 v 3.3007813 h -0.89844 V 2.3978057 q 0,-0.7763672 -0.30273,-1.1621094 -0.30274,-0.38574217 -0.9082,-0.38574217 -0.72754,0 -1.14747,0.46386717 -0.41992,0.4638672 -0.41992,1.2646485 v 3.0908203 h -0.90332 v -7.5976563 h 0.90332 v 2.9785156 q 0.32227,-0.49316402 0.75684,-0.73730465 0.43945,-0.24414062 1.01074,-0.24414062 0.94238,0 1.42578,0.5859375 0.4834,0.58105467 0.4834,1.71386717 z" /><path
           id="path262"
           style=""
           d="m 137.10129,2.7103057 v 0.4394531 h -4.13086 q 0.0586,0.9277344 0.55664,1.4160156 0.50293,0.4833985 1.39648,0.4833985 0.51758,0 1.00098,-0.1269531 0.48828,-0.1269532 0.9668,-0.3808594 v 0.8496094 q -0.4834,0.2050781 -0.99121,0.3125 -0.50782,0.1074218 -1.03028,0.1074218 -1.30859,0 -2.07519,-0.7617187 -0.76172,-0.7617188 -0.76172,-2.0605469 0,-1.3427734 0.72265,-2.12890625 0.72754,-0.79101562 1.95801,-0.79101562 1.10352,0 1.74317,0.71289062 0.64453,0.70800785 0.64453,1.92871095 z m -0.89844,-0.2636719 q -0.01,-0.7373047 -0.41504,-1.1767578 -0.40039,-0.43945312 -1.06445,-0.43945312 -0.75195,0 -1.20606,0.42480472 -0.44922,0.4248047 -0.51757,1.196289 z" /><path
           id="path264"
           style=""
           d="m 141.74249,1.0403838 q -0.15136,-0.0878906 -0.33203,-0.12695311 -0.17578,-0.0439453 -0.39062,-0.0439453 -0.76172,0 -1.17188,0.49804692 -0.40527,0.493164 -0.40527,1.4208984 v 2.8808594 h -0.90332 V 0.20054007 h 0.90332 V 1.0501494 q 0.2832,-0.49804683 0.7373,-0.73730465 0.4541,-0.24414062 1.10352,-0.24414062 0.0928,0 0.20508,0.01464844 0.1123,0.0097656 0.24902,0.03417968 z" /><path
           id="path266"
           style=""
           d="m 143.57222,-1.3521943 v 1.55273437 h 1.85059 v 0.69824218 h -1.85059 V 3.8675323 q 0,0.6689453 0.18066,0.859375 0.18555,0.1904296 0.74707,0.1904296 h 0.92286 v 0.7519532 h -0.92286 q -1.04003,0 -1.43554,-0.3857422 -0.39551,-0.390625 -0.39551,-1.4160156 V 0.89878225 h -0.65918 V 0.20054007 h 0.65918 V -1.3521943 Z" /><path
           id="path268"
           style=""
           d="m 151.31129,2.7103057 v 0.4394531 h -4.13085 q 0.0586,0.9277344 0.55664,1.4160156 0.50293,0.4833985 1.39648,0.4833985 0.51758,0 1.00098,-0.1269531 0.48828,-0.1269532 0.96679,-0.3808594 v 0.8496094 q -0.48339,0.2050781 -0.99121,0.3125 -0.50781,0.1074218 -1.03027,0.1074218 -1.30859,0 -2.0752,-0.7617187 -0.76171,-0.7617188 -0.76171,-2.0605469 0,-1.3427734 0.72265,-2.12890625 0.72754,-0.79101562 1.95801,-0.79101562 1.10351,0 1.74316,0.71289062 0.64453,0.70800785 0.64453,1.92871095 z m -0.89843,-0.2636719 q -0.01,-0.7373047 -0.41504,-1.1767578 -0.40039,-0.43945312 -1.06446,-0.43945312 -0.75195,0 -1.20605,0.42480472 -0.44922,0.4248047 -0.51758,1.196289 z" /><path
           id="path270"
           style=""
           d="m 157.14944,0.20054007 -1.97753,2.66113283 2.08007,2.8076172 h -1.05957 l -1.59179,-2.1484375 -1.5918,2.1484375 h -1.05957 l 2.12402,-2.8613282 -1.94336,-2.60742183 h 1.05957 l 1.4502,1.94824223 1.45019,-1.94824223 z" /><path
           id="path272"
           style=""
           d="m 159.40222,-1.3521943 v 1.55273437 h 1.85059 v 0.69824218 h -1.85059 V 3.8675323 q 0,0.6689453 0.18067,0.859375 0.18554,0.1904296 0.74707,0.1904296 h 0.92285 v 0.7519532 h -0.92285 q -1.04004,0 -1.43555,-0.3857422 -0.39551,-0.390625 -0.39551,-1.4160156 V 0.89878225 h -0.65918 V 0.20054007 h 0.65918 V -1.3521943 Z" /><path
           id="path274"
           style=""
           d="m -12.896582,23.717554 q -0.151367,-0.08789 -0.332031,-0.126953 -0.175781,-0.04395 -0.390625,-0.04395 -0.761719,0 -1.171875,0.498047 -0.405273,0.493164 -0.405273,1.420898 v 2.880859 h -0.903321 v -5.46875 h 0.903321 v 0.84961 q 0.283203,-0.498047 0.737304,-0.737305 0.454102,-0.244141 1.103516,-0.244141 0.09277,0 0.205078,0.01465 0.112305,0.0098 0.249024,0.03418 z" /><path
           id="path276"
           style=""
           d="m -10.046387,23.507593 q -0.722656,0 -1.142578,0.566406 -0.419922,0.561524 -0.419922,1.542969 0,0.981445 0.415039,1.547852 0.419922,0.561523 1.147461,0.561523 0.7177737,0 1.1376956,-0.566406 0.4199219,-0.566406 0.4199219,-1.542969 0,-0.97168 -0.4199219,-1.538086 -0.4199219,-0.571289 -1.1376956,-0.571289 z m 0,-0.761719 q 1.1718753,0 1.8408206,0.761719 0.6689453,0.761719 0.6689453,2.109375 0,1.342774 -0.6689453,2.109375 -0.6689453,0.761719 -1.8408206,0.761719 -1.176758,0 -1.845703,-0.761719 -0.664062,-0.766601 -0.664062,-2.109375 0,-1.347656 0.664062,-2.109375 0.668945,-0.761719 1.845703,-0.761719 z" /><path
           id="path278"
           style=""
           d="M -6.1483006,26.188257 V 22.87771 h 0.8984375 v 3.276368 q 0,0.776367 0.3027343,1.166992 0.3027344,0.385742 0.9082032,0.385742 0.727539,0 1.1474609,-0.463867 Q -2.46666,26.779078 -2.46666,25.978296 V 22.87771 h 0.8984375 v 5.46875 H -2.46666 v -0.839843 q -0.3271485,0.498046 -0.7617188,0.742187 -0.4296875,0.239258 -1.0009765,0.239258 -0.9423828,0 -1.4306641,-0.585938 -0.4882812,-0.585937 -0.4882812,-1.713867 z m 2.2607421,-3.442383 z" /><path
           id="path280"
           style=""
           d="M 4.8203713,25.045679 V 28.34646 H 3.9219338 v -3.271484 q 0,-0.776367 -0.3027344,-1.162109 -0.3027344,-0.385743 -0.9082031,-0.385743 -0.7275391,0 -1.147461,0.463868 -0.4199218,0.463867 -0.4199218,1.264648 v 3.09082 H 0.24029315 V 22.87771 H 1.1436135 v 0.84961 q 0.3222656,-0.493164 0.7568359,-0.737305 0.4394531,-0.244141 1.0107422,-0.244141 0.9423828,0 1.4257812,0.585938 0.4833985,0.581055 0.4833985,1.713867 z" /><path
           id="path282"
           style=""
           d="m 10.203105,23.707788 v -2.958984 h 0.898438 v 7.597656 h -0.898438 v -0.820312 q -0.2832027,0.488281 -0.717773,0.727539 -0.4296875,0.234375 -1.0351562,0.234375 -0.991211,0 -1.616211,-0.791016 -0.6201172,-0.791015 -0.6201172,-2.080078 0,-1.289062 0.6201172,-2.080078 0.625,-0.791016 1.616211,-0.791016 0.6054687,0 1.0351562,0.239258 0.4345703,0.234375 0.717773,0.722656 z m -3.061523,1.90918 q 0,0.991211 0.4052734,1.557617 0.4101563,0.561524 1.1230469,0.561524 0.7128906,0 1.1230469,-0.561524 0.4101558,-0.566406 0.4101558,-1.557617 0,-0.991211 -0.4101558,-1.552734 -0.4101563,-0.566406 -1.1230469,-0.566406 -0.7128906,0 -1.1230469,0.566406 -0.4052734,0.561523 -0.4052734,1.552734 z" /><path
           id="path284"
           style=""
           d="m 17.003144,21.324976 v 1.552734 h 1.850586 v 0.698243 h -1.850586 v 2.96875 q 0,0.668945 0.180664,0.859375 0.185547,0.190429 0.747071,0.190429 h 0.922851 v 0.751953 h -0.922851 q -1.040039,0 -1.435547,-0.385742 -0.395508,-0.390625 -0.395508,-1.416015 v -2.96875 h -0.65918 V 22.87771 h 0.65918 v -1.552734 z" /><path
           id="path286"
           style=""
           d="m 23.233418,23.717554 q -0.151368,-0.08789 -0.332032,-0.126953 -0.175781,-0.04395 -0.390625,-0.04395 -0.761718,0 -1.171875,0.498047 -0.405273,0.493164 -0.405273,1.420898 v 2.880859 h -0.90332 v -5.46875 h 0.90332 v 0.84961 q 0.283203,-0.498047 0.737305,-0.737305 0.454101,-0.244141 1.103515,-0.244141 0.09277,0 0.205078,0.01465 0.112305,0.0098 0.249024,0.03418 z" /><path
           id="path288"
           style=""
           d="m 26.659824,25.597437 q -1.088867,0 -1.508789,0.249023 -0.419922,0.249024 -0.419922,0.84961 0,0.478515 0.3125,0.761718 0.317383,0.278321 0.859375,0.278321 0.747071,0 1.196289,-0.527344 0.454102,-0.532227 0.454102,-1.411133 v -0.200195 z m 1.791993,-0.371094 v 3.120117 h -0.898438 v -0.830078 q -0.307617,0.498047 -0.766602,0.737305 -0.458984,0.234375 -1.123046,0.234375 -0.839844,0 -1.337891,-0.46875 -0.493164,-0.473633 -0.493164,-1.264649 0,-0.922851 0.615234,-1.391601 0.620117,-0.46875 1.845703,-0.46875 h 1.259766 v -0.08789 q 0,-0.620117 -0.410156,-0.957031 -0.405274,-0.341797 -1.142578,-0.341797 -0.46875,0 -0.913086,0.112305 -0.444336,0.112305 -0.854492,0.336914 v -0.830078 q 0.493164,-0.19043 0.957031,-0.283203 0.463867,-0.09766 0.90332,-0.09766 1.186524,0 1.772461,0.615235 0.585938,0.615234 0.585938,1.865234 z" /><path
           id="path290"
           style=""
           d="m 34.840372,25.045679 v 3.300781 h -0.898437 v -3.271484 q 0,-0.776367 -0.302735,-1.162109 -0.302734,-0.385743 -0.908203,-0.385743 -0.727539,0 -1.147461,0.463868 -0.419922,0.463867 -0.419922,1.264648 v 3.09082 h -0.90332 v -5.46875 h 0.90332 v 0.84961 q 0.322266,-0.493164 0.756836,-0.737305 0.439453,-0.244141 1.010742,-0.244141 0.942383,0 1.425782,0.585938 0.483398,0.581055 0.483398,1.713867 z" /><path
           id="path292"
           style=""
           d="m 40.110802,23.038843 v 0.84961 q -0.38086,-0.195313 -0.791016,-0.292969 -0.410156,-0.09766 -0.849609,-0.09766 -0.668946,0 -1.00586,0.205078 -0.332031,0.205078 -0.332031,0.615234 0,0.3125 0.239258,0.493164 0.239258,0.175781 0.961914,0.336914 l 0.307617,0.06836 q 0.957031,0.205078 1.357422,0.581054 0.405273,0.371094 0.405273,1.040039 0,0.761719 -0.605468,1.206055 -0.600586,0.444336 -1.655274,0.444336 -0.439453,0 -0.917968,-0.08789 -0.473633,-0.08301 -1.000977,-0.253906 v -0.927734 q 0.498047,0.258789 0.981445,0.390625 0.483399,0.126953 0.957032,0.126953 0.634765,0 0.976562,-0.214844 0.341797,-0.219727 0.341797,-0.615234 0,-0.366211 -0.249024,-0.561524 -0.24414,-0.195312 -1.079101,-0.375976 l -0.3125,-0.07324 q -0.834961,-0.175781 -1.206055,-0.537109 -0.371094,-0.366211 -0.371094,-1.000976 0,-0.771485 0.546875,-1.191407 0.546875,-0.419922 1.552735,-0.419922 0.498047,0 0.9375,0.07324 0.439453,0.07324 0.810547,0.219726 z" /><path
           id="path294"
           style=""
           d="m 44.623028,20.748804 v 0.74707 h -0.859375 q -0.483399,0 -0.673828,0.195313 -0.185547,0.195312 -0.185547,0.703125 v 0.483398 h 1.479492 v 0.698243 H 42.904278 V 28.34646 H 42.000957 V 23.575953 H 41.141582 V 22.87771 h 0.859375 v -0.380859 q 0,-0.913086 0.424805,-1.328125 0.424805,-0.419922 1.347656,-0.419922 z" /><path
           id="path296"
           style=""
           d="m 47.493614,23.507593 q -0.722656,0 -1.142578,0.566406 -0.419922,0.561524 -0.419922,1.542969 0,0.981445 0.415039,1.547852 0.419922,0.561523 1.147461,0.561523 0.717774,0 1.137696,-0.566406 0.419921,-0.566406 0.419921,-1.542969 0,-0.97168 -0.419921,-1.538086 -0.419922,-0.571289 -1.137696,-0.571289 z m 0,-0.761719 q 1.171875,0 1.840821,0.761719 0.668945,0.761719 0.668945,2.109375 0,1.342774 -0.668945,2.109375 -0.668946,0.761719 -1.840821,0.761719 -1.176758,0 -1.845703,-0.761719 -0.664062,-0.766601 -0.664062,-2.109375 0,-1.347656 0.664062,-2.109375 0.668945,-0.761719 1.845703,-0.761719 z" /><path
           id="path298"
           style=""
           d="m 54.653419,23.717554 q -0.151367,-0.08789 -0.332031,-0.126953 -0.175781,-0.04395 -0.390625,-0.04395 -0.761719,0 -1.171875,0.498047 -0.405273,0.493164 -0.405273,1.420898 v 2.880859 h -0.903321 v -5.46875 h 0.903321 v 0.84961 q 0.283203,-0.498047 0.737304,-0.737305 0.454102,-0.244141 1.103516,-0.244141 0.09277,0 0.205078,0.01465 0.112305,0.0098 0.249024,0.03418 z" /><path
           id="path300"
           style=""
           d="m 59.672287,23.927515 q 0.336914,-0.605469 0.805664,-0.893555 0.46875,-0.288086 1.103516,-0.288086 0.854492,0 1.318359,0.600586 0.463867,0.595703 0.463867,1.699219 v 3.300781 h -0.90332 v -3.271484 q 0,-0.786133 -0.27832,-1.166992 -0.278321,-0.38086 -0.84961,-0.38086 -0.698242,0 -1.103515,0.463868 -0.405274,0.463867 -0.405274,1.264648 v 3.09082 h -0.90332 v -3.271484 q 0,-0.791016 -0.27832,-1.166992 -0.278321,-0.38086 -0.859375,-0.38086 -0.688477,0 -1.09375,0.46875 -0.405274,0.463868 -0.405274,1.259766 v 3.09082 h -0.90332 v -5.46875 h 0.90332 v 0.84961 q 0.307617,-0.50293 0.737305,-0.742188 0.429687,-0.239258 1.020508,-0.239258 0.595703,0 1.010742,0.302735 0.419922,0.302734 0.620117,0.878906 z" /><path
           id="path302"
           style=""
           d="m 67.639824,25.597437 q -1.088867,0 -1.508789,0.249023 -0.419922,0.249024 -0.419922,0.84961 0,0.478515 0.3125,0.761718 0.317383,0.278321 0.859375,0.278321 0.74707,0 1.196289,-0.527344 0.454102,-0.532227 0.454102,-1.411133 v -0.200195 z m 1.791992,-0.371094 v 3.120117 h -0.898437 v -0.830078 q -0.307618,0.498047 -0.766602,0.737305 -0.458984,0.234375 -1.123047,0.234375 -0.839844,0 -1.33789,-0.46875 -0.493165,-0.473633 -0.493165,-1.264649 0,-0.922851 0.615235,-1.391601 0.620117,-0.46875 1.845703,-0.46875 h 1.259766 v -0.08789 q 0,-0.620117 -0.410157,-0.957031 -0.405273,-0.341797 -1.142578,-0.341797 -0.46875,0 -0.913086,0.112305 -0.444336,0.112305 -0.854492,0.336914 v -0.830078 q 0.493164,-0.19043 0.957031,-0.283203 0.463868,-0.09766 0.903321,-0.09766 1.186523,0 1.772461,0.615235 0.585937,0.615234 0.585937,1.865234 z" /><path
           id="path304"
           style=""
           d="m 72.163147,21.324976 v 1.552734 h 1.850586 v 0.698243 h -1.850586 v 2.96875 q 0,0.668945 0.180664,0.859375 0.185547,0.190429 0.74707,0.190429 h 0.922852 v 0.751953 h -0.922852 q -1.040039,0 -1.435547,-0.385742 -0.395507,-0.390625 -0.395507,-1.416015 v -2.96875 h -0.65918 V 22.87771 h 0.65918 v -1.552734 z" /><path
           id="path306"
           style=""
           d="m 75.194473,22.87771 h 0.898438 v 5.46875 h -0.898438 z m 0,-2.128906 h 0.898438 v 1.137695 h -0.898438 z" /><path
           id="path308"
           style=""
           d="m 80.083611,23.507593 q -0.722657,0 -1.142579,0.566406 -0.419921,0.561524 -0.419921,1.542969 0,0.981445 0.415039,1.547852 0.419921,0.561523 1.147461,0.561523 0.717773,0 1.137695,-0.566406 0.419922,-0.566406 0.419922,-1.542969 0,-0.97168 -0.419922,-1.538086 -0.419922,-0.571289 -1.137695,-0.571289 z m 0,-0.761719 q 1.171875,0 1.84082,0.761719 0.668945,0.761719 0.668945,2.109375 0,1.342774 -0.668945,2.109375 -0.668945,0.761719 -1.84082,0.761719 -1.176758,0 -1.845704,-0.761719 -0.664062,-0.766601 -0.664062,-2.109375 0,-1.347656 0.664062,-2.109375 0.668946,-0.761719 1.845704,-0.761719 z" /><path
           id="path310"
           style=""
           d="m 88.620369,25.045679 v 3.300781 h -0.898438 v -3.271484 q 0,-0.776367 -0.302734,-1.162109 -0.302734,-0.385743 -0.908203,-0.385743 -0.727539,0 -1.147461,0.463868 -0.419922,0.463867 -0.419922,1.264648 v 3.09082 h -0.90332 v -5.46875 h 0.90332 v 0.84961 q 0.322266,-0.493164 0.756836,-0.737305 0.439453,-0.244141 1.010742,-0.244141 0.942383,0 1.425782,0.585938 0.483398,0.581055 0.483398,1.713867 z" /></g><path
         id="path118"
         style="fill:#808080;fill-opacity:1;fill-rule:evenodd;stroke:none"
         d="m 170.477,65.339 h 19.843 v 5.668 L 198.824,62.503 190.32,54 v 5.668 h -19.843 z" /><path
         id="path120"
         style="fill:#808080;fill-opacity:1;fill-rule:evenodd;stroke:none"
         d="m 57.094,65.339 h 19.84 v 5.668 L 85.438,62.503 76.934,54 v 5.668 h -19.84 z" /><g
         transform="matrix(1,0,0,-1,0,123.02692)"
         id="g122"><path
           id="path124"
           style="fill:none;stroke:#000000;stroke-width:0.79936999;stroke-linecap:butt;stroke-linejoin:miter;stroke-miterlimit:4;stroke-dasharray:none;stroke-opacity:1"
           d="M 170.477,40.68 C 213,20.84 161.973,-24.516 147.801,18.004" /></g><g
         transform="matrix(0.333335,1,1,-0.333335,0,123.02692)"
         id="g126"><path
           id="path128"
           style="fill:#000000;fill-opacity:1;fill-rule:evenodd;stroke:#000000;stroke-width:0.52136499;stroke-linecap:butt;stroke-linejoin:round;stroke-miterlimit:4;stroke-dasharray:none;stroke-opacity:1"
           d="m 36.243,141.786 -9.113,-3.349 9.113,-3.354 c -1.453,1.981 -1.446,4.685 0,6.703 z" /></g><g
         id="text132"
         style="font-variant:normal;font-weight:normal;font-size:9px;font-family:'DejaVu Sans';-inkscape-font-specification:DejaVuSans;writing-mode:lr-tb;fill:#000000;fill-opacity:1;fill-rule:nonzero;stroke:none"
         transform="matrix(1,0,0,-1,187.48621,113.52744)"
         aria-label="10 rounds"><path
           id="path313"
           style=""
           d="M 1.1162109,-0.74707031 H 2.5664063 V -5.7524414 L 0.98876953,-5.4360352 V -6.2446289 L 2.5576172,-6.5610352 h 0.8876953 v 5.81396489 H 4.8955078 V 0 H 1.1162109 Z" /><path
           id="path315"
           style=""
           d="m 8.5848398,-5.9765625 q -0.6855469,0 -1.0327148,0.6767578 -0.3427735,0.6723633 -0.3427735,2.0258789 0,1.3491211 0.3427735,2.0258789 0.3471679,0.67236331 1.0327148,0.67236331 0.6899414,0 1.0327149,-0.67236331 0.3471679,-0.6767578 0.3471679,-2.0258789 0,-1.3535156 -0.3471679,-2.0258789 -0.3427735,-0.6767578 -1.0327149,-0.6767578 z m 0,-0.703125 q 1.1030274,0 1.6831052,0.8745117 0.584473,0.8701172 0.584473,2.53125 0,1.6567383 -0.584473,2.53125002 -0.5800778,0.87011719 -1.6831052,0.87011719 -1.1030273,0 -1.6875,-0.87011719 -0.5800781,-0.87451172 -0.5800781,-2.53125002 0,-1.6611328 0.5800781,-2.53125 0.5844727,-0.8745117 1.6875,-0.8745117 z" /><path
           id="path317"
           style=""
           d="m 18.001195,-4.1660156 q -0.136231,-0.079102 -0.298828,-0.1142578 -0.158203,-0.039551 -0.351563,-0.039551 -0.685547,0 -1.054687,0.4482422 -0.364746,0.4438476 -0.364746,1.2788086 V 0 h -0.812989 v -4.921875 h 0.812989 v 0.7646484 q 0.254883,-0.4482421 0.663574,-0.6635742 0.408691,-0.2197265 0.993164,-0.2197265 0.0835,0 0.18457,0.013184 0.101075,0.00879 0.224121,0.030762 z" /><path
           id="path319"
           style=""
           d="m 20.584372,-4.3549805 q -0.650391,0 -1.028321,0.5097657 -0.377929,0.505371 -0.377929,1.3886718 0,0.8833008 0.373535,1.3930664 0.377929,0.50537113 1.032715,0.50537113 0.645996,0 1.023925,-0.50976563 0.37793,-0.5097656 0.37793,-1.3886719 0,-0.8745117 -0.37793,-1.3842773 -0.377929,-0.5141602 -1.023925,-0.5141602 z m 0,-0.6855468 q 1.054687,0 1.656738,0.6855468 0.602051,0.6855469 0.602051,1.8984375 0,1.2084961 -0.602051,1.89843753 -0.602051,0.68554688 -1.656738,0.68554688 -1.059082,0 -1.661133,-0.68554688 -0.597656,-0.68994143 -0.597656,-1.89843753 0,-1.2128906 0.597656,-1.8984375 0.602051,-0.6855468 1.661133,-0.6855468 z" /><path
           id="path321"
           style=""
           d="M 24.092648,-1.9423828 V -4.921875 h 0.808593 v 2.9487305 q 0,0.6987304 0.272461,1.05029294 0.272461,0.34716797 0.817383,0.34716797 0.654785,0 1.032715,-0.41748047 0.382324,-0.41748044 0.382324,-1.13818364 V -4.921875 h 0.808594 V 0 h -0.808594 v -0.75585937 q -0.294433,0.44824218 -0.685547,0.66796875 -0.386719,0.21533203 -0.900879,0.21533203 -0.848144,0 -1.287597,-0.52734375 -0.439453,-0.52734375 -0.439453,-1.54248046 z m 2.034668,-3.0981445 z" /><path
           id="path323"
           style=""
           d="M 33.964453,-2.9707031 V 0 h -0.808594 v -2.9443359 q 0,-0.6987305 -0.272461,-1.0458985 -0.272461,-0.3471679 -0.817383,-0.3471679 -0.654785,0 -1.032715,0.4174804 -0.377929,0.4174805 -0.377929,1.1381836 V 0 h -0.812989 v -4.921875 h 0.812989 v 0.7646484 q 0.290039,-0.4438476 0.681152,-0.6635742 0.395508,-0.2197265 0.909668,-0.2197265 0.848145,0 1.283203,0.5273437 0.435059,0.5229492 0.435059,1.5424805 z" /><path
           id="path325"
           style=""
           d="m 38.808914,-4.1748047 v -2.6630859 h 0.808594 V 0 h -0.808594 v -0.73828125 q -0.254883,0.43945312 -0.645996,0.65478516 -0.386719,0.2109375 -0.931641,0.2109375 -0.892089,0 -1.454589,-0.71191407 -0.558106,-0.71191404 -0.558106,-1.87207034 0,-1.1601562 0.558106,-1.8720703 0.5625,-0.711914 1.454589,-0.711914 0.544922,0 0.931641,0.215332 0.391113,0.2109375 0.645996,0.6503906 z m -2.755371,1.7182617 q 0,0.8920899 0.364746,1.4018555 0.369141,0.50537109 1.010742,0.50537109 0.641602,0 1.010743,-0.50537109 0.36914,-0.5097656 0.36914,-1.4018555 0,-0.8920898 -0.36914,-1.3974609 -0.369141,-0.5097656 -1.010743,-0.5097656 -0.641601,0 -1.010742,0.5097656 -0.364746,0.5053711 -0.364746,1.3974609 z" /><path
           id="path327"
           style=""
           d="m 44.413841,-4.7768555 v 0.7646485 q -0.342773,-0.1757813 -0.711914,-0.2636719 -0.36914,-0.087891 -0.764648,-0.087891 -0.602051,0 -0.905274,0.1845703 -0.298828,0.1845703 -0.298828,0.5537109 0,0.28125 0.215332,0.4438477 0.215332,0.1582031 0.865723,0.3032226 l 0.276855,0.061523 q 0.861328,0.1845703 1.22168,0.5229492 0.364746,0.3339844 0.364746,0.9360351 0,0.68554692 -0.544922,1.08544926 -0.540527,0.39990235 -1.489746,0.39990235 -0.395508,0 -0.826172,-0.07910157 -0.426269,-0.07470703 -0.900879,-0.22851562 V -1.0151367 q 0.448243,0.23291014 0.883301,0.35156248 0.435059,0.11425781 0.861328,0.11425781 0.571289,0 0.878907,-0.19335937 0.307617,-0.19775391 0.307617,-0.55371092 0,-0.3295899 -0.224121,-0.5053711 -0.219727,-0.1757813 -0.971192,-0.3383789 l -0.28125,-0.065918 q -0.751465,-0.1582031 -1.085449,-0.4833984 -0.333984,-0.3295899 -0.333984,-0.9008789 0,-0.694336 0.492187,-1.0722657 0.492188,-0.3779296 1.397461,-0.3779296 0.448242,0 0.84375,0.065918 0.395508,0.065918 0.729492,0.1977539 z" /></g><g
         id="text138"
         style="font-variant:normal;font-weight:bold;font-size:12px;font-family:'DejaVu Sans';-inkscape-font-specification:DejaVuSans-Bold;writing-mode:lr-tb;fill:#404040;fill-opacity:1;fill-rule:nonzero;stroke:none"
         transform="matrix(1,0,0,-1,210.16336,65.338453)"
         aria-label="4 × 4
Block"><path
           id="path330"
           style=""
           d="m 4.4179687,-6.890625 -2.4726562,3.6621094 h 2.4726562 z m -0.375,-1.8574219 h 2.5078125 v 5.5195313 H 7.7988281 V -1.59375 H 6.5507812 V 0 H 4.4179687 V -1.59375 H 0.5390625 v -1.9335938 z" /><path
           id="path332"
           style=""
           d="m 21.070687,-6.2988281 -2.542968,2.5429687 2.542968,2.53125 -0.984375,0.98437502 -2.542968,-2.53125002 -2.542969,2.53125002 -0.984375,-0.98437502 2.542969,-2.53125 -2.542969,-2.5429687 0.984375,-0.984375 2.542969,2.5429687 2.542968,-2.5429687 z" /><path
           id="path334"
           style=""
           d="m 31.153969,-6.890625 -2.472656,3.6621094 h 2.472656 z m -0.375,-1.8574219 h 2.507812 v 5.5195313 h 1.248047 V -1.59375 H 33.286781 V 0 h -2.132812 v -1.59375 h -3.878906 v -1.9335938 z" /><path
           id="path336"
           style=""
           d="m 4.6054687,9.6386719 q 0.5332032,0 0.8085938,-0.234375 0.2753906,-0.234375 0.2753906,-0.6914063 0,-0.4511718 -0.2753906,-0.6855468 Q 5.1386719,7.7871094 4.6054687,7.7871094 H 3.3574219 v 1.8515625 z m 0.076172,3.8261721 q 0.6796875,0 1.0195313,-0.28711 0.3457031,-0.287109 0.3457031,-0.867187 0,-0.568359 -0.3398438,-0.849609 -0.3398437,-0.28711 -1.0253906,-0.28711 H 3.3574219 v 2.291016 z m 2.0976563,-3.146485 q 0.7265625,0.210938 1.125,0.779297 0.3984375,0.56836 0.3984375,1.394532 0,1.265625 -0.8554688,1.886718 Q 6.5917969,15 4.8457031,15 H 1.1015625 V 6.2519531 h 3.3867187 q 1.8222657,0 2.6367188,0.5507813 0.8203125,0.5507812 0.8203125,1.7636719 0,0.6386718 -0.2988281,1.0898437 -0.2988282,0.445313 -0.8671875,0.662109 z" /><path
           id="path338"
           style=""
           d="m 10.151813,5.8828125 h 2.097656 V 15 h -2.097656 z" /><path
           id="path340"
           style=""
           d="m 17.37886,9.7792969 q -0.697266,0 -1.066407,0.5039061 -0.363281,0.498047 -0.363281,1.441406 0,0.94336 0.363281,1.447266 0.369141,0.498047 1.066407,0.498047 0.685546,0 1.048828,-0.498047 0.363281,-0.503906 0.363281,-1.447266 0,-0.943359 -0.363281,-1.441406 Q 18.064406,9.7792969 17.37886,9.7792969 Z m 0,-1.5 q 1.693359,0 2.642578,0.9140625 0.955078,0.9140626 0.955078,2.5312496 0,1.617188 -0.955078,2.53125 -0.949219,0.914063 -2.642578,0.914063 -1.699219,0 -2.660157,-0.914063 -0.955078,-0.914062 -0.955078,-2.53125 0,-1.617187 0.955078,-2.5312496 0.960938,-0.9140625 2.660157,-0.9140625 z" /><path
           id="path342"
           style=""
           d="m 27.802547,8.6425781 v 1.7109379 q -0.427734,-0.292969 -0.861328,-0.4335941 -0.427734,-0.140625 -0.890625,-0.140625 -0.878906,0 -1.371093,0.5156251 -0.486329,0.509766 -0.486329,1.429687 0,0.919922 0.486329,1.435547 0.492187,0.509766 1.371093,0.509766 0.492188,0 0.931641,-0.146484 0.445312,-0.146485 0.820312,-0.433594 v 1.716797 q -0.492187,0.18164 -1.001953,0.269531 -0.503906,0.09375 -1.013672,0.09375 -1.77539,0 -2.777343,-0.908203 -1.001953,-0.914063 -1.001953,-2.53711 0,-1.623046 1.001953,-2.5312496 1.001953,-0.9140625 2.777343,-0.9140625 0.515625,0 1.013672,0.09375 0.503907,0.087891 1.001953,0.2695312 z" /><path
           id="path344"
           style=""
           d="m 29.603813,5.8828125 h 2.097656 V 10.845703 L 34.115532,8.4375 h 2.4375 L 33.347954,11.449219 36.804985,15 H 34.262016 L 31.701469,12.263672 V 15 h -2.097656 z" /></g></g></g></svg>