<?xml version="1.0" encoding="UTF-8" standalone="no"?>
<svg
   xmlns:dc="http://purl.org/dc/elements/1.1/"
   xmlns:cc="http://creativecommons.org/ns#"
   xmlns:rdf="http://www.w3.org/1999/02/22-rdf-syntax-ns#"
   xmlns:svg="http://www.w3.org/2000/svg"
   xmlns="http://www.w3.org/2000/svg"
   viewBox="0 0 60.829346 22.196283"
   height="22.196283"
   width="60.829346"
   xml:space="preserve"
   id="svg2"
   version="1.1"><metadata
     id="metadata8"><rdf:RDF><cc:Work
         rdf:about=""><dc:format>image/svg+xml</dc:format><dc:type
           rdf:resource="http://purl.org/dc/dcmitype/StillImage" /></cc:Work></rdf:RDF></metadata><defs
     id="defs6" /><g
     transform="matrix(1.3333333,0,0,-1.3333333,0,22.196284)"
     id="g10"><g
       id="g12"><path
         id="path14"
         style="fill:#ffffff;fill-opacity:1;fill-rule:evenodd;stroke:none"
         d="m 4.902,4.483 h 8.485" /><g
         transform="matrix(1,0,0,0.629186,0,16.647213)"
         id="g16"><path
           id="path18"
           style="fill:none;stroke:#000000;stroke-width:0.37799501;stroke-linecap:butt;stroke-linejoin:miter;stroke-miterlimit:10;stroke-dasharray:none;stroke-opacity:1"
           d="M 0,-19.575 H 13.484" /></g><path
         id="path20"
         style="fill:#ffffff;fill-opacity:1;fill-rule:evenodd;stroke:none"
         d="m 36.016,4.483 h 8.488" /><g
         transform="translate(0,16.647213)"
         id="g22"><path
           id="path24"
           style="fill:none;stroke:#000000;stroke-width:0.29982999;stroke-linecap:butt;stroke-linejoin:miter;stroke-miterlimit:10;stroke-dasharray:none;stroke-opacity:1"
           d="m 35.984,-12.312 h 8.489" /></g><g
         transform="translate(0,16.647213)"
         id="g26"><path
           id="path28"
           style="fill:#ffffff;fill-opacity:1;fill-rule:evenodd;stroke:#000000;stroke-width:0.29982999;stroke-linecap:butt;stroke-linejoin:miter;stroke-miterlimit:10;stroke-dasharray:none;stroke-opacity:1"
           d="m 13.336,-12.152 v 4.343" /></g><g
         transform="translate(0,16.647213)"
         id="g30"><path
           id="path32"
           style="fill:#ffffff;fill-opacity:1;fill-rule:evenodd;stroke:#000000;stroke-width:0.29982999;stroke-linecap:butt;stroke-linejoin:miter;stroke-miterlimit:10;stroke-dasharray:none;stroke-opacity:1"
           d="m 13.336,-12.152 v -4.215" /></g><g
         transform="translate(0,16.647213)"
         id="g34"><path
           id="path36"
           style="fill:#ffffff;fill-opacity:1;fill-rule:evenodd;stroke:#000000;stroke-width:0.29982999;stroke-linecap:butt;stroke-linejoin:miter;stroke-miterlimit:10;stroke-dasharray:none;stroke-opacity:1"
           d="M 13.336,-16.496 H 36.074" /></g><g
         transform="translate(0,16.647213)"
         id="g38"><path
           id="path40"
           style="fill:#ffffff;fill-opacity:1;fill-rule:evenodd;stroke:#000000;stroke-width:0.29982999;stroke-linecap:butt;stroke-linejoin:miter;stroke-miterlimit:10;stroke-dasharray:none;stroke-opacity:1"
           d="M 13.336,-7.938 H 36.074" /></g><g
         transform="translate(0,16.647213)"
         id="g42"><path
           id="path44"
           style="fill:none;stroke:#000000;stroke-width:0.29982999;stroke-linecap:butt;stroke-linejoin:miter;stroke-miterlimit:10;stroke-dasharray:none;stroke-opacity:1"
           d="m 35.918,-7.938 v -8.558" /></g><path
         id="path46"
         style="fill:#000000;fill-opacity:1;fill-rule:evenodd;stroke:none"
         d="m 32.77,8.694 h 3.023 V 0.206 H 32.77 Z" /><g
         transform="matrix(1,0,0,0.9775,0,16.647213)"
         id="g48"><path
           id="path50"
           style="fill:none;stroke:#000000;stroke-width:0.30326101;stroke-linecap:butt;stroke-linejoin:miter;stroke-miterlimit:10;stroke-dasharray:none;stroke-opacity:1"
           d="M 17.832,-12.6 H 13.488" /></g><path
         id="path52"
         style="fill:#ffffff;fill-opacity:1;fill-rule:evenodd;stroke:none"
         d="M 21.516,10.96 H 45.621" /><path
         id="path54"
         style="fill:#ffffff;fill-opacity:1;fill-rule:evenodd;stroke:none"
         d="m 29.871,4.339 h 3.012" /><g
         transform="matrix(1,0,0,-0.987751,0,16.647213)"
         id="g56"><path
           id="path58"
           style="fill:none;stroke:#000000;stroke-width:0.31935799;stroke-linecap:butt;stroke-linejoin:miter;stroke-miterlimit:10;stroke-dasharray:none;stroke-opacity:1"
           d="m 29.867,12.461 h 3.016" /></g><g
         transform="matrix(1,0,0,-0.987751,0,16.647213)"
         id="g60"><path
           id="path62"
           style="fill:none;stroke:#000000;stroke-width:0.31935799;stroke-linecap:butt;stroke-linejoin:miter;stroke-miterlimit:10;stroke-dasharray:none;stroke-opacity:1"
           d="M 17.82,12.461 V 9.448" /></g><g
         transform="matrix(1,0,0,-0.987751,0,16.647213)"
         id="g64"><path
           id="path66"
           style="fill:#ffffff;fill-opacity:1;fill-rule:evenodd;stroke:#000000;stroke-width:0.31935799;stroke-linecap:butt;stroke-linejoin:miter;stroke-miterlimit:10;stroke-dasharray:none;stroke-opacity:1"
           d="m 17.82,9.448 h 3.012" /></g><g
         transform="matrix(1,0,0,-0.987751,0,16.647213)"
         id="g68"><path
           id="path70"
           style="fill:#ffffff;fill-opacity:1;fill-rule:evenodd;stroke:#000000;stroke-width:0.31935799;stroke-linecap:butt;stroke-linejoin:miter;stroke-miterlimit:10;stroke-dasharray:none;stroke-opacity:1"
           d="m 20.832,9.448 v 6.027" /></g><g
         transform="matrix(1,0,0,-0.987751,0,16.647213)"
         id="g72"><path
           id="path74"
           style="fill:#ffffff;fill-opacity:1;fill-rule:evenodd;stroke:#000000;stroke-width:0.31935799;stroke-linecap:butt;stroke-linejoin:miter;stroke-miterlimit:10;stroke-dasharray:none;stroke-opacity:1"
           d="m 20.832,15.475 h 3.016" /></g><g
         transform="matrix(1,0,0,-0.987751,0,16.647213)"
         id="g76"><path
           id="path78"
           style="fill:#ffffff;fill-opacity:1;fill-rule:evenodd;stroke:#000000;stroke-width:0.31935799;stroke-linecap:butt;stroke-linejoin:miter;stroke-miterlimit:10;stroke-dasharray:none;stroke-opacity:1"
           d="M 23.848,15.475 V 9.448" /></g><g
         transform="matrix(1,0,0,-0.987751,0,16.647213)"
         id="g80"><path
           id="path82"
           style="fill:#ffffff;fill-opacity:1;fill-rule:evenodd;stroke:#000000;stroke-width:0.31935799;stroke-linecap:butt;stroke-linejoin:miter;stroke-miterlimit:10;stroke-dasharray:none;stroke-opacity:1"
           d="m 23.848,9.448 h 3.011" /></g><path
         id="path84"
         style="fill:#ffffff;fill-opacity:1;fill-rule:evenodd;stroke:#000000;stroke-width:0.31739599;stroke-linecap:butt;stroke-linejoin:miter;stroke-miterlimit:10;stroke-dasharray:none;stroke-opacity:1"
         d="M 26.859,7.315 V 1.362" /><path
         id="path86"
         style="fill:#ffffff;fill-opacity:1;fill-rule:evenodd;stroke:none"
         d="m 26.859,1.362 h 3.012" /><g
         transform="matrix(1,0,0,-0.987751,0,16.647213)"
         id="g88"><path
           id="path90"
           style="fill:none;stroke:#000000;stroke-width:0.31935799;stroke-linecap:butt;stroke-linejoin:miter;stroke-miterlimit:10;stroke-dasharray:none;stroke-opacity:1"
           d="m 26.859,15.475 h 3.008" /></g><g
         transform="matrix(1,0,0,-0.987751,0,16.647213)"
         id="g92"><path
           id="path94"
           style="fill:none;stroke:#000000;stroke-width:0.31935799;stroke-linecap:butt;stroke-linejoin:miter;stroke-miterlimit:10;stroke-dasharray:none;stroke-opacity:1"
           d="M 29.867,15.475 V 12.461" /></g><path
         id="path96"
         style="fill:#000000;fill-opacity:1;fill-rule:evenodd;stroke:none"
         d="M 11.656,4.327 6.008,3.065 v 2.528" /><g
         transform="matrix(1,0,0,0.300693,0,16.647213)"
         id="g98"><path
           id="path100"
           style="fill:none;stroke:#000000;stroke-width:0.546781;stroke-linecap:butt;stroke-linejoin:miter;stroke-miterlimit:10;stroke-dasharray:none;stroke-opacity:1"
           d="M 10.09,-18.967 H 38.312" /></g><path
         id="path102"
         style="fill:#000000;fill-opacity:1;fill-rule:evenodd;stroke:none"
         d="M 43.918,10.956 37.738,9.69 v 2.531" /><g
         id="text106"
         style="font-variant:normal;font-weight:normal;font-size:8px;font-family:cmmi10;-inkscape-font-specification:Cmmi10;writing-mode:lr-tb;fill:#000000;fill-opacity:1;fill-rule:nonzero;stroke:none"
         transform="matrix(1,0,0,-1,20.317857,13.112057)"
         aria-label="u"><path
           id="path120"
           style=""
           d="m 0.84765625,-0.87109375 q 0,-0.26171875 0.0703125,-0.53515625 0.0703125,-0.2773437 0.19531245,-0.6132813 0.1289063,-0.3398437 0.2226563,-0.5898437 0.1054687,-0.2929688 0.1054687,-0.4804688 0,-0.2382812 -0.1757812,-0.2382812 -0.31640625,0 -0.5234375,0.328125 -0.203125,0.3242187 -0.30078125,0.7265625 -0.015625,0.050781 -0.0664063,0.050781 H 0.28125 q -0.0664063,0 -0.0664063,-0.074219 v -0.023437 Q 0.34375,-2.796875 0.609375,-3.1640625 0.875,-3.5351563 1.28125,-3.5351563 q 0.2851562,0 0.4804687,0.1875 0.1992188,0.1875 0.1992188,0.4765625 0,0.1484375 -0.066406,0.3125 -0.035156,0.097656 -0.1601562,0.4257813 -0.125,0.328125 -0.1914063,0.5429688 -0.066406,0.2148437 -0.109375,0.421875 -0.042969,0.2070312 -0.042969,0.41406245 0,0.265625 0.1132812,0.44921875 0.1132813,0.18359375 0.3671875,0.18359375 0.5117188,0 0.8984376,-0.6328125 0.00781,-0.03125 0.011719,-0.0585938 0.00781,-0.03125 0.011719,-0.0585938 L 3.3671875,-3.1914063 q 0.027344,-0.1054687 0.125,-0.1796875 0.097656,-0.078125 0.2109375,-0.078125 0.097656,0 0.1679688,0.0625 0.074219,0.0625 0.074219,0.1640625 0,0.046875 -0.00781,0.0625 l -0.578125,2.30468755 q -0.054687,0.23828125 -0.054687,0.390625 0,0.34375 0.2304688,0.34375 0.2578125,0 0.3828125,-0.31640625 0.1289062,-0.3203125 0.2187499,-0.7382812 0.015625,-0.046875 0.0625,-0.046875 h 0.097656 q 0.03125,0 0.050781,0.027344 0.019531,0.027344 0.019531,0.050781 Q 4.28125,-0.80078125 4.1992187,-0.5546875 4.1210937,-0.30859375 3.9492188,-0.109375 3.7773438,0.08984375 3.5195313,0.08984375 3.265625,0.08984375 3.0625,-0.046875 2.8632813,-0.1875 2.7929688,-0.42578125 q -0.1835938,0.234375 -0.4257813,0.375 -0.2421875,0.140625 -0.5117188,0.140625 -0.4609375,0 -0.734375,-0.25 -0.27343745,-0.25390625 -0.27343745,-0.7109375 z" /></g><g
         id="text110"
         style="font-variant:normal;font-weight:normal;font-size:4.16003418px;font-family:cmmi10;-inkscape-font-specification:Cmmi10;writing-mode:lr-tb;fill:#000000;fill-opacity:1;fill-rule:nonzero;stroke:none"
         transform="matrix(1,0,0,-1,24.895982,11.512057)"
         aria-label="M"><path
           id="path123"
           style=""
           d="m 0.21125174,0 q -0.0406253,0 -0.0406253,-0.0548442 0.002031,-0.01015633 0.008125,-0.03453153 0.006094,-0.0243752 0.0162501,-0.04062534 0.0101563,-0.0162501 0.030469,-0.0162501 0.39609701,0 0.46109754,-0.25390834 L 1.2268851,-2.5715836 q 0.00812,-0.040625 0.00812,-0.056876 0,-0.044688 -0.04875,-0.050782 -0.079219,-0.01625 -0.30062742,-0.01625 -0.0406253,0 -0.0406253,-0.054844 0.002031,-0.010156 0.008125,-0.034531 0.006094,-0.026407 0.0162501,-0.040625 0.0121876,-0.01625 0.0284377,-0.01625 H 1.6311072 q 0.046719,0 0.052813,0.046719 L 2.0089228,-0.41234714 3.5242477,-2.795023 q 0.028438,-0.046719 0.079219,-0.046719 h 0.7068808 q 0.040625,0 0.040625,0.054844 -0.00203,0.010156 -0.00813,0.036563 -0.00609,0.024375 -0.018281,0.040625 -0.010156,0.014219 -0.026407,0.014219 -0.2539083,0 -0.3534404,0.028438 -0.054844,0.018281 -0.079219,0.113751 l -0.5707859,2.28314373 q -0.00813,0.0406253 -0.00813,0.0589067 0,0.0162501 0.00406,0.0284377 0.00609,0.0101563 0.014219,0.0142189 0.010156,0.002031 0.030469,0.006094 0.079219,0.0162501 0.3006275,0.0162501 0.040625,0 0.040625,0.0548442 -0.014219,0.05890673 -0.022344,0.07515687 Q 3.6461237,0 3.6075296,0 H 2.520802 q -0.040625,0 -0.040625,-0.0548442 0.00203,-0.01015633 0.00813,-0.03453153 0.00609,-0.02640647 0.01625,-0.04062534 0.012188,-0.0162501 0.028438,-0.0162501 0.2539083,0 0.3534404,-0.0284377 0.054844,-0.0182814 0.079219,-0.11171966 L 3.564873,-2.6954909 1.8850155,-0.04671913 Q 1.8606403,0 1.8017336,0 1.7489206,0 1.7428268,-0.04671913 L 1.3893864,-2.6629906 0.81860048,-0.38187814 q -0.004063,0.0101563 -0.006094,0.0264065 -0.002031,0.0142189 -0.006094,0.0345315 0,0.10765714 0.0934383,0.14218867 0.0954695,0.0325003 0.23156436,0.0325003 0.042657,0 0.042657,0.0548442 -0.014219,0.0548442 -0.024375,0.0731256 Q 1.1415719,0 1.1029778,0 Z" /></g><g
         id="text114"
         style="font-variant:normal;font-weight:normal;font-size:8px;font-family:cmmi10;-inkscape-font-specification:Cmmi10;writing-mode:lr-tb;fill:#000000;fill-opacity:1;fill-rule:nonzero;stroke:none"
         transform="matrix(1,0,0,-1,1.273057,8.775387)"
         aria-label="i"><path
           id="path126"
           style=""
           d="m 0.625,-0.57421875 q 0,-0.1484375 0.0625,-0.3125 L 1.3359375,-2.609375 q 0.1054687,-0.2929688 0.1054687,-0.4804688 0,-0.2382812 -0.1757812,-0.2382812 -0.31640625,0 -0.5234375,0.328125 -0.203125,0.3242187 -0.30078125,0.7265625 -0.015625,0.050781 -0.0664063,0.050781 H 0.28125 q -0.0664063,0 -0.0664063,-0.074219 v -0.023437 Q 0.34375,-2.796875 0.609375,-3.1640625 0.875,-3.5351563 1.28125,-3.5351563 q 0.2851562,0 0.4804687,0.1875 0.1992188,0.1875 0.1992188,0.4765625 0,0.1484375 -0.066406,0.3125 l -0.6484375,1.71875005 q -0.109375,0.265625 -0.109375,0.48046875 0,0.23828125 0.1835938,0.23828125 0.3125,0 0.5195312,-0.33203125 0.2109376,-0.3359375 0.2968751,-0.7226562 0.015625,-0.046875 0.0625,-0.046875 h 0.097656 q 0.03125,0 0.050781,0.023437 0.019531,0.019531 0.019531,0.046875 0,0.00781 -0.00781,0.023437 -0.109375,0.45312495 -0.3828125,0.83593745 -0.2695313,0.3828125 -0.671875,0.3828125 -0.28125,0 -0.48046875,-0.19140625 Q 0.625,-0.296875 0.625,-0.57421875 Z M 1.5273437,-4.8476562 q 0,-0.1679688 0.140625,-0.3046875 0.140625,-0.1367188 0.3085938,-0.1367188 0.1367188,0 0.2226563,0.085937 0.089844,0.082031 0.089844,0.2109375 0,0.1796875 -0.1445312,0.3164063 -0.140625,0.1328125 -0.3125001,0.1328125 -0.1289062,0 -0.21875,-0.085937 -0.085937,-0.089844 -0.085937,-0.21875 z" /></g><g
         id="text118"
         style="font-variant:normal;font-weight:normal;font-size:4.16003418px;font-family:cmmi10;-inkscape-font-specification:Cmmi10;writing-mode:lr-tb;fill:#000000;fill-opacity:1;fill-rule:nonzero;stroke:none"
         transform="matrix(1,0,0,-1,4.023057,7.175387)"
         aria-label="M"><path
           id="path129"
           style=""
           d="m 0.21125174,0 q -0.0406253,0 -0.0406253,-0.0548442 0.002031,-0.01015633 0.008125,-0.03453153 0.006094,-0.0243752 0.0162501,-0.04062534 0.0101563,-0.0162501 0.030469,-0.0162501 0.39609701,0 0.46109754,-0.25390834 L 1.2268851,-2.5715836 q 0.00812,-0.040625 0.00812,-0.056876 0,-0.044688 -0.04875,-0.050782 -0.079219,-0.01625 -0.30062742,-0.01625 -0.0406253,0 -0.0406253,-0.054844 0.002031,-0.010156 0.008125,-0.034531 0.006094,-0.026407 0.0162501,-0.040625 0.0121876,-0.01625 0.0284377,-0.01625 H 1.6311072 q 0.046719,0 0.052813,0.046719 L 2.0089228,-0.41234714 3.5242477,-2.795023 q 0.028438,-0.046719 0.079219,-0.046719 h 0.7068808 q 0.040625,0 0.040625,0.054844 -0.00203,0.010156 -0.00813,0.036563 -0.00609,0.024375 -0.018281,0.040625 -0.010156,0.014219 -0.026407,0.014219 -0.2539083,0 -0.3534404,0.028438 -0.054844,0.018281 -0.079219,0.113751 l -0.5707859,2.28314373 q -0.00813,0.0406253 -0.00813,0.0589067 0,0.0162501 0.00406,0.0284377 0.00609,0.0101563 0.014219,0.0142189 0.010156,0.002031 0.030469,0.006094 0.079219,0.0162501 0.3006275,0.0162501 0.040625,0 0.040625,0.0548442 -0.014219,0.05890673 -0.022344,0.07515687 Q 3.6461237,0 3.6075296,0 H 2.520802 q -0.040625,0 -0.040625,-0.0548442 0.00203,-0.01015633 0.00813,-0.03453153 0.00609,-0.02640647 0.01625,-0.04062534 0.012188,-0.0162501 0.028438,-0.0162501 0.2539083,0 0.3534404,-0.0284377 0.054844,-0.0182814 0.079219,-0.11171966 L 3.564873,-2.6954909 1.8850155,-0.04671913 Q 1.8606403,0 1.8017336,0 1.7489206,0 1.7428268,-0.04671913 L 1.3893864,-2.6629906 0.81860048,-0.38187814 q -0.004063,0.0101563 -0.006094,0.0264065 -0.002031,0.0142189 -0.006094,0.0345315 0,0.10765714 0.0934383,0.14218867 0.0954695,0.0325003 0.23156436,0.0325003 0.042657,0 0.042657,0.0548442 -0.014219,0.0548442 -0.024375,0.0731256 Q 1.1415719,0 1.1029778,0 Z" /></g></g></g></svg>